G04 EAGLE Gerber RS-274X export*
G75*
%MOMM*%
%FSLAX34Y34*%
%LPD*%
%INBottom Copper*%
%IPPOS*%
%AMOC8*
5,1,8,0,0,1.08239X$1,22.5*%
G01*
%ADD10P,1.732040X8X202.500000*%
%ADD11C,1.600200*%
%ADD12C,1.422400*%
%ADD13C,1.422400*%
%ADD14P,1.539592X8X202.500000*%
%ADD15C,1.600000*%
%ADD16C,1.450000*%
%ADD17C,1.800000*%
%ADD18C,2.500000*%
%ADD19C,1.108000*%
%ADD20C,0.152400*%
%ADD21C,0.609600*%
%ADD22C,0.756400*%


D10*
X721360Y510540D03*
D11*
X756920Y510540D03*
D12*
X644652Y566420D02*
X630428Y566420D01*
X630428Y591820D02*
X644652Y591820D01*
D13*
X243840Y30480D03*
D14*
X243840Y55880D03*
X218440Y30480D03*
X218440Y55880D03*
X193040Y30480D03*
X193040Y55880D03*
X167640Y30480D03*
X167640Y55880D03*
X142240Y30480D03*
X142240Y55880D03*
D15*
X886370Y208260D03*
X866070Y208260D03*
X845770Y208260D03*
X876220Y233660D03*
X855920Y233660D03*
X835620Y233660D03*
D16*
X952520Y137160D03*
X840720Y137160D03*
X952520Y121760D03*
X840720Y121760D03*
D17*
X957520Y259060D03*
X932120Y259060D03*
X861020Y259060D03*
X835620Y259060D03*
D18*
X977270Y24160D03*
X815970Y24160D03*
D12*
X490220Y511048D02*
X490220Y525272D01*
X464820Y525272D02*
X464820Y511048D01*
X850138Y455676D02*
X864362Y455676D01*
X864362Y481076D02*
X850138Y481076D01*
D16*
X32150Y47320D03*
X82150Y47320D03*
D19*
X22150Y25860D02*
X22150Y14780D01*
X92150Y14780D02*
X92150Y25860D01*
D20*
X633984Y591312D02*
X637032Y591312D01*
X637540Y591820D01*
D21*
X532892Y454406D02*
X529590Y454406D01*
X465836Y518160D01*
D20*
X464820Y518160D01*
D21*
X180340Y43180D02*
X193040Y30480D01*
X180340Y43180D02*
X155956Y43180D01*
X143256Y30480D01*
D20*
X142240Y30480D01*
D22*
X532892Y454406D03*
X180594Y205232D03*
D21*
X205740Y43180D02*
X193040Y30480D01*
X205740Y43180D02*
X205740Y74930D01*
X180594Y100076D01*
X180594Y205232D01*
D22*
X507238Y489966D03*
D21*
X532892Y464312D01*
X532892Y454406D01*
X193548Y179832D02*
X193548Y100584D01*
X193548Y179832D02*
X193548Y196596D01*
X193548Y100584D02*
X231394Y62738D01*
X231394Y42926D01*
X243840Y30480D01*
X195072Y179832D02*
X193548Y179832D01*
X153924Y329692D02*
X153924Y352044D01*
X135636Y311658D02*
X203708Y243586D01*
X203708Y206756D01*
X193548Y196596D01*
X135636Y311658D02*
X119634Y311658D01*
X109728Y321564D01*
X489458Y518160D02*
X490220Y518160D01*
X489458Y518160D02*
X470154Y537464D01*
X431800Y537464D02*
X329438Y537464D01*
X431800Y537464D02*
X470154Y537464D01*
X329438Y537464D02*
X153924Y361950D01*
X153924Y352044D01*
D22*
X193548Y196596D03*
X195072Y179832D03*
X153924Y352044D03*
X109728Y321564D03*
D21*
X145796Y321564D02*
X153924Y329692D01*
X145796Y321564D02*
X109728Y321564D01*
D22*
X431800Y537464D03*
D21*
X756920Y510540D02*
X802386Y510540D01*
X857250Y455676D01*
X579374Y312674D02*
X469392Y312674D01*
X704088Y437388D02*
X755904Y489204D01*
X704088Y437388D02*
X579374Y312674D01*
X755904Y489204D02*
X755904Y510540D01*
X756920Y510540D01*
D22*
X469392Y312674D03*
X704088Y437388D03*
D21*
X919099Y212979D02*
X919226Y212852D01*
X919099Y212979D02*
X843280Y137160D01*
X840720Y137160D01*
D22*
X919226Y212852D03*
D21*
X898652Y178054D02*
X898652Y172720D01*
X949612Y121760D02*
X952520Y121760D01*
X949612Y121760D02*
X898652Y172720D01*
D22*
X898652Y178054D03*
D20*
X628904Y376936D02*
X628904Y411480D01*
X721360Y508254D02*
X721360Y510540D01*
X721360Y508254D02*
X643128Y430022D01*
X643128Y429768D02*
X643128Y425704D01*
X628904Y411480D01*
X643128Y429768D02*
X643128Y430022D01*
D22*
X628904Y376936D03*
X643128Y429768D03*
D21*
X326136Y339852D02*
X295656Y339852D01*
X326136Y339852D02*
X382524Y339852D01*
X391668Y348996D01*
X391668Y349504D02*
X487172Y445008D01*
X391668Y349504D02*
X391668Y348996D01*
X487172Y445008D02*
X537972Y445008D01*
X581152Y488188D01*
D22*
X295656Y339852D03*
X326136Y339852D03*
X391668Y348996D03*
X595122Y488188D03*
D21*
X581152Y488188D01*
D22*
X435610Y329438D03*
X467868Y325882D03*
D21*
X464058Y329438D02*
X435610Y329438D01*
X467614Y325882D02*
X467868Y325882D01*
X467614Y325882D02*
X464058Y329438D01*
D20*
X818388Y219456D02*
X893064Y219456D01*
X931164Y257556D01*
X932120Y259060D01*
D22*
X818388Y219456D03*
D20*
X801624Y143256D02*
X693420Y143256D01*
X801624Y143256D02*
X865632Y207264D01*
X866070Y208260D01*
X693420Y143256D02*
X693420Y129540D01*
D22*
X693420Y143256D03*
X693420Y129540D03*
D20*
X880872Y207264D02*
X885444Y207264D01*
X880872Y207264D02*
X801624Y128016D01*
X722376Y128016D01*
X885444Y207264D02*
X886370Y208260D01*
D22*
X722376Y128016D03*
D20*
X722376Y248412D02*
X829056Y248412D01*
X832104Y245364D01*
X864108Y245364D01*
X874776Y234696D01*
X876220Y233660D01*
D22*
X722376Y248412D03*
D20*
X684276Y149352D02*
X786384Y149352D01*
X844296Y207264D01*
X845770Y208260D01*
X681228Y146304D02*
X681228Y129540D01*
X681228Y146304D02*
X684276Y149352D01*
D22*
X684276Y149352D03*
X681228Y129540D03*
D20*
X750824Y164084D02*
X414020Y164084D01*
X397764Y147828D01*
D22*
X750824Y164084D03*
X397764Y147828D03*
D20*
X752856Y156972D02*
X762000Y166116D01*
X752856Y156972D02*
X501396Y156972D01*
D22*
X762000Y166116D03*
X501396Y156972D03*
D20*
X252984Y295656D02*
X222504Y295656D01*
X252984Y295656D02*
X368808Y179832D01*
X672084Y179832D01*
D22*
X222504Y295656D03*
X672084Y179832D03*
D20*
X576072Y284988D02*
X272796Y284988D01*
X576072Y284988D02*
X684276Y176784D01*
D22*
X272796Y284988D03*
X684276Y176784D03*
D20*
X568452Y301752D02*
X173736Y301752D01*
X568452Y301752D02*
X693420Y176784D01*
D22*
X173736Y301752D03*
X693420Y176784D03*
D20*
X126492Y333756D02*
X126492Y361188D01*
X196596Y431292D01*
X196596Y499872D01*
X192024Y504444D01*
D22*
X126492Y333756D03*
X192024Y504444D03*
D20*
X134112Y336804D02*
X140208Y330708D01*
X134112Y336804D02*
X134112Y364236D01*
X199644Y429768D01*
X199644Y510540D01*
D22*
X140208Y330708D03*
X199644Y510540D03*
D20*
X195072Y239268D02*
X163068Y207264D01*
D22*
X163068Y207264D03*
X195072Y239268D03*
D20*
X280416Y316992D02*
X371856Y316992D01*
X483108Y428244D01*
D22*
X280416Y316992D03*
X483108Y428244D03*
D20*
X140208Y365760D02*
X140208Y339852D01*
X140208Y365760D02*
X230124Y455676D01*
X230124Y522732D01*
D22*
X140208Y339852D03*
X230124Y522732D03*
D20*
X190500Y434340D02*
X68580Y312420D01*
D22*
X68580Y312420D03*
X190500Y434340D03*
M02*
