M48
;GenerationSoftware,Autodesk,EAGLE,9.3.0*%
;CreationDate,2019-10-12T17:13:41Z*%
FMAT,2
ICI,OFF
METRIC,TZ,000.000
T11C0.350
T10C0.600
T9C0.813
T8C0.850
T7C0.890
T6C0.914
T5C1.020
T4C1.150
T3C1.570
T2C3.000
T1C3.250
%
G90
M71
T1
X96012Y5586
X83312Y5586
T2
X6096Y62814
X44348Y4953
X93904Y62687
T3
X97727Y2416
X81597Y2416
T4
X93212Y25906
X95752Y25906
X86102Y25906
X83562Y25906
T5
X86607Y20826
X87622Y23366
X84577Y20826
X88637Y20826
X85592Y23366
X83562Y23366
T6
X19304Y3048
X19304Y5588
X16764Y5588
X14224Y3048
X16764Y3048
X63754Y56642
X14224Y5588
X63754Y59182
X24384Y3048
X24384Y5588
X21844Y3048
X21844Y5588
X49022Y51816
X46482Y51816
X85725Y45568
X85725Y48108
T7
X84072Y13716
X95252Y12176
X84072Y12176
X95252Y13716
T8
X3215Y4732
X8215Y4732
T9
X75692Y51054
X72136Y51054
T10
X2215Y2032
X9215Y2032
T11
X14849Y32972
X19964Y51054
X16307Y20726
X19431Y24079
X28034Y31481
X46939Y31267
X14646Y34087
X23012Y52273
X7650Y30498
X18633Y43434
X53289Y45441
X18059Y20523
X50724Y48997
X11161Y13170
X79601Y13576
X75245Y13566
X59756Y46424
X48311Y42824
X19406Y20955
X19355Y17501
X16165Y35187
X10198Y32136
X43180Y53746
X70409Y43739
X93833Y23249
X89865Y17805
X62890Y37694
X64313Y42977
X29566Y33985
X32614Y33985
X39167Y34900
X59512Y48819
X43561Y32944
X51486Y32283
X81229Y22060
X69324Y14280
X69149Y12832
X72555Y12766
X72238Y24841
X66782Y14991
X67069Y18232
X68123Y12954
X75082Y16408
X39776Y14783
X76200Y16612
X50140Y15697
X22342Y29332
X27353Y28501
X68306Y18011
X17374Y30175
X69200Y18448
X12177Y33241
X19202Y50444
M30