<?xml version="1.0" encoding="UTF-8" standalone="no"?>
<!-- Created with Inkscape (http://www.inkscape.org/) -->

<svg
   xmlns:dc="http://purl.org/dc/elements/1.1/"
   xmlns:cc="http://creativecommons.org/ns#"
   xmlns:rdf="http://www.w3.org/1999/02/22-rdf-syntax-ns#"
   xmlns:svg="http://www.w3.org/2000/svg"
   xmlns="http://www.w3.org/2000/svg"
   xmlns:sodipodi="http://sodipodi.sourceforge.net/DTD/sodipodi-0.dtd"
   xmlns:inkscape="http://www.inkscape.org/namespaces/inkscape"
   width="53.403141mm"
   height="56.403126mm"
   viewBox="0 0 53.403141 56.403126"
   version="1.1"
   id="svg13473"
   inkscape:version="0.92.2 (5c3e80d, 2017-08-06)"
   sodipodi:docname="Back.svg">
  <defs
     id="defs13467" />
  <sodipodi:namedview
     id="base"
     pagecolor="#ffffff"
     bordercolor="#666666"
     borderopacity="1.0"
     inkscape:pageopacity="0.0"
     inkscape:pageshadow="2"
     inkscape:zoom="0.35"
     inkscape:cx="100.91933"
     inkscape:cy="106.58857"
     inkscape:document-units="mm"
     inkscape:current-layer="layer1"
     showgrid="false"
     fit-margin-top="0"
     fit-margin-left="0"
     fit-margin-right="0"
     fit-margin-bottom="0"
     inkscape:window-width="1440"
     inkscape:window-height="828"
     inkscape:window-x="0"
     inkscape:window-y="23"
     inkscape:window-maximized="0" />
  <metadata
     id="metadata13470">
    <rdf:RDF>
      <cc:Work
         rdf:about="">
        <dc:format>image/svg+xml</dc:format>
        <dc:type
           rdf:resource="http://purl.org/dc/dcmitype/StillImage" />
        <dc:title></dc:title>
      </cc:Work>
    </rdf:RDF>
  </metadata>
  <g
     inkscape:label="Laag 1"
     inkscape:groupmode="layer"
     id="layer1"
     transform="translate(46.356334,-120.63177)">
    <path
       inkscape:connector-curvature="0"
       id="path10071"
       d="m -42.154757,176.93488 h 10.499995 m 0,0 c 0.0547,0 0.10156,-0.043 0.10156,-0.1016 m 0,0 v -4 c 0,0.055 -0.043,0.1016 -0.10156,0.1016 m 0,0 h 8 c -0.0547,0 -0.10156,-0.043 -0.10156,-0.1016 m 0,0 v 4 c 0,0.055 0.043,0.1016 0.10156,0.1016 m 0,0 h 7.999999 m 0,0 c 0.0547,0 0.10156,-0.043 0.10156,-0.1016 m 0,0 v -4 c 0,0.055 -0.043,0.1016 -0.10156,0.1016 m 0,0 h 7.9999998 c -0.0547,0 -0.101558,-0.043 -0.101558,-0.1016 m 0,0 v 4 c 0,0.055 0.043,0.1016 0.101558,0.1016 m 0,0 h 10.5 m 0,0 c 0.0547,0 0.10156,-0.043 0.10156,-0.1016 m 0,0 v -4 m 0,0 v -12 m 0,0 c 0,0.055 -0.043,0.1016 -0.10156,0.1016 m 0,0 h 4 c 0.0547,0 0.10156,-0.043 0.10156,-0.1016 m 0,0 v -8 c 0,-0.055 -0.043,-0.1015 -0.10156,-0.1015 m 0,0 h -4 c 0.0547,0 0.10156,0.043 0.10156,0.1015 m 0,0 v -8 m 0,0 c 0,0.055 -0.043,0.1016 -0.10156,0.1016 m 0,0 h 4 c 0.0547,0 0.10156,-0.043 0.10156,-0.1016 m 0,0 v -8 c 0,-0.055 -0.043,-0.1015 -0.10156,-0.1015 m 0,0 h -4 c 0.0547,0 0.10156,0.043 0.10156,0.1015 m 0,0 v -12 m 0,0 v -4 c 0,-0.055 -0.043,-0.1015 -0.10156,-0.1015 m 0,0 v 0 m 0,0 h -10.5 m 0,0 c -0.0547,0 -0.101558,0.043 -0.101558,0.1015 m 0,0 v 4 c 0,-0.055 0.043,-0.1015 0.101558,-0.1015 m 0,0 h -7.9999998 c 0.0547,0 0.10156,0.043 0.10156,0.1015 m 0,0 v -4 c 0,-0.055 -0.043,-0.1015 -0.10156,-0.1015 m 0,0 h -7.999999 m 0,0 c -0.0547,0 -0.10156,0.043 -0.10156,0.1015 m 0,0 v 4 c 0,-0.055 0.043,-0.1015 0.10156,-0.1015 m 0,0 h -8 c 0.0547,0 0.10156,0.043 0.10156,0.1015 m 0,0 v -4 c 0,-0.055 -0.043,-0.1015 -0.10156,-0.1015 m 0,0 h -10.499995 m 0,0 c -0.05469,0 -0.101564,0.043 -0.101564,0.1015 m 0,0 v 4 m 0,0 v 12 m 0,0 c 0,-0.055 0.04297,-0.1015 0.101564,-0.1015 m 0,0 h -4.000001 c -0.05469,0 -0.101563,0.043 -0.101563,0.1015 m 0,0 10e-7,8 c 0,0.055 0.04297,0.1016 0.101562,0.1016 m 0,0 h 4.000001 c -0.05469,0 -0.101563,-0.043 -0.101563,-0.1016 m 0,0 v 8 m 0,0 c 0,-0.055 0.04297,-0.1015 0.101563,-0.1015 m 0,0 h -4.000001 c -0.05469,0 -0.101562,0.043 -0.101562,0.1015 m 0,0 v 8 c 0,0.055 0.04297,0.1016 0.101562,0.1016 m 0,0 h 4.000001 c -0.05469,0 -0.101563,-0.043 -0.101563,-0.1016 m 0,0 v 12 m 0,0 v 4 c 0,0.055 0.04297,0.1016 0.101563,0.1016 m 0,0 v 0"
       style="fill:none;stroke:#ff0000;stroke-width:0.20002501;stroke-linecap:butt;stroke-linejoin:miter;stroke-miterlimit:10;stroke-dasharray:none;stroke-opacity:1" />
  </g>
</svg>
