<?xml version="1.0" encoding="UTF-8" standalone="no"?>
<!-- Created with Inkscape (http://www.inkscape.org/) -->

<svg
   xmlns:dc="http://purl.org/dc/elements/1.1/"
   xmlns:cc="http://creativecommons.org/ns#"
   xmlns:rdf="http://www.w3.org/1999/02/22-rdf-syntax-ns#"
   xmlns:svg="http://www.w3.org/2000/svg"
   xmlns="http://www.w3.org/2000/svg"
   xmlns:sodipodi="http://sodipodi.sourceforge.net/DTD/sodipodi-0.dtd"
   xmlns:inkscape="http://www.inkscape.org/namespaces/inkscape"
   width="88.403152mm"
   height="56.403126mm"
   viewBox="0 0 88.403152 56.403126"
   version="1.1"
   id="svg12888"
   inkscape:version="0.92.2 (5c3e80d, 2017-08-06)"
   sodipodi:docname="Top.svg">
  <defs
     id="defs12882" />
  <sodipodi:namedview
     id="base"
     pagecolor="#ffffff"
     bordercolor="#666666"
     borderopacity="1.0"
     inkscape:pageopacity="0.0"
     inkscape:pageshadow="2"
     inkscape:zoom="0.35"
     inkscape:cx="167.06108"
     inkscape:cy="106.58857"
     inkscape:document-units="mm"
     inkscape:current-layer="layer1"
     showgrid="false"
     fit-margin-top="0"
     fit-margin-left="0"
     fit-margin-right="0"
     fit-margin-bottom="0"
     inkscape:window-width="1440"
     inkscape:window-height="828"
     inkscape:window-x="0"
     inkscape:window-y="23"
     inkscape:window-maximized="0" />
  <metadata
     id="metadata12885">
    <rdf:RDF>
      <cc:Work
         rdf:about="">
        <dc:format>image/svg+xml</dc:format>
        <dc:type
           rdf:resource="http://purl.org/dc/dcmitype/StillImage" />
        <dc:title></dc:title>
      </cc:Work>
    </rdf:RDF>
  </metadata>
  <g
     inkscape:label="Laag 1"
     inkscape:groupmode="layer"
     id="layer1"
     transform="translate(63.856339,-120.63177)">
    <path
       inkscape:connector-curvature="0"
       id="path10075"
       d="m -59.654762,176.93488 h 12 m 0,0 c 0.05469,0 0.101562,-0.043 0.101562,-0.1016 m 0,0 v -4 c 0,0.055 -0.04297,0.1016 -0.101562,0.1016 m 0,0 h 8 c -0.05469,0 -0.101562,-0.043 -0.101562,-0.1016 m 0,0 v 4 c 0,0.055 0.04297,0.1016 0.101562,0.1016 m 0,0 h 8.000002 m 0,0 c 0.05469,0 0.10156,-0.043 0.10156,-0.1016 m 0,0 v -4 c 0,0.055 -0.04297,0.1016 -0.10156,0.1016 m 0,0 h 7.999999 c -0.05469,0 -0.101562,-0.043 -0.101562,-0.1016 m 0,0 v 4 c 0,0.055 0.04297,0.1016 0.101562,0.1016 m 0,0 h 8 m 0,0 c 0.05469,0 0.101561,-0.043 0.101561,-0.1016 m 0,0 v -4 c 0,0.055 -0.04297,0.1016 -0.101561,0.1016 m 0,0 h 7.9999998 c -0.05469,0 -0.101563,-0.043 -0.101563,-0.1016 m 0,0 v 4 c 0,0.055 0.04297,0.1016 0.101563,0.1016 m 0,0 h 8.00000004 m 0,0 c 0.05469,0 0.10156,-0.043 0.10156,-0.1016 m 0,0 v -4 c 0,0.055 -0.04297,0.1016 -0.10156,0.1016 m 0,0 H 8.3452388 c -0.05469,0 -0.101563,-0.043 -0.101563,-0.1016 m 0,0 v 4 c 0,0.055 0.04297,0.1016 0.101563,0.1016 m 0,0 H 20.345239 m 0,0 h 4 c 0.05469,0 0.101563,-0.043 0.101563,-0.1016 m 0,0 v -4 m 0,0 v -12 m 0,0 c 0,-0.055 -0.04297,-0.1015 -0.101563,-0.1015 m 0,0 h -4 c 0.05469,0 0.101563,0.043 0.101563,0.1015 m 0,0 v -8 c 0,0.055 -0.04297,0.1016 -0.101563,0.1016 m 0,0 h 4 c 0.05469,0 0.101563,-0.043 0.101563,-0.1016 m 0,0 v -8 m 0,0 c 0,-0.055 -0.04297,-0.1015 -0.101563,-0.1015 m 0,0 h -4 c 0.05469,0 0.101563,0.043 0.101563,0.1015 m 0,0 v -8 c 0,0.055 -0.04297,0.1016 -0.101563,0.1016 m 0,0 h 4 c 0.05469,0 0.101563,-0.043 0.101563,-0.1016 m 0,0 v -12 m 0,0 v -4 c 0,-0.055 -0.04297,-0.1015 -0.101563,-0.1015 m 0,0 h -4 m 0,0 H 8.3452388 m 0,0 c -0.05469,0 -0.101563,0.043 -0.101563,0.1015 m 0,0 v 4 c 0,-0.055 0.04297,-0.1015 0.101563,-0.1015 m 0,0 H 0.34523884 c 0.05469,0 0.10156,0.043 0.10156,0.1015 m 0,0 v -4 c 0,-0.055 -0.04297,-0.1015 -0.10156,-0.1015 m 0,0 H -7.6547612 m 0,0 c -0.05469,0 -0.101563,0.043 -0.101563,0.1015 m 0,0 v 4 c 0,-0.055 0.04297,-0.1015 0.101563,-0.1015 m 0,0 h -7.9999998 c 0.05469,0 0.101561,0.043 0.101561,0.1015 m 0,0 v -4 c 0,-0.055 -0.04297,-0.1015 -0.101561,-0.1015 m 0,0 h -8 m 0,0 c -0.05469,0 -0.101562,0.043 -0.101562,0.1015 m 0,0 v 4 c 0,-0.055 0.04297,-0.1015 0.101562,-0.1015 m 0,0 h -7.999999 c 0.05469,0 0.10156,0.043 0.10156,0.1015 m 0,0 v -4 c 0,-0.055 -0.04297,-0.1015 -0.10156,-0.1015 m 0,0 h -8.000002 m 0,0 c -0.05469,0 -0.101563,0.043 -0.101563,0.1015 m 0,0 v 4 c 0,-0.055 0.04297,-0.1015 0.101563,-0.1015 m 0,0 h -8 c 0.05469,0 0.101562,0.043 0.101562,0.1015 m 0,0 v -4 c 0,-0.055 -0.04297,-0.1015 -0.101562,-0.1015 m 0,0 h -12 m 0,0 h -4.000001 c -0.05469,0 -0.101563,0.043 -0.101563,0.1015 m 0,0 v 4 m 0,0 v 12 m 0,0 c 0,0.055 0.04297,0.1016 0.101563,0.1016 m 0,0 h 4.000001 c -0.05469,0 -0.101564,-0.043 -0.101564,-0.1016 m 0,0 v 8 c 0,-0.055 0.04297,-0.1015 0.101564,-0.1015 m 0,0 h -4.000001 c -0.05469,0 -0.101563,0.043 -0.101563,0.1015 m 0,0 v 8 m 0,0 c 0,0.055 0.04297,0.1016 0.101563,0.1016 m 0,0 h 4.000001 c -0.05469,0 -0.101564,-0.043 -0.101564,-0.1016 m 0,0 v 8 c 0,-0.055 0.04297,-0.1015 0.101564,-0.1015 m 0,0 h -4.000001 c -0.05469,0 -0.101563,0.043 -0.101563,0.1015 m 0,0 v 12 m 0,0 1e-6,4 c 0,0.055 0.04297,0.1016 0.101562,0.1016 m 0,0 h 4.000001"
       style="fill:none;stroke:#ff0000;stroke-width:0.20002501;stroke-linecap:butt;stroke-linejoin:miter;stroke-miterlimit:10;stroke-dasharray:none;stroke-opacity:1" />
  </g>
</svg>
