<?xml version="1.0" encoding="UTF-8" standalone="no"?>
<!-- Created with Inkscape (http://www.inkscape.org/) -->

<svg
   xmlns:dc="http://purl.org/dc/elements/1.1/"
   xmlns:cc="http://creativecommons.org/ns#"
   xmlns:rdf="http://www.w3.org/1999/02/22-rdf-syntax-ns#"
   xmlns:svg="http://www.w3.org/2000/svg"
   xmlns="http://www.w3.org/2000/svg"
   xmlns:sodipodi="http://sodipodi.sourceforge.net/DTD/sodipodi-0.dtd"
   xmlns:inkscape="http://www.inkscape.org/namespaces/inkscape"
   width="53.403149mm"
   height="56.403126mm"
   viewBox="0 0 53.403149 56.403126"
   version="1.1"
   id="svg12274"
   inkscape:version="0.92.2 (5c3e80d, 2017-08-06)"
   sodipodi:docname="Front.svg">
  <defs
     id="defs12268" />
  <sodipodi:namedview
     id="base"
     pagecolor="#ffffff"
     bordercolor="#666666"
     borderopacity="1.0"
     inkscape:pageopacity="0.0"
     inkscape:pageshadow="2"
     inkscape:zoom="0.35"
     inkscape:cx="412.3479"
     inkscape:cy="-519.12567"
     inkscape:document-units="mm"
     inkscape:current-layer="layer1"
     showgrid="false"
     fit-margin-top="0"
     fit-margin-left="0"
     fit-margin-right="0"
     fit-margin-bottom="0"
     inkscape:window-width="1440"
     inkscape:window-height="828"
     inkscape:window-x="0"
     inkscape:window-y="23"
     inkscape:window-maximized="0" />
  <metadata
     id="metadata12271">
    <rdf:RDF>
      <cc:Work
         rdf:about="">
        <dc:format>image/svg+xml</dc:format>
        <dc:type
           rdf:resource="http://purl.org/dc/dcmitype/StillImage" />
        <dc:title></dc:title>
      </cc:Work>
    </rdf:RDF>
  </metadata>
  <g
     inkscape:label="Laag 1"
     inkscape:groupmode="layer"
     id="layer1"
     transform="translate(128.75514,44.921793)">
    <g
       transform="translate(-219.85435,-9917.1186)"
       id="g10978"
       style="stroke:#ff0000;stroke-width:0.20002501;stroke-miterlimit:10;stroke-dasharray:none;stroke-opacity:1">
      <path
         style="fill:none;stroke:#ff0000;stroke-width:0.20002501;stroke-linecap:butt;stroke-linejoin:miter;stroke-miterlimit:10;stroke-dasharray:none;stroke-opacity:1"
         d="m 95.300781,9928.5 h 10.499999 m 0,0 c 0.0547,0 0.10156,-0.043 0.10156,-0.1016 m 0,0 v -4 c 0,0.055 -0.043,0.1016 -0.10156,0.1016 m 0,0 h 8 c -0.0547,0 -0.10156,-0.043 -0.10156,-0.1016 m 0,0 v 4 c 0,0.055 0.043,0.1016 0.10156,0.1016 m 0,0 h 8 m 0,0 c 0.0547,0 0.10156,-0.043 0.10156,-0.1016 m 0,0 v -4 c 0,0.055 -0.043,0.1016 -0.10156,0.1016 m 0,0 h 8 c -0.0547,0 -0.10156,-0.043 -0.10156,-0.1016 m 0,0 v 4 c 0,0.055 0.043,0.1016 0.10156,0.1016 m 0,0 h 10.5 m 0,0 c 0.0547,0 0.10156,-0.043 0.10156,-0.1016 m 0,0 v -4 m 0,0 v -12 m 0,0 c 0,0.055 -0.043,0.1016 -0.10156,0.1016 m 0,0 h 4 c 0.0547,0 0.10156,-0.043 0.10156,-0.1016 m 0,0 v -8 c 0,-0.055 -0.043,-0.1015 -0.10156,-0.1015 m 0,0 h -4 c 0.0547,0 0.10156,0.043 0.10156,0.1015 m 0,0 v -8 m 0,0 c 0,0.055 -0.043,0.1016 -0.10156,0.1016 m 0,0 h 4 c 0.0547,0 0.10156,-0.043 0.10156,-0.1016 m 0,0 v -8 c 0,-0.055 -0.043,-0.1015 -0.10156,-0.1015 m 0,0 h -4 c 0.0547,0 0.10156,0.043 0.10156,0.1015 m 0,0 v -12 m 0,0 v -4 c 0,-0.055 -0.043,-0.1015 -0.10156,-0.1015 m 0,0 v 0 m 0,0 h -10.5 m 0,0 c -0.0547,0 -0.10156,0.043 -0.10156,0.1015 m 0,0 v 4 c 0,-0.055 0.043,-0.1015 0.10156,-0.1015 m 0,0 h -8 c 0.0547,0 0.10156,0.043 0.10156,0.1015 m 0,0 v -4 c 0,-0.055 -0.043,-0.1015 -0.10156,-0.1015 m 0,0 h -8 m 0,0 c -0.0547,0 -0.10156,0.043 -0.10156,0.1015 m 0,0 v 4 c 0,-0.055 0.043,-0.1015 0.10156,-0.1015 m 0,0 h -8 c 0.0547,0 0.10156,0.043 0.10156,0.1015 m 0,0 v -4 c 0,-0.055 -0.043,-0.1015 -0.10156,-0.1015 m 0,0 H 95.300781 m 0,0 c -0.05469,0 -0.101563,0.043 -0.101563,0.1015 m 0,0 v 4 m 0,0 v 12 m 0,0 c 0,-0.055 0.04297,-0.1015 0.101563,-0.1015 m 0,0 h -4 c -0.05469,0 -0.101563,0.043 -0.101563,0.1015 m 0,0 10e-7,8 c 0,0.055 0.04297,0.1016 0.101562,0.1016 m 0,0 h 4 c -0.05469,0 -0.101562,-0.043 -0.101562,-0.1016 m 0,0 v 8 m 0,0 c 0,-0.055 0.04297,-0.1015 0.101562,-0.1015 m 0,0 h -4 c -0.05469,0 -0.101562,0.043 -0.101562,0.1015 m 0,0 v 8 c 0,0.055 0.04297,0.1016 0.101562,0.1016 m 0,0 h 4 c -0.05469,0 -0.101562,-0.043 -0.101562,-0.1016 m 0,0 v 12 m 0,0 v 4 c 0,0.055 0.04297,0.1016 0.101562,0.1016 m 0,0 v 0"
         id="path10073"
         inkscape:connector-curvature="0"
         transform="translate(0,-8.0242016e-5)" />
      <g
         transform="rotate(-90,35.46392,9776.8413)"
         id="g10965"
         style="stroke:#ff0000;stroke-width:0.20002501;stroke-miterlimit:10;stroke-dasharray:none;stroke-opacity:1">
        <path
           style="fill:none;stroke:#ff0000;stroke-width:0.20002501;stroke-linecap:butt;stroke-linejoin:miter;stroke-miterlimit:10;stroke-dasharray:none;stroke-opacity:1"
           d="m -88.093221,9848.7795 h 7"
           id="path10876"
           inkscape:connector-curvature="0" />
        <path
           style="fill:none;stroke:#ff0000;stroke-width:0.20002501;stroke-linecap:butt;stroke-linejoin:miter;stroke-miterlimit:10;stroke-dasharray:none;stroke-opacity:1"
           d="m -95.093221,9848.7795 h 7"
           id="path10876-7"
           inkscape:connector-curvature="0" />
        <path
           style="fill:none;stroke:#ff0000;stroke-width:0.20002501;stroke-linecap:butt;stroke-linejoin:miter;stroke-miterlimit:10;stroke-dasharray:none;stroke-opacity:1"
           d="m -95.093221,9857.7795 v -4.5"
           id="path10893"
           inkscape:connector-curvature="0" />
        <path
           style="fill:none;stroke:#ff0000;stroke-width:0.20002501;stroke-linecap:butt;stroke-linejoin:miter;stroke-miterlimit:10;stroke-dasharray:none;stroke-opacity:1"
           d="m -81.093221,9857.7795 v -4.5"
           id="path10893-1"
           inkscape:connector-curvature="0" />
        <path
           style="fill:none;stroke:#ff0000;stroke-width:0.20002501;stroke-linecap:butt;stroke-linejoin:miter;stroke-miterlimit:10;stroke-dasharray:none;stroke-opacity:1"
           d="m -95.093221,9857.7795 h 7"
           id="path10876-7-0"
           inkscape:connector-curvature="0" />
        <path
           style="fill:none;stroke:#ff0000;stroke-width:0.20002501;stroke-linecap:butt;stroke-linejoin:miter;stroke-miterlimit:10;stroke-dasharray:none;stroke-opacity:1"
           d="m -88.093221,9857.7795 h 7"
           id="path10876-7-8"
           inkscape:connector-curvature="0" />
        <path
           style="fill:none;stroke:#ff0000;stroke-width:0.20002501;stroke-linecap:butt;stroke-linejoin:miter;stroke-miterlimit:10;stroke-dasharray:none;stroke-opacity:1"
           d="m -81.093221,9853.2795 v -4.5"
           id="path10893-14"
           inkscape:connector-curvature="0" />
        <path
           style="fill:none;stroke:#ff0000;stroke-width:0.20002501;stroke-linecap:butt;stroke-linejoin:miter;stroke-miterlimit:10;stroke-dasharray:none;stroke-opacity:1"
           d="m -95.093221,9853.2795 v -4.5"
           id="path10893-8"
           inkscape:connector-curvature="0" />
      </g>
    </g>
  </g>
</svg>
