<?xml version="1.0" encoding="UTF-8" standalone="no"?>
<!-- Created with Inkscape (http://www.inkscape.org/) -->

<svg
   xmlns:dc="http://purl.org/dc/elements/1.1/"
   xmlns:cc="http://creativecommons.org/ns#"
   xmlns:rdf="http://www.w3.org/1999/02/22-rdf-syntax-ns#"
   xmlns:svg="http://www.w3.org/2000/svg"
   xmlns="http://www.w3.org/2000/svg"
   xmlns:sodipodi="http://sodipodi.sourceforge.net/DTD/sodipodi-0.dtd"
   xmlns:inkscape="http://www.inkscape.org/namespaces/inkscape"
   width="88.403152mm"
   height="53.403126mm"
   viewBox="0 0 88.403152 53.403126"
   version="1.1"
   id="svg11018"
   inkscape:version="0.92.2 (5c3e80d, 2017-08-06)"
   sodipodi:docname="Side.svg">
  <defs
     id="defs11012" />
  <sodipodi:namedview
     id="base"
     pagecolor="#ffffff"
     bordercolor="#666666"
     borderopacity="1.0"
     inkscape:pageopacity="0.0"
     inkscape:pageshadow="2"
     inkscape:zoom="0.35"
     inkscape:cx="76.979286"
     inkscape:cy="-472.447"
     inkscape:document-units="mm"
     inkscape:current-layer="layer1"
     showgrid="false"
     fit-margin-top="0"
     fit-margin-left="0"
     fit-margin-right="0"
     fit-margin-bottom="0"
     inkscape:window-width="1440"
     inkscape:window-height="828"
     inkscape:window-x="0"
     inkscape:window-y="23"
     inkscape:window-maximized="0" />
  <metadata
     id="metadata11015">
    <rdf:RDF>
      <cc:Work
         rdf:about="">
        <dc:format>image/svg+xml</dc:format>
        <dc:type
           rdf:resource="http://purl.org/dc/dcmitype/StillImage" />
        <dc:title></dc:title>
      </cc:Work>
    </rdf:RDF>
  </metadata>
  <g
     inkscape:label="Laag 1"
     inkscape:groupmode="layer"
     id="layer1"
     transform="translate(40.022199,29.571393)">
    <g
       transform="translate(-40.922185,-9846.569)"
       id="g10991"
       style="stroke:#ff0000;stroke-width:0.20002501;stroke-miterlimit:10;stroke-dasharray:none;stroke-opacity:1">
      <path
         style="fill:none;stroke:#ff0000;stroke-width:0.20002501;stroke-linecap:butt;stroke-linejoin:miter;stroke-miterlimit:10;stroke-dasharray:none;stroke-opacity:1"
         d="m 5.101562,9866.3008 h 12 m 0,0 c -0.05469,0 -0.101562,-0.043 -0.101562,-0.1016 m 0,0 v 4 c 0,0.055 0.04297,0.1016 0.101562,0.1016 m 0,0 h 8 c 0.05469,0 0.101562,-0.043 0.101562,-0.1016 m 0,0 v -4 c 0,0.055 -0.04297,0.1016 -0.101562,0.1016 m 0,0 h 8 m 0,0 c -0.05469,0 -0.101562,-0.043 -0.101562,-0.1016 m 0,0 v 4 c 0,0.055 0.04297,0.1016 0.101562,0.1016 m 0,0 h 8 c 0.05469,0 0.101562,-0.043 0.101562,-0.1016 m 0,0 v -4 c 0,0.055 -0.04297,0.1016 -0.101562,0.1016 m 0,0 h 8 m 0,0 c -0.05469,0 -0.101562,-0.043 -0.101562,-0.1016 m 0,0 v 4 c 0,0.055 0.04297,0.1016 0.101562,0.1016 m 0,0 h 8 c 0.05469,0 0.101562,-0.043 0.101562,-0.1016 m 0,0 v -4 c 0,0.055 -0.04297,0.1016 -0.101562,0.1016 m 0,0 h 8 m 0,0 c -0.05469,0 -0.101562,-0.043 -0.101562,-0.1016 m 0,0 v 4 c 0,0.055 0.04297,0.1016 0.101562,0.1016 m 0,0 h 8 c 0.05469,0 0.101562,-0.043 0.101562,-0.1016 m 0,0 v -4 c 0,0.055 -0.04297,0.1016 -0.101562,0.1016 m 0,0 h 12 m 0,0 c 0.05469,0 0.101562,-0.043 0.101562,-0.1016 m 0,0 v 0 m 0,0 v -10.5 m 0,0 c 0,0.055 -0.04297,0.1016 -0.101562,0.1016 m 0,0 h 4 c 0.05469,0 0.101562,-0.043 0.101562,-0.1016 m 0,0 v -8 c 0,-0.055 -0.04297,-0.1015 -0.101562,-0.1015 m 0,0 h -4 c 0.05469,0 0.101562,0.043 0.101562,0.1015 m 0,0 v -8 m 0,0 c 0,0.055 -0.04297,0.1016 -0.101562,0.1016 m 0,0 h 4 c 0.05469,0 0.101562,-0.043 0.101562,-0.1016 m 0,0 v -8 c 0,-0.055 -0.04297,-0.1015 -0.101562,-0.1015 m 0,0 h -4 c 0.05469,0 0.101562,0.043 0.101562,0.1015 m 0,0 v -10.5 m 0,0 c 0,-0.055 -0.04297,-0.1015 -0.101562,-0.1015 m 0,0 v 0 m 0,0 h -12 m 0,0 c 0.05469,0 0.101562,0.043 0.101562,0.1015 m 0,0 v -4 c 0,-0.055 -0.04297,-0.1015 -0.101562,-0.1015 m 0,0 h -8 c -0.05469,0 -0.101563,0.043 -0.101563,0.1015 m 0,0 v 4 c 0,-0.055 0.04297,-0.1015 0.101563,-0.1015 m 0,0 h -8 m 0,0 c 0.05469,0 0.101562,0.043 0.101562,0.1015 m 0,0 v -4 c 0,-0.055 -0.04297,-0.1015 -0.101562,-0.1015 m 0,0 h -8 c -0.05469,0 -0.101563,0.043 -0.101563,0.1015 m 0,0 v 4 c 0,-0.055 0.04297,-0.1015 0.101563,-0.1015 m 0,0 h -8 m 0,0 c 0.05469,0 0.101562,0.043 0.101562,0.1015 m 0,0 v -4 c 0,-0.055 -0.04297,-0.1015 -0.101562,-0.1015 m 0,0 h -8 c -0.05469,0 -0.101563,0.043 -0.101563,0.1015 m 0,0 v 4 c 0,-0.055 0.04297,-0.1015 0.101563,-0.1015 m 0,0 h -8 m 0,0 c 0.05469,0 0.101562,0.043 0.101562,0.1015 m 0,0 v -4 c 0,-0.055 -0.04297,-0.1015 -0.101562,-0.1015 m 0,0 h -8 c -0.05469,0 -0.101563,0.043 -0.101563,0.1015 m 0,0 v 4 c 0,-0.055 0.04297,-0.1015 0.101563,-0.1015 m 0,0 h -12 m 0,0 c -0.054687,0 -0.101563,0.043 -0.101563,0.1015 m 0,0 v 0 m 0,0 v 10.5 m 0,0 c 0,-0.055 0.042969,-0.1015 0.101563,-0.1015 m 0,0 h -4 c -0.054688,0 -0.101563,0.043 -0.101563,0.1015 m 0,0 v 8 c 0,0.055 0.042969,0.1016 0.101563,0.1016 m 0,0 h 4 c -0.054687,0 -0.101563,-0.043 -0.101563,-0.1016 m 0,0 v 8 m 0,0 c 0,-0.055 0.042969,-0.1015 0.101563,-0.1015 m 0,0 h -4 c -0.054688,0 -0.101563,0.043 -0.101563,0.1015 m 0,0 v 8 c 0,0.055 0.042969,0.1016 0.101563,0.1016 m 0,0 h 4 c -0.054687,0 -0.101563,-0.043 -0.101563,-0.1016 m 0,0 1e-6,10.5 m 0,0 c 0,0.055 0.042968,0.1016 0.101562,0.1016 m 0,0 v 0"
         id="path10077"
         inkscape:connector-curvature="0"
         transform="translate(0,-8.0242016e-5)" />
      <g
         transform="translate(103.17787,-32.5296)"
         id="g10814"
         style="stroke:#ff0000;stroke-width:0.20002501;stroke-miterlimit:10;stroke-dasharray:none;stroke-opacity:1">
        <path
           inkscape:connector-curvature="0"
           id="path10665"
           d="m -57.033905,9876.7286 h 7.5"
           style="fill:none;stroke:#ff0000;stroke-width:0.20002501;stroke-linecap:butt;stroke-linejoin:miter;stroke-miterlimit:10;stroke-dasharray:none;stroke-opacity:1" />
        <path
           inkscape:connector-curvature="0"
           id="path10665-0"
           d="m -64.533905,9876.7286 h 7.5"
           style="fill:none;stroke:#ff0000;stroke-width:0.20002501;stroke-linecap:butt;stroke-linejoin:miter;stroke-miterlimit:10;stroke-dasharray:none;stroke-opacity:1" />
        <path
           inkscape:connector-curvature="0"
           id="path10663-3"
           d="m -49.533905,9871.7286 v 5"
           style="fill:none;stroke:#ff0000;stroke-width:0.20002501;stroke-linecap:butt;stroke-linejoin:miter;stroke-miterlimit:10;stroke-dasharray:none;stroke-opacity:1" />
        <path
           inkscape:connector-curvature="0"
           id="path10663-3-3"
           d="m -64.533905,9871.7286 v 5"
           style="fill:none;stroke:#ff0000;stroke-width:0.20002501;stroke-linecap:butt;stroke-linejoin:miter;stroke-miterlimit:10;stroke-dasharray:none;stroke-opacity:1" />
        <path
           inkscape:connector-curvature="0"
           id="path10665-5"
           d="m -57.033905,9866.7286 h 7.5"
           style="fill:none;stroke:#ff0000;stroke-width:0.20002501;stroke-linecap:butt;stroke-linejoin:miter;stroke-miterlimit:10;stroke-dasharray:none;stroke-opacity:1" />
        <path
           inkscape:connector-curvature="0"
           id="path10665-5-0"
           d="m -64.533905,9866.7286 h 7.5"
           style="fill:none;stroke:#ff0000;stroke-width:0.20002501;stroke-linecap:butt;stroke-linejoin:miter;stroke-miterlimit:10;stroke-dasharray:none;stroke-opacity:1" />
        <path
           inkscape:connector-curvature="0"
           id="path10663-3-3-2"
           d="m -64.533905,9866.7286 v 5"
           style="fill:none;stroke:#ff0000;stroke-width:0.20002501;stroke-linecap:butt;stroke-linejoin:miter;stroke-miterlimit:10;stroke-dasharray:none;stroke-opacity:1" />
        <path
           inkscape:connector-curvature="0"
           id="path10663-3-3-3"
           d="m -49.533905,9866.7286 v 5"
           style="fill:none;stroke:#ff0000;stroke-width:0.20002501;stroke-linecap:butt;stroke-linejoin:miter;stroke-miterlimit:10;stroke-dasharray:none;stroke-opacity:1" />
      </g>
    </g>
  </g>
</svg>
