<?xml version="1.0" encoding="UTF-8" standalone="no"?>
<!-- Created with Inkscape (http://www.inkscape.org/) -->

<svg
   xmlns:dc="http://purl.org/dc/elements/1.1/"
   xmlns:cc="http://creativecommons.org/ns#"
   xmlns:rdf="http://www.w3.org/1999/02/22-rdf-syntax-ns#"
   xmlns:svg="http://www.w3.org/2000/svg"
   xmlns="http://www.w3.org/2000/svg"
   xmlns:sodipodi="http://sodipodi.sourceforge.net/DTD/sodipodi-0.dtd"
   xmlns:inkscape="http://www.inkscape.org/namespaces/inkscape"
   width="88.403145mm"
   height="53.403122mm"
   viewBox="0 0 88.403145 53.403122"
   version="1.1"
   id="svg14717"
   inkscape:version="0.92.2 (5c3e80d, 2017-08-06)"
   sodipodi:docname="Side2.svg">
  <defs
     id="defs14711" />
  <sodipodi:namedview
     id="base"
     pagecolor="#ffffff"
     bordercolor="#666666"
     borderopacity="1.0"
     inkscape:pageopacity="0.0"
     inkscape:pageshadow="2"
     inkscape:zoom="0.35"
     inkscape:cx="207.06106"
     inkscape:cy="-164.795"
     inkscape:document-units="mm"
     inkscape:current-layer="layer1"
     showgrid="false"
     inkscape:window-width="1440"
     inkscape:window-height="828"
     inkscape:window-x="0"
     inkscape:window-y="23"
     inkscape:window-maximized="0"
     fit-margin-top="0"
     fit-margin-left="0"
     fit-margin-right="0"
     fit-margin-bottom="0" />
  <metadata
     id="metadata14714">
    <rdf:RDF>
      <cc:Work
         rdf:about="">
        <dc:format>image/svg+xml</dc:format>
        <dc:type
           rdf:resource="http://purl.org/dc/dcmitype/StillImage" />
        <dc:title></dc:title>
      </cc:Work>
    </rdf:RDF>
  </metadata>
  <g
     inkscape:label="Laag 1"
     inkscape:groupmode="layer"
     id="layer1"
     transform="translate(74.439668,-51.828199)">
    <path
       inkscape:connector-curvature="0"
       id="path10079"
       d="m -70.238092,101.13131 h 11.999996 m 0,0 c -0.0547,0 -0.10156,-0.043 -0.10156,-0.1016 m 0,0 v 4 c 0,0.055 0.043,0.1016 0.10156,0.1016 m 0,0 h 8 c 0.0547,0 0.10156,-0.043 0.10156,-0.1016 m 0,0 v -4 c 0,0.055 -0.043,0.1016 -0.10156,0.1016 m 0,0 h 7.999999 m 0,0 c -0.0547,0 -0.101558,-0.043 -0.101558,-0.1016 m 0,0 v 4 c 0,0.055 0.043,0.1016 0.101558,0.1016 m 0,0 h 8.000002 c 0.0547,0 0.101558,-0.043 0.101558,-0.1016 m 0,0 v -4 c 0,0.055 -0.043,0.1016 -0.101558,0.1016 m 0,0 h 8 m 0,0 c -0.0547,0 -0.10156,-0.043 -0.10156,-0.1016 m 0,0 v 4 c 0,0.055 0.043,0.1016 0.10156,0.1016 m 0,0 h 8 c 0.0547,0 0.10156,-0.043 0.10156,-0.1016 m 0,0 v -4 c 0,0.055 -0.043,0.1016 -0.10156,0.1016 m 0,0 h 8 m 0,0 c -0.0547,0 -0.101561,-0.043 -0.101561,-0.1016 m 0,0 v 4 c 0,0.055 0.043,0.1016 0.101561,0.1016 m 0,0 h 7.9999995 c 0.0547,0 0.10156,-0.043 0.10156,-0.1016 m 0,0 v -4 c 0,0.055 -0.043,0.1016 -0.10156,0.1016 m 0,0 h 11.999999 m 0,0 c 0.0547,0 0.101561,-0.043 0.101561,-0.1016 m 0,0 v 0 m 0,0 V 90.529712 m 0,0 c 0,0.055 -0.043,0.1016 -0.101561,0.1016 m 0,0 h 4.0000005 c 0.0547,0 0.101561,-0.043 0.101561,-0.1016 m 0,0 v -8 c 0,-0.055 -0.043,-0.1015 -0.101561,-0.1015 m 0,0 H 9.7619035 c 0.0547,0 0.101561,0.043 0.101561,0.1015 m 0,0 v -7.999999 m 0,0 c 0,0.055 -0.043,0.1016 -0.101561,0.1016 m 0,0 h 4.0000005 c 0.0547,0 0.101561,-0.043 0.101561,-0.1016 m 0,0 v -8 c 0,-0.055 -0.043,-0.1015 -0.101561,-0.1015 m 0,0 H 9.7619035 c 0.0547,0 0.101561,0.043 0.101561,0.1015 m 0,0 V 56.029712 m 0,0 c 0,-0.055 -0.043,-0.1015 -0.101561,-0.1015 m 0,0 v 0 m 0,0 h -11.999999 m 0,0 c 0.0547,0 0.10156,0.043 0.10156,0.1015 m 0,0 v -4 c 0,-0.055 -0.043,-0.1015 -0.10156,-0.1015 m 0,0 h -7.9999995 c -0.0547,0 -0.101561,0.043 -0.101561,0.1015 m 0,0 v 4 c 0,-0.055 0.043,-0.1015 0.101561,-0.1015 m 0,0 h -8 m 0,0 c 0.0547,0 0.10156,0.043 0.10156,0.1015 m 0,0 v -4 c 0,-0.055 -0.043,-0.1015 -0.10156,-0.1015 m 0,0 h -8 c -0.0547,0 -0.10156,0.043 -0.10156,0.1015 m 0,0 v 4 c 0,-0.055 0.043,-0.1015 0.10156,-0.1015 m 0,0 h -8 m 0,0 c 0.0547,0 0.101558,0.043 0.101558,0.1015 m 0,0 v -4 c 0,-0.055 -0.043,-0.1015 -0.101558,-0.1015 m 0,0 h -8.000002 c -0.0547,0 -0.101558,0.043 -0.101558,0.1015 m 0,0 v 4 c 0,-0.055 0.043,-0.1015 0.101558,-0.1015 m 0,0 h -7.999999 m 0,0 c 0.0547,0 0.10156,0.043 0.10156,0.1015 m 0,0 v -4 c 0,-0.055 -0.043,-0.1015 -0.10156,-0.1015 m 0,0 h -8 c -0.0547,0 -0.10156,0.043 -0.10156,0.1015 m 0,0 v 4 c 0,-0.055 0.043,-0.1015 0.10156,-0.1015 m 0,0 h -11.999996 m 0,0 c -0.05469,0 -0.101563,0.043 -0.101563,0.1015 m 0,0 v 0 m 0,0 v 10.500001 m 0,0 c 0,-0.055 0.04297,-0.1015 0.101563,-0.1015 m 0,0 h -4 c -0.05469,0 -0.101563,0.043 -0.101563,0.1015 m 0,0 10e-7,8 c 0,0.055 0.04297,0.1016 0.101562,0.1016 m 0,0 h 4 c -0.05469,0 -0.101562,-0.043 -0.101562,-0.1016 m 0,0 v 7.999999 m 0,0 c 0,-0.055 0.04297,-0.1015 0.101562,-0.1015 m 0,0 h -4 c -0.05469,0 -0.101562,0.043 -0.101562,0.1015 m 0,0 v 8 c 0,0.055 0.04297,0.1016 0.101562,0.1016 m 0,0 h 4 c -0.05469,0 -0.101562,-0.043 -0.101562,-0.1016 m 0,0 v 10.499998 m 0,0 c 0,0.055 0.04297,0.1016 0.101562,0.1016 m 0,0 v 0"
       style="fill:none;stroke:#ff0000;stroke-width:0.20002501;stroke-linecap:butt;stroke-linejoin:miter;stroke-miterlimit:10;stroke-dasharray:none;stroke-opacity:1" />
  </g>
</svg>
