<?xml version="1.0" encoding="UTF-8" standalone="no"?>
<!-- Created with Inkscape (http://www.inkscape.org/) -->

<svg
   xmlns:dc="http://purl.org/dc/elements/1.1/"
   xmlns:cc="http://creativecommons.org/ns#"
   xmlns:rdf="http://www.w3.org/1999/02/22-rdf-syntax-ns#"
   xmlns:svg="http://www.w3.org/2000/svg"
   xmlns="http://www.w3.org/2000/svg"
   xmlns:sodipodi="http://sodipodi.sourceforge.net/DTD/sodipodi-0.dtd"
   xmlns:inkscape="http://www.inkscape.org/namespaces/inkscape"
   width="88.403152mm"
   height="56.403126mm"
   viewBox="0 0 88.403152 56.403126"
   version="1.1"
   id="svg12888"
   inkscape:version="0.92.2 (5c3e80d, 2017-08-06)"
   sodipodi:docname="Top.svg">
  <defs
     id="defs12882" />
  <sodipodi:namedview
     id="base"
     pagecolor="#ffffff"
     bordercolor="#666666"
     borderopacity="1.0"
     inkscape:pageopacity="0.0"
     inkscape:pageshadow="2"
     inkscape:zoom="0.35"
     inkscape:cx="202.69358"
     inkscape:cy="-72.537283"
     inkscape:document-units="mm"
     inkscape:current-layer="layer1"
     showgrid="false"
     fit-margin-top="0"
     fit-margin-left="0"
     fit-margin-right="0"
     fit-margin-bottom="0"
     inkscape:window-width="1440"
     inkscape:window-height="828"
     inkscape:window-x="0"
     inkscape:window-y="23"
     inkscape:window-maximized="0" />
  <metadata
     id="metadata12885">
    <rdf:RDF>
      <cc:Work
         rdf:about="">
        <dc:format>image/svg+xml</dc:format>
        <dc:type
           rdf:resource="http://purl.org/dc/dcmitype/StillImage" />
        <dc:title></dc:title>
      </cc:Work>
    </rdf:RDF>
  </metadata>
  <g
     inkscape:label="Laag 1"
     inkscape:groupmode="layer"
     id="layer1"
     transform="translate(198.7722,-73.238055)">
    <g
       transform="translate(-73.03826,-9778.3553)"
       id="g14081">
      <path
         style="fill:none;stroke:#ff0000;stroke-width:0.20002501;stroke-linecap:butt;stroke-linejoin:miter;stroke-miterlimit:10;stroke-dasharray:none;stroke-opacity:1"
         d="M 4.2015755,9969.7016 H 16.201576 m 0,0 c 0.05469,0 0.101562,-0.043 0.101562,-0.1016 m 0,0 v -4 c 0,0.055 -0.04297,0.1016 -0.101562,0.1016 m 0,0 h 8 c -0.05469,0 -0.101562,-0.043 -0.101562,-0.1016 m 0,0 v 4 c 0,0.055 0.04297,0.1016 0.101562,0.1016 m 0,0 h 8 m 0,0 c 0.05469,0 0.101562,-0.043 0.101562,-0.1016 m 0,0 v -4 c 0,0.055 -0.04297,0.1016 -0.101562,0.1016 m 0,0 h 8 c -0.05469,0 -0.101562,-0.043 -0.101562,-0.1016 m 0,0 v 4 c 0,0.055 0.04297,0.1016 0.101562,0.1016 m 0,0 h 8 m 0,0 c 0.05469,0 0.101562,-0.043 0.101562,-0.1016 m 0,0 v -4 c 0,0.055 -0.04297,0.1016 -0.101562,0.1016 m 0,0 h 8 c -0.05469,0 -0.101562,-0.043 -0.101562,-0.1016 m 0,0 v 4 c 0,0.055 0.04297,0.1016 0.101562,0.1016 m 0,0 h 8 m 0,0 c 0.05469,0 0.101562,-0.043 0.101562,-0.1016 m 0,0 v -4 c 0,0.055 -0.04297,0.1016 -0.101562,0.1016 m 0,0 h 8 c -0.05469,0 -0.101562,-0.043 -0.101562,-0.1016 m 0,0 v 4 c 0,0.055 0.04297,0.1016 0.101562,0.1016 m 0,0 h 12 m 0,0 h 4 c 0.05469,0 0.101562,-0.043 0.101562,-0.1016 m 0,0 v -4 m 0,0 v -12 m 0,0 c 0,-0.055 -0.04297,-0.1015 -0.101562,-0.1015 m 0,0 h -4 c 0.05469,0 0.101562,0.043 0.101562,0.1015 m 0,0 v -8 c 0,0.055 -0.04297,0.1016 -0.101562,0.1016 m 0,0 h 4 c 0.05469,0 0.101562,-0.043 0.101562,-0.1016 m 0,0 v -8 m 0,0 c 0,-0.055 -0.04297,-0.1015 -0.101562,-0.1015 m 0,0 h -4 c 0.05469,0 0.101562,0.043 0.101562,0.1015 m 0,0 v -8 c 0,0.055 -0.04297,0.1016 -0.101562,0.1016 m 0,0 h 4 c 0.05469,0 0.101562,-0.043 0.101562,-0.1016 m 0,0 v -12 m 0,0 v -4 c 0,-0.055 -0.04297,-0.1015 -0.101562,-0.1015 m 0,0 h -4 m 0,0 h -12 m 0,0 c -0.05469,0 -0.101563,0.043 -0.101563,0.1015 m 0,0 v 4 c 0,-0.055 0.04297,-0.1015 0.101563,-0.1015 m 0,0 h -8 c 0.05469,0 0.101562,0.043 0.101562,0.1015 m 0,0 v -4 c 0,-0.055 -0.04297,-0.1015 -0.101562,-0.1015 m 0,0 h -8 m 0,0 c -0.05469,0 -0.101563,0.043 -0.101563,0.1015 m 0,0 v 4 c 0,-0.055 0.04297,-0.1015 0.101563,-0.1015 m 0,0 h -8 c 0.05469,0 0.101562,0.043 0.101562,0.1015 m 0,0 v -4 c 0,-0.055 -0.04297,-0.1015 -0.101562,-0.1015 m 0,0 h -8 m 0,0 c -0.05469,0 -0.101563,0.043 -0.101563,0.1015 m 0,0 v 4 c 0,-0.055 0.04297,-0.1015 0.101563,-0.1015 m 0,0 h -8 c 0.05469,0 0.101562,0.043 0.101562,0.1015 m 0,0 v -4 c 0,-0.055 -0.04297,-0.1015 -0.101562,-0.1015 m 0,0 h -8 m 0,0 c -0.05469,0 -0.101563,0.043 -0.101563,0.1015 m 0,0 v 4 c 0,-0.055 0.04297,-0.1015 0.101563,-0.1015 m 0,0 h -8 c 0.05469,0 0.101562,0.043 0.101562,0.1015 m 0,0 v -4 c 0,-0.055 -0.04297,-0.1015 -0.101562,-0.1015 m 0,0 H 4.2015755 m 0,0 h -4 c -0.054688,0 -0.101563,0.043 -0.101563,0.1015 m 0,0 v 4 m 0,0 v 12 m 0,0 c 0,0.055 0.042969,0.1016 0.101563,0.1016 m 0,0 h 4 c -0.054687,0 -0.101563,-0.043 -0.101563,-0.1016 m 0,0 v 8 c 0,-0.055 0.042969,-0.1015 0.101563,-0.1015 m 0,0 h -4 c -0.054688,0 -0.101563,0.043 -0.101563,0.1015 m 0,0 v 8 m 0,0 c 0,0.055 0.042969,0.1016 0.101563,0.1016 m 0,0 h 4 c -0.054687,0 -0.101563,-0.043 -0.101563,-0.1016 m 0,0 v 8 c 0,-0.055 0.042969,-0.1015 0.101563,-0.1015 m 0,0 h -4 c -0.054688,0 -0.101563,0.043 -0.101563,0.1015 m 0,0 v 12 m 0,0 1e-6,4 c 0,0.055 0.042968,0.1016 0.101562,0.1016 m 0,0 h 4"
         id="path10069"
         inkscape:connector-curvature="0"
         transform="translate(-125.73394,-61.805132)" />
      <circle
         style="fill:none;fill-opacity:1;stroke:#ff0000;stroke-width:0.12920561;stroke-miterlimit:10;stroke-dasharray:none;stroke-opacity:1"
         id="path14070"
         cx="-65.847855"
         cy="9897.6904"
         r="1.9353971" />
    </g>
  </g>
</svg>
