G04 EAGLE Gerber RS-274X export*
G75*
%MOMM*%
%FSLAX34Y34*%
%LPD*%
%INTop Copper*%
%IPPOS*%
%AMOC8*
5,1,8,0,0,1.08239X$1,22.5*%
G01*
%ADD10P,1.649562X8X202.500000*%

G36*
X302280Y-758D02*
X302280Y-758D01*
X302299Y-760D01*
X302401Y-738D01*
X302503Y-722D01*
X302520Y-712D01*
X302540Y-708D01*
X302629Y-655D01*
X302720Y-606D01*
X302734Y-592D01*
X302751Y-582D01*
X302818Y-503D01*
X302890Y-428D01*
X302898Y-410D01*
X302911Y-395D01*
X302950Y-299D01*
X302993Y-205D01*
X302995Y-185D01*
X303003Y-167D01*
X303021Y0D01*
X303021Y243840D01*
X303018Y243860D01*
X303020Y243879D01*
X302998Y243981D01*
X302982Y244083D01*
X302972Y244100D01*
X302968Y244120D01*
X302915Y244209D01*
X302866Y244300D01*
X302852Y244314D01*
X302842Y244331D01*
X302763Y244398D01*
X302688Y244470D01*
X302670Y244478D01*
X302655Y244491D01*
X302559Y244530D01*
X302465Y244573D01*
X302445Y244575D01*
X302427Y244583D01*
X302260Y244601D01*
X-5080Y244601D01*
X-5100Y244598D01*
X-5119Y244600D01*
X-5221Y244578D01*
X-5323Y244562D01*
X-5340Y244552D01*
X-5360Y244548D01*
X-5449Y244495D01*
X-5540Y244446D01*
X-5554Y244432D01*
X-5571Y244422D01*
X-5638Y244343D01*
X-5710Y244268D01*
X-5718Y244250D01*
X-5731Y244235D01*
X-5770Y244139D01*
X-5813Y244045D01*
X-5815Y244025D01*
X-5823Y244007D01*
X-5841Y243840D01*
X-5841Y0D01*
X-5838Y-20D01*
X-5840Y-39D01*
X-5818Y-141D01*
X-5802Y-243D01*
X-5792Y-260D01*
X-5788Y-280D01*
X-5735Y-369D01*
X-5686Y-460D01*
X-5672Y-474D01*
X-5662Y-491D01*
X-5583Y-558D01*
X-5508Y-630D01*
X-5490Y-638D01*
X-5475Y-651D01*
X-5379Y-690D01*
X-5285Y-733D01*
X-5265Y-735D01*
X-5247Y-743D01*
X-5080Y-761D01*
X302260Y-761D01*
X302280Y-758D01*
G37*
%LPC*%
G36*
X186712Y206755D02*
X186712Y206755D01*
X181355Y212112D01*
X181355Y219688D01*
X186712Y225045D01*
X194288Y225045D01*
X199645Y219688D01*
X199645Y212112D01*
X194288Y206755D01*
X186712Y206755D01*
G37*
%LPD*%
%LPC*%
G36*
X161312Y206755D02*
X161312Y206755D01*
X155955Y212112D01*
X155955Y219688D01*
X161312Y225045D01*
X168888Y225045D01*
X174245Y219688D01*
X174245Y212112D01*
X168888Y206755D01*
X161312Y206755D01*
G37*
%LPD*%
%LPC*%
G36*
X135912Y206755D02*
X135912Y206755D01*
X130555Y212112D01*
X130555Y219688D01*
X135912Y225045D01*
X143488Y225045D01*
X148845Y219688D01*
X148845Y212112D01*
X143488Y206755D01*
X135912Y206755D01*
G37*
%LPD*%
%LPC*%
G36*
X110512Y206755D02*
X110512Y206755D01*
X105155Y212112D01*
X105155Y219688D01*
X110512Y225045D01*
X118088Y225045D01*
X123445Y219688D01*
X123445Y212112D01*
X118088Y206755D01*
X110512Y206755D01*
G37*
%LPD*%
%LPC*%
G36*
X85112Y206755D02*
X85112Y206755D01*
X79755Y212112D01*
X79755Y219688D01*
X85112Y225045D01*
X92688Y225045D01*
X98045Y219688D01*
X98045Y212112D01*
X92688Y206755D01*
X85112Y206755D01*
G37*
%LPD*%
%LPC*%
G36*
X262912Y54355D02*
X262912Y54355D01*
X257555Y59712D01*
X257555Y67288D01*
X262912Y72645D01*
X270488Y72645D01*
X275845Y67288D01*
X275845Y59712D01*
X270488Y54355D01*
X262912Y54355D01*
G37*
%LPD*%
%LPC*%
G36*
X34312Y79755D02*
X34312Y79755D01*
X28955Y85112D01*
X28955Y92688D01*
X34312Y98045D01*
X41888Y98045D01*
X47245Y92688D01*
X47245Y85112D01*
X41888Y79755D01*
X34312Y79755D01*
G37*
%LPD*%
%LPC*%
G36*
X110512Y54355D02*
X110512Y54355D01*
X105155Y59712D01*
X105155Y67288D01*
X110512Y72645D01*
X118088Y72645D01*
X123445Y67288D01*
X123445Y59712D01*
X118088Y54355D01*
X110512Y54355D01*
G37*
%LPD*%
%LPC*%
G36*
X85112Y54355D02*
X85112Y54355D01*
X79755Y59712D01*
X79755Y67288D01*
X85112Y72645D01*
X92688Y72645D01*
X98045Y67288D01*
X98045Y59712D01*
X92688Y54355D01*
X85112Y54355D01*
G37*
%LPD*%
%LPC*%
G36*
X135912Y54355D02*
X135912Y54355D01*
X130555Y59712D01*
X130555Y67288D01*
X135912Y72645D01*
X143488Y72645D01*
X148845Y67288D01*
X148845Y59712D01*
X143488Y54355D01*
X135912Y54355D01*
G37*
%LPD*%
%LPC*%
G36*
X34312Y54355D02*
X34312Y54355D01*
X28955Y59712D01*
X28955Y67288D01*
X34312Y72645D01*
X41888Y72645D01*
X47245Y67288D01*
X47245Y59712D01*
X41888Y54355D01*
X34312Y54355D01*
G37*
%LPD*%
%LPC*%
G36*
X161312Y181355D02*
X161312Y181355D01*
X155955Y186712D01*
X155955Y194288D01*
X161312Y199645D01*
X168888Y199645D01*
X174245Y194288D01*
X174245Y186712D01*
X168888Y181355D01*
X161312Y181355D01*
G37*
%LPD*%
%LPC*%
G36*
X85112Y181355D02*
X85112Y181355D01*
X79755Y186712D01*
X79755Y194288D01*
X85112Y199645D01*
X92688Y199645D01*
X98045Y194288D01*
X98045Y186712D01*
X92688Y181355D01*
X85112Y181355D01*
G37*
%LPD*%
%LPC*%
G36*
X59712Y54355D02*
X59712Y54355D01*
X54355Y59712D01*
X54355Y67288D01*
X59712Y72645D01*
X67288Y72645D01*
X72645Y67288D01*
X72645Y59712D01*
X67288Y54355D01*
X59712Y54355D01*
G37*
%LPD*%
%LPC*%
G36*
X161312Y54355D02*
X161312Y54355D01*
X155955Y59712D01*
X155955Y67288D01*
X161312Y72645D01*
X168888Y72645D01*
X174245Y67288D01*
X174245Y59712D01*
X168888Y54355D01*
X161312Y54355D01*
G37*
%LPD*%
%LPC*%
G36*
X186712Y54355D02*
X186712Y54355D01*
X181355Y59712D01*
X181355Y67288D01*
X186712Y72645D01*
X194288Y72645D01*
X199645Y67288D01*
X199645Y59712D01*
X194288Y54355D01*
X186712Y54355D01*
G37*
%LPD*%
%LPC*%
G36*
X212112Y54355D02*
X212112Y54355D01*
X206755Y59712D01*
X206755Y67288D01*
X212112Y72645D01*
X219688Y72645D01*
X225045Y67288D01*
X225045Y59712D01*
X219688Y54355D01*
X212112Y54355D01*
G37*
%LPD*%
%LPC*%
G36*
X237512Y54355D02*
X237512Y54355D01*
X232155Y59712D01*
X232155Y67288D01*
X237512Y72645D01*
X245088Y72645D01*
X250445Y67288D01*
X250445Y59712D01*
X245088Y54355D01*
X237512Y54355D01*
G37*
%LPD*%
%LPC*%
G36*
X242823Y90423D02*
X242823Y90423D01*
X242823Y99061D01*
X245509Y99061D01*
X251461Y93109D01*
X251461Y90423D01*
X242823Y90423D01*
G37*
%LPD*%
%LPC*%
G36*
X268223Y90423D02*
X268223Y90423D01*
X268223Y99061D01*
X270909Y99061D01*
X276861Y93109D01*
X276861Y90423D01*
X268223Y90423D01*
G37*
%LPD*%
%LPC*%
G36*
X192023Y90423D02*
X192023Y90423D01*
X192023Y99061D01*
X194709Y99061D01*
X200661Y93109D01*
X200661Y90423D01*
X192023Y90423D01*
G37*
%LPD*%
%LPC*%
G36*
X141223Y192023D02*
X141223Y192023D01*
X141223Y200661D01*
X143909Y200661D01*
X149861Y194709D01*
X149861Y192023D01*
X141223Y192023D01*
G37*
%LPD*%
%LPC*%
G36*
X192023Y192023D02*
X192023Y192023D01*
X192023Y200661D01*
X194709Y200661D01*
X200661Y194709D01*
X200661Y192023D01*
X192023Y192023D01*
G37*
%LPD*%
%LPC*%
G36*
X65023Y90423D02*
X65023Y90423D01*
X65023Y99061D01*
X67709Y99061D01*
X73661Y93109D01*
X73661Y90423D01*
X65023Y90423D01*
G37*
%LPD*%
%LPC*%
G36*
X90423Y90423D02*
X90423Y90423D01*
X90423Y99061D01*
X93109Y99061D01*
X99061Y93109D01*
X99061Y90423D01*
X90423Y90423D01*
G37*
%LPD*%
%LPC*%
G36*
X115823Y90423D02*
X115823Y90423D01*
X115823Y99061D01*
X118509Y99061D01*
X124461Y93109D01*
X124461Y90423D01*
X115823Y90423D01*
G37*
%LPD*%
%LPC*%
G36*
X141223Y90423D02*
X141223Y90423D01*
X141223Y99061D01*
X143909Y99061D01*
X149861Y93109D01*
X149861Y90423D01*
X141223Y90423D01*
G37*
%LPD*%
%LPC*%
G36*
X166623Y90423D02*
X166623Y90423D01*
X166623Y99061D01*
X169309Y99061D01*
X175261Y93109D01*
X175261Y90423D01*
X166623Y90423D01*
G37*
%LPD*%
%LPC*%
G36*
X115823Y192023D02*
X115823Y192023D01*
X115823Y200661D01*
X118509Y200661D01*
X124461Y194709D01*
X124461Y192023D01*
X115823Y192023D01*
G37*
%LPD*%
%LPC*%
G36*
X217423Y90423D02*
X217423Y90423D01*
X217423Y99061D01*
X220109Y99061D01*
X226061Y93109D01*
X226061Y90423D01*
X217423Y90423D01*
G37*
%LPD*%
%LPC*%
G36*
X129539Y192023D02*
X129539Y192023D01*
X129539Y194709D01*
X135491Y200661D01*
X138177Y200661D01*
X138177Y192023D01*
X129539Y192023D01*
G37*
%LPD*%
%LPC*%
G36*
X104139Y192023D02*
X104139Y192023D01*
X104139Y194709D01*
X110091Y200661D01*
X112777Y200661D01*
X112777Y192023D01*
X104139Y192023D01*
G37*
%LPD*%
%LPC*%
G36*
X180339Y192023D02*
X180339Y192023D01*
X180339Y194709D01*
X186291Y200661D01*
X188977Y200661D01*
X188977Y192023D01*
X180339Y192023D01*
G37*
%LPD*%
%LPC*%
G36*
X180339Y90423D02*
X180339Y90423D01*
X180339Y93109D01*
X186291Y99061D01*
X188977Y99061D01*
X188977Y90423D01*
X180339Y90423D01*
G37*
%LPD*%
%LPC*%
G36*
X256539Y90423D02*
X256539Y90423D01*
X256539Y93109D01*
X262491Y99061D01*
X265177Y99061D01*
X265177Y90423D01*
X256539Y90423D01*
G37*
%LPD*%
%LPC*%
G36*
X231139Y90423D02*
X231139Y90423D01*
X231139Y93109D01*
X237091Y99061D01*
X239777Y99061D01*
X239777Y90423D01*
X231139Y90423D01*
G37*
%LPD*%
%LPC*%
G36*
X205739Y90423D02*
X205739Y90423D01*
X205739Y93109D01*
X211691Y99061D01*
X214377Y99061D01*
X214377Y90423D01*
X205739Y90423D01*
G37*
%LPD*%
%LPC*%
G36*
X154939Y90423D02*
X154939Y90423D01*
X154939Y93109D01*
X160891Y99061D01*
X163577Y99061D01*
X163577Y90423D01*
X154939Y90423D01*
G37*
%LPD*%
%LPC*%
G36*
X104139Y90423D02*
X104139Y90423D01*
X104139Y93109D01*
X110091Y99061D01*
X112777Y99061D01*
X112777Y90423D01*
X104139Y90423D01*
G37*
%LPD*%
%LPC*%
G36*
X78739Y90423D02*
X78739Y90423D01*
X78739Y93109D01*
X84691Y99061D01*
X87377Y99061D01*
X87377Y90423D01*
X78739Y90423D01*
G37*
%LPD*%
%LPC*%
G36*
X53339Y90423D02*
X53339Y90423D01*
X53339Y93109D01*
X59291Y99061D01*
X61977Y99061D01*
X61977Y90423D01*
X53339Y90423D01*
G37*
%LPD*%
%LPC*%
G36*
X129539Y90423D02*
X129539Y90423D01*
X129539Y93109D01*
X135491Y99061D01*
X138177Y99061D01*
X138177Y90423D01*
X129539Y90423D01*
G37*
%LPD*%
%LPC*%
G36*
X141223Y78739D02*
X141223Y78739D01*
X141223Y87377D01*
X149861Y87377D01*
X149861Y84691D01*
X143909Y78739D01*
X141223Y78739D01*
G37*
%LPD*%
%LPC*%
G36*
X217423Y78739D02*
X217423Y78739D01*
X217423Y87377D01*
X226061Y87377D01*
X226061Y84691D01*
X220109Y78739D01*
X217423Y78739D01*
G37*
%LPD*%
%LPC*%
G36*
X192023Y78739D02*
X192023Y78739D01*
X192023Y87377D01*
X200661Y87377D01*
X200661Y84691D01*
X194709Y78739D01*
X192023Y78739D01*
G37*
%LPD*%
%LPC*%
G36*
X192023Y180339D02*
X192023Y180339D01*
X192023Y188977D01*
X200661Y188977D01*
X200661Y186291D01*
X194709Y180339D01*
X192023Y180339D01*
G37*
%LPD*%
%LPC*%
G36*
X115823Y78739D02*
X115823Y78739D01*
X115823Y87377D01*
X124461Y87377D01*
X124461Y84691D01*
X118509Y78739D01*
X115823Y78739D01*
G37*
%LPD*%
%LPC*%
G36*
X115823Y180339D02*
X115823Y180339D01*
X115823Y188977D01*
X124461Y188977D01*
X124461Y186291D01*
X118509Y180339D01*
X115823Y180339D01*
G37*
%LPD*%
%LPC*%
G36*
X90423Y78739D02*
X90423Y78739D01*
X90423Y87377D01*
X99061Y87377D01*
X99061Y84691D01*
X93109Y78739D01*
X90423Y78739D01*
G37*
%LPD*%
%LPC*%
G36*
X65023Y78739D02*
X65023Y78739D01*
X65023Y87377D01*
X73661Y87377D01*
X73661Y84691D01*
X67709Y78739D01*
X65023Y78739D01*
G37*
%LPD*%
%LPC*%
G36*
X141223Y180339D02*
X141223Y180339D01*
X141223Y188977D01*
X149861Y188977D01*
X149861Y186291D01*
X143909Y180339D01*
X141223Y180339D01*
G37*
%LPD*%
%LPC*%
G36*
X242823Y78739D02*
X242823Y78739D01*
X242823Y87377D01*
X251461Y87377D01*
X251461Y84691D01*
X245509Y78739D01*
X242823Y78739D01*
G37*
%LPD*%
%LPC*%
G36*
X166623Y78739D02*
X166623Y78739D01*
X166623Y87377D01*
X175261Y87377D01*
X175261Y84691D01*
X169309Y78739D01*
X166623Y78739D01*
G37*
%LPD*%
%LPC*%
G36*
X268223Y78739D02*
X268223Y78739D01*
X268223Y87377D01*
X276861Y87377D01*
X276861Y84691D01*
X270909Y78739D01*
X268223Y78739D01*
G37*
%LPD*%
%LPC*%
G36*
X186291Y180339D02*
X186291Y180339D01*
X180339Y186291D01*
X180339Y188977D01*
X188977Y188977D01*
X188977Y180339D01*
X186291Y180339D01*
G37*
%LPD*%
%LPC*%
G36*
X110091Y180339D02*
X110091Y180339D01*
X104139Y186291D01*
X104139Y188977D01*
X112777Y188977D01*
X112777Y180339D01*
X110091Y180339D01*
G37*
%LPD*%
%LPC*%
G36*
X135491Y78739D02*
X135491Y78739D01*
X129539Y84691D01*
X129539Y87377D01*
X138177Y87377D01*
X138177Y78739D01*
X135491Y78739D01*
G37*
%LPD*%
%LPC*%
G36*
X211691Y78739D02*
X211691Y78739D01*
X205739Y84691D01*
X205739Y87377D01*
X214377Y87377D01*
X214377Y78739D01*
X211691Y78739D01*
G37*
%LPD*%
%LPC*%
G36*
X110091Y78739D02*
X110091Y78739D01*
X104139Y84691D01*
X104139Y87377D01*
X112777Y87377D01*
X112777Y78739D01*
X110091Y78739D01*
G37*
%LPD*%
%LPC*%
G36*
X237091Y78739D02*
X237091Y78739D01*
X231139Y84691D01*
X231139Y87377D01*
X239777Y87377D01*
X239777Y78739D01*
X237091Y78739D01*
G37*
%LPD*%
%LPC*%
G36*
X186291Y78739D02*
X186291Y78739D01*
X180339Y84691D01*
X180339Y87377D01*
X188977Y87377D01*
X188977Y78739D01*
X186291Y78739D01*
G37*
%LPD*%
%LPC*%
G36*
X262491Y78739D02*
X262491Y78739D01*
X256539Y84691D01*
X256539Y87377D01*
X265177Y87377D01*
X265177Y78739D01*
X262491Y78739D01*
G37*
%LPD*%
%LPC*%
G36*
X59291Y78739D02*
X59291Y78739D01*
X53339Y84691D01*
X53339Y87377D01*
X61977Y87377D01*
X61977Y78739D01*
X59291Y78739D01*
G37*
%LPD*%
%LPC*%
G36*
X84691Y78739D02*
X84691Y78739D01*
X78739Y84691D01*
X78739Y87377D01*
X87377Y87377D01*
X87377Y78739D01*
X84691Y78739D01*
G37*
%LPD*%
%LPC*%
G36*
X135491Y180339D02*
X135491Y180339D01*
X129539Y186291D01*
X129539Y188977D01*
X138177Y188977D01*
X138177Y180339D01*
X135491Y180339D01*
G37*
%LPD*%
%LPC*%
G36*
X160891Y78739D02*
X160891Y78739D01*
X154939Y84691D01*
X154939Y87377D01*
X163577Y87377D01*
X163577Y78739D01*
X160891Y78739D01*
G37*
%LPD*%
%LPC*%
G36*
X190499Y190499D02*
X190499Y190499D01*
X190499Y190501D01*
X190501Y190501D01*
X190501Y190499D01*
X190499Y190499D01*
G37*
%LPD*%
%LPC*%
G36*
X139699Y190499D02*
X139699Y190499D01*
X139699Y190501D01*
X139701Y190501D01*
X139701Y190499D01*
X139699Y190499D01*
G37*
%LPD*%
%LPC*%
G36*
X114299Y190499D02*
X114299Y190499D01*
X114299Y190501D01*
X114301Y190501D01*
X114301Y190499D01*
X114299Y190499D01*
G37*
%LPD*%
%LPC*%
G36*
X266699Y88899D02*
X266699Y88899D01*
X266699Y88901D01*
X266701Y88901D01*
X266701Y88899D01*
X266699Y88899D01*
G37*
%LPD*%
%LPC*%
G36*
X241299Y88899D02*
X241299Y88899D01*
X241299Y88901D01*
X241301Y88901D01*
X241301Y88899D01*
X241299Y88899D01*
G37*
%LPD*%
%LPC*%
G36*
X63499Y88899D02*
X63499Y88899D01*
X63499Y88901D01*
X63501Y88901D01*
X63501Y88899D01*
X63499Y88899D01*
G37*
%LPD*%
%LPC*%
G36*
X114299Y88899D02*
X114299Y88899D01*
X114299Y88901D01*
X114301Y88901D01*
X114301Y88899D01*
X114299Y88899D01*
G37*
%LPD*%
%LPC*%
G36*
X139699Y88899D02*
X139699Y88899D01*
X139699Y88901D01*
X139701Y88901D01*
X139701Y88899D01*
X139699Y88899D01*
G37*
%LPD*%
%LPC*%
G36*
X165099Y88899D02*
X165099Y88899D01*
X165099Y88901D01*
X165101Y88901D01*
X165101Y88899D01*
X165099Y88899D01*
G37*
%LPD*%
%LPC*%
G36*
X190499Y88899D02*
X190499Y88899D01*
X190499Y88901D01*
X190501Y88901D01*
X190501Y88899D01*
X190499Y88899D01*
G37*
%LPD*%
%LPC*%
G36*
X215899Y88899D02*
X215899Y88899D01*
X215899Y88901D01*
X215901Y88901D01*
X215901Y88899D01*
X215899Y88899D01*
G37*
%LPD*%
%LPC*%
G36*
X88899Y88899D02*
X88899Y88899D01*
X88899Y88901D01*
X88901Y88901D01*
X88901Y88899D01*
X88899Y88899D01*
G37*
%LPD*%
D10*
X88900Y215900D03*
X114300Y215900D03*
X139700Y215900D03*
X165100Y215900D03*
X190500Y215900D03*
X190500Y190500D03*
X165100Y190500D03*
X139700Y190500D03*
X114300Y190500D03*
X88900Y190500D03*
X266700Y88900D03*
X241300Y88900D03*
X215900Y88900D03*
X190500Y88900D03*
X165100Y88900D03*
X139700Y88900D03*
X266700Y63500D03*
X241300Y63500D03*
X215900Y63500D03*
X190500Y63500D03*
X165100Y63500D03*
X139700Y63500D03*
X114300Y88900D03*
X88900Y88900D03*
X114300Y63500D03*
X88900Y63500D03*
X63500Y88900D03*
X63500Y63500D03*
X38100Y88900D03*
X38100Y63500D03*
M02*
