G04 EAGLE Gerber RS-274X export*
G75*
%MOMM*%
%FSLAX34Y34*%
%LPD*%
%INBottom Copper*%
%IPPOS*%
%AMOC8*
5,1,8,0,0,1.08239X$1,22.5*%
G01*
%ADD10P,1.649562X8X202.500000*%
%ADD11C,0.508000*%

G36*
X302280Y-758D02*
X302280Y-758D01*
X302299Y-760D01*
X302401Y-738D01*
X302503Y-722D01*
X302520Y-712D01*
X302540Y-708D01*
X302629Y-655D01*
X302720Y-606D01*
X302734Y-592D01*
X302751Y-582D01*
X302818Y-503D01*
X302890Y-428D01*
X302898Y-410D01*
X302911Y-395D01*
X302950Y-299D01*
X302993Y-205D01*
X302995Y-185D01*
X303003Y-167D01*
X303021Y0D01*
X303021Y243840D01*
X303018Y243860D01*
X303020Y243879D01*
X302998Y243981D01*
X302982Y244083D01*
X302972Y244100D01*
X302968Y244120D01*
X302915Y244209D01*
X302866Y244300D01*
X302852Y244314D01*
X302842Y244331D01*
X302763Y244398D01*
X302688Y244470D01*
X302670Y244478D01*
X302655Y244491D01*
X302559Y244530D01*
X302465Y244573D01*
X302445Y244575D01*
X302427Y244583D01*
X302260Y244601D01*
X-5080Y244601D01*
X-5100Y244598D01*
X-5119Y244600D01*
X-5221Y244578D01*
X-5323Y244562D01*
X-5340Y244552D01*
X-5360Y244548D01*
X-5449Y244495D01*
X-5540Y244446D01*
X-5554Y244432D01*
X-5571Y244422D01*
X-5638Y244343D01*
X-5710Y244268D01*
X-5718Y244250D01*
X-5731Y244235D01*
X-5770Y244139D01*
X-5813Y244045D01*
X-5815Y244025D01*
X-5823Y244007D01*
X-5841Y243840D01*
X-5841Y0D01*
X-5838Y-20D01*
X-5840Y-39D01*
X-5818Y-141D01*
X-5802Y-243D01*
X-5792Y-260D01*
X-5788Y-280D01*
X-5735Y-369D01*
X-5686Y-460D01*
X-5672Y-474D01*
X-5662Y-491D01*
X-5583Y-558D01*
X-5508Y-630D01*
X-5490Y-638D01*
X-5475Y-651D01*
X-5379Y-690D01*
X-5285Y-733D01*
X-5265Y-735D01*
X-5247Y-743D01*
X-5080Y-761D01*
X302260Y-761D01*
X302280Y-758D01*
G37*
%LPC*%
G36*
X94836Y39115D02*
X94836Y39115D01*
X84835Y49116D01*
X84835Y54317D01*
X84821Y54407D01*
X84813Y54498D01*
X84801Y54528D01*
X84796Y54560D01*
X84753Y54640D01*
X84717Y54724D01*
X84691Y54756D01*
X84680Y54777D01*
X84657Y54799D01*
X84612Y54855D01*
X79755Y59712D01*
X79755Y67288D01*
X85112Y72645D01*
X92688Y72645D01*
X98045Y67288D01*
X98045Y59712D01*
X93188Y54855D01*
X93135Y54781D01*
X93075Y54712D01*
X93063Y54682D01*
X93044Y54655D01*
X93017Y54568D01*
X92983Y54484D01*
X92979Y54443D01*
X92972Y54420D01*
X92973Y54388D01*
X92965Y54317D01*
X92965Y52799D01*
X92979Y52709D01*
X92987Y52618D01*
X92999Y52588D01*
X93004Y52556D01*
X93047Y52476D01*
X93083Y52392D01*
X93109Y52360D01*
X93120Y52339D01*
X93143Y52317D01*
X93188Y52261D01*
X97981Y47468D01*
X98055Y47415D01*
X98124Y47355D01*
X98154Y47343D01*
X98180Y47324D01*
X98267Y47297D01*
X98352Y47263D01*
X98393Y47259D01*
X98416Y47252D01*
X98448Y47253D01*
X98519Y47245D01*
X193581Y47245D01*
X193671Y47259D01*
X193762Y47267D01*
X193792Y47279D01*
X193824Y47284D01*
X193904Y47327D01*
X193988Y47363D01*
X194020Y47389D01*
X194041Y47400D01*
X194063Y47423D01*
X194119Y47468D01*
X198912Y52261D01*
X198965Y52335D01*
X199025Y52404D01*
X199037Y52434D01*
X199056Y52460D01*
X199083Y52547D01*
X199117Y52632D01*
X199121Y52673D01*
X199128Y52696D01*
X199127Y52728D01*
X199135Y52799D01*
X199135Y57365D01*
X199124Y57436D01*
X199122Y57507D01*
X199104Y57556D01*
X199096Y57608D01*
X199062Y57671D01*
X199037Y57738D01*
X199005Y57779D01*
X198980Y57825D01*
X198928Y57874D01*
X198884Y57930D01*
X198840Y57959D01*
X198802Y57994D01*
X198737Y58025D01*
X198677Y58063D01*
X198626Y58076D01*
X198579Y58098D01*
X198508Y58106D01*
X198438Y58123D01*
X198386Y58119D01*
X198335Y58125D01*
X198264Y58110D01*
X198193Y58104D01*
X198145Y58084D01*
X198094Y58073D01*
X198033Y58036D01*
X197967Y58008D01*
X197911Y57963D01*
X197883Y57947D01*
X197868Y57929D01*
X197836Y57903D01*
X194288Y54355D01*
X186712Y54355D01*
X181355Y59712D01*
X181355Y64041D01*
X181341Y64131D01*
X181333Y64222D01*
X181321Y64252D01*
X181316Y64284D01*
X181273Y64364D01*
X181237Y64448D01*
X181211Y64480D01*
X181200Y64501D01*
X181177Y64523D01*
X181132Y64579D01*
X173735Y71976D01*
X173735Y81328D01*
X173724Y81399D01*
X173722Y81470D01*
X173704Y81519D01*
X173696Y81571D01*
X173662Y81634D01*
X173637Y81701D01*
X173605Y81742D01*
X173580Y81788D01*
X173528Y81838D01*
X173484Y81894D01*
X173440Y81922D01*
X173402Y81958D01*
X173337Y81988D01*
X173277Y82027D01*
X173226Y82039D01*
X173179Y82061D01*
X173108Y82069D01*
X173038Y82087D01*
X172986Y82083D01*
X172935Y82088D01*
X172864Y82073D01*
X172793Y82067D01*
X172745Y82047D01*
X172694Y82036D01*
X172633Y81999D01*
X172567Y81971D01*
X172511Y81926D01*
X172483Y81910D01*
X172468Y81892D01*
X172436Y81866D01*
X169309Y78739D01*
X166623Y78739D01*
X166623Y88138D01*
X166620Y88158D01*
X166622Y88177D01*
X166600Y88279D01*
X166583Y88381D01*
X166574Y88398D01*
X166570Y88418D01*
X166517Y88507D01*
X166468Y88598D01*
X166454Y88612D01*
X166444Y88629D01*
X166365Y88696D01*
X166290Y88767D01*
X166272Y88776D01*
X166257Y88789D01*
X166161Y88827D01*
X166067Y88871D01*
X166047Y88873D01*
X166029Y88881D01*
X165862Y88899D01*
X165099Y88899D01*
X165099Y88901D01*
X165862Y88901D01*
X165882Y88904D01*
X165901Y88902D01*
X166003Y88924D01*
X166105Y88941D01*
X166122Y88950D01*
X166142Y88954D01*
X166231Y89007D01*
X166322Y89056D01*
X166336Y89070D01*
X166353Y89080D01*
X166420Y89159D01*
X166491Y89234D01*
X166500Y89252D01*
X166513Y89267D01*
X166552Y89363D01*
X166595Y89457D01*
X166597Y89477D01*
X166605Y89495D01*
X166623Y89662D01*
X166623Y99061D01*
X169309Y99061D01*
X172436Y95934D01*
X172494Y95892D01*
X172546Y95842D01*
X172593Y95821D01*
X172635Y95790D01*
X172704Y95769D01*
X172769Y95739D01*
X172821Y95733D01*
X172871Y95718D01*
X172942Y95720D01*
X173013Y95712D01*
X173064Y95723D01*
X173116Y95724D01*
X173184Y95749D01*
X173254Y95764D01*
X173299Y95791D01*
X173347Y95809D01*
X173403Y95853D01*
X173465Y95890D01*
X173499Y95930D01*
X173539Y95962D01*
X173578Y96023D01*
X173625Y96077D01*
X173644Y96125D01*
X173672Y96169D01*
X173690Y96239D01*
X173717Y96305D01*
X173725Y96377D01*
X173733Y96408D01*
X173731Y96431D01*
X173735Y96472D01*
X173735Y104681D01*
X173721Y104771D01*
X173713Y104862D01*
X173701Y104892D01*
X173696Y104924D01*
X173653Y105004D01*
X173617Y105088D01*
X173591Y105120D01*
X173580Y105141D01*
X173557Y105163D01*
X173512Y105219D01*
X148335Y130396D01*
X148335Y182928D01*
X148324Y182999D01*
X148322Y183070D01*
X148304Y183119D01*
X148296Y183171D01*
X148262Y183234D01*
X148237Y183301D01*
X148205Y183342D01*
X148180Y183388D01*
X148128Y183438D01*
X148084Y183494D01*
X148040Y183522D01*
X148002Y183558D01*
X147937Y183588D01*
X147877Y183627D01*
X147826Y183639D01*
X147779Y183661D01*
X147708Y183669D01*
X147638Y183687D01*
X147586Y183683D01*
X147535Y183688D01*
X147464Y183673D01*
X147393Y183667D01*
X147345Y183647D01*
X147294Y183636D01*
X147233Y183599D01*
X147167Y183571D01*
X147111Y183526D01*
X147083Y183510D01*
X147068Y183492D01*
X147036Y183466D01*
X143909Y180339D01*
X141223Y180339D01*
X141223Y189738D01*
X141220Y189758D01*
X141222Y189777D01*
X141200Y189879D01*
X141183Y189981D01*
X141174Y189998D01*
X141170Y190018D01*
X141117Y190107D01*
X141068Y190198D01*
X141054Y190212D01*
X141044Y190229D01*
X140965Y190296D01*
X140890Y190367D01*
X140872Y190376D01*
X140857Y190389D01*
X140761Y190427D01*
X140667Y190471D01*
X140647Y190473D01*
X140629Y190481D01*
X140462Y190499D01*
X138938Y190499D01*
X138918Y190496D01*
X138899Y190498D01*
X138797Y190476D01*
X138695Y190459D01*
X138678Y190450D01*
X138658Y190446D01*
X138569Y190393D01*
X138478Y190344D01*
X138464Y190330D01*
X138447Y190320D01*
X138380Y190241D01*
X138309Y190166D01*
X138300Y190148D01*
X138287Y190133D01*
X138248Y190037D01*
X138205Y189943D01*
X138203Y189923D01*
X138195Y189905D01*
X138177Y189738D01*
X138177Y180339D01*
X135491Y180339D01*
X132364Y183466D01*
X132306Y183508D01*
X132254Y183558D01*
X132207Y183579D01*
X132165Y183610D01*
X132096Y183631D01*
X132031Y183661D01*
X131979Y183667D01*
X131929Y183682D01*
X131858Y183680D01*
X131787Y183688D01*
X131736Y183677D01*
X131684Y183676D01*
X131616Y183651D01*
X131546Y183636D01*
X131501Y183609D01*
X131453Y183591D01*
X131397Y183547D01*
X131335Y183510D01*
X131301Y183470D01*
X131261Y183438D01*
X131222Y183377D01*
X131175Y183323D01*
X131156Y183275D01*
X131128Y183231D01*
X131110Y183161D01*
X131083Y183095D01*
X131075Y183023D01*
X131067Y182992D01*
X131069Y182969D01*
X131065Y182928D01*
X131065Y96472D01*
X131076Y96401D01*
X131078Y96330D01*
X131096Y96281D01*
X131104Y96229D01*
X131138Y96166D01*
X131163Y96099D01*
X131195Y96058D01*
X131220Y96012D01*
X131272Y95962D01*
X131316Y95906D01*
X131360Y95878D01*
X131398Y95842D01*
X131463Y95812D01*
X131523Y95773D01*
X131574Y95761D01*
X131621Y95739D01*
X131692Y95731D01*
X131762Y95713D01*
X131814Y95717D01*
X131865Y95712D01*
X131936Y95727D01*
X132007Y95733D01*
X132055Y95753D01*
X132106Y95764D01*
X132167Y95801D01*
X132233Y95829D01*
X132289Y95874D01*
X132317Y95890D01*
X132332Y95908D01*
X132364Y95934D01*
X135491Y99061D01*
X138177Y99061D01*
X138177Y89662D01*
X138180Y89642D01*
X138178Y89623D01*
X138200Y89521D01*
X138217Y89419D01*
X138226Y89402D01*
X138230Y89382D01*
X138283Y89293D01*
X138332Y89202D01*
X138346Y89188D01*
X138356Y89171D01*
X138435Y89104D01*
X138510Y89033D01*
X138528Y89024D01*
X138543Y89011D01*
X138639Y88973D01*
X138733Y88929D01*
X138753Y88927D01*
X138771Y88919D01*
X138938Y88901D01*
X139701Y88901D01*
X139701Y88899D01*
X138938Y88899D01*
X138918Y88896D01*
X138899Y88898D01*
X138797Y88876D01*
X138695Y88859D01*
X138678Y88850D01*
X138658Y88846D01*
X138569Y88793D01*
X138478Y88744D01*
X138464Y88730D01*
X138447Y88720D01*
X138380Y88641D01*
X138309Y88566D01*
X138300Y88548D01*
X138287Y88533D01*
X138248Y88437D01*
X138205Y88343D01*
X138203Y88323D01*
X138195Y88305D01*
X138177Y88138D01*
X138177Y78739D01*
X135491Y78739D01*
X132364Y81866D01*
X132306Y81908D01*
X132254Y81958D01*
X132207Y81979D01*
X132165Y82010D01*
X132096Y82031D01*
X132031Y82061D01*
X131979Y82067D01*
X131929Y82082D01*
X131858Y82080D01*
X131787Y82088D01*
X131736Y82077D01*
X131684Y82076D01*
X131616Y82051D01*
X131546Y82036D01*
X131501Y82009D01*
X131453Y81991D01*
X131397Y81947D01*
X131335Y81910D01*
X131301Y81870D01*
X131261Y81838D01*
X131222Y81777D01*
X131175Y81723D01*
X131156Y81675D01*
X131128Y81631D01*
X131110Y81561D01*
X131083Y81495D01*
X131075Y81423D01*
X131067Y81392D01*
X131069Y81369D01*
X131065Y81328D01*
X131065Y78199D01*
X131079Y78109D01*
X131087Y78018D01*
X131099Y77988D01*
X131104Y77956D01*
X131147Y77876D01*
X131183Y77792D01*
X131209Y77760D01*
X131220Y77739D01*
X131243Y77717D01*
X131288Y77661D01*
X136081Y72868D01*
X136155Y72815D01*
X136224Y72755D01*
X136254Y72743D01*
X136280Y72724D01*
X136367Y72697D01*
X136452Y72663D01*
X136493Y72659D01*
X136516Y72652D01*
X136548Y72653D01*
X136619Y72645D01*
X143488Y72645D01*
X148845Y67288D01*
X148845Y59712D01*
X143488Y54355D01*
X135912Y54355D01*
X130555Y59712D01*
X130555Y66581D01*
X130541Y66671D01*
X130533Y66762D01*
X130521Y66792D01*
X130516Y66824D01*
X130473Y66904D01*
X130437Y66988D01*
X130411Y67020D01*
X130400Y67041D01*
X130377Y67063D01*
X130332Y67119D01*
X122935Y74516D01*
X122935Y81328D01*
X122924Y81399D01*
X122922Y81470D01*
X122904Y81519D01*
X122896Y81571D01*
X122862Y81634D01*
X122837Y81701D01*
X122805Y81742D01*
X122780Y81788D01*
X122728Y81838D01*
X122684Y81894D01*
X122640Y81922D01*
X122602Y81958D01*
X122537Y81988D01*
X122477Y82027D01*
X122426Y82039D01*
X122379Y82061D01*
X122308Y82069D01*
X122238Y82087D01*
X122186Y82083D01*
X122135Y82088D01*
X122064Y82073D01*
X121993Y82067D01*
X121945Y82047D01*
X121894Y82036D01*
X121833Y81999D01*
X121767Y81971D01*
X121711Y81926D01*
X121683Y81910D01*
X121668Y81892D01*
X121636Y81866D01*
X118509Y78739D01*
X115823Y78739D01*
X115823Y88138D01*
X115820Y88158D01*
X115822Y88177D01*
X115800Y88279D01*
X115783Y88381D01*
X115774Y88398D01*
X115770Y88418D01*
X115717Y88507D01*
X115668Y88598D01*
X115654Y88612D01*
X115644Y88629D01*
X115565Y88696D01*
X115490Y88767D01*
X115472Y88776D01*
X115457Y88789D01*
X115361Y88827D01*
X115267Y88871D01*
X115247Y88873D01*
X115229Y88881D01*
X115062Y88899D01*
X113538Y88899D01*
X113518Y88896D01*
X113499Y88898D01*
X113397Y88876D01*
X113295Y88859D01*
X113278Y88850D01*
X113258Y88846D01*
X113169Y88793D01*
X113078Y88744D01*
X113064Y88730D01*
X113047Y88720D01*
X112980Y88641D01*
X112909Y88566D01*
X112900Y88548D01*
X112887Y88533D01*
X112848Y88437D01*
X112805Y88343D01*
X112803Y88323D01*
X112795Y88305D01*
X112777Y88138D01*
X112777Y78739D01*
X110091Y78739D01*
X106964Y81866D01*
X106906Y81908D01*
X106854Y81958D01*
X106807Y81979D01*
X106765Y82010D01*
X106696Y82031D01*
X106631Y82061D01*
X106579Y82067D01*
X106529Y82082D01*
X106458Y82080D01*
X106387Y82088D01*
X106336Y82077D01*
X106284Y82076D01*
X106216Y82051D01*
X106146Y82036D01*
X106101Y82009D01*
X106053Y81991D01*
X105997Y81947D01*
X105935Y81910D01*
X105901Y81870D01*
X105861Y81838D01*
X105822Y81777D01*
X105775Y81723D01*
X105756Y81675D01*
X105728Y81631D01*
X105710Y81561D01*
X105683Y81495D01*
X105675Y81423D01*
X105667Y81392D01*
X105669Y81369D01*
X105665Y81328D01*
X105665Y78199D01*
X105679Y78109D01*
X105687Y78018D01*
X105699Y77988D01*
X105704Y77956D01*
X105747Y77876D01*
X105783Y77792D01*
X105809Y77760D01*
X105820Y77739D01*
X105843Y77717D01*
X105888Y77661D01*
X110681Y72868D01*
X110755Y72815D01*
X110824Y72755D01*
X110854Y72743D01*
X110880Y72724D01*
X110967Y72697D01*
X111052Y72663D01*
X111093Y72659D01*
X111115Y72652D01*
X111148Y72653D01*
X111219Y72645D01*
X118088Y72645D01*
X123445Y67288D01*
X123445Y59712D01*
X118088Y54355D01*
X110512Y54355D01*
X105155Y59712D01*
X105155Y66581D01*
X105141Y66671D01*
X105133Y66762D01*
X105121Y66792D01*
X105116Y66824D01*
X105073Y66904D01*
X105037Y66988D01*
X105011Y67020D01*
X105000Y67041D01*
X104977Y67063D01*
X104932Y67119D01*
X100139Y71912D01*
X97535Y74516D01*
X97535Y81328D01*
X97524Y81399D01*
X97522Y81470D01*
X97504Y81519D01*
X97496Y81571D01*
X97462Y81634D01*
X97437Y81701D01*
X97405Y81742D01*
X97380Y81788D01*
X97328Y81838D01*
X97284Y81894D01*
X97240Y81922D01*
X97202Y81958D01*
X97137Y81988D01*
X97077Y82027D01*
X97026Y82039D01*
X96979Y82061D01*
X96908Y82069D01*
X96838Y82087D01*
X96786Y82083D01*
X96735Y82088D01*
X96664Y82073D01*
X96593Y82067D01*
X96545Y82047D01*
X96494Y82036D01*
X96433Y81999D01*
X96367Y81971D01*
X96311Y81926D01*
X96283Y81910D01*
X96268Y81892D01*
X96236Y81866D01*
X93109Y78739D01*
X90423Y78739D01*
X90423Y88138D01*
X90420Y88158D01*
X90422Y88177D01*
X90400Y88279D01*
X90383Y88381D01*
X90374Y88398D01*
X90370Y88418D01*
X90317Y88507D01*
X90268Y88598D01*
X90254Y88612D01*
X90244Y88629D01*
X90165Y88696D01*
X90090Y88767D01*
X90072Y88776D01*
X90057Y88789D01*
X89961Y88827D01*
X89867Y88871D01*
X89847Y88873D01*
X89829Y88881D01*
X89662Y88899D01*
X88899Y88899D01*
X88899Y88901D01*
X89662Y88901D01*
X89682Y88904D01*
X89701Y88902D01*
X89803Y88924D01*
X89905Y88941D01*
X89922Y88950D01*
X89942Y88954D01*
X90031Y89007D01*
X90122Y89056D01*
X90136Y89070D01*
X90153Y89080D01*
X90220Y89159D01*
X90291Y89234D01*
X90300Y89252D01*
X90313Y89267D01*
X90352Y89363D01*
X90395Y89457D01*
X90397Y89477D01*
X90405Y89495D01*
X90423Y89662D01*
X90423Y99061D01*
X93109Y99061D01*
X96236Y95934D01*
X96294Y95892D01*
X96346Y95842D01*
X96393Y95821D01*
X96435Y95790D01*
X96504Y95769D01*
X96569Y95739D01*
X96621Y95733D01*
X96671Y95718D01*
X96742Y95720D01*
X96813Y95712D01*
X96864Y95723D01*
X96916Y95724D01*
X96984Y95749D01*
X97054Y95764D01*
X97099Y95791D01*
X97147Y95809D01*
X97203Y95853D01*
X97265Y95890D01*
X97299Y95930D01*
X97339Y95962D01*
X97378Y96023D01*
X97425Y96077D01*
X97444Y96125D01*
X97472Y96169D01*
X97490Y96239D01*
X97517Y96305D01*
X97525Y96377D01*
X97533Y96408D01*
X97531Y96431D01*
X97535Y96472D01*
X97535Y184365D01*
X97524Y184436D01*
X97522Y184507D01*
X97504Y184556D01*
X97496Y184608D01*
X97462Y184671D01*
X97437Y184738D01*
X97405Y184779D01*
X97380Y184825D01*
X97328Y184874D01*
X97284Y184930D01*
X97240Y184959D01*
X97202Y184994D01*
X97137Y185025D01*
X97077Y185063D01*
X97026Y185076D01*
X96979Y185098D01*
X96908Y185106D01*
X96838Y185123D01*
X96786Y185119D01*
X96735Y185125D01*
X96664Y185110D01*
X96593Y185104D01*
X96545Y185084D01*
X96494Y185073D01*
X96433Y185036D01*
X96367Y185008D01*
X96311Y184963D01*
X96283Y184947D01*
X96268Y184929D01*
X96236Y184903D01*
X92688Y181355D01*
X85819Y181355D01*
X85729Y181341D01*
X85638Y181333D01*
X85608Y181321D01*
X85576Y181316D01*
X85496Y181273D01*
X85412Y181237D01*
X85380Y181211D01*
X85359Y181200D01*
X85337Y181177D01*
X85281Y181132D01*
X16988Y112839D01*
X16935Y112765D01*
X16875Y112696D01*
X16863Y112666D01*
X16844Y112640D01*
X16817Y112553D01*
X16783Y112468D01*
X16779Y112427D01*
X16772Y112404D01*
X16773Y112372D01*
X16765Y112301D01*
X16765Y78199D01*
X16779Y78109D01*
X16787Y78018D01*
X16799Y77988D01*
X16804Y77956D01*
X16847Y77876D01*
X16883Y77792D01*
X16909Y77760D01*
X16920Y77739D01*
X16943Y77717D01*
X16988Y77661D01*
X26861Y67788D01*
X26935Y67735D01*
X27004Y67675D01*
X27034Y67663D01*
X27060Y67644D01*
X27147Y67617D01*
X27232Y67583D01*
X27273Y67579D01*
X27296Y67572D01*
X27328Y67573D01*
X27399Y67565D01*
X28917Y67565D01*
X29007Y67579D01*
X29098Y67587D01*
X29128Y67599D01*
X29160Y67604D01*
X29240Y67647D01*
X29324Y67683D01*
X29356Y67709D01*
X29377Y67720D01*
X29399Y67743D01*
X29455Y67788D01*
X34312Y72645D01*
X41888Y72645D01*
X47245Y67288D01*
X47245Y59712D01*
X41888Y54355D01*
X34312Y54355D01*
X29455Y59212D01*
X29381Y59265D01*
X29312Y59325D01*
X29282Y59337D01*
X29255Y59356D01*
X29168Y59383D01*
X29084Y59417D01*
X29043Y59421D01*
X29020Y59428D01*
X28988Y59427D01*
X28917Y59435D01*
X23716Y59435D01*
X8635Y74516D01*
X8635Y115984D01*
X11239Y118588D01*
X79532Y186881D01*
X79585Y186955D01*
X79645Y187024D01*
X79657Y187054D01*
X79676Y187080D01*
X79703Y187167D01*
X79737Y187252D01*
X79741Y187293D01*
X79748Y187315D01*
X79747Y187348D01*
X79755Y187419D01*
X79755Y194288D01*
X85112Y199645D01*
X92688Y199645D01*
X96236Y196097D01*
X96294Y196055D01*
X96346Y196006D01*
X96393Y195984D01*
X96435Y195953D01*
X96504Y195932D01*
X96569Y195902D01*
X96621Y195896D01*
X96671Y195881D01*
X96742Y195883D01*
X96813Y195875D01*
X96864Y195886D01*
X96916Y195887D01*
X96984Y195912D01*
X97054Y195927D01*
X97099Y195954D01*
X97147Y195972D01*
X97203Y196017D01*
X97265Y196053D01*
X97299Y196093D01*
X97339Y196125D01*
X97378Y196186D01*
X97425Y196240D01*
X97444Y196289D01*
X97472Y196332D01*
X97490Y196402D01*
X97517Y196468D01*
X97525Y196540D01*
X97533Y196571D01*
X97531Y196594D01*
X97535Y196635D01*
X97535Y201201D01*
X97521Y201291D01*
X97513Y201382D01*
X97501Y201412D01*
X97496Y201444D01*
X97453Y201524D01*
X97417Y201608D01*
X97391Y201640D01*
X97380Y201661D01*
X97357Y201683D01*
X97312Y201739D01*
X92519Y206532D01*
X92445Y206585D01*
X92376Y206645D01*
X92346Y206657D01*
X92320Y206676D01*
X92233Y206703D01*
X92148Y206737D01*
X92107Y206741D01*
X92084Y206748D01*
X92052Y206747D01*
X91981Y206755D01*
X85112Y206755D01*
X79755Y212112D01*
X79755Y219688D01*
X85112Y225045D01*
X92688Y225045D01*
X98045Y219688D01*
X98045Y212819D01*
X98059Y212729D01*
X98067Y212638D01*
X98079Y212608D01*
X98084Y212576D01*
X98127Y212496D01*
X98163Y212412D01*
X98189Y212380D01*
X98200Y212359D01*
X98223Y212337D01*
X98268Y212281D01*
X105665Y204884D01*
X105665Y198072D01*
X105676Y198001D01*
X105678Y197930D01*
X105696Y197881D01*
X105704Y197829D01*
X105738Y197766D01*
X105763Y197699D01*
X105795Y197658D01*
X105820Y197612D01*
X105872Y197562D01*
X105916Y197506D01*
X105960Y197478D01*
X105998Y197442D01*
X106063Y197412D01*
X106123Y197373D01*
X106174Y197361D01*
X106221Y197339D01*
X106292Y197331D01*
X106362Y197313D01*
X106414Y197317D01*
X106465Y197312D01*
X106536Y197327D01*
X106607Y197333D01*
X106655Y197353D01*
X106706Y197364D01*
X106767Y197401D01*
X106833Y197429D01*
X106889Y197474D01*
X106917Y197490D01*
X106932Y197508D01*
X106964Y197534D01*
X110091Y200661D01*
X112777Y200661D01*
X112777Y191262D01*
X112780Y191242D01*
X112778Y191223D01*
X112800Y191121D01*
X112817Y191019D01*
X112826Y191002D01*
X112830Y190982D01*
X112883Y190893D01*
X112932Y190802D01*
X112946Y190788D01*
X112956Y190771D01*
X113035Y190704D01*
X113110Y190633D01*
X113128Y190624D01*
X113143Y190611D01*
X113239Y190573D01*
X113333Y190529D01*
X113353Y190527D01*
X113371Y190519D01*
X113538Y190501D01*
X115062Y190501D01*
X115082Y190504D01*
X115101Y190502D01*
X115203Y190524D01*
X115305Y190541D01*
X115322Y190550D01*
X115342Y190554D01*
X115431Y190607D01*
X115522Y190656D01*
X115536Y190670D01*
X115553Y190680D01*
X115620Y190759D01*
X115691Y190834D01*
X115700Y190852D01*
X115713Y190867D01*
X115752Y190963D01*
X115795Y191057D01*
X115797Y191077D01*
X115805Y191095D01*
X115823Y191262D01*
X115823Y200661D01*
X118509Y200661D01*
X121636Y197534D01*
X121694Y197492D01*
X121746Y197442D01*
X121793Y197421D01*
X121835Y197390D01*
X121904Y197369D01*
X121969Y197339D01*
X122021Y197333D01*
X122071Y197318D01*
X122142Y197320D01*
X122213Y197312D01*
X122264Y197323D01*
X122316Y197324D01*
X122384Y197349D01*
X122454Y197364D01*
X122499Y197391D01*
X122547Y197409D01*
X122603Y197453D01*
X122665Y197490D01*
X122699Y197530D01*
X122739Y197562D01*
X122778Y197623D01*
X122825Y197677D01*
X122844Y197725D01*
X122872Y197769D01*
X122890Y197839D01*
X122917Y197905D01*
X122925Y197977D01*
X122933Y198008D01*
X122931Y198031D01*
X122935Y198072D01*
X122935Y201201D01*
X122921Y201291D01*
X122913Y201382D01*
X122901Y201412D01*
X122896Y201444D01*
X122853Y201524D01*
X122817Y201608D01*
X122791Y201640D01*
X122780Y201661D01*
X122757Y201683D01*
X122712Y201739D01*
X117919Y206532D01*
X117845Y206585D01*
X117776Y206645D01*
X117746Y206657D01*
X117720Y206676D01*
X117633Y206703D01*
X117548Y206737D01*
X117507Y206741D01*
X117484Y206748D01*
X117452Y206747D01*
X117381Y206755D01*
X110512Y206755D01*
X105155Y212112D01*
X105155Y219688D01*
X110512Y225045D01*
X118088Y225045D01*
X123445Y219688D01*
X123445Y212819D01*
X123459Y212729D01*
X123467Y212638D01*
X123479Y212608D01*
X123484Y212576D01*
X123527Y212496D01*
X123563Y212412D01*
X123589Y212380D01*
X123600Y212359D01*
X123623Y212337D01*
X123668Y212281D01*
X131065Y204884D01*
X131065Y198072D01*
X131076Y198001D01*
X131078Y197930D01*
X131096Y197881D01*
X131104Y197829D01*
X131138Y197766D01*
X131163Y197699D01*
X131195Y197658D01*
X131220Y197612D01*
X131272Y197562D01*
X131316Y197506D01*
X131360Y197478D01*
X131398Y197442D01*
X131463Y197412D01*
X131523Y197373D01*
X131574Y197361D01*
X131621Y197339D01*
X131692Y197331D01*
X131762Y197313D01*
X131814Y197317D01*
X131865Y197312D01*
X131936Y197327D01*
X132007Y197333D01*
X132055Y197353D01*
X132106Y197364D01*
X132167Y197401D01*
X132233Y197429D01*
X132289Y197474D01*
X132317Y197490D01*
X132332Y197508D01*
X132364Y197534D01*
X135491Y200661D01*
X138177Y200661D01*
X138177Y191262D01*
X138180Y191242D01*
X138178Y191223D01*
X138200Y191121D01*
X138217Y191019D01*
X138226Y191002D01*
X138230Y190982D01*
X138283Y190893D01*
X138332Y190802D01*
X138346Y190788D01*
X138356Y190771D01*
X138435Y190704D01*
X138510Y190633D01*
X138528Y190624D01*
X138543Y190611D01*
X138639Y190573D01*
X138733Y190529D01*
X138753Y190527D01*
X138771Y190519D01*
X138938Y190501D01*
X140462Y190501D01*
X140482Y190504D01*
X140501Y190502D01*
X140603Y190524D01*
X140705Y190541D01*
X140722Y190550D01*
X140742Y190554D01*
X140831Y190607D01*
X140922Y190656D01*
X140936Y190670D01*
X140953Y190680D01*
X141020Y190759D01*
X141091Y190834D01*
X141100Y190852D01*
X141113Y190867D01*
X141152Y190963D01*
X141195Y191057D01*
X141197Y191077D01*
X141205Y191095D01*
X141223Y191262D01*
X141223Y200661D01*
X143909Y200661D01*
X147036Y197534D01*
X147094Y197492D01*
X147146Y197442D01*
X147193Y197421D01*
X147235Y197390D01*
X147304Y197369D01*
X147369Y197339D01*
X147421Y197333D01*
X147471Y197318D01*
X147542Y197320D01*
X147613Y197312D01*
X147664Y197323D01*
X147716Y197324D01*
X147784Y197349D01*
X147854Y197364D01*
X147899Y197391D01*
X147947Y197409D01*
X148003Y197453D01*
X148065Y197490D01*
X148099Y197530D01*
X148139Y197562D01*
X148178Y197623D01*
X148225Y197677D01*
X148244Y197725D01*
X148272Y197769D01*
X148290Y197839D01*
X148317Y197905D01*
X148325Y197977D01*
X148333Y198008D01*
X148331Y198031D01*
X148335Y198072D01*
X148335Y201201D01*
X148321Y201291D01*
X148313Y201382D01*
X148301Y201412D01*
X148296Y201444D01*
X148253Y201524D01*
X148217Y201608D01*
X148191Y201640D01*
X148180Y201661D01*
X148157Y201683D01*
X148112Y201739D01*
X143319Y206532D01*
X143245Y206585D01*
X143176Y206645D01*
X143146Y206657D01*
X143120Y206676D01*
X143033Y206703D01*
X142948Y206737D01*
X142907Y206741D01*
X142884Y206748D01*
X142852Y206747D01*
X142781Y206755D01*
X135912Y206755D01*
X130555Y212112D01*
X130555Y219688D01*
X135912Y225045D01*
X143488Y225045D01*
X148845Y219688D01*
X148845Y212819D01*
X148859Y212729D01*
X148867Y212638D01*
X148879Y212608D01*
X148884Y212576D01*
X148927Y212496D01*
X148963Y212412D01*
X148989Y212380D01*
X149000Y212359D01*
X149023Y212337D01*
X149068Y212281D01*
X156465Y204884D01*
X156465Y196635D01*
X156476Y196564D01*
X156478Y196493D01*
X156496Y196444D01*
X156504Y196392D01*
X156538Y196329D01*
X156563Y196262D01*
X156595Y196221D01*
X156620Y196175D01*
X156672Y196126D01*
X156716Y196070D01*
X156760Y196041D01*
X156798Y196006D01*
X156863Y195975D01*
X156923Y195937D01*
X156974Y195924D01*
X157021Y195902D01*
X157092Y195894D01*
X157162Y195877D01*
X157214Y195881D01*
X157265Y195875D01*
X157336Y195890D01*
X157407Y195896D01*
X157455Y195916D01*
X157506Y195927D01*
X157567Y195964D01*
X157633Y195992D01*
X157689Y196037D01*
X157717Y196053D01*
X157732Y196071D01*
X157764Y196097D01*
X161312Y199645D01*
X168888Y199645D01*
X172436Y196097D01*
X172494Y196055D01*
X172546Y196006D01*
X172593Y195984D01*
X172635Y195953D01*
X172704Y195932D01*
X172769Y195902D01*
X172821Y195896D01*
X172871Y195881D01*
X172942Y195883D01*
X173013Y195875D01*
X173064Y195886D01*
X173116Y195887D01*
X173184Y195912D01*
X173254Y195927D01*
X173299Y195954D01*
X173347Y195972D01*
X173403Y196017D01*
X173465Y196053D01*
X173499Y196093D01*
X173539Y196125D01*
X173578Y196186D01*
X173625Y196240D01*
X173644Y196289D01*
X173672Y196332D01*
X173690Y196402D01*
X173717Y196468D01*
X173725Y196540D01*
X173733Y196571D01*
X173731Y196594D01*
X173735Y196635D01*
X173735Y203741D01*
X173721Y203831D01*
X173713Y203922D01*
X173701Y203952D01*
X173696Y203984D01*
X173653Y204064D01*
X173617Y204148D01*
X173591Y204180D01*
X173580Y204201D01*
X173557Y204223D01*
X173512Y204279D01*
X170500Y207291D01*
X170484Y207303D01*
X170472Y207318D01*
X170384Y207375D01*
X170301Y207435D01*
X170282Y207441D01*
X170265Y207451D01*
X170164Y207477D01*
X170066Y207507D01*
X170046Y207507D01*
X170026Y207511D01*
X169923Y207503D01*
X169820Y207501D01*
X169801Y207494D01*
X169781Y207492D01*
X169686Y207452D01*
X169589Y207416D01*
X169573Y207404D01*
X169555Y207396D01*
X169424Y207291D01*
X168888Y206755D01*
X161312Y206755D01*
X155955Y212112D01*
X155955Y219688D01*
X161312Y225045D01*
X168888Y225045D01*
X174245Y219688D01*
X174245Y215359D01*
X174259Y215269D01*
X174267Y215178D01*
X174279Y215148D01*
X174284Y215116D01*
X174327Y215036D01*
X174363Y214952D01*
X174389Y214920D01*
X174400Y214899D01*
X174423Y214877D01*
X174468Y214821D01*
X181865Y207424D01*
X181865Y198072D01*
X181876Y198001D01*
X181878Y197930D01*
X181896Y197881D01*
X181904Y197829D01*
X181938Y197766D01*
X181963Y197699D01*
X181995Y197658D01*
X182020Y197612D01*
X182072Y197562D01*
X182116Y197506D01*
X182160Y197478D01*
X182198Y197442D01*
X182263Y197412D01*
X182323Y197373D01*
X182374Y197361D01*
X182421Y197339D01*
X182492Y197331D01*
X182562Y197313D01*
X182614Y197317D01*
X182665Y197312D01*
X182736Y197327D01*
X182807Y197333D01*
X182855Y197353D01*
X182906Y197364D01*
X182967Y197401D01*
X183033Y197429D01*
X183089Y197474D01*
X183117Y197490D01*
X183132Y197508D01*
X183164Y197534D01*
X186291Y200661D01*
X188977Y200661D01*
X188977Y191262D01*
X188980Y191242D01*
X188978Y191223D01*
X189000Y191121D01*
X189017Y191019D01*
X189026Y191002D01*
X189030Y190982D01*
X189083Y190893D01*
X189132Y190802D01*
X189146Y190788D01*
X189156Y190771D01*
X189235Y190704D01*
X189310Y190633D01*
X189328Y190624D01*
X189343Y190611D01*
X189439Y190573D01*
X189533Y190529D01*
X189553Y190527D01*
X189571Y190519D01*
X189738Y190501D01*
X190501Y190501D01*
X190501Y190499D01*
X189738Y190499D01*
X189718Y190496D01*
X189699Y190498D01*
X189597Y190476D01*
X189495Y190459D01*
X189478Y190450D01*
X189458Y190446D01*
X189369Y190393D01*
X189278Y190344D01*
X189264Y190330D01*
X189247Y190320D01*
X189180Y190241D01*
X189109Y190166D01*
X189100Y190148D01*
X189087Y190133D01*
X189048Y190037D01*
X189005Y189943D01*
X189003Y189923D01*
X188995Y189905D01*
X188977Y189738D01*
X188977Y180339D01*
X186291Y180339D01*
X183164Y183466D01*
X183106Y183508D01*
X183054Y183558D01*
X183007Y183579D01*
X182965Y183610D01*
X182896Y183631D01*
X182831Y183661D01*
X182779Y183667D01*
X182729Y183682D01*
X182658Y183680D01*
X182587Y183688D01*
X182536Y183677D01*
X182484Y183676D01*
X182416Y183651D01*
X182346Y183636D01*
X182301Y183609D01*
X182253Y183591D01*
X182197Y183547D01*
X182135Y183510D01*
X182101Y183470D01*
X182061Y183438D01*
X182022Y183377D01*
X181975Y183323D01*
X181956Y183275D01*
X181928Y183231D01*
X181910Y183161D01*
X181883Y183095D01*
X181875Y183023D01*
X181867Y182992D01*
X181869Y182969D01*
X181865Y182928D01*
X181865Y139159D01*
X181879Y139069D01*
X181887Y138978D01*
X181899Y138948D01*
X181904Y138916D01*
X181947Y138836D01*
X181983Y138752D01*
X182009Y138720D01*
X182020Y138699D01*
X182043Y138677D01*
X182088Y138621D01*
X207265Y113444D01*
X207265Y96472D01*
X207276Y96401D01*
X207278Y96330D01*
X207296Y96281D01*
X207304Y96229D01*
X207338Y96166D01*
X207363Y96099D01*
X207395Y96058D01*
X207420Y96012D01*
X207472Y95962D01*
X207516Y95906D01*
X207560Y95878D01*
X207598Y95842D01*
X207663Y95812D01*
X207723Y95773D01*
X207774Y95761D01*
X207821Y95739D01*
X207892Y95731D01*
X207962Y95713D01*
X208014Y95717D01*
X208065Y95712D01*
X208136Y95727D01*
X208207Y95733D01*
X208255Y95753D01*
X208306Y95764D01*
X208367Y95801D01*
X208433Y95829D01*
X208489Y95874D01*
X208517Y95890D01*
X208532Y95908D01*
X208564Y95934D01*
X211691Y99061D01*
X214377Y99061D01*
X214377Y89662D01*
X214380Y89642D01*
X214378Y89623D01*
X214400Y89521D01*
X214417Y89419D01*
X214426Y89402D01*
X214430Y89382D01*
X214483Y89293D01*
X214532Y89202D01*
X214546Y89188D01*
X214556Y89171D01*
X214635Y89104D01*
X214710Y89033D01*
X214728Y89024D01*
X214743Y89011D01*
X214839Y88973D01*
X214933Y88929D01*
X214953Y88927D01*
X214971Y88919D01*
X215138Y88901D01*
X216662Y88901D01*
X216682Y88904D01*
X216701Y88902D01*
X216803Y88924D01*
X216905Y88941D01*
X216922Y88950D01*
X216942Y88954D01*
X217031Y89007D01*
X217122Y89056D01*
X217136Y89070D01*
X217153Y89080D01*
X217220Y89159D01*
X217291Y89234D01*
X217300Y89252D01*
X217313Y89267D01*
X217352Y89363D01*
X217395Y89457D01*
X217397Y89477D01*
X217405Y89495D01*
X217423Y89662D01*
X217423Y99061D01*
X220109Y99061D01*
X223236Y95934D01*
X223294Y95892D01*
X223346Y95842D01*
X223393Y95821D01*
X223435Y95790D01*
X223504Y95769D01*
X223569Y95739D01*
X223621Y95733D01*
X223671Y95718D01*
X223742Y95720D01*
X223813Y95712D01*
X223864Y95723D01*
X223916Y95724D01*
X223984Y95749D01*
X224054Y95764D01*
X224099Y95791D01*
X224147Y95809D01*
X224203Y95853D01*
X224265Y95890D01*
X224299Y95930D01*
X224339Y95962D01*
X224378Y96023D01*
X224425Y96077D01*
X224444Y96125D01*
X224472Y96169D01*
X224490Y96239D01*
X224517Y96305D01*
X224525Y96377D01*
X224533Y96408D01*
X224531Y96431D01*
X224535Y96472D01*
X224535Y175801D01*
X224521Y175891D01*
X224513Y175982D01*
X224501Y176012D01*
X224496Y176044D01*
X224453Y176124D01*
X224417Y176208D01*
X224391Y176240D01*
X224380Y176261D01*
X224357Y176283D01*
X224312Y176339D01*
X194119Y206532D01*
X194045Y206585D01*
X193976Y206645D01*
X193946Y206657D01*
X193920Y206676D01*
X193833Y206703D01*
X193748Y206737D01*
X193707Y206741D01*
X193684Y206748D01*
X193652Y206747D01*
X193581Y206755D01*
X186712Y206755D01*
X181355Y212112D01*
X181355Y219688D01*
X186712Y225045D01*
X194288Y225045D01*
X199645Y219688D01*
X199645Y212819D01*
X199659Y212729D01*
X199667Y212638D01*
X199679Y212608D01*
X199684Y212576D01*
X199727Y212496D01*
X199763Y212412D01*
X199789Y212380D01*
X199800Y212359D01*
X199823Y212337D01*
X199868Y212281D01*
X232665Y179484D01*
X232665Y96472D01*
X232676Y96401D01*
X232678Y96330D01*
X232696Y96281D01*
X232704Y96229D01*
X232738Y96166D01*
X232763Y96099D01*
X232795Y96058D01*
X232820Y96012D01*
X232872Y95962D01*
X232916Y95906D01*
X232960Y95878D01*
X232998Y95842D01*
X233063Y95812D01*
X233123Y95773D01*
X233174Y95761D01*
X233221Y95739D01*
X233292Y95731D01*
X233362Y95713D01*
X233414Y95717D01*
X233465Y95712D01*
X233536Y95727D01*
X233607Y95733D01*
X233655Y95753D01*
X233706Y95764D01*
X233767Y95801D01*
X233833Y95829D01*
X233889Y95874D01*
X233917Y95890D01*
X233932Y95908D01*
X233964Y95934D01*
X237091Y99061D01*
X239777Y99061D01*
X239777Y89662D01*
X239780Y89642D01*
X239778Y89623D01*
X239800Y89521D01*
X239817Y89419D01*
X239826Y89402D01*
X239830Y89382D01*
X239883Y89293D01*
X239932Y89202D01*
X239946Y89188D01*
X239956Y89171D01*
X240035Y89104D01*
X240110Y89033D01*
X240128Y89024D01*
X240143Y89011D01*
X240239Y88973D01*
X240333Y88929D01*
X240353Y88927D01*
X240371Y88919D01*
X240538Y88901D01*
X241301Y88901D01*
X241301Y88899D01*
X240538Y88899D01*
X240518Y88896D01*
X240499Y88898D01*
X240397Y88876D01*
X240295Y88859D01*
X240278Y88850D01*
X240258Y88846D01*
X240169Y88793D01*
X240078Y88744D01*
X240064Y88730D01*
X240047Y88720D01*
X239980Y88641D01*
X239909Y88566D01*
X239900Y88548D01*
X239887Y88533D01*
X239848Y88437D01*
X239805Y88343D01*
X239803Y88323D01*
X239795Y88305D01*
X239777Y88138D01*
X239777Y78739D01*
X237091Y78739D01*
X233964Y81866D01*
X233906Y81908D01*
X233854Y81958D01*
X233807Y81979D01*
X233765Y82010D01*
X233696Y82031D01*
X233631Y82061D01*
X233579Y82067D01*
X233529Y82082D01*
X233458Y82080D01*
X233387Y82088D01*
X233336Y82077D01*
X233284Y82076D01*
X233216Y82051D01*
X233146Y82036D01*
X233101Y82009D01*
X233053Y81991D01*
X232997Y81947D01*
X232935Y81910D01*
X232901Y81870D01*
X232861Y81838D01*
X232822Y81777D01*
X232775Y81723D01*
X232756Y81675D01*
X232728Y81631D01*
X232710Y81561D01*
X232683Y81495D01*
X232675Y81423D01*
X232667Y81392D01*
X232669Y81369D01*
X232665Y81328D01*
X232665Y74516D01*
X225268Y67119D01*
X225215Y67045D01*
X225155Y66976D01*
X225143Y66946D01*
X225124Y66920D01*
X225097Y66833D01*
X225063Y66748D01*
X225059Y66707D01*
X225052Y66684D01*
X225053Y66652D01*
X225045Y66581D01*
X225045Y59712D01*
X219688Y54355D01*
X212112Y54355D01*
X208564Y57903D01*
X208506Y57945D01*
X208454Y57994D01*
X208407Y58016D01*
X208365Y58047D01*
X208296Y58068D01*
X208231Y58098D01*
X208179Y58104D01*
X208129Y58119D01*
X208058Y58117D01*
X207987Y58125D01*
X207936Y58114D01*
X207884Y58113D01*
X207816Y58088D01*
X207746Y58073D01*
X207701Y58046D01*
X207653Y58028D01*
X207597Y57983D01*
X207535Y57947D01*
X207501Y57907D01*
X207461Y57875D01*
X207422Y57814D01*
X207375Y57760D01*
X207356Y57711D01*
X207328Y57668D01*
X207310Y57598D01*
X207283Y57532D01*
X207275Y57460D01*
X207267Y57429D01*
X207269Y57406D01*
X207265Y57365D01*
X207265Y49116D01*
X197264Y39115D01*
X94836Y39115D01*
G37*
%LPD*%
G36*
X191282Y88904D02*
X191282Y88904D01*
X191301Y88902D01*
X191403Y88924D01*
X191505Y88941D01*
X191522Y88950D01*
X191542Y88954D01*
X191631Y89007D01*
X191722Y89056D01*
X191736Y89070D01*
X191753Y89080D01*
X191820Y89159D01*
X191891Y89234D01*
X191900Y89252D01*
X191913Y89267D01*
X191952Y89363D01*
X191995Y89457D01*
X191997Y89477D01*
X192005Y89495D01*
X192023Y89662D01*
X192023Y99061D01*
X194709Y99061D01*
X197836Y95934D01*
X197894Y95892D01*
X197946Y95842D01*
X197993Y95821D01*
X198035Y95790D01*
X198104Y95769D01*
X198169Y95739D01*
X198221Y95733D01*
X198271Y95718D01*
X198342Y95720D01*
X198413Y95712D01*
X198464Y95723D01*
X198516Y95724D01*
X198584Y95749D01*
X198654Y95764D01*
X198699Y95791D01*
X198747Y95809D01*
X198803Y95853D01*
X198865Y95890D01*
X198899Y95930D01*
X198939Y95962D01*
X198978Y96023D01*
X199025Y96077D01*
X199044Y96125D01*
X199072Y96169D01*
X199090Y96239D01*
X199117Y96305D01*
X199125Y96377D01*
X199133Y96408D01*
X199131Y96431D01*
X199135Y96472D01*
X199135Y109761D01*
X199121Y109851D01*
X199113Y109942D01*
X199101Y109972D01*
X199096Y110004D01*
X199053Y110084D01*
X199017Y110168D01*
X198991Y110200D01*
X198980Y110221D01*
X198957Y110243D01*
X198912Y110299D01*
X173735Y135476D01*
X173735Y184365D01*
X173724Y184436D01*
X173722Y184507D01*
X173704Y184556D01*
X173696Y184608D01*
X173662Y184671D01*
X173637Y184738D01*
X173605Y184779D01*
X173580Y184825D01*
X173528Y184874D01*
X173484Y184930D01*
X173440Y184959D01*
X173402Y184994D01*
X173337Y185025D01*
X173277Y185063D01*
X173226Y185076D01*
X173179Y185098D01*
X173108Y185106D01*
X173038Y185123D01*
X172986Y185119D01*
X172935Y185125D01*
X172864Y185110D01*
X172793Y185104D01*
X172745Y185084D01*
X172694Y185073D01*
X172633Y185036D01*
X172567Y185008D01*
X172511Y184963D01*
X172483Y184947D01*
X172468Y184929D01*
X172436Y184903D01*
X168888Y181355D01*
X161312Y181355D01*
X157764Y184903D01*
X157706Y184945D01*
X157654Y184994D01*
X157607Y185016D01*
X157565Y185047D01*
X157496Y185068D01*
X157431Y185098D01*
X157379Y185104D01*
X157329Y185119D01*
X157258Y185117D01*
X157187Y185125D01*
X157136Y185114D01*
X157084Y185113D01*
X157016Y185088D01*
X156946Y185073D01*
X156901Y185046D01*
X156853Y185028D01*
X156797Y184983D01*
X156735Y184947D01*
X156701Y184907D01*
X156661Y184875D01*
X156622Y184814D01*
X156575Y184760D01*
X156556Y184711D01*
X156528Y184668D01*
X156510Y184598D01*
X156483Y184532D01*
X156475Y184460D01*
X156467Y184429D01*
X156469Y184406D01*
X156465Y184365D01*
X156465Y134079D01*
X156479Y133989D01*
X156487Y133898D01*
X156499Y133868D01*
X156504Y133836D01*
X156547Y133756D01*
X156583Y133672D01*
X156609Y133640D01*
X156620Y133619D01*
X156643Y133597D01*
X156688Y133541D01*
X181865Y108364D01*
X181865Y96472D01*
X181876Y96401D01*
X181878Y96330D01*
X181896Y96281D01*
X181904Y96229D01*
X181938Y96166D01*
X181963Y96099D01*
X181995Y96058D01*
X182020Y96012D01*
X182072Y95962D01*
X182116Y95906D01*
X182160Y95878D01*
X182198Y95842D01*
X182263Y95812D01*
X182323Y95773D01*
X182374Y95761D01*
X182421Y95739D01*
X182492Y95731D01*
X182562Y95713D01*
X182614Y95717D01*
X182665Y95712D01*
X182736Y95727D01*
X182807Y95733D01*
X182855Y95753D01*
X182906Y95764D01*
X182967Y95801D01*
X183033Y95829D01*
X183089Y95874D01*
X183117Y95890D01*
X183132Y95908D01*
X183164Y95934D01*
X186291Y99061D01*
X188977Y99061D01*
X188977Y89662D01*
X188980Y89642D01*
X188978Y89623D01*
X189000Y89521D01*
X189017Y89419D01*
X189026Y89402D01*
X189030Y89382D01*
X189083Y89293D01*
X189132Y89202D01*
X189146Y89188D01*
X189156Y89171D01*
X189235Y89104D01*
X189310Y89033D01*
X189328Y89024D01*
X189343Y89011D01*
X189439Y88973D01*
X189533Y88929D01*
X189553Y88927D01*
X189571Y88919D01*
X189738Y88901D01*
X191262Y88901D01*
X191282Y88904D01*
G37*
G36*
X115082Y88904D02*
X115082Y88904D01*
X115101Y88902D01*
X115203Y88924D01*
X115305Y88941D01*
X115322Y88950D01*
X115342Y88954D01*
X115431Y89007D01*
X115522Y89056D01*
X115536Y89070D01*
X115553Y89080D01*
X115620Y89159D01*
X115691Y89234D01*
X115700Y89252D01*
X115713Y89267D01*
X115752Y89363D01*
X115795Y89457D01*
X115797Y89477D01*
X115805Y89495D01*
X115823Y89662D01*
X115823Y99061D01*
X118509Y99061D01*
X121636Y95934D01*
X121694Y95892D01*
X121746Y95842D01*
X121793Y95821D01*
X121835Y95790D01*
X121904Y95769D01*
X121969Y95739D01*
X122021Y95733D01*
X122071Y95718D01*
X122142Y95720D01*
X122213Y95712D01*
X122264Y95723D01*
X122316Y95724D01*
X122384Y95749D01*
X122454Y95764D01*
X122499Y95791D01*
X122547Y95809D01*
X122603Y95853D01*
X122665Y95890D01*
X122699Y95930D01*
X122739Y95962D01*
X122778Y96023D01*
X122825Y96077D01*
X122844Y96125D01*
X122872Y96169D01*
X122890Y96239D01*
X122917Y96305D01*
X122925Y96377D01*
X122933Y96408D01*
X122931Y96431D01*
X122935Y96472D01*
X122935Y182928D01*
X122924Y182999D01*
X122922Y183070D01*
X122904Y183119D01*
X122896Y183171D01*
X122862Y183234D01*
X122837Y183301D01*
X122805Y183342D01*
X122780Y183388D01*
X122728Y183438D01*
X122684Y183494D01*
X122640Y183522D01*
X122602Y183558D01*
X122537Y183588D01*
X122477Y183627D01*
X122426Y183639D01*
X122379Y183661D01*
X122308Y183669D01*
X122238Y183687D01*
X122186Y183683D01*
X122135Y183688D01*
X122064Y183673D01*
X121993Y183667D01*
X121945Y183647D01*
X121894Y183636D01*
X121833Y183599D01*
X121767Y183571D01*
X121711Y183526D01*
X121683Y183510D01*
X121668Y183492D01*
X121636Y183466D01*
X118509Y180339D01*
X115823Y180339D01*
X115823Y189738D01*
X115820Y189758D01*
X115822Y189777D01*
X115800Y189879D01*
X115783Y189981D01*
X115774Y189998D01*
X115770Y190018D01*
X115717Y190107D01*
X115668Y190198D01*
X115654Y190212D01*
X115644Y190229D01*
X115565Y190296D01*
X115490Y190367D01*
X115472Y190376D01*
X115457Y190389D01*
X115361Y190427D01*
X115267Y190471D01*
X115247Y190473D01*
X115229Y190481D01*
X115062Y190499D01*
X113538Y190499D01*
X113518Y190496D01*
X113499Y190498D01*
X113397Y190476D01*
X113295Y190459D01*
X113278Y190450D01*
X113258Y190446D01*
X113169Y190393D01*
X113078Y190344D01*
X113064Y190330D01*
X113047Y190320D01*
X112980Y190241D01*
X112909Y190166D01*
X112900Y190148D01*
X112887Y190133D01*
X112848Y190037D01*
X112805Y189943D01*
X112803Y189923D01*
X112795Y189905D01*
X112777Y189738D01*
X112777Y180339D01*
X110091Y180339D01*
X106964Y183466D01*
X106906Y183508D01*
X106854Y183558D01*
X106807Y183579D01*
X106765Y183610D01*
X106696Y183631D01*
X106631Y183661D01*
X106579Y183667D01*
X106529Y183682D01*
X106458Y183680D01*
X106387Y183688D01*
X106336Y183677D01*
X106284Y183676D01*
X106216Y183651D01*
X106146Y183636D01*
X106101Y183609D01*
X106053Y183591D01*
X105997Y183547D01*
X105935Y183510D01*
X105901Y183470D01*
X105861Y183438D01*
X105822Y183377D01*
X105775Y183323D01*
X105756Y183275D01*
X105728Y183231D01*
X105710Y183161D01*
X105683Y183095D01*
X105675Y183023D01*
X105667Y182992D01*
X105669Y182969D01*
X105665Y182928D01*
X105665Y96472D01*
X105676Y96401D01*
X105678Y96330D01*
X105696Y96281D01*
X105704Y96229D01*
X105738Y96166D01*
X105763Y96099D01*
X105795Y96058D01*
X105820Y96012D01*
X105872Y95962D01*
X105916Y95906D01*
X105960Y95878D01*
X105998Y95842D01*
X106063Y95812D01*
X106123Y95773D01*
X106174Y95761D01*
X106221Y95739D01*
X106292Y95731D01*
X106362Y95713D01*
X106414Y95717D01*
X106465Y95712D01*
X106536Y95727D01*
X106607Y95733D01*
X106655Y95753D01*
X106706Y95764D01*
X106767Y95801D01*
X106833Y95829D01*
X106889Y95874D01*
X106917Y95890D01*
X106932Y95908D01*
X106964Y95934D01*
X110091Y99061D01*
X112777Y99061D01*
X112777Y89662D01*
X112780Y89642D01*
X112778Y89623D01*
X112800Y89521D01*
X112817Y89419D01*
X112826Y89402D01*
X112830Y89382D01*
X112883Y89293D01*
X112932Y89202D01*
X112946Y89188D01*
X112956Y89171D01*
X113035Y89104D01*
X113110Y89033D01*
X113128Y89024D01*
X113143Y89011D01*
X113239Y88973D01*
X113333Y88929D01*
X113353Y88927D01*
X113371Y88919D01*
X113538Y88901D01*
X115062Y88901D01*
X115082Y88904D01*
G37*
%LPC*%
G36*
X34312Y79755D02*
X34312Y79755D01*
X28955Y85112D01*
X28955Y92688D01*
X34312Y98045D01*
X41888Y98045D01*
X47245Y92688D01*
X47245Y85112D01*
X41888Y79755D01*
X34312Y79755D01*
G37*
%LPD*%
%LPC*%
G36*
X262912Y54355D02*
X262912Y54355D01*
X257555Y59712D01*
X257555Y67288D01*
X262912Y72645D01*
X270488Y72645D01*
X275845Y67288D01*
X275845Y59712D01*
X270488Y54355D01*
X262912Y54355D01*
G37*
%LPD*%
%LPC*%
G36*
X237512Y54355D02*
X237512Y54355D01*
X232155Y59712D01*
X232155Y67288D01*
X237512Y72645D01*
X245088Y72645D01*
X250445Y67288D01*
X250445Y59712D01*
X245088Y54355D01*
X237512Y54355D01*
G37*
%LPD*%
%LPC*%
G36*
X161312Y54355D02*
X161312Y54355D01*
X155955Y59712D01*
X155955Y67288D01*
X161312Y72645D01*
X168888Y72645D01*
X174245Y67288D01*
X174245Y59712D01*
X168888Y54355D01*
X161312Y54355D01*
G37*
%LPD*%
%LPC*%
G36*
X59712Y54355D02*
X59712Y54355D01*
X54355Y59712D01*
X54355Y67288D01*
X59712Y72645D01*
X67288Y72645D01*
X72645Y67288D01*
X72645Y59712D01*
X67288Y54355D01*
X59712Y54355D01*
G37*
%LPD*%
G36*
X198464Y68886D02*
X198464Y68886D01*
X198516Y68887D01*
X198584Y68912D01*
X198654Y68927D01*
X198699Y68954D01*
X198747Y68972D01*
X198803Y69017D01*
X198865Y69053D01*
X198899Y69093D01*
X198939Y69125D01*
X198978Y69186D01*
X199025Y69240D01*
X199044Y69289D01*
X199072Y69332D01*
X199090Y69402D01*
X199117Y69468D01*
X199125Y69540D01*
X199133Y69571D01*
X199131Y69594D01*
X199135Y69635D01*
X199135Y81328D01*
X199124Y81399D01*
X199122Y81470D01*
X199104Y81519D01*
X199096Y81571D01*
X199062Y81634D01*
X199037Y81701D01*
X199005Y81742D01*
X198980Y81788D01*
X198928Y81838D01*
X198884Y81894D01*
X198840Y81922D01*
X198802Y81958D01*
X198737Y81988D01*
X198677Y82027D01*
X198626Y82039D01*
X198579Y82061D01*
X198508Y82069D01*
X198438Y82087D01*
X198386Y82083D01*
X198335Y82088D01*
X198264Y82073D01*
X198193Y82067D01*
X198145Y82047D01*
X198094Y82036D01*
X198033Y81999D01*
X197967Y81971D01*
X197911Y81926D01*
X197883Y81910D01*
X197868Y81892D01*
X197836Y81866D01*
X194709Y78739D01*
X192023Y78739D01*
X192023Y88138D01*
X192020Y88158D01*
X192022Y88177D01*
X192000Y88279D01*
X191983Y88381D01*
X191974Y88398D01*
X191970Y88418D01*
X191917Y88507D01*
X191868Y88598D01*
X191854Y88612D01*
X191844Y88629D01*
X191765Y88696D01*
X191690Y88767D01*
X191672Y88776D01*
X191657Y88789D01*
X191561Y88827D01*
X191467Y88871D01*
X191447Y88873D01*
X191429Y88881D01*
X191262Y88899D01*
X189738Y88899D01*
X189718Y88896D01*
X189699Y88898D01*
X189597Y88876D01*
X189495Y88859D01*
X189478Y88850D01*
X189458Y88846D01*
X189369Y88793D01*
X189278Y88744D01*
X189264Y88730D01*
X189247Y88720D01*
X189180Y88641D01*
X189109Y88566D01*
X189100Y88548D01*
X189087Y88533D01*
X189048Y88437D01*
X189005Y88343D01*
X189003Y88323D01*
X188995Y88305D01*
X188977Y88138D01*
X188977Y78739D01*
X186291Y78739D01*
X183164Y81866D01*
X183106Y81908D01*
X183054Y81958D01*
X183007Y81979D01*
X182965Y82010D01*
X182896Y82031D01*
X182831Y82061D01*
X182779Y82067D01*
X182729Y82082D01*
X182658Y82080D01*
X182587Y82088D01*
X182536Y82077D01*
X182484Y82076D01*
X182416Y82051D01*
X182346Y82036D01*
X182301Y82009D01*
X182253Y81991D01*
X182197Y81947D01*
X182135Y81910D01*
X182101Y81870D01*
X182061Y81838D01*
X182022Y81777D01*
X181975Y81723D01*
X181956Y81675D01*
X181928Y81631D01*
X181910Y81561D01*
X181883Y81495D01*
X181875Y81423D01*
X181867Y81392D01*
X181869Y81369D01*
X181865Y81328D01*
X181865Y75659D01*
X181879Y75569D01*
X181887Y75478D01*
X181899Y75448D01*
X181904Y75416D01*
X181947Y75336D01*
X181983Y75252D01*
X182009Y75220D01*
X182020Y75199D01*
X182043Y75177D01*
X182088Y75121D01*
X185100Y72109D01*
X185116Y72097D01*
X185128Y72082D01*
X185216Y72025D01*
X185299Y71965D01*
X185318Y71959D01*
X185335Y71949D01*
X185436Y71923D01*
X185534Y71893D01*
X185554Y71893D01*
X185574Y71889D01*
X185677Y71897D01*
X185780Y71899D01*
X185799Y71906D01*
X185819Y71908D01*
X185914Y71948D01*
X186011Y71984D01*
X186027Y71996D01*
X186045Y72004D01*
X186176Y72109D01*
X186712Y72645D01*
X194288Y72645D01*
X197836Y69097D01*
X197894Y69055D01*
X197946Y69006D01*
X197993Y68984D01*
X198035Y68953D01*
X198104Y68932D01*
X198169Y68902D01*
X198221Y68896D01*
X198271Y68881D01*
X198342Y68883D01*
X198413Y68875D01*
X198464Y68886D01*
G37*
G36*
X208136Y68890D02*
X208136Y68890D01*
X208207Y68896D01*
X208255Y68916D01*
X208306Y68927D01*
X208367Y68964D01*
X208433Y68992D01*
X208489Y69037D01*
X208517Y69053D01*
X208532Y69071D01*
X208564Y69097D01*
X212112Y72645D01*
X218981Y72645D01*
X219071Y72659D01*
X219162Y72667D01*
X219192Y72679D01*
X219224Y72684D01*
X219304Y72727D01*
X219388Y72763D01*
X219420Y72789D01*
X219441Y72800D01*
X219463Y72823D01*
X219519Y72868D01*
X224312Y77661D01*
X224365Y77735D01*
X224425Y77804D01*
X224437Y77834D01*
X224456Y77860D01*
X224483Y77947D01*
X224517Y78032D01*
X224521Y78073D01*
X224528Y78096D01*
X224527Y78128D01*
X224535Y78199D01*
X224535Y81328D01*
X224524Y81399D01*
X224522Y81470D01*
X224504Y81519D01*
X224496Y81571D01*
X224462Y81634D01*
X224437Y81701D01*
X224405Y81742D01*
X224380Y81788D01*
X224328Y81838D01*
X224284Y81894D01*
X224240Y81922D01*
X224202Y81958D01*
X224137Y81988D01*
X224077Y82027D01*
X224026Y82039D01*
X223979Y82061D01*
X223908Y82069D01*
X223838Y82087D01*
X223786Y82083D01*
X223735Y82088D01*
X223664Y82073D01*
X223593Y82067D01*
X223545Y82047D01*
X223494Y82036D01*
X223433Y81999D01*
X223367Y81971D01*
X223311Y81926D01*
X223283Y81910D01*
X223268Y81892D01*
X223236Y81866D01*
X220109Y78739D01*
X217423Y78739D01*
X217423Y88138D01*
X217420Y88158D01*
X217422Y88177D01*
X217400Y88279D01*
X217383Y88381D01*
X217374Y88398D01*
X217370Y88418D01*
X217317Y88507D01*
X217268Y88598D01*
X217254Y88612D01*
X217244Y88629D01*
X217165Y88696D01*
X217090Y88767D01*
X217072Y88776D01*
X217057Y88789D01*
X216961Y88827D01*
X216867Y88871D01*
X216847Y88873D01*
X216829Y88881D01*
X216662Y88899D01*
X215138Y88899D01*
X215118Y88896D01*
X215099Y88898D01*
X214997Y88876D01*
X214895Y88859D01*
X214878Y88850D01*
X214858Y88846D01*
X214769Y88793D01*
X214678Y88744D01*
X214664Y88730D01*
X214647Y88720D01*
X214580Y88641D01*
X214509Y88566D01*
X214500Y88548D01*
X214487Y88533D01*
X214448Y88437D01*
X214405Y88343D01*
X214403Y88323D01*
X214395Y88305D01*
X214377Y88138D01*
X214377Y78739D01*
X211691Y78739D01*
X208564Y81866D01*
X208506Y81908D01*
X208454Y81958D01*
X208407Y81979D01*
X208365Y82010D01*
X208296Y82031D01*
X208231Y82061D01*
X208179Y82067D01*
X208129Y82082D01*
X208058Y82080D01*
X207987Y82088D01*
X207936Y82077D01*
X207884Y82076D01*
X207816Y82051D01*
X207746Y82036D01*
X207701Y82009D01*
X207653Y81991D01*
X207597Y81947D01*
X207535Y81910D01*
X207501Y81870D01*
X207461Y81838D01*
X207422Y81777D01*
X207375Y81723D01*
X207356Y81675D01*
X207328Y81631D01*
X207310Y81561D01*
X207283Y81495D01*
X207275Y81423D01*
X207267Y81392D01*
X207269Y81369D01*
X207265Y81328D01*
X207265Y69635D01*
X207276Y69564D01*
X207278Y69493D01*
X207296Y69444D01*
X207304Y69392D01*
X207338Y69329D01*
X207363Y69262D01*
X207395Y69221D01*
X207420Y69175D01*
X207472Y69126D01*
X207516Y69070D01*
X207560Y69041D01*
X207598Y69006D01*
X207663Y68975D01*
X207723Y68937D01*
X207774Y68924D01*
X207821Y68902D01*
X207892Y68894D01*
X207962Y68877D01*
X208014Y68881D01*
X208065Y68875D01*
X208136Y68890D01*
G37*
%LPC*%
G36*
X192023Y192023D02*
X192023Y192023D01*
X192023Y200661D01*
X194709Y200661D01*
X200661Y194709D01*
X200661Y192023D01*
X192023Y192023D01*
G37*
%LPD*%
%LPC*%
G36*
X65023Y90423D02*
X65023Y90423D01*
X65023Y99061D01*
X67709Y99061D01*
X73661Y93109D01*
X73661Y90423D01*
X65023Y90423D01*
G37*
%LPD*%
%LPC*%
G36*
X141223Y90423D02*
X141223Y90423D01*
X141223Y99061D01*
X143909Y99061D01*
X149861Y93109D01*
X149861Y90423D01*
X141223Y90423D01*
G37*
%LPD*%
%LPC*%
G36*
X242823Y90423D02*
X242823Y90423D01*
X242823Y99061D01*
X245509Y99061D01*
X251461Y93109D01*
X251461Y90423D01*
X242823Y90423D01*
G37*
%LPD*%
%LPC*%
G36*
X268223Y90423D02*
X268223Y90423D01*
X268223Y99061D01*
X270909Y99061D01*
X276861Y93109D01*
X276861Y90423D01*
X268223Y90423D01*
G37*
%LPD*%
%LPC*%
G36*
X256539Y90423D02*
X256539Y90423D01*
X256539Y93109D01*
X262491Y99061D01*
X265177Y99061D01*
X265177Y90423D01*
X256539Y90423D01*
G37*
%LPD*%
%LPC*%
G36*
X154939Y90423D02*
X154939Y90423D01*
X154939Y93109D01*
X160891Y99061D01*
X163577Y99061D01*
X163577Y90423D01*
X154939Y90423D01*
G37*
%LPD*%
%LPC*%
G36*
X78739Y90423D02*
X78739Y90423D01*
X78739Y93109D01*
X84691Y99061D01*
X87377Y99061D01*
X87377Y90423D01*
X78739Y90423D01*
G37*
%LPD*%
%LPC*%
G36*
X53339Y90423D02*
X53339Y90423D01*
X53339Y93109D01*
X59291Y99061D01*
X61977Y99061D01*
X61977Y90423D01*
X53339Y90423D01*
G37*
%LPD*%
%LPC*%
G36*
X192023Y180339D02*
X192023Y180339D01*
X192023Y188977D01*
X200661Y188977D01*
X200661Y186291D01*
X194709Y180339D01*
X192023Y180339D01*
G37*
%LPD*%
%LPC*%
G36*
X65023Y78739D02*
X65023Y78739D01*
X65023Y87377D01*
X73661Y87377D01*
X73661Y84691D01*
X67709Y78739D01*
X65023Y78739D01*
G37*
%LPD*%
%LPC*%
G36*
X141223Y78739D02*
X141223Y78739D01*
X141223Y87377D01*
X149861Y87377D01*
X149861Y84691D01*
X143909Y78739D01*
X141223Y78739D01*
G37*
%LPD*%
%LPC*%
G36*
X268223Y78739D02*
X268223Y78739D01*
X268223Y87377D01*
X276861Y87377D01*
X276861Y84691D01*
X270909Y78739D01*
X268223Y78739D01*
G37*
%LPD*%
%LPC*%
G36*
X242823Y78739D02*
X242823Y78739D01*
X242823Y87377D01*
X251461Y87377D01*
X251461Y84691D01*
X245509Y78739D01*
X242823Y78739D01*
G37*
%LPD*%
%LPC*%
G36*
X84691Y78739D02*
X84691Y78739D01*
X78739Y84691D01*
X78739Y87377D01*
X87377Y87377D01*
X87377Y78739D01*
X84691Y78739D01*
G37*
%LPD*%
%LPC*%
G36*
X262491Y78739D02*
X262491Y78739D01*
X256539Y84691D01*
X256539Y87377D01*
X265177Y87377D01*
X265177Y78739D01*
X262491Y78739D01*
G37*
%LPD*%
%LPC*%
G36*
X59291Y78739D02*
X59291Y78739D01*
X53339Y84691D01*
X53339Y87377D01*
X61977Y87377D01*
X61977Y78739D01*
X59291Y78739D01*
G37*
%LPD*%
%LPC*%
G36*
X160891Y78739D02*
X160891Y78739D01*
X154939Y84691D01*
X154939Y87377D01*
X163577Y87377D01*
X163577Y78739D01*
X160891Y78739D01*
G37*
%LPD*%
%LPC*%
G36*
X266699Y88899D02*
X266699Y88899D01*
X266699Y88901D01*
X266701Y88901D01*
X266701Y88899D01*
X266699Y88899D01*
G37*
%LPD*%
%LPC*%
G36*
X63499Y88899D02*
X63499Y88899D01*
X63499Y88901D01*
X63501Y88901D01*
X63501Y88899D01*
X63499Y88899D01*
G37*
%LPD*%
D10*
X88900Y215900D03*
X114300Y215900D03*
X139700Y215900D03*
X165100Y215900D03*
X190500Y215900D03*
X190500Y190500D03*
X165100Y190500D03*
X139700Y190500D03*
X114300Y190500D03*
X88900Y190500D03*
X266700Y88900D03*
X241300Y88900D03*
X215900Y88900D03*
X190500Y88900D03*
X165100Y88900D03*
X139700Y88900D03*
X266700Y63500D03*
X241300Y63500D03*
X215900Y63500D03*
X190500Y63500D03*
X165100Y63500D03*
X139700Y63500D03*
X114300Y88900D03*
X88900Y88900D03*
X114300Y63500D03*
X88900Y63500D03*
X63500Y88900D03*
X63500Y63500D03*
X38100Y88900D03*
X38100Y63500D03*
D11*
X101600Y203200D02*
X88900Y215900D01*
X101600Y76200D02*
X114300Y63500D01*
X101600Y76200D02*
X101600Y203200D01*
X38100Y63500D02*
X25400Y63500D01*
X12700Y76200D01*
X12700Y114300D02*
X88900Y190500D01*
X12700Y114300D02*
X12700Y76200D01*
X127000Y203200D02*
X114300Y215900D01*
X127000Y203200D02*
X127000Y76200D01*
X139700Y63500D01*
X152400Y203200D02*
X139700Y215900D01*
X152400Y203200D02*
X152400Y132080D01*
X177800Y106680D01*
X177800Y73660D01*
X187960Y63500D01*
X190500Y63500D01*
X215900Y63500D02*
X228600Y76200D01*
X228600Y177800D02*
X190500Y215900D01*
X228600Y177800D02*
X228600Y76200D01*
X88900Y63500D02*
X88900Y50800D01*
X96520Y43180D01*
X195580Y43180D02*
X203200Y50800D01*
X203200Y111760D01*
X177800Y137160D01*
X177800Y205740D01*
X167640Y215900D01*
X165100Y215900D01*
X195580Y43180D02*
X96520Y43180D01*
M02*
