G04 EAGLE Gerber RS-274X export*
G75*
%MOMM*%
%FSLAX34Y34*%
%LPD*%
%INSilkscreen Top*%
%IPPOS*%
%AMOC8*
5,1,8,0,0,1.08239X$1,22.5*%
G01*
%ADD10C,0.152400*%
%ADD11C,0.127000*%
%ADD12R,0.660400X0.812800*%


D10*
X203200Y224790D02*
X195580Y224790D01*
X185420Y224790D02*
X177800Y224790D01*
X177800Y304800D01*
X177800Y224790D02*
X170180Y224790D01*
X160020Y224790D02*
X152400Y224790D01*
X152400Y304800D01*
X177800Y304800D01*
X203200Y304800D02*
X203200Y224790D01*
X203200Y304800D02*
X177800Y304800D01*
X152400Y224790D02*
X144780Y224790D01*
X134620Y224790D02*
X127000Y224790D01*
X127000Y304800D02*
X152400Y304800D01*
X101600Y304800D02*
X101600Y224790D01*
X93980Y224790D01*
X83820Y224790D02*
X76200Y224790D01*
X76200Y304800D02*
X101600Y304800D01*
X127000Y304800D02*
X127000Y224790D01*
X109220Y224790D02*
X101600Y224790D01*
X119380Y224790D02*
X127000Y224790D01*
X127000Y304800D02*
X101600Y304800D01*
X76200Y304800D02*
X76200Y224790D01*
D11*
X85725Y280035D02*
X83185Y283210D01*
X94615Y283210D01*
X94615Y280035D02*
X94615Y286385D01*
X88900Y291465D02*
X88675Y291468D01*
X88450Y291476D01*
X88226Y291489D01*
X88002Y291508D01*
X87778Y291532D01*
X87555Y291561D01*
X87333Y291596D01*
X87112Y291636D01*
X86892Y291682D01*
X86673Y291732D01*
X86455Y291788D01*
X86238Y291849D01*
X86023Y291915D01*
X85810Y291986D01*
X85599Y292063D01*
X85389Y292144D01*
X85181Y292230D01*
X84976Y292321D01*
X84773Y292417D01*
X84685Y292449D01*
X84598Y292485D01*
X84512Y292524D01*
X84428Y292567D01*
X84346Y292613D01*
X84266Y292662D01*
X84188Y292714D01*
X84112Y292770D01*
X84038Y292828D01*
X83967Y292890D01*
X83898Y292954D01*
X83832Y293021D01*
X83769Y293090D01*
X83708Y293162D01*
X83650Y293236D01*
X83596Y293313D01*
X83544Y293391D01*
X83496Y293472D01*
X83451Y293554D01*
X83409Y293639D01*
X83371Y293725D01*
X83336Y293812D01*
X83304Y293900D01*
X83277Y293990D01*
X83252Y294081D01*
X83232Y294173D01*
X83215Y294265D01*
X83202Y294359D01*
X83193Y294452D01*
X83187Y294546D01*
X83185Y294640D01*
X83187Y294734D01*
X83193Y294828D01*
X83202Y294921D01*
X83215Y295015D01*
X83232Y295107D01*
X83252Y295199D01*
X83277Y295290D01*
X83304Y295380D01*
X83336Y295468D01*
X83371Y295555D01*
X83409Y295641D01*
X83451Y295726D01*
X83496Y295808D01*
X83544Y295889D01*
X83596Y295967D01*
X83650Y296044D01*
X83708Y296118D01*
X83769Y296190D01*
X83832Y296259D01*
X83898Y296326D01*
X83967Y296390D01*
X84038Y296452D01*
X84112Y296510D01*
X84188Y296566D01*
X84266Y296618D01*
X84346Y296667D01*
X84428Y296713D01*
X84512Y296756D01*
X84598Y296795D01*
X84685Y296831D01*
X84773Y296863D01*
X84976Y296959D01*
X85181Y297050D01*
X85389Y297136D01*
X85599Y297217D01*
X85810Y297294D01*
X86023Y297365D01*
X86238Y297431D01*
X86455Y297492D01*
X86673Y297548D01*
X86892Y297598D01*
X87112Y297644D01*
X87333Y297684D01*
X87555Y297719D01*
X87778Y297748D01*
X88002Y297772D01*
X88226Y297791D01*
X88450Y297804D01*
X88675Y297812D01*
X88900Y297815D01*
X88900Y291465D02*
X89125Y291468D01*
X89350Y291476D01*
X89574Y291489D01*
X89798Y291508D01*
X90022Y291532D01*
X90245Y291561D01*
X90467Y291596D01*
X90688Y291636D01*
X90908Y291682D01*
X91127Y291732D01*
X91345Y291788D01*
X91562Y291849D01*
X91777Y291915D01*
X91990Y291986D01*
X92201Y292063D01*
X92411Y292144D01*
X92619Y292230D01*
X92824Y292321D01*
X93027Y292417D01*
X93028Y292417D02*
X93116Y292449D01*
X93203Y292485D01*
X93289Y292524D01*
X93373Y292567D01*
X93455Y292613D01*
X93535Y292662D01*
X93613Y292714D01*
X93689Y292770D01*
X93763Y292828D01*
X93834Y292890D01*
X93903Y292954D01*
X93969Y293021D01*
X94032Y293090D01*
X94093Y293162D01*
X94151Y293236D01*
X94205Y293313D01*
X94257Y293391D01*
X94305Y293472D01*
X94350Y293554D01*
X94392Y293639D01*
X94430Y293725D01*
X94465Y293812D01*
X94497Y293900D01*
X94524Y293990D01*
X94549Y294081D01*
X94569Y294173D01*
X94586Y294265D01*
X94599Y294359D01*
X94608Y294452D01*
X94614Y294546D01*
X94616Y294640D01*
X93027Y296863D02*
X92824Y296959D01*
X92619Y297050D01*
X92411Y297136D01*
X92201Y297217D01*
X91990Y297294D01*
X91777Y297365D01*
X91562Y297431D01*
X91345Y297492D01*
X91127Y297548D01*
X90908Y297598D01*
X90688Y297644D01*
X90467Y297684D01*
X90245Y297719D01*
X90022Y297748D01*
X89798Y297772D01*
X89574Y297791D01*
X89350Y297804D01*
X89125Y297812D01*
X88900Y297815D01*
X93028Y296863D02*
X93116Y296831D01*
X93203Y296795D01*
X93289Y296756D01*
X93373Y296713D01*
X93455Y296667D01*
X93535Y296618D01*
X93613Y296566D01*
X93689Y296510D01*
X93763Y296452D01*
X93834Y296390D01*
X93903Y296326D01*
X93969Y296259D01*
X94032Y296190D01*
X94093Y296118D01*
X94151Y296044D01*
X94205Y295967D01*
X94257Y295889D01*
X94305Y295808D01*
X94350Y295726D01*
X94392Y295641D01*
X94430Y295555D01*
X94465Y295468D01*
X94497Y295380D01*
X94524Y295290D01*
X94549Y295199D01*
X94569Y295107D01*
X94586Y295015D01*
X94599Y294921D01*
X94608Y294828D01*
X94614Y294734D01*
X94616Y294640D01*
X92075Y292100D02*
X85725Y297180D01*
X116840Y295275D02*
X116729Y295273D01*
X116619Y295267D01*
X116508Y295258D01*
X116398Y295244D01*
X116289Y295227D01*
X116180Y295206D01*
X116072Y295181D01*
X115965Y295152D01*
X115859Y295120D01*
X115754Y295084D01*
X115651Y295044D01*
X115549Y295001D01*
X115448Y294954D01*
X115349Y294903D01*
X115253Y294850D01*
X115158Y294793D01*
X115065Y294732D01*
X114974Y294669D01*
X114885Y294602D01*
X114799Y294532D01*
X114716Y294459D01*
X114634Y294384D01*
X114556Y294306D01*
X114481Y294224D01*
X114408Y294141D01*
X114338Y294055D01*
X114271Y293966D01*
X114208Y293875D01*
X114147Y293782D01*
X114090Y293688D01*
X114037Y293591D01*
X113986Y293492D01*
X113939Y293391D01*
X113896Y293289D01*
X113856Y293186D01*
X113820Y293081D01*
X113788Y292975D01*
X113759Y292868D01*
X113734Y292760D01*
X113713Y292651D01*
X113696Y292542D01*
X113682Y292432D01*
X113673Y292321D01*
X113667Y292211D01*
X113665Y292100D01*
X113667Y291989D01*
X113673Y291879D01*
X113682Y291768D01*
X113696Y291658D01*
X113713Y291549D01*
X113734Y291440D01*
X113759Y291332D01*
X113788Y291225D01*
X113820Y291119D01*
X113856Y291014D01*
X113896Y290911D01*
X113939Y290809D01*
X113986Y290708D01*
X114037Y290609D01*
X114090Y290513D01*
X114147Y290418D01*
X114208Y290325D01*
X114271Y290234D01*
X114338Y290145D01*
X114408Y290059D01*
X114481Y289976D01*
X114556Y289894D01*
X114634Y289816D01*
X114716Y289741D01*
X114799Y289668D01*
X114885Y289598D01*
X114974Y289531D01*
X115065Y289468D01*
X115158Y289407D01*
X115253Y289350D01*
X115349Y289297D01*
X115448Y289246D01*
X115549Y289199D01*
X115651Y289156D01*
X115754Y289116D01*
X115859Y289080D01*
X115965Y289048D01*
X116072Y289019D01*
X116180Y288994D01*
X116289Y288973D01*
X116398Y288956D01*
X116508Y288942D01*
X116619Y288933D01*
X116729Y288927D01*
X116840Y288925D01*
X116951Y288927D01*
X117061Y288933D01*
X117172Y288942D01*
X117282Y288956D01*
X117391Y288973D01*
X117500Y288994D01*
X117608Y289019D01*
X117715Y289048D01*
X117821Y289080D01*
X117926Y289116D01*
X118029Y289156D01*
X118131Y289199D01*
X118232Y289246D01*
X118331Y289297D01*
X118427Y289350D01*
X118522Y289407D01*
X118615Y289468D01*
X118706Y289531D01*
X118795Y289598D01*
X118881Y289668D01*
X118964Y289741D01*
X119046Y289816D01*
X119124Y289894D01*
X119199Y289976D01*
X119272Y290059D01*
X119342Y290145D01*
X119409Y290234D01*
X119472Y290325D01*
X119533Y290418D01*
X119590Y290512D01*
X119643Y290609D01*
X119694Y290708D01*
X119741Y290809D01*
X119784Y290911D01*
X119824Y291014D01*
X119860Y291119D01*
X119892Y291225D01*
X119921Y291332D01*
X119946Y291440D01*
X119967Y291549D01*
X119984Y291658D01*
X119998Y291768D01*
X120007Y291879D01*
X120013Y291989D01*
X120015Y292100D01*
X120013Y292211D01*
X120007Y292321D01*
X119998Y292432D01*
X119984Y292542D01*
X119967Y292651D01*
X119946Y292760D01*
X119921Y292868D01*
X119892Y292975D01*
X119860Y293081D01*
X119824Y293186D01*
X119784Y293289D01*
X119741Y293391D01*
X119694Y293492D01*
X119643Y293591D01*
X119590Y293687D01*
X119533Y293782D01*
X119472Y293875D01*
X119409Y293966D01*
X119342Y294055D01*
X119272Y294141D01*
X119199Y294224D01*
X119124Y294306D01*
X119046Y294384D01*
X118964Y294459D01*
X118881Y294532D01*
X118795Y294602D01*
X118706Y294669D01*
X118615Y294732D01*
X118522Y294793D01*
X118428Y294850D01*
X118331Y294903D01*
X118232Y294954D01*
X118131Y295001D01*
X118029Y295044D01*
X117926Y295084D01*
X117821Y295120D01*
X117715Y295152D01*
X117608Y295181D01*
X117500Y295206D01*
X117391Y295227D01*
X117282Y295244D01*
X117172Y295258D01*
X117061Y295267D01*
X116951Y295273D01*
X116840Y295275D01*
X111125Y294640D02*
X111025Y294638D01*
X110926Y294632D01*
X110826Y294622D01*
X110728Y294609D01*
X110629Y294591D01*
X110532Y294570D01*
X110436Y294545D01*
X110340Y294516D01*
X110246Y294483D01*
X110153Y294447D01*
X110062Y294407D01*
X109972Y294363D01*
X109884Y294316D01*
X109798Y294266D01*
X109714Y294212D01*
X109632Y294155D01*
X109553Y294095D01*
X109475Y294031D01*
X109401Y293965D01*
X109329Y293896D01*
X109260Y293824D01*
X109194Y293750D01*
X109130Y293672D01*
X109070Y293593D01*
X109013Y293511D01*
X108959Y293427D01*
X108909Y293341D01*
X108862Y293253D01*
X108818Y293163D01*
X108778Y293072D01*
X108742Y292979D01*
X108709Y292885D01*
X108680Y292789D01*
X108655Y292693D01*
X108634Y292596D01*
X108616Y292497D01*
X108603Y292399D01*
X108593Y292299D01*
X108587Y292200D01*
X108585Y292100D01*
X108587Y292000D01*
X108593Y291901D01*
X108603Y291801D01*
X108616Y291703D01*
X108634Y291604D01*
X108655Y291507D01*
X108680Y291411D01*
X108709Y291315D01*
X108742Y291221D01*
X108778Y291128D01*
X108818Y291037D01*
X108862Y290947D01*
X108909Y290859D01*
X108959Y290773D01*
X109013Y290689D01*
X109070Y290607D01*
X109130Y290528D01*
X109194Y290450D01*
X109260Y290376D01*
X109329Y290304D01*
X109401Y290235D01*
X109475Y290169D01*
X109553Y290105D01*
X109632Y290045D01*
X109714Y289988D01*
X109798Y289934D01*
X109884Y289884D01*
X109972Y289837D01*
X110062Y289793D01*
X110153Y289753D01*
X110246Y289717D01*
X110340Y289684D01*
X110436Y289655D01*
X110532Y289630D01*
X110629Y289609D01*
X110728Y289591D01*
X110826Y289578D01*
X110926Y289568D01*
X111025Y289562D01*
X111125Y289560D01*
X111225Y289562D01*
X111324Y289568D01*
X111424Y289578D01*
X111522Y289591D01*
X111621Y289609D01*
X111718Y289630D01*
X111814Y289655D01*
X111910Y289684D01*
X112004Y289717D01*
X112097Y289753D01*
X112188Y289793D01*
X112278Y289837D01*
X112366Y289884D01*
X112452Y289934D01*
X112536Y289988D01*
X112618Y290045D01*
X112697Y290105D01*
X112775Y290169D01*
X112849Y290235D01*
X112921Y290304D01*
X112990Y290376D01*
X113056Y290450D01*
X113120Y290528D01*
X113180Y290607D01*
X113237Y290689D01*
X113291Y290773D01*
X113341Y290859D01*
X113388Y290947D01*
X113432Y291037D01*
X113472Y291128D01*
X113508Y291221D01*
X113541Y291315D01*
X113570Y291411D01*
X113595Y291507D01*
X113616Y291604D01*
X113634Y291703D01*
X113647Y291801D01*
X113657Y291901D01*
X113663Y292000D01*
X113665Y292100D01*
X113663Y292200D01*
X113657Y292299D01*
X113647Y292399D01*
X113634Y292497D01*
X113616Y292596D01*
X113595Y292693D01*
X113570Y292789D01*
X113541Y292885D01*
X113508Y292979D01*
X113472Y293072D01*
X113432Y293163D01*
X113388Y293253D01*
X113341Y293341D01*
X113291Y293427D01*
X113237Y293511D01*
X113180Y293593D01*
X113120Y293672D01*
X113056Y293750D01*
X112990Y293824D01*
X112921Y293896D01*
X112849Y293965D01*
X112775Y294031D01*
X112697Y294095D01*
X112618Y294155D01*
X112536Y294212D01*
X112452Y294266D01*
X112366Y294316D01*
X112278Y294363D01*
X112188Y294407D01*
X112097Y294447D01*
X112004Y294483D01*
X111910Y294516D01*
X111814Y294545D01*
X111718Y294570D01*
X111621Y294591D01*
X111522Y294609D01*
X111424Y294622D01*
X111324Y294632D01*
X111225Y294638D01*
X111125Y294640D01*
X139065Y292735D02*
X139065Y288925D01*
X139065Y292735D02*
X139067Y292835D01*
X139073Y292934D01*
X139083Y293034D01*
X139096Y293132D01*
X139114Y293231D01*
X139135Y293328D01*
X139160Y293424D01*
X139189Y293520D01*
X139222Y293614D01*
X139258Y293707D01*
X139298Y293798D01*
X139342Y293888D01*
X139389Y293976D01*
X139439Y294062D01*
X139493Y294146D01*
X139550Y294228D01*
X139610Y294307D01*
X139674Y294385D01*
X139740Y294459D01*
X139809Y294531D01*
X139881Y294600D01*
X139955Y294666D01*
X140033Y294730D01*
X140112Y294790D01*
X140194Y294847D01*
X140278Y294901D01*
X140364Y294951D01*
X140452Y294998D01*
X140542Y295042D01*
X140633Y295082D01*
X140726Y295118D01*
X140820Y295151D01*
X140916Y295180D01*
X141012Y295205D01*
X141109Y295226D01*
X141208Y295244D01*
X141306Y295257D01*
X141406Y295267D01*
X141505Y295273D01*
X141605Y295275D01*
X142240Y295275D01*
X142351Y295273D01*
X142461Y295267D01*
X142572Y295258D01*
X142682Y295244D01*
X142791Y295227D01*
X142900Y295206D01*
X143008Y295181D01*
X143115Y295152D01*
X143221Y295120D01*
X143326Y295084D01*
X143429Y295044D01*
X143531Y295001D01*
X143632Y294954D01*
X143731Y294903D01*
X143828Y294850D01*
X143922Y294793D01*
X144015Y294732D01*
X144106Y294669D01*
X144195Y294602D01*
X144281Y294532D01*
X144364Y294459D01*
X144446Y294384D01*
X144524Y294306D01*
X144599Y294224D01*
X144672Y294141D01*
X144742Y294055D01*
X144809Y293966D01*
X144872Y293875D01*
X144933Y293782D01*
X144990Y293687D01*
X145043Y293591D01*
X145094Y293492D01*
X145141Y293391D01*
X145184Y293289D01*
X145224Y293186D01*
X145260Y293081D01*
X145292Y292975D01*
X145321Y292868D01*
X145346Y292760D01*
X145367Y292651D01*
X145384Y292542D01*
X145398Y292432D01*
X145407Y292321D01*
X145413Y292211D01*
X145415Y292100D01*
X145413Y291989D01*
X145407Y291879D01*
X145398Y291768D01*
X145384Y291658D01*
X145367Y291549D01*
X145346Y291440D01*
X145321Y291332D01*
X145292Y291225D01*
X145260Y291119D01*
X145224Y291014D01*
X145184Y290911D01*
X145141Y290809D01*
X145094Y290708D01*
X145043Y290609D01*
X144990Y290512D01*
X144933Y290418D01*
X144872Y290325D01*
X144809Y290234D01*
X144742Y290145D01*
X144672Y290059D01*
X144599Y289976D01*
X144524Y289894D01*
X144446Y289816D01*
X144364Y289741D01*
X144281Y289668D01*
X144195Y289598D01*
X144106Y289531D01*
X144015Y289468D01*
X143922Y289407D01*
X143827Y289350D01*
X143731Y289297D01*
X143632Y289246D01*
X143531Y289199D01*
X143429Y289156D01*
X143326Y289116D01*
X143221Y289080D01*
X143115Y289048D01*
X143008Y289019D01*
X142900Y288994D01*
X142791Y288973D01*
X142682Y288956D01*
X142572Y288942D01*
X142461Y288933D01*
X142351Y288927D01*
X142240Y288925D01*
X139065Y288925D01*
X138925Y288927D01*
X138785Y288933D01*
X138645Y288942D01*
X138506Y288956D01*
X138367Y288973D01*
X138229Y288994D01*
X138091Y289019D01*
X137954Y289048D01*
X137818Y289080D01*
X137683Y289117D01*
X137549Y289157D01*
X137416Y289200D01*
X137284Y289248D01*
X137153Y289298D01*
X137024Y289353D01*
X136897Y289411D01*
X136771Y289472D01*
X136647Y289537D01*
X136525Y289606D01*
X136405Y289677D01*
X136287Y289752D01*
X136170Y289830D01*
X136056Y289912D01*
X135945Y289996D01*
X135836Y290084D01*
X135729Y290174D01*
X135624Y290268D01*
X135523Y290364D01*
X135424Y290463D01*
X135328Y290564D01*
X135234Y290669D01*
X135144Y290776D01*
X135056Y290885D01*
X134972Y290996D01*
X134890Y291110D01*
X134812Y291227D01*
X134737Y291345D01*
X134666Y291465D01*
X134597Y291587D01*
X134532Y291711D01*
X134471Y291837D01*
X134413Y291964D01*
X134358Y292093D01*
X134308Y292224D01*
X134260Y292356D01*
X134217Y292489D01*
X134177Y292623D01*
X134140Y292758D01*
X134108Y292894D01*
X134079Y293031D01*
X134054Y293169D01*
X134033Y293307D01*
X134016Y293446D01*
X134002Y293585D01*
X133993Y293725D01*
X133987Y293865D01*
X133985Y294005D01*
X159385Y291465D02*
X168275Y288925D01*
X168275Y295275D01*
X165735Y293370D02*
X170815Y293370D01*
X184785Y292418D02*
X184787Y292522D01*
X184793Y292627D01*
X184802Y292731D01*
X184815Y292834D01*
X184833Y292937D01*
X184853Y293039D01*
X184878Y293141D01*
X184906Y293241D01*
X184938Y293341D01*
X184974Y293439D01*
X185013Y293536D01*
X185055Y293631D01*
X185101Y293725D01*
X185151Y293817D01*
X185203Y293907D01*
X185259Y293995D01*
X185319Y294081D01*
X185381Y294165D01*
X185446Y294246D01*
X185514Y294325D01*
X185586Y294402D01*
X185659Y294475D01*
X185736Y294547D01*
X185815Y294615D01*
X185896Y294680D01*
X185980Y294742D01*
X186066Y294802D01*
X186154Y294858D01*
X186244Y294910D01*
X186336Y294960D01*
X186430Y295006D01*
X186525Y295048D01*
X186622Y295087D01*
X186720Y295123D01*
X186820Y295155D01*
X186920Y295183D01*
X187022Y295208D01*
X187124Y295228D01*
X187227Y295246D01*
X187330Y295259D01*
X187434Y295268D01*
X187539Y295274D01*
X187643Y295276D01*
X184785Y292418D02*
X184787Y292300D01*
X184793Y292181D01*
X184802Y292063D01*
X184815Y291946D01*
X184833Y291829D01*
X184853Y291712D01*
X184878Y291596D01*
X184906Y291481D01*
X184939Y291368D01*
X184974Y291255D01*
X185014Y291143D01*
X185056Y291033D01*
X185103Y290924D01*
X185153Y290816D01*
X185206Y290711D01*
X185263Y290607D01*
X185323Y290505D01*
X185386Y290405D01*
X185453Y290307D01*
X185522Y290211D01*
X185595Y290118D01*
X185671Y290027D01*
X185749Y289938D01*
X185831Y289852D01*
X185915Y289769D01*
X186001Y289688D01*
X186091Y289611D01*
X186182Y289536D01*
X186276Y289464D01*
X186373Y289395D01*
X186471Y289330D01*
X186572Y289267D01*
X186675Y289208D01*
X186779Y289152D01*
X186885Y289100D01*
X186993Y289051D01*
X187102Y289006D01*
X187213Y288964D01*
X187325Y288926D01*
X189865Y294323D02*
X189790Y294399D01*
X189711Y294474D01*
X189630Y294545D01*
X189546Y294614D01*
X189460Y294679D01*
X189372Y294741D01*
X189282Y294801D01*
X189190Y294857D01*
X189095Y294910D01*
X188999Y294959D01*
X188901Y295005D01*
X188802Y295048D01*
X188701Y295087D01*
X188599Y295122D01*
X188496Y295154D01*
X188392Y295182D01*
X188287Y295207D01*
X188180Y295228D01*
X188074Y295245D01*
X187967Y295258D01*
X187859Y295267D01*
X187751Y295273D01*
X187643Y295275D01*
X189865Y294323D02*
X196215Y288925D01*
X196215Y295275D01*
D12*
X88900Y203200D03*
X114300Y203200D03*
X139700Y203200D03*
X165100Y203200D03*
X190500Y203200D03*
D11*
X180086Y168275D02*
X180084Y168175D01*
X180078Y168076D01*
X180068Y167976D01*
X180055Y167878D01*
X180037Y167779D01*
X180016Y167682D01*
X179991Y167586D01*
X179962Y167490D01*
X179929Y167396D01*
X179893Y167303D01*
X179853Y167212D01*
X179809Y167122D01*
X179762Y167034D01*
X179712Y166948D01*
X179658Y166864D01*
X179601Y166782D01*
X179541Y166703D01*
X179477Y166625D01*
X179411Y166551D01*
X179342Y166479D01*
X179270Y166410D01*
X179196Y166344D01*
X179118Y166280D01*
X179039Y166220D01*
X178957Y166163D01*
X178873Y166109D01*
X178787Y166059D01*
X178699Y166012D01*
X178609Y165968D01*
X178518Y165928D01*
X178425Y165892D01*
X178331Y165859D01*
X178235Y165830D01*
X178139Y165805D01*
X178042Y165784D01*
X177943Y165766D01*
X177845Y165753D01*
X177745Y165743D01*
X177646Y165737D01*
X177546Y165735D01*
X177405Y165737D01*
X177264Y165742D01*
X177123Y165752D01*
X176982Y165765D01*
X176842Y165781D01*
X176702Y165802D01*
X176563Y165826D01*
X176424Y165854D01*
X176287Y165885D01*
X176150Y165920D01*
X176014Y165958D01*
X175879Y166000D01*
X175746Y166046D01*
X175613Y166095D01*
X175482Y166148D01*
X175353Y166204D01*
X175224Y166263D01*
X175098Y166326D01*
X174973Y166392D01*
X174850Y166461D01*
X174729Y166534D01*
X174610Y166610D01*
X174492Y166689D01*
X174377Y166770D01*
X174265Y166855D01*
X174154Y166943D01*
X174046Y167034D01*
X173940Y167127D01*
X173837Y167224D01*
X173736Y167323D01*
X174054Y174625D02*
X174056Y174725D01*
X174062Y174824D01*
X174072Y174924D01*
X174085Y175022D01*
X174103Y175121D01*
X174124Y175218D01*
X174149Y175314D01*
X174178Y175410D01*
X174211Y175504D01*
X174247Y175597D01*
X174287Y175688D01*
X174331Y175778D01*
X174378Y175866D01*
X174428Y175952D01*
X174482Y176036D01*
X174539Y176118D01*
X174599Y176197D01*
X174663Y176275D01*
X174729Y176349D01*
X174798Y176421D01*
X174870Y176490D01*
X174944Y176556D01*
X175022Y176620D01*
X175101Y176680D01*
X175183Y176737D01*
X175267Y176791D01*
X175353Y176841D01*
X175441Y176888D01*
X175531Y176932D01*
X175622Y176972D01*
X175715Y177008D01*
X175809Y177041D01*
X175905Y177070D01*
X176001Y177095D01*
X176098Y177116D01*
X176197Y177134D01*
X176295Y177147D01*
X176395Y177157D01*
X176494Y177163D01*
X176594Y177165D01*
X176594Y177166D02*
X176727Y177164D01*
X176860Y177159D01*
X176993Y177149D01*
X177126Y177136D01*
X177258Y177119D01*
X177390Y177099D01*
X177521Y177075D01*
X177651Y177047D01*
X177781Y177016D01*
X177909Y176981D01*
X178037Y176942D01*
X178163Y176900D01*
X178288Y176854D01*
X178412Y176805D01*
X178535Y176753D01*
X178656Y176697D01*
X178775Y176637D01*
X178893Y176575D01*
X179008Y176509D01*
X179122Y176440D01*
X179234Y176367D01*
X179344Y176292D01*
X179452Y176213D01*
X175323Y172402D02*
X175239Y172454D01*
X175156Y172509D01*
X175076Y172568D01*
X174998Y172629D01*
X174923Y172693D01*
X174850Y172761D01*
X174779Y172831D01*
X174712Y172903D01*
X174647Y172978D01*
X174585Y173056D01*
X174526Y173136D01*
X174470Y173218D01*
X174418Y173302D01*
X174369Y173388D01*
X174323Y173476D01*
X174280Y173566D01*
X174241Y173657D01*
X174206Y173750D01*
X174174Y173844D01*
X174146Y173939D01*
X174121Y174035D01*
X174101Y174132D01*
X174083Y174230D01*
X174070Y174328D01*
X174061Y174427D01*
X174055Y174526D01*
X174053Y174625D01*
X178816Y170498D02*
X178900Y170446D01*
X178983Y170391D01*
X179063Y170332D01*
X179141Y170271D01*
X179216Y170207D01*
X179289Y170139D01*
X179360Y170069D01*
X179427Y169997D01*
X179492Y169922D01*
X179554Y169844D01*
X179613Y169764D01*
X179669Y169682D01*
X179721Y169598D01*
X179770Y169512D01*
X179816Y169424D01*
X179859Y169334D01*
X179898Y169243D01*
X179933Y169150D01*
X179965Y169056D01*
X179993Y168961D01*
X180018Y168865D01*
X180038Y168768D01*
X180056Y168670D01*
X180069Y168572D01*
X180078Y168473D01*
X180084Y168374D01*
X180086Y168275D01*
X178816Y170498D02*
X175324Y172403D01*
X184150Y177165D02*
X187960Y165735D01*
X191770Y177165D01*
X196215Y174625D02*
X199390Y177165D01*
X199390Y165735D01*
X196215Y165735D02*
X202565Y165735D01*
D10*
X260350Y50800D02*
X273050Y50800D01*
X260350Y50800D02*
X254000Y57150D01*
X247650Y50800D01*
X234950Y50800D01*
X228600Y57150D01*
X273050Y50800D02*
X279400Y57150D01*
X228600Y57150D02*
X222250Y50800D01*
X209550Y50800D01*
X203200Y57150D01*
X196850Y50800D02*
X184150Y50800D01*
X177800Y57150D01*
X171450Y50800D01*
X158750Y50800D01*
X152400Y57150D01*
X196850Y50800D02*
X203200Y57150D01*
X152400Y57150D02*
X146050Y50800D01*
X133350Y50800D01*
X127000Y57150D01*
X254000Y95250D02*
X260350Y101600D01*
X234950Y101600D02*
X228600Y95250D01*
X234950Y101600D02*
X247650Y101600D01*
X254000Y95250D01*
X279400Y95250D02*
X279400Y57150D01*
X279400Y95250D02*
X273050Y101600D01*
X260350Y101600D01*
X209550Y101600D02*
X203200Y95250D01*
X209550Y101600D02*
X222250Y101600D01*
X228600Y95250D01*
X184150Y101600D02*
X177800Y95250D01*
X158750Y101600D02*
X152400Y95250D01*
X158750Y101600D02*
X171450Y101600D01*
X177800Y95250D01*
X196850Y101600D02*
X203200Y95250D01*
X196850Y101600D02*
X184150Y101600D01*
X133350Y101600D02*
X127000Y95250D01*
X133350Y101600D02*
X146050Y101600D01*
X152400Y95250D01*
X120650Y50800D02*
X107950Y50800D01*
X101600Y57150D01*
X95250Y50800D01*
X31750Y50800D02*
X25400Y57150D01*
X120650Y50800D02*
X127000Y57150D01*
X25400Y57150D02*
X25400Y95250D01*
X101600Y95250D02*
X107950Y101600D01*
X31750Y101600D02*
X25400Y95250D01*
X95250Y101600D02*
X101600Y95250D01*
X120650Y101600D02*
X127000Y95250D01*
X120650Y101600D02*
X107950Y101600D01*
X95250Y101600D02*
X82550Y101600D01*
X76200Y95250D01*
X69850Y101600D01*
X57150Y101600D01*
X50800Y95250D01*
X44450Y101600D01*
X31750Y101600D01*
X82550Y50800D02*
X95250Y50800D01*
X82550Y50800D02*
X76200Y57150D01*
X69850Y50800D01*
X57150Y50800D01*
X50800Y57150D01*
X44450Y50800D01*
X31750Y50800D01*
D11*
X264795Y114935D02*
X267970Y117475D01*
X267970Y106045D01*
X264795Y106045D02*
X271145Y106045D01*
X38736Y43498D02*
X38734Y43602D01*
X38728Y43707D01*
X38719Y43811D01*
X38706Y43914D01*
X38688Y44017D01*
X38668Y44119D01*
X38643Y44221D01*
X38615Y44321D01*
X38583Y44421D01*
X38547Y44519D01*
X38508Y44616D01*
X38466Y44711D01*
X38420Y44805D01*
X38370Y44897D01*
X38318Y44987D01*
X38262Y45075D01*
X38202Y45161D01*
X38140Y45245D01*
X38075Y45326D01*
X38007Y45405D01*
X37935Y45482D01*
X37862Y45555D01*
X37785Y45627D01*
X37706Y45695D01*
X37625Y45760D01*
X37541Y45822D01*
X37455Y45882D01*
X37367Y45938D01*
X37277Y45990D01*
X37185Y46040D01*
X37091Y46086D01*
X36996Y46128D01*
X36899Y46167D01*
X36801Y46203D01*
X36701Y46235D01*
X36601Y46263D01*
X36499Y46288D01*
X36397Y46308D01*
X36294Y46326D01*
X36191Y46339D01*
X36087Y46348D01*
X35982Y46354D01*
X35878Y46356D01*
X35878Y46355D02*
X35760Y46353D01*
X35641Y46347D01*
X35523Y46338D01*
X35406Y46325D01*
X35289Y46307D01*
X35172Y46287D01*
X35056Y46262D01*
X34941Y46234D01*
X34828Y46201D01*
X34715Y46166D01*
X34603Y46126D01*
X34493Y46084D01*
X34384Y46037D01*
X34276Y45987D01*
X34171Y45934D01*
X34067Y45877D01*
X33965Y45817D01*
X33865Y45754D01*
X33767Y45687D01*
X33671Y45618D01*
X33578Y45545D01*
X33487Y45469D01*
X33398Y45391D01*
X33312Y45309D01*
X33229Y45225D01*
X33148Y45139D01*
X33071Y45049D01*
X32996Y44958D01*
X32924Y44864D01*
X32855Y44767D01*
X32790Y44669D01*
X32727Y44568D01*
X32668Y44465D01*
X32612Y44361D01*
X32560Y44255D01*
X32511Y44147D01*
X32466Y44038D01*
X32424Y43927D01*
X32386Y43815D01*
X37783Y41276D02*
X37859Y41351D01*
X37934Y41430D01*
X38005Y41511D01*
X38074Y41595D01*
X38139Y41681D01*
X38201Y41769D01*
X38261Y41859D01*
X38317Y41951D01*
X38370Y42046D01*
X38419Y42142D01*
X38465Y42240D01*
X38508Y42339D01*
X38547Y42440D01*
X38582Y42542D01*
X38614Y42645D01*
X38642Y42749D01*
X38667Y42854D01*
X38688Y42961D01*
X38705Y43067D01*
X38718Y43174D01*
X38727Y43282D01*
X38733Y43390D01*
X38735Y43498D01*
X37783Y41275D02*
X32385Y34925D01*
X38735Y34925D01*
X43815Y40640D02*
X43818Y40865D01*
X43826Y41090D01*
X43839Y41314D01*
X43858Y41538D01*
X43882Y41762D01*
X43911Y41985D01*
X43946Y42207D01*
X43986Y42428D01*
X44032Y42648D01*
X44082Y42867D01*
X44138Y43085D01*
X44199Y43302D01*
X44265Y43517D01*
X44336Y43730D01*
X44413Y43941D01*
X44494Y44151D01*
X44580Y44359D01*
X44671Y44564D01*
X44767Y44767D01*
X44767Y44768D02*
X44799Y44856D01*
X44835Y44943D01*
X44874Y45029D01*
X44917Y45113D01*
X44963Y45195D01*
X45012Y45275D01*
X45064Y45353D01*
X45120Y45429D01*
X45178Y45503D01*
X45240Y45574D01*
X45304Y45643D01*
X45371Y45709D01*
X45440Y45772D01*
X45512Y45833D01*
X45586Y45891D01*
X45663Y45945D01*
X45741Y45997D01*
X45822Y46045D01*
X45904Y46090D01*
X45989Y46132D01*
X46075Y46170D01*
X46162Y46205D01*
X46250Y46237D01*
X46340Y46264D01*
X46431Y46289D01*
X46523Y46309D01*
X46615Y46326D01*
X46709Y46339D01*
X46802Y46348D01*
X46896Y46354D01*
X46990Y46356D01*
X47084Y46354D01*
X47178Y46348D01*
X47271Y46339D01*
X47365Y46326D01*
X47457Y46309D01*
X47549Y46289D01*
X47640Y46264D01*
X47730Y46237D01*
X47818Y46205D01*
X47905Y46170D01*
X47991Y46132D01*
X48076Y46090D01*
X48158Y46045D01*
X48239Y45997D01*
X48317Y45945D01*
X48394Y45891D01*
X48468Y45833D01*
X48540Y45772D01*
X48609Y45709D01*
X48676Y45643D01*
X48740Y45574D01*
X48802Y45503D01*
X48860Y45429D01*
X48916Y45353D01*
X48968Y45275D01*
X49017Y45195D01*
X49063Y45113D01*
X49106Y45029D01*
X49145Y44943D01*
X49181Y44856D01*
X49213Y44768D01*
X49213Y44767D02*
X49309Y44564D01*
X49400Y44359D01*
X49486Y44151D01*
X49567Y43941D01*
X49644Y43730D01*
X49715Y43517D01*
X49781Y43302D01*
X49842Y43085D01*
X49898Y42867D01*
X49948Y42648D01*
X49994Y42428D01*
X50034Y42207D01*
X50069Y41985D01*
X50098Y41762D01*
X50122Y41538D01*
X50141Y41314D01*
X50154Y41090D01*
X50162Y40865D01*
X50165Y40640D01*
X43815Y40640D02*
X43818Y40415D01*
X43826Y40190D01*
X43839Y39966D01*
X43858Y39742D01*
X43882Y39518D01*
X43911Y39295D01*
X43946Y39073D01*
X43986Y38852D01*
X44032Y38632D01*
X44082Y38413D01*
X44138Y38195D01*
X44199Y37978D01*
X44265Y37763D01*
X44336Y37550D01*
X44413Y37339D01*
X44494Y37129D01*
X44580Y36921D01*
X44671Y36716D01*
X44767Y36513D01*
X44799Y36425D01*
X44835Y36338D01*
X44874Y36252D01*
X44917Y36168D01*
X44963Y36086D01*
X45012Y36006D01*
X45064Y35928D01*
X45120Y35852D01*
X45178Y35778D01*
X45240Y35707D01*
X45304Y35638D01*
X45371Y35572D01*
X45440Y35509D01*
X45512Y35448D01*
X45586Y35390D01*
X45663Y35336D01*
X45741Y35284D01*
X45822Y35236D01*
X45904Y35191D01*
X45989Y35149D01*
X46075Y35111D01*
X46162Y35076D01*
X46250Y35044D01*
X46340Y35017D01*
X46431Y34992D01*
X46523Y34972D01*
X46615Y34955D01*
X46709Y34942D01*
X46802Y34933D01*
X46896Y34927D01*
X46990Y34925D01*
X49213Y36513D02*
X49309Y36716D01*
X49400Y36921D01*
X49486Y37129D01*
X49567Y37339D01*
X49644Y37550D01*
X49715Y37763D01*
X49781Y37978D01*
X49842Y38195D01*
X49898Y38413D01*
X49948Y38632D01*
X49994Y38852D01*
X50034Y39073D01*
X50069Y39295D01*
X50098Y39518D01*
X50122Y39742D01*
X50141Y39966D01*
X50154Y40190D01*
X50162Y40415D01*
X50165Y40640D01*
X49213Y36513D02*
X49181Y36425D01*
X49145Y36338D01*
X49106Y36252D01*
X49063Y36168D01*
X49017Y36086D01*
X48968Y36006D01*
X48916Y35928D01*
X48860Y35852D01*
X48802Y35778D01*
X48740Y35707D01*
X48676Y35638D01*
X48609Y35572D01*
X48540Y35509D01*
X48468Y35448D01*
X48394Y35390D01*
X48317Y35336D01*
X48239Y35284D01*
X48158Y35236D01*
X48076Y35191D01*
X47991Y35149D01*
X47905Y35111D01*
X47818Y35076D01*
X47730Y35044D01*
X47640Y35017D01*
X47549Y34992D01*
X47457Y34972D01*
X47365Y34955D01*
X47271Y34942D01*
X47178Y34933D01*
X47084Y34927D01*
X46990Y34925D01*
X44450Y37465D02*
X49530Y43815D01*
X253746Y34925D02*
X253846Y34927D01*
X253945Y34933D01*
X254045Y34943D01*
X254143Y34956D01*
X254242Y34974D01*
X254339Y34995D01*
X254435Y35020D01*
X254531Y35049D01*
X254625Y35082D01*
X254718Y35118D01*
X254809Y35158D01*
X254899Y35202D01*
X254987Y35249D01*
X255073Y35299D01*
X255157Y35353D01*
X255239Y35410D01*
X255318Y35470D01*
X255396Y35534D01*
X255470Y35600D01*
X255542Y35669D01*
X255611Y35741D01*
X255677Y35815D01*
X255741Y35893D01*
X255801Y35972D01*
X255858Y36054D01*
X255912Y36138D01*
X255962Y36224D01*
X256009Y36312D01*
X256053Y36402D01*
X256093Y36493D01*
X256129Y36586D01*
X256162Y36680D01*
X256191Y36776D01*
X256216Y36872D01*
X256237Y36969D01*
X256255Y37068D01*
X256268Y37166D01*
X256278Y37266D01*
X256284Y37365D01*
X256286Y37465D01*
X253746Y34925D02*
X253605Y34927D01*
X253464Y34932D01*
X253323Y34942D01*
X253182Y34955D01*
X253042Y34971D01*
X252902Y34992D01*
X252763Y35016D01*
X252624Y35044D01*
X252487Y35075D01*
X252350Y35110D01*
X252214Y35148D01*
X252079Y35190D01*
X251946Y35236D01*
X251813Y35285D01*
X251682Y35338D01*
X251553Y35394D01*
X251424Y35453D01*
X251298Y35516D01*
X251173Y35582D01*
X251050Y35651D01*
X250929Y35724D01*
X250810Y35800D01*
X250692Y35879D01*
X250577Y35960D01*
X250465Y36045D01*
X250354Y36133D01*
X250246Y36224D01*
X250140Y36317D01*
X250037Y36414D01*
X249936Y36513D01*
X250254Y43815D02*
X250256Y43915D01*
X250262Y44014D01*
X250272Y44114D01*
X250285Y44212D01*
X250303Y44311D01*
X250324Y44408D01*
X250349Y44504D01*
X250378Y44600D01*
X250411Y44694D01*
X250447Y44787D01*
X250487Y44878D01*
X250531Y44968D01*
X250578Y45056D01*
X250628Y45142D01*
X250682Y45226D01*
X250739Y45308D01*
X250799Y45387D01*
X250863Y45465D01*
X250929Y45539D01*
X250998Y45611D01*
X251070Y45680D01*
X251144Y45746D01*
X251222Y45810D01*
X251301Y45870D01*
X251383Y45927D01*
X251467Y45981D01*
X251553Y46031D01*
X251641Y46078D01*
X251731Y46122D01*
X251822Y46162D01*
X251915Y46198D01*
X252009Y46231D01*
X252105Y46260D01*
X252201Y46285D01*
X252298Y46306D01*
X252397Y46324D01*
X252495Y46337D01*
X252595Y46347D01*
X252694Y46353D01*
X252794Y46355D01*
X252794Y46356D02*
X252927Y46354D01*
X253060Y46349D01*
X253193Y46339D01*
X253326Y46326D01*
X253458Y46309D01*
X253590Y46289D01*
X253721Y46265D01*
X253851Y46237D01*
X253981Y46206D01*
X254109Y46171D01*
X254237Y46132D01*
X254363Y46090D01*
X254488Y46044D01*
X254612Y45995D01*
X254735Y45943D01*
X254856Y45887D01*
X254975Y45827D01*
X255093Y45765D01*
X255208Y45699D01*
X255322Y45630D01*
X255434Y45557D01*
X255544Y45482D01*
X255652Y45403D01*
X251523Y41592D02*
X251439Y41644D01*
X251356Y41699D01*
X251276Y41758D01*
X251198Y41819D01*
X251123Y41883D01*
X251050Y41951D01*
X250979Y42021D01*
X250912Y42093D01*
X250847Y42168D01*
X250785Y42246D01*
X250726Y42326D01*
X250670Y42408D01*
X250618Y42492D01*
X250569Y42578D01*
X250523Y42666D01*
X250480Y42756D01*
X250441Y42847D01*
X250406Y42940D01*
X250374Y43034D01*
X250346Y43129D01*
X250321Y43225D01*
X250301Y43322D01*
X250283Y43420D01*
X250270Y43518D01*
X250261Y43617D01*
X250255Y43716D01*
X250253Y43815D01*
X255016Y39688D02*
X255100Y39636D01*
X255183Y39581D01*
X255263Y39522D01*
X255341Y39461D01*
X255416Y39397D01*
X255489Y39329D01*
X255560Y39259D01*
X255627Y39187D01*
X255692Y39112D01*
X255754Y39034D01*
X255813Y38954D01*
X255869Y38872D01*
X255921Y38788D01*
X255970Y38702D01*
X256016Y38614D01*
X256059Y38524D01*
X256098Y38433D01*
X256133Y38340D01*
X256165Y38246D01*
X256193Y38151D01*
X256218Y38055D01*
X256238Y37958D01*
X256256Y37860D01*
X256269Y37762D01*
X256278Y37663D01*
X256284Y37564D01*
X256286Y37465D01*
X255016Y39688D02*
X251524Y41593D01*
X260350Y46355D02*
X264160Y34925D01*
X267970Y46355D01*
X275908Y46356D02*
X276012Y46354D01*
X276117Y46348D01*
X276221Y46339D01*
X276324Y46326D01*
X276427Y46308D01*
X276529Y46288D01*
X276631Y46263D01*
X276731Y46235D01*
X276831Y46203D01*
X276929Y46167D01*
X277026Y46128D01*
X277121Y46086D01*
X277215Y46040D01*
X277307Y45990D01*
X277397Y45938D01*
X277485Y45882D01*
X277571Y45822D01*
X277655Y45760D01*
X277736Y45695D01*
X277815Y45627D01*
X277892Y45555D01*
X277965Y45482D01*
X278037Y45405D01*
X278105Y45326D01*
X278170Y45245D01*
X278232Y45161D01*
X278292Y45075D01*
X278348Y44987D01*
X278400Y44897D01*
X278450Y44805D01*
X278496Y44711D01*
X278538Y44616D01*
X278577Y44519D01*
X278613Y44421D01*
X278645Y44321D01*
X278673Y44221D01*
X278698Y44119D01*
X278718Y44017D01*
X278736Y43914D01*
X278749Y43811D01*
X278758Y43707D01*
X278764Y43602D01*
X278766Y43498D01*
X275908Y46355D02*
X275790Y46353D01*
X275671Y46347D01*
X275553Y46338D01*
X275436Y46325D01*
X275319Y46307D01*
X275202Y46287D01*
X275086Y46262D01*
X274971Y46234D01*
X274858Y46201D01*
X274745Y46166D01*
X274633Y46126D01*
X274523Y46084D01*
X274414Y46037D01*
X274306Y45987D01*
X274201Y45934D01*
X274097Y45877D01*
X273995Y45817D01*
X273895Y45754D01*
X273797Y45687D01*
X273701Y45618D01*
X273608Y45545D01*
X273517Y45469D01*
X273428Y45391D01*
X273342Y45309D01*
X273259Y45225D01*
X273178Y45139D01*
X273101Y45049D01*
X273026Y44958D01*
X272954Y44864D01*
X272885Y44767D01*
X272820Y44669D01*
X272757Y44568D01*
X272698Y44465D01*
X272642Y44361D01*
X272590Y44255D01*
X272541Y44147D01*
X272496Y44038D01*
X272454Y43927D01*
X272416Y43815D01*
X277813Y41276D02*
X277889Y41351D01*
X277964Y41430D01*
X278035Y41511D01*
X278104Y41595D01*
X278169Y41681D01*
X278231Y41769D01*
X278291Y41859D01*
X278347Y41951D01*
X278400Y42046D01*
X278449Y42142D01*
X278495Y42240D01*
X278538Y42339D01*
X278577Y42440D01*
X278612Y42542D01*
X278644Y42645D01*
X278672Y42749D01*
X278697Y42854D01*
X278718Y42961D01*
X278735Y43067D01*
X278748Y43174D01*
X278757Y43282D01*
X278763Y43390D01*
X278765Y43498D01*
X277813Y41275D02*
X272415Y34925D01*
X278765Y34925D01*
M02*
