G04 EAGLE Gerber RS-274X export*
G75*
%MOMM*%
%FSLAX34Y34*%
%LPD*%
%INTop Copper*%
%IPPOS*%
%AMOC8*
5,1,8,0,0,1.08239X$1,22.5*%
G01*
%ADD10R,1.500000X1.300000*%
%ADD11R,1.500000X0.600000*%
%ADD12R,0.600000X1.500000*%
%ADD13C,1.879600*%
%ADD14R,1.930400X5.334000*%
%ADD15R,1.530000X1.530000*%
%ADD16R,1.000000X2.450000*%
%ADD17R,2.450000X1.000000*%
%ADD18R,1.300000X1.500000*%
%ADD19R,0.600000X1.200000*%
%ADD20C,1.450000*%
%ADD21R,0.400000X1.350000*%
%ADD22R,1.500000X1.900000*%
%ADD23R,1.800000X1.900000*%
%ADD24C,1.108000*%
%ADD25R,0.558800X1.270000*%
%ADD26P,1.732040X8X22.500000*%
%ADD27C,1.600200*%
%ADD28R,1.400000X1.200000*%
%ADD29C,0.756400*%
%ADD30C,0.609600*%
%ADD31C,0.381000*%
%ADD32C,0.406400*%

G36*
X552020Y-2758D02*
X552020Y-2758D01*
X552039Y-2760D01*
X552141Y-2738D01*
X552243Y-2722D01*
X552260Y-2712D01*
X552280Y-2708D01*
X552369Y-2655D01*
X552460Y-2606D01*
X552474Y-2592D01*
X552491Y-2582D01*
X552558Y-2503D01*
X552630Y-2428D01*
X552638Y-2410D01*
X552651Y-2395D01*
X552690Y-2299D01*
X552733Y-2205D01*
X552735Y-2185D01*
X552743Y-2167D01*
X552761Y-2000D01*
X552761Y444000D01*
X552747Y444090D01*
X552739Y444181D01*
X552727Y444211D01*
X552722Y444243D01*
X552679Y444323D01*
X552643Y444407D01*
X552617Y444439D01*
X552606Y444460D01*
X552583Y444482D01*
X552538Y444538D01*
X550538Y446538D01*
X550464Y446591D01*
X550395Y446651D01*
X550365Y446663D01*
X550339Y446682D01*
X550252Y446709D01*
X550167Y446743D01*
X550126Y446747D01*
X550103Y446754D01*
X550071Y446753D01*
X550000Y446761D01*
X0Y446761D01*
X-20Y446758D01*
X-39Y446760D01*
X-141Y446738D01*
X-243Y446722D01*
X-260Y446712D01*
X-280Y446708D01*
X-369Y446655D01*
X-460Y446606D01*
X-474Y446592D01*
X-491Y446582D01*
X-558Y446503D01*
X-630Y446428D01*
X-638Y446410D01*
X-651Y446395D01*
X-690Y446299D01*
X-733Y446205D01*
X-735Y446185D01*
X-743Y446167D01*
X-761Y446000D01*
X-761Y-2000D01*
X-758Y-2020D01*
X-760Y-2039D01*
X-738Y-2141D01*
X-722Y-2243D01*
X-712Y-2260D01*
X-708Y-2280D01*
X-655Y-2369D01*
X-606Y-2460D01*
X-592Y-2474D01*
X-582Y-2491D01*
X-503Y-2558D01*
X-428Y-2630D01*
X-410Y-2638D01*
X-395Y-2651D01*
X-299Y-2690D01*
X-205Y-2733D01*
X-185Y-2735D01*
X-167Y-2743D01*
X0Y-2761D01*
X552000Y-2761D01*
X552020Y-2758D01*
G37*
%LPC*%
G36*
X371486Y2095D02*
X371486Y2095D01*
X361473Y12108D01*
X361473Y13014D01*
X361470Y13034D01*
X361472Y13053D01*
X361450Y13155D01*
X361434Y13257D01*
X361424Y13274D01*
X361420Y13294D01*
X361367Y13383D01*
X361318Y13474D01*
X361304Y13488D01*
X361294Y13505D01*
X361215Y13572D01*
X361140Y13644D01*
X361122Y13652D01*
X361107Y13665D01*
X361011Y13704D01*
X360917Y13747D01*
X360897Y13749D01*
X360879Y13757D01*
X360712Y13775D01*
X359768Y13775D01*
X358938Y14605D01*
X358922Y14617D01*
X358910Y14633D01*
X358822Y14689D01*
X358739Y14749D01*
X358720Y14755D01*
X358703Y14766D01*
X358602Y14791D01*
X358503Y14821D01*
X358484Y14821D01*
X358464Y14826D01*
X358361Y14818D01*
X358258Y14815D01*
X358239Y14808D01*
X358219Y14807D01*
X358124Y14766D01*
X358027Y14731D01*
X358011Y14718D01*
X357993Y14710D01*
X357862Y14605D01*
X357032Y13775D01*
X345768Y13775D01*
X344938Y14605D01*
X344922Y14617D01*
X344910Y14633D01*
X344822Y14689D01*
X344739Y14749D01*
X344720Y14755D01*
X344703Y14766D01*
X344602Y14791D01*
X344503Y14821D01*
X344484Y14821D01*
X344464Y14826D01*
X344361Y14818D01*
X344258Y14815D01*
X344239Y14808D01*
X344219Y14807D01*
X344124Y14766D01*
X344027Y14731D01*
X344011Y14718D01*
X343993Y14710D01*
X343862Y14605D01*
X343032Y13775D01*
X331768Y13775D01*
X330938Y14605D01*
X330922Y14617D01*
X330910Y14633D01*
X330822Y14689D01*
X330739Y14749D01*
X330720Y14755D01*
X330703Y14766D01*
X330602Y14791D01*
X330503Y14821D01*
X330484Y14821D01*
X330464Y14826D01*
X330361Y14818D01*
X330258Y14815D01*
X330239Y14808D01*
X330219Y14807D01*
X330124Y14766D01*
X330027Y14731D01*
X330011Y14718D01*
X329993Y14710D01*
X329862Y14605D01*
X329032Y13775D01*
X317768Y13775D01*
X316938Y14605D01*
X316922Y14617D01*
X316910Y14633D01*
X316822Y14689D01*
X316739Y14749D01*
X316720Y14755D01*
X316703Y14766D01*
X316602Y14791D01*
X316503Y14821D01*
X316484Y14821D01*
X316464Y14826D01*
X316361Y14818D01*
X316258Y14815D01*
X316239Y14808D01*
X316219Y14807D01*
X316124Y14766D01*
X316027Y14731D01*
X316011Y14718D01*
X315993Y14710D01*
X315862Y14605D01*
X315032Y13775D01*
X303768Y13775D01*
X302938Y14605D01*
X302922Y14617D01*
X302910Y14633D01*
X302822Y14689D01*
X302739Y14749D01*
X302720Y14755D01*
X302703Y14766D01*
X302602Y14791D01*
X302503Y14821D01*
X302484Y14821D01*
X302464Y14826D01*
X302361Y14818D01*
X302258Y14815D01*
X302239Y14808D01*
X302219Y14807D01*
X302124Y14766D01*
X302027Y14731D01*
X302011Y14718D01*
X301993Y14710D01*
X301862Y14605D01*
X301032Y13775D01*
X289768Y13775D01*
X288875Y14668D01*
X288875Y40432D01*
X289768Y41325D01*
X301032Y41325D01*
X301862Y40495D01*
X301878Y40483D01*
X301890Y40467D01*
X301978Y40411D01*
X302061Y40351D01*
X302080Y40345D01*
X302097Y40334D01*
X302198Y40309D01*
X302297Y40279D01*
X302316Y40279D01*
X302336Y40274D01*
X302439Y40282D01*
X302542Y40285D01*
X302561Y40292D01*
X302581Y40293D01*
X302676Y40334D01*
X302773Y40369D01*
X302789Y40382D01*
X302807Y40390D01*
X302938Y40495D01*
X303768Y41325D01*
X304031Y41325D01*
X304102Y41336D01*
X304174Y41338D01*
X304222Y41356D01*
X304274Y41364D01*
X304337Y41398D01*
X304405Y41423D01*
X304445Y41455D01*
X304491Y41480D01*
X304541Y41532D01*
X304597Y41576D01*
X304625Y41620D01*
X304661Y41658D01*
X304691Y41723D01*
X304730Y41783D01*
X304742Y41834D01*
X304764Y41881D01*
X304772Y41952D01*
X304790Y42022D01*
X304786Y42074D01*
X304791Y42125D01*
X304776Y42196D01*
X304770Y42267D01*
X304750Y42315D01*
X304739Y42366D01*
X304702Y42427D01*
X304674Y42493D01*
X304629Y42549D01*
X304613Y42577D01*
X304595Y42592D01*
X304569Y42624D01*
X303052Y44141D01*
X175259Y171934D01*
X175259Y189034D01*
X175256Y189054D01*
X175258Y189073D01*
X175236Y189175D01*
X175220Y189277D01*
X175210Y189294D01*
X175206Y189314D01*
X175153Y189403D01*
X175104Y189494D01*
X175090Y189508D01*
X175080Y189525D01*
X175001Y189592D01*
X174926Y189664D01*
X174908Y189672D01*
X174893Y189685D01*
X174797Y189724D01*
X174703Y189767D01*
X174683Y189769D01*
X174665Y189777D01*
X174498Y189795D01*
X171591Y189795D01*
X171521Y189784D01*
X171449Y189782D01*
X171400Y189764D01*
X171349Y189756D01*
X171285Y189722D01*
X171218Y189697D01*
X171177Y189665D01*
X171131Y189640D01*
X171082Y189588D01*
X171026Y189544D01*
X170998Y189500D01*
X170962Y189462D01*
X170932Y189397D01*
X170893Y189337D01*
X170880Y189286D01*
X170858Y189239D01*
X170850Y189168D01*
X170833Y189098D01*
X170837Y189046D01*
X170831Y188995D01*
X170846Y188924D01*
X170852Y188853D01*
X170872Y188805D01*
X170883Y188754D01*
X170920Y188693D01*
X170948Y188627D01*
X170993Y188571D01*
X171010Y188543D01*
X171027Y188528D01*
X171053Y188496D01*
X173328Y186221D01*
X173328Y181825D01*
X170219Y178716D01*
X165823Y178716D01*
X164169Y180370D01*
X164095Y180423D01*
X164025Y180483D01*
X163995Y180495D01*
X163969Y180514D01*
X163882Y180541D01*
X163797Y180575D01*
X163756Y180579D01*
X163734Y180586D01*
X163702Y180585D01*
X163631Y180593D01*
X151088Y180593D01*
X150998Y180579D01*
X150907Y180571D01*
X150877Y180559D01*
X150845Y180554D01*
X150765Y180511D01*
X150681Y180475D01*
X150649Y180449D01*
X150628Y180438D01*
X150606Y180415D01*
X150550Y180370D01*
X119792Y149613D01*
X119735Y149534D01*
X119673Y149458D01*
X119664Y149434D01*
X119648Y149413D01*
X119620Y149320D01*
X119585Y149229D01*
X119584Y149203D01*
X119576Y149178D01*
X119579Y149080D01*
X119574Y148983D01*
X119582Y148958D01*
X119582Y148932D01*
X119616Y148840D01*
X119643Y148747D01*
X119658Y148725D01*
X119667Y148701D01*
X119728Y148625D01*
X119783Y148545D01*
X119804Y148529D01*
X119821Y148509D01*
X119903Y148456D01*
X119981Y148398D01*
X120005Y148390D01*
X120027Y148376D01*
X120122Y148352D01*
X120214Y148322D01*
X120241Y148322D01*
X120266Y148316D01*
X120363Y148323D01*
X120460Y148324D01*
X120492Y148333D01*
X120511Y148335D01*
X120541Y148348D01*
X120622Y148371D01*
X121567Y148763D01*
X125913Y148763D01*
X129927Y147100D01*
X133000Y144027D01*
X134663Y140013D01*
X134663Y135667D01*
X133000Y131653D01*
X129927Y128580D01*
X125913Y126917D01*
X121567Y126917D01*
X117553Y128580D01*
X114480Y131653D01*
X112817Y135667D01*
X112817Y140013D01*
X113209Y140958D01*
X113231Y141053D01*
X113260Y141146D01*
X113259Y141173D01*
X113265Y141198D01*
X113256Y141295D01*
X113254Y141392D01*
X113245Y141417D01*
X113242Y141443D01*
X113203Y141532D01*
X113169Y141623D01*
X113153Y141644D01*
X113142Y141668D01*
X113076Y141739D01*
X113015Y141815D01*
X112993Y141829D01*
X112976Y141849D01*
X112890Y141896D01*
X112808Y141948D01*
X112783Y141955D01*
X112760Y141967D01*
X112664Y141985D01*
X112570Y142008D01*
X112544Y142006D01*
X112518Y142011D01*
X112422Y141997D01*
X112325Y141989D01*
X112301Y141979D01*
X112275Y141975D01*
X112188Y141931D01*
X112098Y141893D01*
X112073Y141873D01*
X112056Y141864D01*
X112032Y141840D01*
X111967Y141788D01*
X109486Y139306D01*
X109433Y139232D01*
X109373Y139163D01*
X109361Y139133D01*
X109342Y139107D01*
X109315Y139020D01*
X109281Y138935D01*
X109277Y138894D01*
X109270Y138872D01*
X109271Y138839D01*
X109263Y138768D01*
X109263Y135667D01*
X107600Y131653D01*
X104527Y128580D01*
X100513Y126917D01*
X96167Y126917D01*
X92153Y128580D01*
X89080Y131653D01*
X87417Y135667D01*
X87417Y140013D01*
X89080Y144027D01*
X92153Y147100D01*
X96167Y148763D01*
X100513Y148763D01*
X104527Y147100D01*
X105515Y146113D01*
X105531Y146101D01*
X105543Y146085D01*
X105631Y146029D01*
X105714Y145969D01*
X105733Y145963D01*
X105750Y145952D01*
X105851Y145927D01*
X105949Y145897D01*
X105969Y145897D01*
X105989Y145892D01*
X106092Y145900D01*
X106195Y145903D01*
X106214Y145910D01*
X106234Y145911D01*
X106329Y145952D01*
X106426Y145987D01*
X106442Y146000D01*
X106460Y146008D01*
X106591Y146113D01*
X145699Y185221D01*
X147931Y187453D01*
X163631Y187453D01*
X163720Y187467D01*
X163812Y187475D01*
X163841Y187487D01*
X163873Y187492D01*
X163954Y187535D01*
X164038Y187571D01*
X164070Y187597D01*
X164091Y187608D01*
X164113Y187631D01*
X164169Y187676D01*
X164989Y188496D01*
X165031Y188554D01*
X165080Y188606D01*
X165102Y188653D01*
X165132Y188695D01*
X165154Y188764D01*
X165184Y188829D01*
X165189Y188881D01*
X165205Y188931D01*
X165203Y189002D01*
X165211Y189073D01*
X165200Y189124D01*
X165198Y189176D01*
X165174Y189244D01*
X165159Y189314D01*
X165132Y189359D01*
X165114Y189407D01*
X165069Y189463D01*
X165032Y189525D01*
X164993Y189559D01*
X164960Y189599D01*
X164900Y189638D01*
X164845Y189685D01*
X164797Y189704D01*
X164753Y189732D01*
X164684Y189750D01*
X164617Y189777D01*
X164546Y189785D01*
X164515Y189793D01*
X164492Y189791D01*
X164451Y189795D01*
X159344Y189795D01*
X159282Y189811D01*
X159183Y189841D01*
X159163Y189841D01*
X159144Y189846D01*
X159041Y189838D01*
X158938Y189835D01*
X158919Y189828D01*
X158899Y189827D01*
X158826Y189796D01*
X158824Y189795D01*
X151344Y189795D01*
X151282Y189811D01*
X151183Y189841D01*
X151163Y189841D01*
X151144Y189846D01*
X151041Y189838D01*
X150938Y189835D01*
X150919Y189828D01*
X150899Y189827D01*
X150826Y189796D01*
X150824Y189795D01*
X143448Y189795D01*
X142555Y190688D01*
X142555Y206952D01*
X143448Y207845D01*
X150816Y207845D01*
X150878Y207829D01*
X150976Y207799D01*
X150996Y207799D01*
X151016Y207794D01*
X151119Y207802D01*
X151222Y207805D01*
X151241Y207812D01*
X151261Y207813D01*
X151334Y207845D01*
X158816Y207845D01*
X158878Y207829D01*
X158976Y207799D01*
X158996Y207799D01*
X159016Y207794D01*
X159119Y207802D01*
X159222Y207805D01*
X159241Y207812D01*
X159261Y207813D01*
X159334Y207845D01*
X166816Y207845D01*
X166878Y207829D01*
X166976Y207799D01*
X166996Y207799D01*
X167016Y207794D01*
X167119Y207802D01*
X167222Y207805D01*
X167241Y207812D01*
X167261Y207813D01*
X167334Y207845D01*
X174816Y207845D01*
X174878Y207829D01*
X174976Y207799D01*
X174996Y207799D01*
X175016Y207794D01*
X175119Y207802D01*
X175222Y207805D01*
X175241Y207812D01*
X175261Y207813D01*
X175334Y207845D01*
X182816Y207845D01*
X182878Y207829D01*
X182976Y207799D01*
X182996Y207799D01*
X183016Y207794D01*
X183119Y207802D01*
X183222Y207805D01*
X183241Y207812D01*
X183261Y207813D01*
X183334Y207845D01*
X190816Y207845D01*
X190878Y207829D01*
X190976Y207799D01*
X190996Y207799D01*
X191016Y207794D01*
X191119Y207802D01*
X191222Y207805D01*
X191241Y207812D01*
X191261Y207813D01*
X191334Y207845D01*
X193531Y207845D01*
X193601Y207856D01*
X193673Y207858D01*
X193722Y207876D01*
X193773Y207884D01*
X193837Y207918D01*
X193904Y207943D01*
X193945Y207975D01*
X193991Y208000D01*
X194040Y208052D01*
X194096Y208096D01*
X194124Y208140D01*
X194160Y208178D01*
X194190Y208243D01*
X194229Y208303D01*
X194242Y208354D01*
X194264Y208401D01*
X194272Y208472D01*
X194289Y208542D01*
X194285Y208594D01*
X194291Y208645D01*
X194276Y208716D01*
X194270Y208787D01*
X194250Y208835D01*
X194239Y208886D01*
X194202Y208947D01*
X194174Y209013D01*
X194129Y209069D01*
X194112Y209097D01*
X194095Y209112D01*
X194069Y209144D01*
X192051Y211162D01*
X192051Y215558D01*
X193483Y216990D01*
X193525Y217048D01*
X193574Y217100D01*
X193596Y217147D01*
X193626Y217189D01*
X193648Y217258D01*
X193678Y217323D01*
X193683Y217375D01*
X193699Y217425D01*
X193697Y217496D01*
X193705Y217567D01*
X193694Y217618D01*
X193692Y217670D01*
X193668Y217738D01*
X193653Y217808D01*
X193626Y217853D01*
X193608Y217901D01*
X193563Y217957D01*
X193526Y218019D01*
X193487Y218053D01*
X193454Y218093D01*
X193394Y218132D01*
X193339Y218179D01*
X193291Y218198D01*
X193247Y218226D01*
X193178Y218244D01*
X193111Y218271D01*
X193040Y218279D01*
X193009Y218287D01*
X192986Y218285D01*
X192945Y218289D01*
X148624Y218289D01*
X142904Y224009D01*
X142846Y224051D01*
X142794Y224100D01*
X142747Y224122D01*
X142705Y224152D01*
X142636Y224174D01*
X142571Y224204D01*
X142519Y224209D01*
X142469Y224225D01*
X142398Y224223D01*
X142327Y224231D01*
X142276Y224220D01*
X142224Y224218D01*
X142156Y224194D01*
X142086Y224179D01*
X142041Y224152D01*
X141993Y224134D01*
X141937Y224089D01*
X141875Y224052D01*
X141841Y224013D01*
X141801Y223980D01*
X141762Y223920D01*
X141715Y223866D01*
X141696Y223817D01*
X141668Y223773D01*
X141650Y223704D01*
X141623Y223637D01*
X141615Y223566D01*
X141607Y223535D01*
X141609Y223512D01*
X141605Y223471D01*
X141605Y217584D01*
X141589Y217522D01*
X141559Y217423D01*
X141559Y217403D01*
X141554Y217384D01*
X141562Y217281D01*
X141565Y217178D01*
X141572Y217159D01*
X141573Y217139D01*
X141605Y217065D01*
X141605Y209688D01*
X140712Y208795D01*
X133951Y208795D01*
X133861Y208781D01*
X133770Y208773D01*
X133740Y208761D01*
X133708Y208756D01*
X133628Y208713D01*
X133544Y208677D01*
X133512Y208651D01*
X133491Y208640D01*
X133469Y208617D01*
X133413Y208572D01*
X133346Y208505D01*
X133327Y208479D01*
X133267Y208413D01*
X132632Y207533D01*
X132567Y207523D01*
X132538Y207513D01*
X132507Y207511D01*
X132422Y207475D01*
X132334Y207445D01*
X132309Y207427D01*
X132281Y207415D01*
X132150Y207310D01*
X126770Y201929D01*
X88376Y201929D01*
X88356Y201926D01*
X88337Y201928D01*
X88235Y201906D01*
X88133Y201890D01*
X88116Y201880D01*
X88096Y201876D01*
X88007Y201823D01*
X87916Y201774D01*
X87902Y201760D01*
X87885Y201750D01*
X87818Y201671D01*
X87746Y201596D01*
X87738Y201578D01*
X87725Y201563D01*
X87686Y201467D01*
X87643Y201373D01*
X87641Y201353D01*
X87633Y201335D01*
X87615Y201168D01*
X87615Y195998D01*
X86722Y195105D01*
X70458Y195105D01*
X69565Y195998D01*
X69565Y198501D01*
X69562Y198521D01*
X69564Y198540D01*
X69542Y198642D01*
X69526Y198744D01*
X69516Y198761D01*
X69512Y198781D01*
X69459Y198870D01*
X69410Y198961D01*
X69396Y198975D01*
X69386Y198992D01*
X69307Y199059D01*
X69232Y199131D01*
X69214Y199139D01*
X69199Y199152D01*
X69103Y199191D01*
X69009Y199234D01*
X68989Y199236D01*
X68971Y199244D01*
X68804Y199262D01*
X57743Y199262D01*
X57653Y199248D01*
X57562Y199240D01*
X57532Y199228D01*
X57500Y199223D01*
X57420Y199180D01*
X57336Y199144D01*
X57304Y199118D01*
X57283Y199107D01*
X57261Y199084D01*
X57205Y199039D01*
X43800Y185634D01*
X43747Y185560D01*
X43687Y185491D01*
X43675Y185461D01*
X43656Y185435D01*
X43629Y185348D01*
X43595Y185263D01*
X43591Y185222D01*
X43584Y185199D01*
X43585Y185167D01*
X43577Y185096D01*
X43577Y154168D01*
X42684Y153275D01*
X22116Y153275D01*
X21223Y154168D01*
X21223Y208772D01*
X22116Y209665D01*
X42684Y209665D01*
X43577Y208772D01*
X43577Y196950D01*
X43588Y196879D01*
X43590Y196807D01*
X43608Y196759D01*
X43616Y196707D01*
X43650Y196644D01*
X43675Y196576D01*
X43707Y196536D01*
X43732Y196490D01*
X43784Y196440D01*
X43828Y196384D01*
X43872Y196356D01*
X43910Y196320D01*
X43975Y196290D01*
X44035Y196251D01*
X44086Y196239D01*
X44133Y196217D01*
X44204Y196209D01*
X44274Y196191D01*
X44326Y196195D01*
X44377Y196190D01*
X44448Y196205D01*
X44519Y196211D01*
X44567Y196231D01*
X44618Y196242D01*
X44679Y196279D01*
X44745Y196307D01*
X44801Y196352D01*
X44829Y196368D01*
X44844Y196386D01*
X44876Y196412D01*
X54586Y206122D01*
X68804Y206122D01*
X68824Y206125D01*
X68843Y206123D01*
X68945Y206145D01*
X69047Y206161D01*
X69064Y206171D01*
X69084Y206175D01*
X69173Y206228D01*
X69264Y206277D01*
X69278Y206291D01*
X69295Y206301D01*
X69362Y206380D01*
X69434Y206455D01*
X69442Y206473D01*
X69455Y206488D01*
X69494Y206584D01*
X69537Y206678D01*
X69539Y206698D01*
X69547Y206716D01*
X69565Y206883D01*
X69565Y210262D01*
X70458Y211155D01*
X86722Y211155D01*
X87615Y210262D01*
X87615Y209550D01*
X87618Y209530D01*
X87616Y209511D01*
X87638Y209409D01*
X87654Y209307D01*
X87664Y209290D01*
X87668Y209270D01*
X87721Y209181D01*
X87770Y209090D01*
X87784Y209076D01*
X87794Y209059D01*
X87873Y208992D01*
X87948Y208920D01*
X87966Y208912D01*
X87981Y208899D01*
X88077Y208860D01*
X88171Y208817D01*
X88191Y208815D01*
X88209Y208807D01*
X88376Y208789D01*
X122794Y208789D01*
X122814Y208792D01*
X122833Y208790D01*
X122935Y208812D01*
X123037Y208828D01*
X123054Y208838D01*
X123074Y208842D01*
X123163Y208895D01*
X123254Y208944D01*
X123268Y208958D01*
X123285Y208968D01*
X123352Y209047D01*
X123424Y209122D01*
X123432Y209140D01*
X123445Y209155D01*
X123484Y209251D01*
X123527Y209345D01*
X123529Y209365D01*
X123537Y209383D01*
X123555Y209550D01*
X123555Y217170D01*
X123552Y217190D01*
X123554Y217209D01*
X123532Y217311D01*
X123516Y217413D01*
X123506Y217430D01*
X123502Y217450D01*
X123449Y217539D01*
X123400Y217630D01*
X123386Y217644D01*
X123376Y217661D01*
X123297Y217728D01*
X123222Y217800D01*
X123204Y217808D01*
X123189Y217821D01*
X123093Y217860D01*
X122999Y217903D01*
X122979Y217905D01*
X122961Y217913D01*
X122794Y217931D01*
X94592Y217931D01*
X76471Y236052D01*
X76397Y236105D01*
X76328Y236165D01*
X76298Y236177D01*
X76272Y236196D01*
X76185Y236223D01*
X76100Y236257D01*
X76059Y236261D01*
X76036Y236268D01*
X76004Y236267D01*
X75933Y236275D01*
X70038Y236275D01*
X69145Y237168D01*
X69145Y241173D01*
X69142Y241193D01*
X69144Y241212D01*
X69122Y241314D01*
X69106Y241416D01*
X69096Y241433D01*
X69092Y241453D01*
X69039Y241542D01*
X68990Y241633D01*
X68976Y241647D01*
X68966Y241664D01*
X68887Y241731D01*
X68812Y241803D01*
X68794Y241811D01*
X68779Y241824D01*
X68683Y241863D01*
X68589Y241906D01*
X68569Y241908D01*
X68551Y241916D01*
X68384Y241934D01*
X63921Y241934D01*
X44876Y260979D01*
X44818Y261021D01*
X44766Y261071D01*
X44719Y261093D01*
X44677Y261123D01*
X44608Y261144D01*
X44543Y261174D01*
X44491Y261180D01*
X44441Y261195D01*
X44370Y261193D01*
X44299Y261201D01*
X44248Y261190D01*
X44196Y261189D01*
X44128Y261164D01*
X44058Y261149D01*
X44013Y261122D01*
X43965Y261104D01*
X43909Y261060D01*
X43847Y261023D01*
X43813Y260983D01*
X43773Y260951D01*
X43734Y260890D01*
X43687Y260836D01*
X43668Y260788D01*
X43640Y260744D01*
X43622Y260674D01*
X43595Y260608D01*
X43587Y260536D01*
X43579Y260505D01*
X43581Y260482D01*
X43577Y260441D01*
X43577Y250688D01*
X42684Y249795D01*
X22116Y249795D01*
X21223Y250688D01*
X21223Y305292D01*
X22116Y306185D01*
X42684Y306185D01*
X43577Y305292D01*
X43577Y272295D01*
X43591Y272205D01*
X43599Y272114D01*
X43611Y272084D01*
X43616Y272052D01*
X43659Y271972D01*
X43695Y271888D01*
X43721Y271856D01*
X43732Y271835D01*
X43755Y271813D01*
X43800Y271757D01*
X66540Y249017D01*
X66614Y248964D01*
X66683Y248904D01*
X66713Y248892D01*
X66739Y248873D01*
X66826Y248846D01*
X66911Y248812D01*
X66952Y248808D01*
X66975Y248801D01*
X67007Y248802D01*
X67078Y248794D01*
X68384Y248794D01*
X68404Y248797D01*
X68423Y248795D01*
X68525Y248817D01*
X68627Y248833D01*
X68644Y248843D01*
X68664Y248847D01*
X68753Y248900D01*
X68844Y248949D01*
X68858Y248963D01*
X68875Y248973D01*
X68942Y249052D01*
X69014Y249127D01*
X69022Y249145D01*
X69035Y249160D01*
X69074Y249256D01*
X69117Y249350D01*
X69119Y249370D01*
X69127Y249388D01*
X69145Y249555D01*
X69145Y251432D01*
X70038Y252325D01*
X86302Y252325D01*
X87195Y251432D01*
X87195Y237168D01*
X86664Y236637D01*
X86652Y236621D01*
X86636Y236609D01*
X86580Y236521D01*
X86520Y236438D01*
X86514Y236419D01*
X86503Y236402D01*
X86478Y236301D01*
X86448Y236203D01*
X86448Y236183D01*
X86443Y236163D01*
X86451Y236060D01*
X86454Y235957D01*
X86461Y235938D01*
X86462Y235918D01*
X86503Y235823D01*
X86539Y235726D01*
X86551Y235710D01*
X86559Y235692D01*
X86664Y235561D01*
X97211Y225014D01*
X97285Y224961D01*
X97354Y224901D01*
X97384Y224889D01*
X97410Y224870D01*
X97497Y224843D01*
X97582Y224809D01*
X97623Y224805D01*
X97646Y224798D01*
X97678Y224799D01*
X97749Y224791D01*
X122794Y224791D01*
X122814Y224794D01*
X122833Y224792D01*
X122935Y224814D01*
X123037Y224830D01*
X123054Y224840D01*
X123074Y224844D01*
X123163Y224897D01*
X123254Y224946D01*
X123268Y224960D01*
X123285Y224970D01*
X123352Y225049D01*
X123424Y225124D01*
X123432Y225142D01*
X123445Y225157D01*
X123484Y225253D01*
X123527Y225347D01*
X123529Y225367D01*
X123537Y225385D01*
X123555Y225552D01*
X123555Y231936D01*
X123541Y232026D01*
X123533Y232117D01*
X123521Y232147D01*
X123516Y232179D01*
X123473Y232260D01*
X123437Y232344D01*
X123411Y232376D01*
X123400Y232396D01*
X123377Y232419D01*
X123332Y232475D01*
X123047Y232760D01*
X122712Y233339D01*
X122539Y233986D01*
X122539Y235821D01*
X131842Y235821D01*
X131861Y235824D01*
X131881Y235822D01*
X131983Y235844D01*
X132085Y235860D01*
X132102Y235870D01*
X132122Y235874D01*
X132211Y235927D01*
X132302Y235976D01*
X132316Y235990D01*
X132333Y236000D01*
X132400Y236079D01*
X132471Y236154D01*
X132480Y236172D01*
X132493Y236187D01*
X132531Y236283D01*
X132575Y236377D01*
X132577Y236397D01*
X132585Y236415D01*
X132603Y236582D01*
X132603Y238058D01*
X132600Y238078D01*
X132602Y238097D01*
X132580Y238199D01*
X132563Y238301D01*
X132554Y238318D01*
X132550Y238338D01*
X132497Y238427D01*
X132448Y238518D01*
X132434Y238532D01*
X132424Y238549D01*
X132345Y238616D01*
X132270Y238688D01*
X132252Y238696D01*
X132237Y238709D01*
X132140Y238748D01*
X132047Y238791D01*
X132027Y238793D01*
X132009Y238801D01*
X131842Y238819D01*
X122539Y238819D01*
X122539Y240030D01*
X122536Y240050D01*
X122538Y240069D01*
X122516Y240171D01*
X122500Y240273D01*
X122490Y240290D01*
X122486Y240310D01*
X122433Y240399D01*
X122384Y240490D01*
X122370Y240504D01*
X122360Y240521D01*
X122281Y240588D01*
X122206Y240660D01*
X122188Y240668D01*
X122173Y240681D01*
X122077Y240720D01*
X121983Y240763D01*
X121963Y240765D01*
X121945Y240773D01*
X121778Y240791D01*
X120788Y240791D01*
X117886Y243693D01*
X114340Y247239D01*
X114282Y247281D01*
X114230Y247330D01*
X114183Y247352D01*
X114141Y247382D01*
X114072Y247404D01*
X114007Y247434D01*
X113955Y247440D01*
X113905Y247455D01*
X113834Y247453D01*
X113763Y247461D01*
X113712Y247450D01*
X113660Y247448D01*
X113592Y247424D01*
X113522Y247409D01*
X113478Y247382D01*
X113429Y247364D01*
X113373Y247319D01*
X113311Y247282D01*
X113277Y247243D01*
X113237Y247210D01*
X113198Y247150D01*
X113151Y247096D01*
X113132Y247047D01*
X113104Y247003D01*
X113086Y246934D01*
X113059Y246867D01*
X113051Y246796D01*
X113043Y246765D01*
X113045Y246742D01*
X113041Y246701D01*
X113041Y241866D01*
X112868Y241219D01*
X112533Y240640D01*
X112060Y240167D01*
X111481Y239832D01*
X110834Y239659D01*
X104523Y239659D01*
X104523Y247938D01*
X104520Y247958D01*
X104522Y247977D01*
X104500Y248079D01*
X104483Y248181D01*
X104474Y248198D01*
X104470Y248218D01*
X104417Y248307D01*
X104368Y248398D01*
X104354Y248412D01*
X104344Y248429D01*
X104265Y248496D01*
X104190Y248567D01*
X104172Y248576D01*
X104157Y248589D01*
X104061Y248628D01*
X103967Y248671D01*
X103947Y248673D01*
X103929Y248681D01*
X103762Y248699D01*
X102999Y248699D01*
X102999Y248701D01*
X103762Y248701D01*
X103782Y248704D01*
X103801Y248702D01*
X103903Y248724D01*
X104005Y248741D01*
X104022Y248750D01*
X104042Y248754D01*
X104131Y248807D01*
X104222Y248856D01*
X104236Y248870D01*
X104253Y248880D01*
X104320Y248959D01*
X104391Y249034D01*
X104400Y249052D01*
X104413Y249067D01*
X104452Y249163D01*
X104495Y249257D01*
X104497Y249277D01*
X104505Y249295D01*
X104523Y249462D01*
X104523Y257741D01*
X110834Y257741D01*
X111481Y257568D01*
X112060Y257233D01*
X112143Y257150D01*
X112201Y257109D01*
X112253Y257059D01*
X112300Y257037D01*
X112342Y257007D01*
X112411Y256986D01*
X112476Y256956D01*
X112528Y256950D01*
X112577Y256934D01*
X112649Y256936D01*
X112720Y256928D01*
X112771Y256940D01*
X112823Y256941D01*
X112891Y256965D01*
X112961Y256981D01*
X113006Y257007D01*
X113054Y257025D01*
X113110Y257070D01*
X113172Y257107D01*
X113206Y257146D01*
X113246Y257179D01*
X113285Y257239D01*
X113332Y257294D01*
X113351Y257342D01*
X113379Y257386D01*
X113397Y257455D01*
X113424Y257522D01*
X113432Y257593D01*
X113440Y257624D01*
X113438Y257648D01*
X113442Y257689D01*
X113442Y258156D01*
X113428Y258245D01*
X113420Y258337D01*
X113408Y258366D01*
X113403Y258398D01*
X113360Y258479D01*
X113324Y258563D01*
X113298Y258595D01*
X113287Y258616D01*
X113264Y258638D01*
X113219Y258694D01*
X112223Y259690D01*
X112207Y259702D01*
X112194Y259717D01*
X112107Y259773D01*
X112023Y259834D01*
X112004Y259840D01*
X111987Y259850D01*
X111887Y259876D01*
X111788Y259906D01*
X111768Y259906D01*
X111749Y259910D01*
X111646Y259902D01*
X111542Y259900D01*
X111524Y259893D01*
X111504Y259891D01*
X111409Y259851D01*
X111311Y259815D01*
X111296Y259803D01*
X111277Y259795D01*
X111146Y259690D01*
X111132Y259675D01*
X94868Y259675D01*
X93975Y260568D01*
X93975Y272623D01*
X93961Y272713D01*
X93953Y272804D01*
X93941Y272833D01*
X93936Y272865D01*
X93893Y272946D01*
X93857Y273030D01*
X93831Y273062D01*
X93820Y273083D01*
X93797Y273105D01*
X93752Y273161D01*
X46809Y320104D01*
X46735Y320157D01*
X46665Y320217D01*
X46635Y320229D01*
X46609Y320248D01*
X46522Y320275D01*
X46437Y320309D01*
X46396Y320313D01*
X46374Y320320D01*
X46342Y320319D01*
X46271Y320327D01*
X45686Y320327D01*
X45666Y320324D01*
X45647Y320326D01*
X45545Y320304D01*
X45443Y320288D01*
X45426Y320278D01*
X45406Y320274D01*
X45317Y320221D01*
X45226Y320172D01*
X45212Y320158D01*
X45195Y320148D01*
X45128Y320069D01*
X45056Y319994D01*
X45048Y319976D01*
X45035Y319961D01*
X44996Y319865D01*
X44953Y319771D01*
X44951Y319751D01*
X44943Y319733D01*
X44925Y319566D01*
X44925Y317768D01*
X44032Y316875D01*
X27768Y316875D01*
X26875Y317768D01*
X26875Y332032D01*
X27768Y332925D01*
X44032Y332925D01*
X44925Y332032D01*
X44925Y330234D01*
X44928Y330214D01*
X44926Y330195D01*
X44948Y330093D01*
X44964Y329991D01*
X44974Y329974D01*
X44978Y329954D01*
X45031Y329865D01*
X45080Y329774D01*
X45094Y329760D01*
X45104Y329743D01*
X45183Y329676D01*
X45258Y329604D01*
X45276Y329596D01*
X45291Y329583D01*
X45387Y329544D01*
X45481Y329501D01*
X45501Y329499D01*
X45519Y329491D01*
X45686Y329473D01*
X50374Y329473D01*
X53276Y326571D01*
X103899Y275948D01*
X103973Y275895D01*
X104043Y275835D01*
X104073Y275823D01*
X104099Y275804D01*
X104186Y275777D01*
X104271Y275743D01*
X104312Y275739D01*
X104334Y275732D01*
X104366Y275733D01*
X104437Y275725D01*
X111132Y275725D01*
X112025Y274832D01*
X112025Y273034D01*
X112028Y273014D01*
X112026Y272995D01*
X112048Y272893D01*
X112064Y272791D01*
X112074Y272774D01*
X112078Y272754D01*
X112131Y272665D01*
X112180Y272574D01*
X112194Y272560D01*
X112204Y272543D01*
X112283Y272476D01*
X112358Y272404D01*
X112376Y272396D01*
X112391Y272383D01*
X112487Y272344D01*
X112516Y272331D01*
X122256Y262591D01*
X122314Y262549D01*
X122366Y262500D01*
X122413Y262478D01*
X122455Y262448D01*
X122524Y262426D01*
X122589Y262396D01*
X122641Y262391D01*
X122691Y262375D01*
X122762Y262377D01*
X122833Y262369D01*
X122884Y262380D01*
X122936Y262382D01*
X123004Y262406D01*
X123074Y262421D01*
X123119Y262448D01*
X123167Y262466D01*
X123223Y262511D01*
X123285Y262548D01*
X123319Y262587D01*
X123359Y262620D01*
X123398Y262680D01*
X123445Y262734D01*
X123464Y262783D01*
X123492Y262827D01*
X123510Y262896D01*
X123537Y262963D01*
X123545Y263034D01*
X123553Y263065D01*
X123551Y263088D01*
X123555Y263129D01*
X123555Y265056D01*
X123571Y265118D01*
X123601Y265217D01*
X123601Y265237D01*
X123606Y265256D01*
X123598Y265359D01*
X123595Y265462D01*
X123588Y265481D01*
X123587Y265501D01*
X123555Y265575D01*
X123555Y272952D01*
X124448Y273845D01*
X140712Y273845D01*
X141605Y272952D01*
X141605Y265584D01*
X141589Y265522D01*
X141559Y265424D01*
X141559Y265404D01*
X141554Y265384D01*
X141562Y265281D01*
X141565Y265178D01*
X141572Y265159D01*
X141573Y265139D01*
X141605Y265066D01*
X141605Y258704D01*
X141619Y258614D01*
X141627Y258523D01*
X141639Y258493D01*
X141644Y258461D01*
X141687Y258380D01*
X141723Y258296D01*
X141749Y258264D01*
X141760Y258244D01*
X141783Y258221D01*
X141828Y258165D01*
X142113Y257880D01*
X142448Y257301D01*
X142621Y256654D01*
X142621Y254819D01*
X133318Y254819D01*
X133299Y254816D01*
X133279Y254818D01*
X133177Y254796D01*
X133075Y254780D01*
X133058Y254770D01*
X133038Y254766D01*
X132949Y254713D01*
X132858Y254664D01*
X132844Y254650D01*
X132827Y254640D01*
X132760Y254561D01*
X132689Y254486D01*
X132680Y254468D01*
X132667Y254453D01*
X132629Y254357D01*
X132585Y254263D01*
X132583Y254243D01*
X132575Y254225D01*
X132557Y254058D01*
X132557Y252582D01*
X132560Y252562D01*
X132558Y252542D01*
X132580Y252441D01*
X132597Y252339D01*
X132606Y252322D01*
X132610Y252302D01*
X132663Y252213D01*
X132712Y252122D01*
X132726Y252108D01*
X132736Y252091D01*
X132815Y252024D01*
X132890Y251952D01*
X132908Y251944D01*
X132923Y251931D01*
X133020Y251892D01*
X133113Y251849D01*
X133133Y251847D01*
X133151Y251839D01*
X133318Y251821D01*
X142621Y251821D01*
X142621Y250698D01*
X142624Y250678D01*
X142622Y250659D01*
X142644Y250557D01*
X142660Y250455D01*
X142670Y250438D01*
X142674Y250418D01*
X142727Y250329D01*
X142776Y250238D01*
X142790Y250224D01*
X142800Y250207D01*
X142879Y250140D01*
X142954Y250068D01*
X142972Y250060D01*
X142987Y250047D01*
X143083Y250008D01*
X143177Y249965D01*
X143197Y249963D01*
X143215Y249955D01*
X143382Y249937D01*
X145245Y249937D01*
X150591Y244591D01*
X150591Y230096D01*
X150546Y230034D01*
X150540Y230015D01*
X150529Y229998D01*
X150504Y229898D01*
X150474Y229799D01*
X150474Y229779D01*
X150469Y229760D01*
X150477Y229657D01*
X150480Y229553D01*
X150487Y229534D01*
X150488Y229515D01*
X150529Y229419D01*
X150564Y229322D01*
X150577Y229307D01*
X150585Y229288D01*
X150690Y229157D01*
X152189Y227658D01*
X152263Y227605D01*
X152333Y227545D01*
X152363Y227533D01*
X152389Y227514D01*
X152476Y227487D01*
X152561Y227453D01*
X152602Y227449D01*
X152624Y227442D01*
X152656Y227443D01*
X152727Y227435D01*
X207794Y227435D01*
X207814Y227438D01*
X207833Y227436D01*
X207935Y227458D01*
X208037Y227474D01*
X208054Y227484D01*
X208074Y227488D01*
X208163Y227541D01*
X208254Y227590D01*
X208268Y227604D01*
X208285Y227614D01*
X208352Y227693D01*
X208424Y227768D01*
X208432Y227786D01*
X208445Y227801D01*
X208484Y227897D01*
X208527Y227991D01*
X208529Y228011D01*
X208537Y228029D01*
X208555Y228196D01*
X208555Y233056D01*
X208571Y233118D01*
X208601Y233216D01*
X208601Y233236D01*
X208606Y233256D01*
X208598Y233359D01*
X208595Y233462D01*
X208588Y233481D01*
X208587Y233501D01*
X208555Y233574D01*
X208555Y239936D01*
X208541Y240026D01*
X208533Y240117D01*
X208521Y240147D01*
X208516Y240179D01*
X208473Y240260D01*
X208437Y240344D01*
X208411Y240376D01*
X208400Y240396D01*
X208377Y240419D01*
X208332Y240475D01*
X208047Y240760D01*
X207712Y241339D01*
X207539Y241986D01*
X207539Y243821D01*
X216842Y243821D01*
X216861Y243824D01*
X216881Y243822D01*
X216983Y243844D01*
X217085Y243860D01*
X217102Y243870D01*
X217122Y243874D01*
X217211Y243927D01*
X217302Y243976D01*
X217316Y243990D01*
X217333Y244000D01*
X217400Y244079D01*
X217471Y244154D01*
X217480Y244172D01*
X217493Y244187D01*
X217531Y244283D01*
X217575Y244377D01*
X217577Y244397D01*
X217584Y244415D01*
X217597Y244339D01*
X217606Y244322D01*
X217610Y244302D01*
X217663Y244213D01*
X217712Y244122D01*
X217726Y244108D01*
X217736Y244091D01*
X217815Y244024D01*
X217890Y243952D01*
X217908Y243944D01*
X217923Y243931D01*
X218020Y243892D01*
X218113Y243849D01*
X218133Y243847D01*
X218151Y243839D01*
X218318Y243821D01*
X227621Y243821D01*
X227621Y241985D01*
X227448Y241339D01*
X227113Y240760D01*
X226828Y240475D01*
X226775Y240401D01*
X226715Y240331D01*
X226703Y240301D01*
X226684Y240275D01*
X226657Y240188D01*
X226623Y240103D01*
X226619Y240062D01*
X226612Y240040D01*
X226613Y240008D01*
X226605Y239936D01*
X226605Y233584D01*
X226589Y233522D01*
X226559Y233423D01*
X226559Y233403D01*
X226554Y233384D01*
X226562Y233280D01*
X226565Y233178D01*
X226572Y233159D01*
X226573Y233139D01*
X226605Y233065D01*
X226605Y226695D01*
X226608Y226675D01*
X226606Y226656D01*
X226628Y226554D01*
X226644Y226452D01*
X226654Y226435D01*
X226658Y226415D01*
X226711Y226326D01*
X226760Y226235D01*
X226774Y226221D01*
X226784Y226204D01*
X226863Y226137D01*
X226938Y226065D01*
X226956Y226057D01*
X226971Y226044D01*
X227067Y226005D01*
X227161Y225962D01*
X227181Y225960D01*
X227199Y225952D01*
X227366Y225934D01*
X236614Y225934D01*
X236634Y225937D01*
X236653Y225935D01*
X236755Y225957D01*
X236857Y225973D01*
X236874Y225983D01*
X236894Y225987D01*
X236983Y226040D01*
X237074Y226089D01*
X237088Y226103D01*
X237105Y226113D01*
X237172Y226192D01*
X237244Y226267D01*
X237252Y226285D01*
X237265Y226300D01*
X237304Y226396D01*
X237347Y226490D01*
X237349Y226510D01*
X237357Y226528D01*
X237375Y226695D01*
X237375Y228832D01*
X238268Y229725D01*
X254532Y229725D01*
X255425Y228832D01*
X255425Y227034D01*
X255428Y227014D01*
X255426Y226995D01*
X255448Y226893D01*
X255464Y226791D01*
X255474Y226774D01*
X255478Y226754D01*
X255531Y226665D01*
X255580Y226574D01*
X255594Y226560D01*
X255604Y226543D01*
X255683Y226476D01*
X255758Y226404D01*
X255776Y226396D01*
X255791Y226383D01*
X255887Y226344D01*
X255981Y226301D01*
X256001Y226299D01*
X256019Y226291D01*
X256186Y226273D01*
X265914Y226273D01*
X265934Y226276D01*
X265953Y226274D01*
X266055Y226296D01*
X266157Y226312D01*
X266174Y226322D01*
X266194Y226326D01*
X266283Y226379D01*
X266374Y226428D01*
X266388Y226442D01*
X266405Y226452D01*
X266472Y226531D01*
X266544Y226606D01*
X266552Y226624D01*
X266565Y226639D01*
X266604Y226735D01*
X266647Y226829D01*
X266649Y226849D01*
X266657Y226867D01*
X266675Y227034D01*
X266675Y229932D01*
X267568Y230825D01*
X270272Y230825D01*
X270358Y230839D01*
X270446Y230845D01*
X270479Y230859D01*
X270515Y230864D01*
X270592Y230905D01*
X270673Y230939D01*
X270700Y230963D01*
X270732Y230980D01*
X270792Y231043D01*
X270858Y231100D01*
X270877Y231132D01*
X270902Y231158D01*
X270938Y231237D01*
X270983Y231313D01*
X270994Y231358D01*
X271005Y231381D01*
X271009Y231412D01*
X271025Y231475D01*
X271119Y232110D01*
X271119Y232143D01*
X271127Y232221D01*
X271127Y233724D01*
X271219Y233816D01*
X271240Y233845D01*
X271267Y233868D01*
X271312Y233944D01*
X271363Y234015D01*
X271373Y234050D01*
X271391Y234080D01*
X271434Y234243D01*
X271453Y234371D01*
X272659Y235267D01*
X272682Y235291D01*
X272744Y235340D01*
X273806Y236402D01*
X273936Y236402D01*
X273971Y236408D01*
X274007Y236406D01*
X274092Y236428D01*
X274179Y236442D01*
X274210Y236459D01*
X274245Y236468D01*
X274390Y236552D01*
X322161Y272028D01*
X322177Y272045D01*
X322198Y272057D01*
X322263Y272133D01*
X322332Y272204D01*
X322342Y272226D01*
X322358Y272244D01*
X322395Y272337D01*
X322438Y272426D01*
X322441Y272450D01*
X322450Y272472D01*
X322468Y272639D01*
X322468Y282071D01*
X322477Y282093D01*
X322496Y282119D01*
X322523Y282206D01*
X322557Y282291D01*
X322561Y282332D01*
X322568Y282354D01*
X322567Y282386D01*
X322575Y282457D01*
X322575Y286832D01*
X323468Y287725D01*
X329998Y287725D01*
X330069Y287736D01*
X330141Y287738D01*
X330189Y287756D01*
X330241Y287764D01*
X330304Y287798D01*
X330372Y287823D01*
X330412Y287855D01*
X330458Y287880D01*
X330508Y287932D01*
X330564Y287976D01*
X330592Y288020D01*
X330628Y288058D01*
X330658Y288123D01*
X330697Y288183D01*
X330709Y288234D01*
X330731Y288281D01*
X330739Y288352D01*
X330757Y288422D01*
X330753Y288474D01*
X330758Y288525D01*
X330743Y288596D01*
X330737Y288667D01*
X330717Y288715D01*
X330706Y288766D01*
X330669Y288827D01*
X330641Y288893D01*
X330596Y288949D01*
X330580Y288977D01*
X330562Y288992D01*
X330536Y289024D01*
X324111Y295449D01*
X324111Y296914D01*
X324108Y296934D01*
X324110Y296953D01*
X324088Y297055D01*
X324072Y297157D01*
X324062Y297174D01*
X324058Y297194D01*
X324005Y297283D01*
X323956Y297374D01*
X323942Y297388D01*
X323932Y297405D01*
X323853Y297472D01*
X323778Y297544D01*
X323760Y297552D01*
X323745Y297565D01*
X323649Y297604D01*
X323555Y297647D01*
X323535Y297649D01*
X323517Y297657D01*
X323426Y297667D01*
X323407Y297680D01*
X323388Y297686D01*
X323371Y297697D01*
X323271Y297723D01*
X323172Y297753D01*
X323152Y297752D01*
X323133Y297757D01*
X323030Y297749D01*
X322926Y297747D01*
X322907Y297740D01*
X322887Y297738D01*
X322792Y297698D01*
X322695Y297662D01*
X322679Y297650D01*
X322661Y297642D01*
X322530Y297537D01*
X322160Y297167D01*
X321581Y296832D01*
X320934Y296659D01*
X319099Y296659D01*
X319099Y304462D01*
X319096Y304481D01*
X319098Y304501D01*
X319076Y304603D01*
X319060Y304705D01*
X319050Y304722D01*
X319046Y304742D01*
X318993Y304831D01*
X318944Y304922D01*
X318930Y304936D01*
X318920Y304953D01*
X318841Y305020D01*
X318766Y305091D01*
X318748Y305100D01*
X318733Y305113D01*
X318637Y305151D01*
X318543Y305195D01*
X318523Y305197D01*
X318505Y305204D01*
X318581Y305217D01*
X318598Y305226D01*
X318618Y305230D01*
X318707Y305283D01*
X318798Y305332D01*
X318812Y305346D01*
X318829Y305356D01*
X318896Y305435D01*
X318968Y305510D01*
X318976Y305528D01*
X318989Y305543D01*
X319028Y305640D01*
X319071Y305733D01*
X319073Y305753D01*
X319081Y305771D01*
X319099Y305938D01*
X319099Y313741D01*
X320935Y313741D01*
X320994Y313725D01*
X321042Y313720D01*
X321087Y313706D01*
X321163Y313708D01*
X321239Y313700D01*
X321285Y313711D01*
X321333Y313712D01*
X321405Y313738D01*
X321478Y313755D01*
X321519Y313780D01*
X321564Y313797D01*
X321624Y313844D01*
X321688Y313884D01*
X321719Y313920D01*
X321756Y313950D01*
X321797Y314014D01*
X321846Y314072D01*
X321863Y314117D01*
X321889Y314157D01*
X321908Y314231D01*
X321935Y314301D01*
X321938Y314349D01*
X321949Y314396D01*
X321944Y314471D01*
X321947Y314547D01*
X321934Y314593D01*
X321930Y314641D01*
X321901Y314711D01*
X321880Y314784D01*
X321853Y314823D01*
X321834Y314867D01*
X321754Y314968D01*
X321741Y314987D01*
X321736Y314991D01*
X321729Y314998D01*
X312101Y324626D01*
X312043Y324668D01*
X311991Y324718D01*
X311944Y324740D01*
X311902Y324770D01*
X311833Y324791D01*
X311768Y324821D01*
X311716Y324827D01*
X311666Y324842D01*
X311595Y324840D01*
X311524Y324848D01*
X311473Y324837D01*
X311421Y324836D01*
X311353Y324811D01*
X311283Y324796D01*
X311239Y324769D01*
X311190Y324751D01*
X311134Y324707D01*
X311072Y324670D01*
X311038Y324630D01*
X310998Y324598D01*
X310959Y324537D01*
X310912Y324483D01*
X310893Y324435D01*
X310865Y324391D01*
X310847Y324321D01*
X310820Y324255D01*
X310812Y324183D01*
X310804Y324152D01*
X310806Y324129D01*
X310802Y324088D01*
X310802Y313486D01*
X310805Y313466D01*
X310803Y313447D01*
X310825Y313345D01*
X310841Y313243D01*
X310851Y313226D01*
X310855Y313206D01*
X310908Y313117D01*
X310957Y313026D01*
X310971Y313012D01*
X310981Y312995D01*
X311060Y312928D01*
X311135Y312856D01*
X311153Y312848D01*
X311168Y312835D01*
X311264Y312796D01*
X311358Y312753D01*
X311378Y312751D01*
X311396Y312743D01*
X311563Y312725D01*
X311786Y312725D01*
X311793Y312720D01*
X311812Y312714D01*
X311829Y312703D01*
X311929Y312677D01*
X312028Y312647D01*
X312048Y312648D01*
X312067Y312643D01*
X312170Y312651D01*
X312274Y312653D01*
X312293Y312660D01*
X312313Y312662D01*
X312408Y312702D01*
X312505Y312738D01*
X312521Y312750D01*
X312539Y312758D01*
X312670Y312863D01*
X313040Y313233D01*
X313619Y313568D01*
X314266Y313741D01*
X316101Y313741D01*
X316101Y305938D01*
X316104Y305919D01*
X316102Y305899D01*
X316124Y305797D01*
X316140Y305695D01*
X316150Y305678D01*
X316154Y305658D01*
X316207Y305569D01*
X316256Y305478D01*
X316270Y305464D01*
X316280Y305447D01*
X316359Y305380D01*
X316434Y305309D01*
X316452Y305300D01*
X316467Y305287D01*
X316563Y305249D01*
X316657Y305205D01*
X316677Y305203D01*
X316695Y305196D01*
X316619Y305183D01*
X316602Y305174D01*
X316582Y305170D01*
X316493Y305117D01*
X316402Y305068D01*
X316388Y305054D01*
X316371Y305044D01*
X316304Y304965D01*
X316232Y304890D01*
X316224Y304872D01*
X316211Y304857D01*
X316172Y304760D01*
X316129Y304667D01*
X316127Y304647D01*
X316119Y304629D01*
X316101Y304462D01*
X316101Y296659D01*
X314266Y296659D01*
X313619Y296832D01*
X313040Y297167D01*
X312670Y297537D01*
X312654Y297549D01*
X312641Y297564D01*
X312554Y297620D01*
X312470Y297681D01*
X312451Y297686D01*
X312434Y297697D01*
X312334Y297723D01*
X312235Y297753D01*
X312215Y297752D01*
X312196Y297757D01*
X312093Y297749D01*
X311989Y297747D01*
X311970Y297740D01*
X311950Y297738D01*
X311855Y297698D01*
X311794Y297675D01*
X304468Y297675D01*
X303575Y298568D01*
X303575Y311832D01*
X303719Y311976D01*
X303772Y312050D01*
X303832Y312119D01*
X303844Y312149D01*
X303863Y312175D01*
X303890Y312262D01*
X303924Y312347D01*
X303928Y312388D01*
X303935Y312410D01*
X303934Y312443D01*
X303942Y312514D01*
X303942Y325986D01*
X303928Y326076D01*
X303920Y326167D01*
X303908Y326197D01*
X303903Y326229D01*
X303860Y326309D01*
X303824Y326393D01*
X303798Y326426D01*
X303787Y326446D01*
X303764Y326468D01*
X303719Y326524D01*
X303556Y326688D01*
X303540Y326700D01*
X303527Y326715D01*
X303440Y326771D01*
X303356Y326832D01*
X303337Y326837D01*
X303320Y326848D01*
X303220Y326873D01*
X303121Y326904D01*
X303101Y326903D01*
X303082Y326908D01*
X302979Y326900D01*
X302875Y326898D01*
X302856Y326891D01*
X302836Y326889D01*
X302741Y326849D01*
X302644Y326813D01*
X302628Y326801D01*
X302610Y326793D01*
X302479Y326688D01*
X301954Y326163D01*
X301375Y325828D01*
X300728Y325655D01*
X298996Y325655D01*
X298996Y333911D01*
X298993Y333930D01*
X298995Y333950D01*
X298973Y334052D01*
X298957Y334154D01*
X298947Y334171D01*
X298943Y334191D01*
X298890Y334280D01*
X298841Y334371D01*
X298827Y334385D01*
X298817Y334402D01*
X298738Y334469D01*
X298663Y334540D01*
X298645Y334549D01*
X298630Y334562D01*
X298534Y334600D01*
X298440Y334644D01*
X298420Y334646D01*
X298402Y334654D01*
X298235Y334672D01*
X296965Y334672D01*
X296945Y334669D01*
X296925Y334671D01*
X296824Y334649D01*
X296722Y334632D01*
X296705Y334623D01*
X296685Y334619D01*
X296596Y334566D01*
X296505Y334517D01*
X296491Y334503D01*
X296474Y334493D01*
X296407Y334414D01*
X296335Y334339D01*
X296327Y334321D01*
X296314Y334306D01*
X296275Y334209D01*
X296232Y334116D01*
X296230Y334096D01*
X296222Y334078D01*
X296204Y333911D01*
X296204Y325655D01*
X294472Y325655D01*
X293825Y325828D01*
X293246Y326163D01*
X292721Y326688D01*
X292705Y326700D01*
X292692Y326715D01*
X292605Y326771D01*
X292521Y326832D01*
X292502Y326837D01*
X292485Y326848D01*
X292385Y326873D01*
X292286Y326904D01*
X292266Y326903D01*
X292247Y326908D01*
X292144Y326900D01*
X292040Y326898D01*
X292021Y326891D01*
X292002Y326889D01*
X291906Y326849D01*
X291809Y326813D01*
X291794Y326801D01*
X291775Y326793D01*
X291644Y326688D01*
X291628Y326671D01*
X284776Y326671D01*
X283883Y327564D01*
X283883Y341528D01*
X284550Y342195D01*
X284603Y342269D01*
X284663Y342338D01*
X284675Y342368D01*
X284694Y342394D01*
X284721Y342481D01*
X284755Y342566D01*
X284759Y342607D01*
X284766Y342629D01*
X284765Y342662D01*
X284773Y342733D01*
X284773Y342964D01*
X291949Y350140D01*
X310973Y350140D01*
X311043Y350151D01*
X311115Y350153D01*
X311164Y350171D01*
X311215Y350179D01*
X311279Y350213D01*
X311346Y350238D01*
X311387Y350270D01*
X311433Y350295D01*
X311482Y350346D01*
X311538Y350391D01*
X311566Y350435D01*
X311602Y350473D01*
X311632Y350538D01*
X311671Y350598D01*
X311684Y350649D01*
X311706Y350696D01*
X311714Y350767D01*
X311731Y350837D01*
X311727Y350889D01*
X311733Y350940D01*
X311718Y351011D01*
X311712Y351082D01*
X311692Y351130D01*
X311681Y351181D01*
X311644Y351242D01*
X311616Y351308D01*
X311571Y351364D01*
X311554Y351392D01*
X311537Y351407D01*
X311511Y351439D01*
X310594Y352356D01*
X310520Y352409D01*
X310450Y352469D01*
X310420Y352481D01*
X310394Y352500D01*
X310307Y352527D01*
X310222Y352561D01*
X310181Y352565D01*
X310159Y352572D01*
X310127Y352571D01*
X310056Y352579D01*
X303572Y352579D01*
X302679Y353472D01*
X302679Y358401D01*
X302675Y358427D01*
X302677Y358454D01*
X302655Y358548D01*
X302640Y358644D01*
X302627Y358667D01*
X302621Y358693D01*
X302540Y358840D01*
X302170Y359364D01*
X302668Y362255D01*
X302668Y362287D01*
X302679Y362384D01*
X302679Y367436D01*
X303552Y368309D01*
X303605Y368383D01*
X303665Y368452D01*
X303677Y368482D01*
X303696Y368508D01*
X303723Y368595D01*
X303757Y368680D01*
X303761Y368721D01*
X303768Y368743D01*
X303767Y368776D01*
X303775Y368847D01*
X303775Y383314D01*
X303772Y383334D01*
X303774Y383353D01*
X303752Y383455D01*
X303736Y383557D01*
X303726Y383574D01*
X303722Y383594D01*
X303669Y383683D01*
X303620Y383774D01*
X303606Y383788D01*
X303596Y383805D01*
X303517Y383872D01*
X303442Y383944D01*
X303424Y383952D01*
X303409Y383965D01*
X303313Y384004D01*
X303219Y384047D01*
X303199Y384049D01*
X303181Y384057D01*
X303014Y384075D01*
X298168Y384075D01*
X298088Y384155D01*
X298072Y384167D01*
X298060Y384183D01*
X297973Y384239D01*
X297889Y384299D01*
X297870Y384305D01*
X297853Y384316D01*
X297752Y384341D01*
X297654Y384371D01*
X297634Y384371D01*
X297614Y384376D01*
X297511Y384368D01*
X297408Y384365D01*
X297389Y384358D01*
X297369Y384357D01*
X297274Y384316D01*
X297177Y384281D01*
X297161Y384268D01*
X297143Y384260D01*
X297012Y384155D01*
X296932Y384075D01*
X291668Y384075D01*
X291588Y384155D01*
X291572Y384167D01*
X291560Y384183D01*
X291473Y384239D01*
X291389Y384299D01*
X291370Y384305D01*
X291353Y384316D01*
X291252Y384341D01*
X291154Y384371D01*
X291134Y384371D01*
X291114Y384376D01*
X291011Y384368D01*
X290908Y384365D01*
X290889Y384358D01*
X290869Y384357D01*
X290774Y384316D01*
X290677Y384281D01*
X290661Y384268D01*
X290643Y384260D01*
X290512Y384155D01*
X290432Y384075D01*
X285684Y384075D01*
X285594Y384061D01*
X285503Y384053D01*
X285473Y384041D01*
X285441Y384036D01*
X285360Y383993D01*
X285276Y383957D01*
X285244Y383931D01*
X285224Y383920D01*
X285201Y383897D01*
X285145Y383852D01*
X284860Y383567D01*
X284281Y383232D01*
X283634Y383059D01*
X282299Y383059D01*
X282299Y392112D01*
X282296Y392131D01*
X282298Y392151D01*
X282276Y392253D01*
X282260Y392355D01*
X282259Y392356D01*
X282271Y392383D01*
X282273Y392403D01*
X282281Y392421D01*
X282299Y392588D01*
X282299Y401641D01*
X283634Y401641D01*
X284281Y401468D01*
X284860Y401133D01*
X285145Y400848D01*
X285219Y400795D01*
X285289Y400735D01*
X285319Y400723D01*
X285345Y400704D01*
X285432Y400677D01*
X285517Y400643D01*
X285558Y400639D01*
X285580Y400632D01*
X285612Y400633D01*
X285684Y400625D01*
X290432Y400625D01*
X290512Y400545D01*
X290528Y400533D01*
X290540Y400517D01*
X290628Y400461D01*
X290711Y400401D01*
X290730Y400395D01*
X290747Y400384D01*
X290848Y400359D01*
X290947Y400329D01*
X290967Y400329D01*
X290986Y400324D01*
X291089Y400332D01*
X291192Y400335D01*
X291211Y400342D01*
X291231Y400343D01*
X291326Y400384D01*
X291423Y400419D01*
X291439Y400432D01*
X291457Y400440D01*
X291588Y400545D01*
X291668Y400625D01*
X296932Y400625D01*
X297012Y400545D01*
X297028Y400533D01*
X297040Y400517D01*
X297128Y400461D01*
X297211Y400401D01*
X297230Y400395D01*
X297247Y400384D01*
X297348Y400359D01*
X297447Y400329D01*
X297467Y400329D01*
X297486Y400324D01*
X297589Y400332D01*
X297692Y400335D01*
X297711Y400342D01*
X297731Y400343D01*
X297826Y400384D01*
X297923Y400419D01*
X297939Y400432D01*
X297957Y400440D01*
X298088Y400545D01*
X298168Y400625D01*
X303432Y400625D01*
X303512Y400545D01*
X303528Y400533D01*
X303540Y400517D01*
X303628Y400461D01*
X303711Y400401D01*
X303730Y400395D01*
X303747Y400384D01*
X303848Y400359D01*
X303947Y400329D01*
X303967Y400329D01*
X303986Y400324D01*
X304089Y400332D01*
X304192Y400335D01*
X304211Y400342D01*
X304231Y400343D01*
X304326Y400384D01*
X304423Y400419D01*
X304439Y400432D01*
X304457Y400440D01*
X304588Y400545D01*
X304668Y400625D01*
X309932Y400625D01*
X310825Y399732D01*
X310825Y397872D01*
X310836Y397801D01*
X310838Y397729D01*
X310856Y397680D01*
X310864Y397629D01*
X310898Y397566D01*
X310923Y397498D01*
X310955Y397458D01*
X310980Y397412D01*
X311032Y397362D01*
X311076Y397306D01*
X311120Y397278D01*
X311158Y397242D01*
X311223Y397212D01*
X311283Y397173D01*
X311334Y397161D01*
X311381Y397139D01*
X311452Y397131D01*
X311522Y397113D01*
X311574Y397117D01*
X311625Y397112D01*
X311696Y397127D01*
X311767Y397132D01*
X311815Y397153D01*
X311866Y397164D01*
X311927Y397201D01*
X311993Y397229D01*
X312049Y397274D01*
X312077Y397290D01*
X312092Y397308D01*
X312124Y397334D01*
X314329Y399539D01*
X317555Y400875D01*
X321045Y400875D01*
X324271Y399539D01*
X326739Y397071D01*
X328075Y393845D01*
X328075Y390355D01*
X326739Y387129D01*
X324271Y384661D01*
X321045Y383325D01*
X317555Y383325D01*
X314329Y384661D01*
X312124Y386866D01*
X312066Y386908D01*
X312014Y386958D01*
X311967Y386980D01*
X311925Y387010D01*
X311856Y387031D01*
X311791Y387061D01*
X311739Y387067D01*
X311689Y387082D01*
X311618Y387080D01*
X311547Y387088D01*
X311496Y387077D01*
X311444Y387076D01*
X311376Y387051D01*
X311306Y387036D01*
X311261Y387009D01*
X311213Y386991D01*
X311157Y386947D01*
X311095Y386910D01*
X311061Y386870D01*
X311021Y386838D01*
X310982Y386777D01*
X310935Y386723D01*
X310916Y386675D01*
X310888Y386631D01*
X310870Y386561D01*
X310843Y386495D01*
X310835Y386423D01*
X310827Y386392D01*
X310829Y386369D01*
X310825Y386328D01*
X310825Y384956D01*
X310805Y384927D01*
X310745Y384858D01*
X310733Y384828D01*
X310714Y384802D01*
X310687Y384715D01*
X310653Y384630D01*
X310649Y384589D01*
X310642Y384567D01*
X310643Y384534D01*
X310635Y384463D01*
X310635Y368433D01*
X310649Y368343D01*
X310657Y368252D01*
X310669Y368222D01*
X310674Y368190D01*
X310717Y368109D01*
X310753Y368026D01*
X310779Y367993D01*
X310790Y367973D01*
X310813Y367951D01*
X310858Y367895D01*
X311317Y367436D01*
X311317Y364991D01*
X311329Y364914D01*
X311333Y364836D01*
X311349Y364793D01*
X311356Y364749D01*
X311393Y364679D01*
X311421Y364606D01*
X311450Y364571D01*
X311472Y364531D01*
X311528Y364477D01*
X311578Y364417D01*
X311617Y364393D01*
X311650Y364362D01*
X311721Y364329D01*
X311788Y364288D01*
X311846Y364271D01*
X311873Y364258D01*
X311900Y364255D01*
X311949Y364241D01*
X312015Y364230D01*
X312844Y363055D01*
X312867Y363032D01*
X312928Y362956D01*
X324378Y351506D01*
X324452Y351453D01*
X324522Y351393D01*
X324552Y351381D01*
X324578Y351362D01*
X324665Y351335D01*
X324750Y351301D01*
X324791Y351297D01*
X324813Y351290D01*
X324845Y351291D01*
X324916Y351283D01*
X336911Y351283D01*
X337001Y351297D01*
X337092Y351305D01*
X337122Y351317D01*
X337154Y351322D01*
X337235Y351365D01*
X337318Y351401D01*
X337351Y351427D01*
X337371Y351438D01*
X337393Y351461D01*
X337449Y351506D01*
X338168Y352225D01*
X354432Y352225D01*
X355325Y351332D01*
X355325Y342210D01*
X355339Y342120D01*
X355347Y342029D01*
X355359Y342000D01*
X355364Y341968D01*
X355407Y341887D01*
X355443Y341803D01*
X355469Y341771D01*
X355480Y341750D01*
X355503Y341728D01*
X355548Y341672D01*
X380620Y316600D01*
X380620Y304151D01*
X380639Y304036D01*
X380656Y303920D01*
X380658Y303915D01*
X380659Y303909D01*
X380714Y303806D01*
X380767Y303701D01*
X380772Y303697D01*
X380775Y303691D01*
X380859Y303611D01*
X380943Y303529D01*
X380949Y303525D01*
X380953Y303522D01*
X380970Y303514D01*
X381090Y303448D01*
X383196Y302576D01*
X385876Y299896D01*
X387326Y296395D01*
X387326Y292605D01*
X385876Y289104D01*
X383196Y286424D01*
X379695Y284974D01*
X375905Y284974D01*
X372404Y286424D01*
X369724Y289104D01*
X368274Y292605D01*
X368274Y296395D01*
X369724Y299896D01*
X371251Y301423D01*
X371304Y301497D01*
X371364Y301566D01*
X371376Y301596D01*
X371395Y301622D01*
X371422Y301709D01*
X371456Y301794D01*
X371460Y301835D01*
X371467Y301858D01*
X371466Y301890D01*
X371474Y301961D01*
X371474Y312497D01*
X371460Y312587D01*
X371452Y312678D01*
X371440Y312707D01*
X371435Y312739D01*
X371392Y312820D01*
X371356Y312904D01*
X371330Y312936D01*
X371319Y312957D01*
X371296Y312979D01*
X371251Y313035D01*
X348334Y335952D01*
X348260Y336005D01*
X348190Y336065D01*
X348160Y336077D01*
X348134Y336096D01*
X348047Y336123D01*
X347962Y336157D01*
X347921Y336161D01*
X347899Y336168D01*
X347867Y336167D01*
X347796Y336175D01*
X338168Y336175D01*
X337275Y337068D01*
X337275Y341376D01*
X337272Y341396D01*
X337274Y341415D01*
X337252Y341517D01*
X337236Y341619D01*
X337226Y341636D01*
X337222Y341656D01*
X337169Y341745D01*
X337120Y341836D01*
X337106Y341850D01*
X337096Y341867D01*
X337017Y341934D01*
X336942Y342006D01*
X336924Y342014D01*
X336909Y342027D01*
X336813Y342066D01*
X336719Y342109D01*
X336699Y342111D01*
X336681Y342119D01*
X336514Y342137D01*
X320633Y342137D01*
X320562Y342126D01*
X320490Y342124D01*
X320441Y342106D01*
X320390Y342098D01*
X320327Y342064D01*
X320259Y342039D01*
X320219Y342007D01*
X320173Y341982D01*
X320123Y341931D01*
X320067Y341886D01*
X320039Y341842D01*
X320003Y341804D01*
X319973Y341739D01*
X319934Y341679D01*
X319922Y341628D01*
X319900Y341581D01*
X319892Y341510D01*
X319874Y341440D01*
X319878Y341388D01*
X319873Y341337D01*
X319888Y341266D01*
X319894Y341195D01*
X319914Y341147D01*
X319925Y341096D01*
X319962Y341035D01*
X319990Y340969D01*
X320035Y340913D01*
X320051Y340885D01*
X320069Y340870D01*
X320095Y340838D01*
X347198Y313735D01*
X349430Y311503D01*
X349430Y295736D01*
X349444Y295646D01*
X349452Y295555D01*
X349464Y295525D01*
X349469Y295493D01*
X349512Y295413D01*
X349548Y295329D01*
X349574Y295297D01*
X349585Y295276D01*
X349608Y295254D01*
X349653Y295198D01*
X373198Y271653D01*
X373272Y271600D01*
X373341Y271540D01*
X373371Y271528D01*
X373397Y271509D01*
X373484Y271482D01*
X373569Y271448D01*
X373610Y271444D01*
X373632Y271437D01*
X373665Y271438D01*
X373736Y271430D01*
X418264Y271430D01*
X418354Y271444D01*
X418445Y271452D01*
X418475Y271464D01*
X418507Y271469D01*
X418587Y271512D01*
X418671Y271548D01*
X418703Y271574D01*
X418724Y271585D01*
X418746Y271608D01*
X418802Y271653D01*
X427347Y280198D01*
X427400Y280272D01*
X427460Y280341D01*
X427472Y280371D01*
X427491Y280397D01*
X427518Y280484D01*
X427552Y280569D01*
X427556Y280610D01*
X427563Y280633D01*
X427562Y280665D01*
X427570Y280736D01*
X427570Y316464D01*
X427556Y316554D01*
X427548Y316645D01*
X427536Y316675D01*
X427531Y316707D01*
X427488Y316787D01*
X427452Y316871D01*
X427426Y316903D01*
X427415Y316924D01*
X427392Y316946D01*
X427347Y317002D01*
X420302Y324047D01*
X420228Y324100D01*
X420159Y324160D01*
X420129Y324172D01*
X420103Y324191D01*
X420016Y324218D01*
X419931Y324252D01*
X419890Y324256D01*
X419868Y324263D01*
X419835Y324262D01*
X419764Y324270D01*
X383579Y324270D01*
X374570Y333279D01*
X374570Y334414D01*
X374567Y334434D01*
X374569Y334453D01*
X374547Y334555D01*
X374531Y334657D01*
X374521Y334674D01*
X374517Y334694D01*
X374464Y334783D01*
X374415Y334874D01*
X374401Y334888D01*
X374391Y334905D01*
X374312Y334972D01*
X374237Y335044D01*
X374219Y335052D01*
X374204Y335065D01*
X374108Y335104D01*
X374014Y335147D01*
X373994Y335149D01*
X373976Y335157D01*
X373809Y335175D01*
X370368Y335175D01*
X369475Y336068D01*
X369475Y349332D01*
X370368Y350225D01*
X385632Y350225D01*
X386525Y349332D01*
X386525Y345491D01*
X386528Y345471D01*
X386526Y345452D01*
X386548Y345350D01*
X386564Y345248D01*
X386574Y345231D01*
X386578Y345211D01*
X386631Y345122D01*
X386680Y345031D01*
X386694Y345017D01*
X386704Y345000D01*
X386783Y344933D01*
X386858Y344861D01*
X386876Y344853D01*
X386891Y344840D01*
X386987Y344801D01*
X387081Y344758D01*
X387101Y344756D01*
X387119Y344748D01*
X387286Y344730D01*
X394814Y344730D01*
X394834Y344733D01*
X394853Y344731D01*
X394955Y344753D01*
X395057Y344769D01*
X395074Y344779D01*
X395094Y344783D01*
X395183Y344836D01*
X395274Y344885D01*
X395288Y344899D01*
X395305Y344909D01*
X395372Y344988D01*
X395444Y345063D01*
X395452Y345081D01*
X395465Y345096D01*
X395504Y345192D01*
X395547Y345286D01*
X395549Y345306D01*
X395557Y345324D01*
X395575Y345491D01*
X395575Y347932D01*
X396468Y348825D01*
X411732Y348825D01*
X412625Y347932D01*
X412625Y334668D01*
X411732Y333775D01*
X396468Y333775D01*
X395575Y334668D01*
X395575Y337109D01*
X395572Y337129D01*
X395574Y337148D01*
X395552Y337250D01*
X395536Y337352D01*
X395526Y337369D01*
X395522Y337389D01*
X395469Y337478D01*
X395420Y337569D01*
X395406Y337583D01*
X395396Y337600D01*
X395317Y337667D01*
X395242Y337739D01*
X395224Y337747D01*
X395209Y337760D01*
X395113Y337799D01*
X395019Y337842D01*
X394999Y337844D01*
X394981Y337852D01*
X394814Y337870D01*
X387286Y337870D01*
X387266Y337867D01*
X387247Y337869D01*
X387145Y337847D01*
X387043Y337831D01*
X387026Y337821D01*
X387006Y337817D01*
X386917Y337764D01*
X386826Y337715D01*
X386812Y337701D01*
X386795Y337691D01*
X386728Y337612D01*
X386656Y337537D01*
X386648Y337519D01*
X386635Y337504D01*
X386596Y337408D01*
X386553Y337314D01*
X386551Y337294D01*
X386543Y337276D01*
X386525Y337109D01*
X386525Y336068D01*
X385632Y335175D01*
X384213Y335175D01*
X384142Y335164D01*
X384070Y335162D01*
X384022Y335144D01*
X383970Y335136D01*
X383907Y335102D01*
X383839Y335077D01*
X383799Y335045D01*
X383753Y335020D01*
X383703Y334968D01*
X383647Y334924D01*
X383619Y334880D01*
X383583Y334842D01*
X383553Y334777D01*
X383514Y334717D01*
X383502Y334666D01*
X383480Y334619D01*
X383472Y334548D01*
X383454Y334478D01*
X383458Y334426D01*
X383453Y334375D01*
X383468Y334304D01*
X383474Y334233D01*
X383494Y334185D01*
X383505Y334134D01*
X383542Y334073D01*
X383570Y334007D01*
X383615Y333951D01*
X383631Y333923D01*
X383649Y333908D01*
X383675Y333876D01*
X386198Y331353D01*
X386272Y331300D01*
X386341Y331240D01*
X386371Y331228D01*
X386397Y331209D01*
X386485Y331182D01*
X386569Y331148D01*
X386610Y331144D01*
X386633Y331137D01*
X386665Y331138D01*
X386736Y331130D01*
X422921Y331130D01*
X425153Y328898D01*
X434430Y319621D01*
X434430Y277579D01*
X421421Y264570D01*
X370579Y264570D01*
X368347Y266802D01*
X344802Y290347D01*
X342570Y292579D01*
X342570Y308346D01*
X342556Y308436D01*
X342548Y308527D01*
X342536Y308557D01*
X342531Y308589D01*
X342488Y308669D01*
X342452Y308753D01*
X342426Y308785D01*
X342415Y308806D01*
X342392Y308828D01*
X342347Y308884D01*
X312616Y338615D01*
X312558Y338657D01*
X312506Y338707D01*
X312459Y338729D01*
X312417Y338759D01*
X312348Y338780D01*
X312283Y338810D01*
X312231Y338816D01*
X312181Y338831D01*
X312110Y338829D01*
X312039Y338837D01*
X311988Y338826D01*
X311936Y338825D01*
X311868Y338800D01*
X311798Y338785D01*
X311754Y338758D01*
X311705Y338740D01*
X311649Y338696D01*
X311587Y338659D01*
X311553Y338619D01*
X311513Y338587D01*
X311474Y338526D01*
X311427Y338472D01*
X311408Y338424D01*
X311380Y338380D01*
X311362Y338310D01*
X311335Y338244D01*
X311327Y338172D01*
X311319Y338141D01*
X311321Y338118D01*
X311317Y338077D01*
X311317Y335427D01*
X311331Y335337D01*
X311339Y335246D01*
X311351Y335216D01*
X311356Y335184D01*
X311399Y335104D01*
X311435Y335020D01*
X311461Y334988D01*
X311472Y334967D01*
X311495Y334945D01*
X311540Y334889D01*
X330304Y316125D01*
X330304Y313468D01*
X330318Y313378D01*
X330326Y313287D01*
X330338Y313257D01*
X330343Y313225D01*
X330386Y313144D01*
X330422Y313061D01*
X330448Y313028D01*
X330459Y313008D01*
X330482Y312986D01*
X330527Y312930D01*
X331625Y311832D01*
X331625Y298542D01*
X331614Y298525D01*
X331554Y298441D01*
X331548Y298422D01*
X331537Y298405D01*
X331512Y298305D01*
X331481Y298206D01*
X331482Y298186D01*
X331477Y298167D01*
X331485Y298064D01*
X331488Y297960D01*
X331494Y297941D01*
X331496Y297922D01*
X331536Y297827D01*
X331572Y297729D01*
X331585Y297714D01*
X331592Y297695D01*
X331697Y297564D01*
X397245Y232017D01*
X399477Y229785D01*
X399477Y225879D01*
X399496Y225763D01*
X399513Y225648D01*
X399515Y225643D01*
X399516Y225636D01*
X399571Y225534D01*
X399624Y225429D01*
X399629Y225424D01*
X399632Y225419D01*
X399716Y225339D01*
X399800Y225257D01*
X399806Y225253D01*
X399810Y225250D01*
X399827Y225242D01*
X399947Y225176D01*
X401396Y224576D01*
X404076Y221896D01*
X405526Y218395D01*
X405526Y214605D01*
X404076Y211104D01*
X401396Y208424D01*
X397895Y206974D01*
X394105Y206974D01*
X390604Y208424D01*
X387924Y211104D01*
X386474Y214605D01*
X386474Y218395D01*
X387924Y221896D01*
X390604Y224576D01*
X392147Y225215D01*
X392247Y225277D01*
X392347Y225336D01*
X392351Y225341D01*
X392356Y225344D01*
X392431Y225435D01*
X392507Y225523D01*
X392509Y225529D01*
X392513Y225534D01*
X392555Y225642D01*
X392599Y225751D01*
X392600Y225759D01*
X392601Y225763D01*
X392602Y225782D01*
X392617Y225918D01*
X392617Y226628D01*
X392603Y226718D01*
X392595Y226809D01*
X392583Y226839D01*
X392578Y226871D01*
X392535Y226951D01*
X392499Y227035D01*
X392473Y227067D01*
X392462Y227088D01*
X392439Y227110D01*
X392394Y227166D01*
X332924Y286636D01*
X332866Y286678D01*
X332814Y286728D01*
X332767Y286750D01*
X332725Y286780D01*
X332656Y286801D01*
X332591Y286831D01*
X332539Y286837D01*
X332489Y286852D01*
X332418Y286850D01*
X332347Y286858D01*
X332296Y286847D01*
X332244Y286846D01*
X332176Y286821D01*
X332106Y286806D01*
X332061Y286779D01*
X332013Y286761D01*
X331957Y286717D01*
X331895Y286680D01*
X331861Y286640D01*
X331821Y286608D01*
X331782Y286547D01*
X331735Y286493D01*
X331716Y286445D01*
X331688Y286401D01*
X331670Y286331D01*
X331643Y286265D01*
X331635Y286193D01*
X331627Y286162D01*
X331629Y286139D01*
X331625Y286098D01*
X331625Y282457D01*
X331639Y282367D01*
X331647Y282276D01*
X331659Y282246D01*
X331664Y282215D01*
X331673Y282199D01*
X331673Y278183D01*
X331643Y278109D01*
X331639Y278069D01*
X331632Y278046D01*
X331633Y278014D01*
X331625Y277943D01*
X331625Y273358D01*
X331621Y273346D01*
X331622Y273313D01*
X331614Y273242D01*
X331614Y271720D01*
X331620Y271685D01*
X331617Y271649D01*
X331639Y271564D01*
X331653Y271477D01*
X331670Y271446D01*
X331679Y271411D01*
X331764Y271266D01*
X331841Y271162D01*
X331622Y269675D01*
X331622Y269643D01*
X331614Y269564D01*
X331614Y268062D01*
X331522Y267970D01*
X331501Y267941D01*
X331474Y267917D01*
X331429Y267842D01*
X331378Y267770D01*
X331368Y267736D01*
X331350Y267705D01*
X331307Y267543D01*
X331288Y267414D01*
X330082Y266519D01*
X330059Y266495D01*
X329997Y266446D01*
X328935Y265383D01*
X328805Y265383D01*
X328770Y265378D01*
X328734Y265380D01*
X328649Y265358D01*
X328562Y265344D01*
X328531Y265327D01*
X328496Y265318D01*
X328351Y265233D01*
X283766Y232124D01*
X283714Y232070D01*
X283655Y232022D01*
X283629Y231982D01*
X283595Y231947D01*
X283563Y231879D01*
X283522Y231815D01*
X283510Y231769D01*
X283489Y231725D01*
X283480Y231650D01*
X283462Y231577D01*
X283465Y231529D01*
X283460Y231481D01*
X283475Y231407D01*
X283481Y231332D01*
X283500Y231287D01*
X283509Y231240D01*
X283547Y231175D01*
X283577Y231105D01*
X283618Y231055D01*
X283633Y231028D01*
X283653Y231011D01*
X283682Y230974D01*
X284725Y229932D01*
X284725Y228134D01*
X284728Y228114D01*
X284726Y228095D01*
X284748Y227993D01*
X284764Y227891D01*
X284774Y227874D01*
X284778Y227854D01*
X284831Y227765D01*
X284880Y227674D01*
X284894Y227660D01*
X284904Y227643D01*
X284983Y227576D01*
X285058Y227504D01*
X285076Y227496D01*
X285091Y227483D01*
X285187Y227444D01*
X285281Y227401D01*
X285301Y227399D01*
X285319Y227391D01*
X285486Y227373D01*
X297594Y227373D01*
X321371Y203596D01*
X321445Y203543D01*
X321515Y203483D01*
X321545Y203471D01*
X321571Y203452D01*
X321658Y203425D01*
X321743Y203391D01*
X321784Y203387D01*
X321806Y203380D01*
X321838Y203381D01*
X321909Y203373D01*
X397167Y203373D01*
X444627Y155913D01*
X444627Y29444D01*
X417278Y2095D01*
X371486Y2095D01*
G37*
%LPD*%
G36*
X413265Y11255D02*
X413265Y11255D01*
X413356Y11263D01*
X413385Y11275D01*
X413417Y11280D01*
X413498Y11323D01*
X413582Y11359D01*
X413614Y11385D01*
X413635Y11396D01*
X413657Y11419D01*
X413713Y11464D01*
X435258Y33009D01*
X435311Y33083D01*
X435371Y33153D01*
X435383Y33183D01*
X435402Y33209D01*
X435429Y33296D01*
X435463Y33381D01*
X435467Y33422D01*
X435474Y33444D01*
X435473Y33476D01*
X435481Y33547D01*
X435481Y151810D01*
X435467Y151900D01*
X435459Y151991D01*
X435447Y152020D01*
X435442Y152052D01*
X435399Y152133D01*
X435363Y152217D01*
X435337Y152249D01*
X435326Y152270D01*
X435303Y152292D01*
X435258Y152348D01*
X393602Y194004D01*
X393528Y194057D01*
X393458Y194117D01*
X393428Y194129D01*
X393402Y194148D01*
X393315Y194175D01*
X393230Y194209D01*
X393189Y194213D01*
X393167Y194220D01*
X393135Y194219D01*
X393064Y194227D01*
X317806Y194227D01*
X294029Y218004D01*
X293955Y218057D01*
X293885Y218117D01*
X293855Y218129D01*
X293829Y218148D01*
X293742Y218175D01*
X293657Y218209D01*
X293616Y218213D01*
X293594Y218220D01*
X293562Y218219D01*
X293491Y218227D01*
X285486Y218227D01*
X285466Y218224D01*
X285447Y218226D01*
X285345Y218204D01*
X285243Y218188D01*
X285226Y218178D01*
X285206Y218174D01*
X285117Y218121D01*
X285026Y218072D01*
X285012Y218058D01*
X284995Y218048D01*
X284928Y217969D01*
X284856Y217894D01*
X284848Y217876D01*
X284835Y217861D01*
X284796Y217765D01*
X284753Y217671D01*
X284751Y217651D01*
X284743Y217633D01*
X284725Y217466D01*
X284725Y215668D01*
X283832Y214775D01*
X267568Y214775D01*
X266675Y215668D01*
X266675Y216366D01*
X266672Y216386D01*
X266674Y216405D01*
X266652Y216507D01*
X266636Y216609D01*
X266626Y216626D01*
X266622Y216646D01*
X266569Y216735D01*
X266520Y216826D01*
X266506Y216840D01*
X266496Y216857D01*
X266417Y216924D01*
X266342Y216996D01*
X266324Y217004D01*
X266309Y217017D01*
X266213Y217056D01*
X266119Y217099D01*
X266099Y217101D01*
X266081Y217109D01*
X265914Y217127D01*
X256186Y217127D01*
X256166Y217124D01*
X256147Y217126D01*
X256045Y217104D01*
X255943Y217088D01*
X255926Y217078D01*
X255906Y217074D01*
X255817Y217021D01*
X255726Y216972D01*
X255712Y216958D01*
X255695Y216948D01*
X255628Y216869D01*
X255556Y216794D01*
X255548Y216776D01*
X255535Y216761D01*
X255496Y216665D01*
X255453Y216571D01*
X255451Y216551D01*
X255443Y216533D01*
X255425Y216366D01*
X255425Y214568D01*
X254532Y213675D01*
X238268Y213675D01*
X237375Y214568D01*
X237375Y216027D01*
X237372Y216047D01*
X237374Y216066D01*
X237352Y216168D01*
X237336Y216270D01*
X237326Y216287D01*
X237322Y216307D01*
X237269Y216396D01*
X237220Y216487D01*
X237206Y216501D01*
X237196Y216518D01*
X237117Y216585D01*
X237042Y216657D01*
X237024Y216665D01*
X237009Y216678D01*
X236913Y216717D01*
X236819Y216760D01*
X236799Y216762D01*
X236781Y216770D01*
X236614Y216788D01*
X227366Y216788D01*
X227346Y216785D01*
X227327Y216787D01*
X227225Y216765D01*
X227123Y216749D01*
X227106Y216739D01*
X227086Y216735D01*
X226997Y216682D01*
X226906Y216633D01*
X226892Y216619D01*
X226875Y216609D01*
X226808Y216530D01*
X226736Y216455D01*
X226728Y216437D01*
X226715Y216422D01*
X226676Y216326D01*
X226633Y216232D01*
X226631Y216212D01*
X226623Y216194D01*
X226605Y216027D01*
X226605Y209688D01*
X225712Y208795D01*
X224218Y208795D01*
X224198Y208792D01*
X224179Y208794D01*
X224077Y208772D01*
X223975Y208756D01*
X223958Y208746D01*
X223938Y208742D01*
X223849Y208689D01*
X223758Y208640D01*
X223744Y208626D01*
X223727Y208616D01*
X223660Y208537D01*
X223588Y208462D01*
X223580Y208444D01*
X223567Y208429D01*
X223528Y208333D01*
X223485Y208239D01*
X223483Y208219D01*
X223475Y208201D01*
X223457Y208034D01*
X223457Y200414D01*
X223471Y200324D01*
X223479Y200233D01*
X223491Y200204D01*
X223496Y200172D01*
X223539Y200091D01*
X223575Y200007D01*
X223601Y199975D01*
X223612Y199954D01*
X223635Y199932D01*
X223680Y199876D01*
X225334Y198222D01*
X225334Y193826D01*
X222225Y190717D01*
X217829Y190717D01*
X214720Y193826D01*
X214720Y198222D01*
X216374Y199876D01*
X216427Y199950D01*
X216487Y200020D01*
X216499Y200050D01*
X216518Y200076D01*
X216545Y200163D01*
X216579Y200248D01*
X216583Y200289D01*
X216590Y200311D01*
X216589Y200343D01*
X216597Y200414D01*
X216597Y208034D01*
X216594Y208054D01*
X216596Y208073D01*
X216574Y208175D01*
X216558Y208277D01*
X216548Y208294D01*
X216544Y208314D01*
X216491Y208403D01*
X216442Y208494D01*
X216428Y208508D01*
X216418Y208525D01*
X216339Y208592D01*
X216264Y208664D01*
X216246Y208672D01*
X216231Y208685D01*
X216135Y208724D01*
X216041Y208767D01*
X216021Y208769D01*
X216003Y208777D01*
X215836Y208795D01*
X209448Y208795D01*
X208555Y209688D01*
X208555Y216027D01*
X208552Y216047D01*
X208554Y216066D01*
X208532Y216168D01*
X208516Y216270D01*
X208506Y216287D01*
X208502Y216307D01*
X208449Y216396D01*
X208400Y216487D01*
X208386Y216501D01*
X208376Y216518D01*
X208297Y216585D01*
X208222Y216657D01*
X208204Y216665D01*
X208189Y216678D01*
X208093Y216717D01*
X207999Y216760D01*
X207979Y216762D01*
X207961Y216770D01*
X207794Y216788D01*
X206132Y216788D01*
X204854Y218066D01*
X204780Y218119D01*
X204710Y218179D01*
X204680Y218191D01*
X204654Y218210D01*
X204567Y218237D01*
X204482Y218271D01*
X204441Y218275D01*
X204419Y218282D01*
X204387Y218281D01*
X204316Y218289D01*
X201771Y218289D01*
X201701Y218278D01*
X201629Y218276D01*
X201580Y218258D01*
X201529Y218250D01*
X201465Y218216D01*
X201398Y218191D01*
X201357Y218159D01*
X201311Y218134D01*
X201262Y218082D01*
X201206Y218038D01*
X201178Y217994D01*
X201142Y217956D01*
X201112Y217891D01*
X201073Y217831D01*
X201060Y217780D01*
X201038Y217733D01*
X201030Y217662D01*
X201013Y217592D01*
X201017Y217540D01*
X201011Y217489D01*
X201026Y217418D01*
X201032Y217347D01*
X201052Y217299D01*
X201063Y217248D01*
X201100Y217187D01*
X201128Y217121D01*
X201173Y217065D01*
X201190Y217037D01*
X201207Y217022D01*
X201233Y216990D01*
X202665Y215558D01*
X202665Y213219D01*
X202679Y213129D01*
X202687Y213038D01*
X202699Y213008D01*
X202704Y212976D01*
X202747Y212896D01*
X202783Y212812D01*
X202809Y212780D01*
X202820Y212759D01*
X202843Y212737D01*
X202888Y212681D01*
X206122Y209447D01*
X206122Y208606D01*
X206125Y208586D01*
X206123Y208567D01*
X206145Y208465D01*
X206161Y208363D01*
X206171Y208346D01*
X206175Y208326D01*
X206228Y208237D01*
X206277Y208146D01*
X206291Y208132D01*
X206301Y208115D01*
X206380Y208048D01*
X206455Y207976D01*
X206473Y207968D01*
X206488Y207955D01*
X206584Y207916D01*
X206678Y207873D01*
X206684Y207872D01*
X207605Y206952D01*
X207605Y194944D01*
X207619Y194854D01*
X207627Y194763D01*
X207639Y194733D01*
X207644Y194701D01*
X207687Y194621D01*
X207723Y194537D01*
X207749Y194505D01*
X207760Y194484D01*
X207783Y194462D01*
X207828Y194406D01*
X219892Y182342D01*
X219966Y182289D01*
X220035Y182229D01*
X220065Y182217D01*
X220091Y182198D01*
X220178Y182171D01*
X220263Y182137D01*
X220304Y182133D01*
X220327Y182126D01*
X220359Y182127D01*
X220430Y182119D01*
X358799Y182119D01*
X365270Y175648D01*
X365344Y175595D01*
X365413Y175535D01*
X365443Y175523D01*
X365469Y175504D01*
X365556Y175477D01*
X365641Y175443D01*
X365682Y175439D01*
X365704Y175432D01*
X365737Y175433D01*
X365808Y175425D01*
X371032Y175425D01*
X371862Y174595D01*
X371878Y174583D01*
X371890Y174567D01*
X371978Y174511D01*
X372061Y174451D01*
X372080Y174445D01*
X372097Y174434D01*
X372198Y174409D01*
X372297Y174379D01*
X372316Y174379D01*
X372336Y174374D01*
X372439Y174382D01*
X372542Y174385D01*
X372561Y174392D01*
X372581Y174393D01*
X372676Y174434D01*
X372773Y174469D01*
X372789Y174482D01*
X372807Y174490D01*
X372938Y174595D01*
X373768Y175425D01*
X385032Y175425D01*
X385862Y174595D01*
X385878Y174583D01*
X385890Y174567D01*
X385978Y174511D01*
X386061Y174451D01*
X386080Y174445D01*
X386097Y174434D01*
X386198Y174409D01*
X386297Y174379D01*
X386316Y174379D01*
X386336Y174374D01*
X386439Y174382D01*
X386542Y174385D01*
X386561Y174392D01*
X386581Y174393D01*
X386676Y174434D01*
X386773Y174469D01*
X386789Y174482D01*
X386807Y174490D01*
X386938Y174595D01*
X387768Y175425D01*
X399032Y175425D01*
X399925Y174532D01*
X399925Y148768D01*
X399032Y147875D01*
X396240Y147875D01*
X396220Y147872D01*
X396201Y147874D01*
X396099Y147852D01*
X395997Y147836D01*
X395980Y147826D01*
X395960Y147822D01*
X395871Y147769D01*
X395780Y147720D01*
X395766Y147706D01*
X395749Y147696D01*
X395682Y147617D01*
X395610Y147542D01*
X395602Y147524D01*
X395589Y147509D01*
X395550Y147413D01*
X395507Y147319D01*
X395505Y147299D01*
X395497Y147281D01*
X395479Y147114D01*
X395479Y120598D01*
X382133Y107252D01*
X253942Y107252D01*
X251710Y109484D01*
X185492Y175702D01*
X183418Y177776D01*
X183360Y177818D01*
X183308Y177868D01*
X183261Y177890D01*
X183219Y177920D01*
X183150Y177941D01*
X183085Y177971D01*
X183033Y177977D01*
X182983Y177992D01*
X182912Y177990D01*
X182841Y177998D01*
X182790Y177987D01*
X182738Y177986D01*
X182670Y177961D01*
X182600Y177946D01*
X182555Y177919D01*
X182507Y177901D01*
X182451Y177857D01*
X182389Y177820D01*
X182355Y177780D01*
X182315Y177748D01*
X182276Y177687D01*
X182229Y177633D01*
X182210Y177585D01*
X182182Y177541D01*
X182164Y177471D01*
X182137Y177405D01*
X182129Y177333D01*
X182121Y177302D01*
X182123Y177279D01*
X182119Y177238D01*
X182119Y175091D01*
X182133Y175001D01*
X182141Y174910D01*
X182153Y174880D01*
X182158Y174848D01*
X182201Y174768D01*
X182237Y174684D01*
X182263Y174652D01*
X182274Y174631D01*
X182297Y174609D01*
X182342Y174553D01*
X307903Y48992D01*
X307977Y48939D01*
X308046Y48879D01*
X308076Y48867D01*
X308102Y48848D01*
X308189Y48821D01*
X308274Y48787D01*
X308315Y48783D01*
X308338Y48776D01*
X308370Y48777D01*
X308441Y48769D01*
X316127Y48769D01*
X323348Y41548D01*
X323422Y41495D01*
X323491Y41435D01*
X323521Y41423D01*
X323547Y41404D01*
X323634Y41377D01*
X323719Y41343D01*
X323760Y41339D01*
X323783Y41332D01*
X323815Y41333D01*
X323886Y41325D01*
X329032Y41325D01*
X329862Y40495D01*
X329878Y40483D01*
X329890Y40467D01*
X329978Y40411D01*
X330061Y40351D01*
X330080Y40345D01*
X330097Y40334D01*
X330198Y40309D01*
X330297Y40279D01*
X330316Y40279D01*
X330336Y40274D01*
X330439Y40282D01*
X330542Y40285D01*
X330561Y40292D01*
X330581Y40293D01*
X330676Y40334D01*
X330773Y40369D01*
X330789Y40382D01*
X330807Y40390D01*
X330938Y40495D01*
X331768Y41325D01*
X343032Y41325D01*
X343862Y40495D01*
X343878Y40483D01*
X343890Y40467D01*
X343978Y40411D01*
X344061Y40351D01*
X344080Y40345D01*
X344097Y40334D01*
X344198Y40309D01*
X344297Y40279D01*
X344316Y40279D01*
X344336Y40274D01*
X344439Y40282D01*
X344542Y40285D01*
X344561Y40292D01*
X344581Y40293D01*
X344676Y40334D01*
X344773Y40369D01*
X344789Y40382D01*
X344807Y40390D01*
X344938Y40495D01*
X345768Y41325D01*
X357032Y41325D01*
X357862Y40495D01*
X357878Y40483D01*
X357890Y40467D01*
X357978Y40411D01*
X358061Y40351D01*
X358080Y40345D01*
X358097Y40334D01*
X358198Y40309D01*
X358297Y40279D01*
X358316Y40279D01*
X358336Y40274D01*
X358439Y40282D01*
X358542Y40285D01*
X358561Y40292D01*
X358581Y40293D01*
X358676Y40334D01*
X358773Y40369D01*
X358789Y40382D01*
X358807Y40390D01*
X358938Y40495D01*
X359768Y41325D01*
X371032Y41325D01*
X371862Y40495D01*
X371878Y40483D01*
X371890Y40467D01*
X371978Y40411D01*
X372061Y40351D01*
X372080Y40345D01*
X372097Y40334D01*
X372198Y40309D01*
X372297Y40279D01*
X372316Y40279D01*
X372336Y40274D01*
X372439Y40282D01*
X372542Y40285D01*
X372561Y40292D01*
X372581Y40293D01*
X372676Y40334D01*
X372773Y40369D01*
X372789Y40382D01*
X372807Y40390D01*
X372938Y40495D01*
X373768Y41325D01*
X385032Y41325D01*
X385164Y41193D01*
X385259Y41124D01*
X385356Y41053D01*
X385360Y41051D01*
X385363Y41049D01*
X385477Y41014D01*
X385590Y40978D01*
X385595Y40978D01*
X385598Y40977D01*
X385717Y40980D01*
X385836Y40982D01*
X385840Y40983D01*
X385844Y40983D01*
X385955Y41024D01*
X386068Y41063D01*
X386071Y41066D01*
X386075Y41067D01*
X386168Y41142D01*
X386262Y41215D01*
X386265Y41219D01*
X386267Y41221D01*
X386275Y41233D01*
X386361Y41350D01*
X386367Y41360D01*
X386840Y41833D01*
X387419Y42168D01*
X388066Y42341D01*
X391877Y42341D01*
X391877Y28312D01*
X391880Y28292D01*
X391878Y28273D01*
X391900Y28171D01*
X391917Y28069D01*
X391926Y28052D01*
X391930Y28032D01*
X391983Y27943D01*
X392032Y27852D01*
X392046Y27838D01*
X392056Y27821D01*
X392135Y27754D01*
X392210Y27683D01*
X392228Y27674D01*
X392243Y27661D01*
X392339Y27622D01*
X392433Y27579D01*
X392453Y27577D01*
X392471Y27569D01*
X392638Y27551D01*
X393401Y27551D01*
X393401Y26788D01*
X393404Y26768D01*
X393402Y26749D01*
X393424Y26647D01*
X393441Y26545D01*
X393450Y26528D01*
X393454Y26508D01*
X393507Y26419D01*
X393556Y26328D01*
X393570Y26314D01*
X393580Y26297D01*
X393659Y26230D01*
X393734Y26159D01*
X393752Y26150D01*
X393767Y26137D01*
X393863Y26098D01*
X393957Y26055D01*
X393977Y26053D01*
X393995Y26045D01*
X394162Y26027D01*
X400941Y26027D01*
X400941Y14966D01*
X400768Y14319D01*
X400433Y13740D01*
X399960Y13267D01*
X399381Y12932D01*
X398652Y12737D01*
X398630Y12727D01*
X398607Y12723D01*
X398519Y12677D01*
X398428Y12636D01*
X398411Y12620D01*
X398389Y12608D01*
X398321Y12536D01*
X398248Y12469D01*
X398237Y12448D01*
X398220Y12430D01*
X398178Y12340D01*
X398131Y12253D01*
X398126Y12229D01*
X398116Y12207D01*
X398105Y12108D01*
X398088Y12010D01*
X398092Y11986D01*
X398089Y11963D01*
X398110Y11866D01*
X398125Y11767D01*
X398136Y11746D01*
X398141Y11722D01*
X398193Y11637D01*
X398238Y11548D01*
X398255Y11532D01*
X398268Y11511D01*
X398343Y11446D01*
X398415Y11377D01*
X398436Y11367D01*
X398455Y11351D01*
X398547Y11314D01*
X398636Y11271D01*
X398660Y11268D01*
X398683Y11259D01*
X398849Y11241D01*
X413175Y11241D01*
X413265Y11255D01*
G37*
%LPC*%
G36*
X181825Y232056D02*
X181825Y232056D01*
X178716Y235165D01*
X178716Y237504D01*
X178702Y237594D01*
X178694Y237685D01*
X178682Y237715D01*
X178677Y237747D01*
X178634Y237827D01*
X178598Y237911D01*
X178572Y237943D01*
X178561Y237964D01*
X178538Y237986D01*
X178493Y238042D01*
X143255Y273280D01*
X143255Y274673D01*
X143241Y274763D01*
X143233Y274854D01*
X143221Y274884D01*
X143216Y274916D01*
X143173Y274997D01*
X143137Y275080D01*
X143111Y275113D01*
X143100Y275133D01*
X143077Y275155D01*
X143032Y275211D01*
X142555Y275688D01*
X142555Y291952D01*
X143448Y292845D01*
X148523Y292845D01*
X148594Y292856D01*
X148666Y292858D01*
X148714Y292876D01*
X148766Y292884D01*
X148829Y292918D01*
X148897Y292943D01*
X148937Y292975D01*
X148983Y293000D01*
X149033Y293052D01*
X149089Y293096D01*
X149117Y293140D01*
X149153Y293178D01*
X149183Y293243D01*
X149222Y293303D01*
X149234Y293354D01*
X149256Y293401D01*
X149264Y293472D01*
X149282Y293542D01*
X149278Y293594D01*
X149283Y293645D01*
X149268Y293716D01*
X149262Y293787D01*
X149242Y293835D01*
X149231Y293886D01*
X149194Y293947D01*
X149166Y294013D01*
X149121Y294069D01*
X149105Y294097D01*
X149087Y294112D01*
X149061Y294144D01*
X143485Y299720D01*
X143411Y299773D01*
X143342Y299833D01*
X143312Y299845D01*
X143286Y299864D01*
X143199Y299891D01*
X143114Y299925D01*
X143073Y299929D01*
X143050Y299936D01*
X143018Y299935D01*
X142947Y299943D01*
X127260Y299943D01*
X107201Y320002D01*
X107127Y320055D01*
X107058Y320115D01*
X107028Y320127D01*
X107002Y320146D01*
X106915Y320173D01*
X106830Y320207D01*
X106789Y320211D01*
X106767Y320218D01*
X106734Y320217D01*
X106663Y320225D01*
X94718Y320225D01*
X93825Y321118D01*
X93825Y337682D01*
X94718Y338575D01*
X111282Y338575D01*
X112175Y337682D01*
X112175Y325045D01*
X112189Y324955D01*
X112197Y324864D01*
X112209Y324834D01*
X112214Y324802D01*
X112257Y324722D01*
X112293Y324638D01*
X112319Y324606D01*
X112330Y324585D01*
X112353Y324563D01*
X112398Y324507D01*
X129879Y307026D01*
X129953Y306973D01*
X130022Y306913D01*
X130052Y306901D01*
X130078Y306882D01*
X130165Y306855D01*
X130250Y306821D01*
X130291Y306817D01*
X130314Y306810D01*
X130346Y306811D01*
X130417Y306803D01*
X145233Y306803D01*
X145304Y306814D01*
X145376Y306816D01*
X145425Y306834D01*
X145476Y306842D01*
X145539Y306876D01*
X145607Y306901D01*
X145647Y306933D01*
X145693Y306958D01*
X145743Y307009D01*
X145799Y307054D01*
X145827Y307098D01*
X145863Y307136D01*
X145893Y307201D01*
X145932Y307261D01*
X145944Y307312D01*
X145966Y307359D01*
X145974Y307430D01*
X145992Y307500D01*
X145988Y307552D01*
X145993Y307603D01*
X145978Y307674D01*
X145972Y307745D01*
X145952Y307793D01*
X145941Y307844D01*
X145904Y307905D01*
X145876Y307971D01*
X145831Y308027D01*
X145815Y308055D01*
X145797Y308070D01*
X145771Y308102D01*
X133871Y320002D01*
X133797Y320055D01*
X133728Y320115D01*
X133698Y320127D01*
X133672Y320146D01*
X133585Y320173D01*
X133500Y320207D01*
X133459Y320211D01*
X133437Y320218D01*
X133404Y320217D01*
X133333Y320225D01*
X120118Y320225D01*
X119225Y321118D01*
X119225Y337682D01*
X120118Y338575D01*
X136682Y338575D01*
X137575Y337682D01*
X137575Y326315D01*
X137589Y326225D01*
X137597Y326134D01*
X137609Y326104D01*
X137614Y326072D01*
X137657Y325992D01*
X137693Y325908D01*
X137719Y325876D01*
X137730Y325855D01*
X137753Y325833D01*
X137798Y325777D01*
X166351Y297224D01*
X166409Y297182D01*
X166461Y297132D01*
X166508Y297110D01*
X166550Y297080D01*
X166619Y297059D01*
X166684Y297029D01*
X166736Y297023D01*
X166786Y297008D01*
X166857Y297010D01*
X166928Y297002D01*
X166979Y297013D01*
X167031Y297014D01*
X167099Y297039D01*
X167169Y297054D01*
X167213Y297081D01*
X167262Y297099D01*
X167318Y297143D01*
X167380Y297180D01*
X167414Y297220D01*
X167454Y297252D01*
X167493Y297313D01*
X167540Y297367D01*
X167559Y297415D01*
X167587Y297459D01*
X167605Y297529D01*
X167632Y297595D01*
X167640Y297667D01*
X167648Y297698D01*
X167646Y297721D01*
X167650Y297762D01*
X167650Y300501D01*
X176579Y309430D01*
X216264Y309430D01*
X216354Y309444D01*
X216445Y309452D01*
X216475Y309464D01*
X216507Y309469D01*
X216587Y309512D01*
X216671Y309548D01*
X216703Y309574D01*
X216724Y309585D01*
X216746Y309608D01*
X216802Y309653D01*
X222347Y315198D01*
X222400Y315272D01*
X222460Y315341D01*
X222472Y315371D01*
X222491Y315397D01*
X222518Y315484D01*
X222552Y315569D01*
X222556Y315610D01*
X222563Y315633D01*
X222562Y315665D01*
X222570Y315736D01*
X222570Y395132D01*
X222556Y395222D01*
X222548Y395313D01*
X222536Y395343D01*
X222531Y395375D01*
X222488Y395455D01*
X222452Y395539D01*
X222426Y395571D01*
X222415Y395592D01*
X222392Y395614D01*
X222347Y395670D01*
X209502Y408516D01*
X209407Y408584D01*
X209313Y408654D01*
X209307Y408656D01*
X209302Y408659D01*
X209191Y408693D01*
X209079Y408730D01*
X209073Y408730D01*
X209067Y408732D01*
X208950Y408729D01*
X208833Y408728D01*
X208826Y408725D01*
X208821Y408725D01*
X208804Y408719D01*
X208672Y408681D01*
X206385Y407733D01*
X202248Y407733D01*
X202183Y407723D01*
X202117Y407722D01*
X202063Y407703D01*
X202006Y407694D01*
X201947Y407663D01*
X201885Y407641D01*
X201839Y407606D01*
X201788Y407578D01*
X201743Y407531D01*
X201691Y407490D01*
X201641Y407424D01*
X201619Y407400D01*
X201610Y407382D01*
X201591Y407356D01*
X196503Y398635D01*
X196462Y398526D01*
X196418Y398418D01*
X196417Y398410D01*
X196415Y398405D01*
X196415Y398386D01*
X196400Y398251D01*
X196400Y397963D01*
X195779Y397342D01*
X195770Y397331D01*
X195759Y397322D01*
X195659Y397187D01*
X195217Y396429D01*
X194939Y396356D01*
X194832Y396308D01*
X194725Y396262D01*
X194719Y396258D01*
X194714Y396255D01*
X194700Y396242D01*
X194594Y396158D01*
X194391Y395954D01*
X193512Y395954D01*
X193498Y395952D01*
X193484Y395954D01*
X193318Y395929D01*
X192469Y395706D01*
X192221Y395851D01*
X192112Y395892D01*
X192004Y395936D01*
X191996Y395937D01*
X191991Y395939D01*
X191972Y395939D01*
X191837Y395954D01*
X134616Y395954D01*
X134526Y395940D01*
X134435Y395932D01*
X134406Y395920D01*
X134374Y395915D01*
X134293Y395872D01*
X134209Y395836D01*
X134177Y395810D01*
X134156Y395799D01*
X134134Y395776D01*
X134078Y395731D01*
X120478Y382131D01*
X120425Y382057D01*
X120365Y381987D01*
X120353Y381957D01*
X120334Y381931D01*
X120307Y381844D01*
X120273Y381759D01*
X120269Y381718D01*
X120262Y381696D01*
X120263Y381664D01*
X120255Y381593D01*
X120255Y367398D01*
X119362Y366505D01*
X103098Y366505D01*
X102205Y367398D01*
X102205Y370339D01*
X102202Y370359D01*
X102204Y370378D01*
X102182Y370480D01*
X102166Y370582D01*
X102156Y370599D01*
X102152Y370619D01*
X102099Y370708D01*
X102050Y370799D01*
X102036Y370813D01*
X102026Y370830D01*
X101947Y370897D01*
X101872Y370969D01*
X101854Y370977D01*
X101839Y370990D01*
X101743Y371029D01*
X101649Y371072D01*
X101629Y371074D01*
X101611Y371082D01*
X101444Y371100D01*
X88266Y371100D01*
X88176Y371086D01*
X88085Y371078D01*
X88055Y371066D01*
X88023Y371061D01*
X87943Y371018D01*
X87859Y370982D01*
X87827Y370956D01*
X87806Y370945D01*
X87784Y370922D01*
X87728Y370877D01*
X57321Y340470D01*
X45686Y340470D01*
X45666Y340467D01*
X45647Y340469D01*
X45545Y340447D01*
X45443Y340431D01*
X45426Y340421D01*
X45406Y340417D01*
X45317Y340364D01*
X45226Y340315D01*
X45212Y340301D01*
X45195Y340291D01*
X45128Y340212D01*
X45056Y340137D01*
X45048Y340119D01*
X45035Y340104D01*
X44996Y340008D01*
X44953Y339914D01*
X44951Y339894D01*
X44943Y339876D01*
X44925Y339709D01*
X44925Y336768D01*
X44032Y335875D01*
X27768Y335875D01*
X26875Y336768D01*
X26875Y351032D01*
X27768Y351925D01*
X44032Y351925D01*
X44925Y351032D01*
X44925Y348091D01*
X44928Y348071D01*
X44926Y348052D01*
X44948Y347950D01*
X44964Y347848D01*
X44974Y347831D01*
X44978Y347811D01*
X45031Y347722D01*
X45080Y347631D01*
X45094Y347617D01*
X45104Y347600D01*
X45183Y347533D01*
X45258Y347461D01*
X45276Y347453D01*
X45291Y347440D01*
X45387Y347401D01*
X45481Y347358D01*
X45501Y347356D01*
X45519Y347348D01*
X45686Y347330D01*
X54164Y347330D01*
X54254Y347344D01*
X54345Y347352D01*
X54375Y347364D01*
X54407Y347369D01*
X54487Y347412D01*
X54571Y347448D01*
X54603Y347474D01*
X54624Y347485D01*
X54646Y347508D01*
X54702Y347553D01*
X85109Y377960D01*
X101444Y377960D01*
X101464Y377963D01*
X101483Y377961D01*
X101585Y377983D01*
X101687Y377999D01*
X101704Y378009D01*
X101724Y378013D01*
X101813Y378066D01*
X101904Y378115D01*
X101918Y378129D01*
X101935Y378139D01*
X102002Y378218D01*
X102074Y378293D01*
X102082Y378311D01*
X102095Y378326D01*
X102134Y378422D01*
X102177Y378516D01*
X102179Y378536D01*
X102187Y378554D01*
X102205Y378721D01*
X102205Y381662D01*
X103098Y382555D01*
X110886Y382555D01*
X110976Y382569D01*
X111067Y382577D01*
X111096Y382589D01*
X111128Y382594D01*
X111209Y382637D01*
X111293Y382673D01*
X111325Y382699D01*
X111346Y382710D01*
X111368Y382733D01*
X111424Y382778D01*
X129228Y400582D01*
X131460Y402814D01*
X190563Y402814D01*
X190628Y402824D01*
X190694Y402825D01*
X190748Y402844D01*
X190806Y402853D01*
X190864Y402884D01*
X190926Y402906D01*
X190972Y402941D01*
X191023Y402969D01*
X191068Y403016D01*
X191120Y403057D01*
X191170Y403123D01*
X191192Y403147D01*
X191201Y403165D01*
X191220Y403191D01*
X195718Y410901D01*
X195734Y410943D01*
X195758Y410982D01*
X195778Y411057D01*
X195806Y411131D01*
X195807Y411176D01*
X195819Y411220D01*
X195812Y411298D01*
X195816Y411376D01*
X195803Y411420D01*
X195799Y411465D01*
X195769Y411537D01*
X195747Y411612D01*
X195721Y411650D01*
X195703Y411692D01*
X195617Y411800D01*
X195606Y411814D01*
X195603Y411817D01*
X195598Y411823D01*
X194952Y412469D01*
X193289Y416483D01*
X193289Y420829D01*
X194952Y424843D01*
X198025Y427916D01*
X202039Y429579D01*
X206385Y429579D01*
X210399Y427916D01*
X213472Y424843D01*
X215135Y420829D01*
X215135Y416483D01*
X214187Y414196D01*
X214161Y414082D01*
X214132Y413969D01*
X214132Y413962D01*
X214131Y413956D01*
X214142Y413840D01*
X214151Y413723D01*
X214154Y413718D01*
X214154Y413711D01*
X214202Y413603D01*
X214247Y413497D01*
X214252Y413491D01*
X214254Y413487D01*
X214267Y413473D01*
X214352Y413366D01*
X229430Y398289D01*
X229430Y312579D01*
X219421Y302570D01*
X179736Y302570D01*
X179646Y302556D01*
X179555Y302548D01*
X179525Y302536D01*
X179493Y302531D01*
X179413Y302488D01*
X179329Y302452D01*
X179297Y302426D01*
X179276Y302415D01*
X179254Y302392D01*
X179198Y302347D01*
X174733Y297882D01*
X174680Y297808D01*
X174620Y297739D01*
X174608Y297709D01*
X174589Y297683D01*
X174562Y297596D01*
X174528Y297511D01*
X174524Y297470D01*
X174517Y297447D01*
X174518Y297415D01*
X174510Y297344D01*
X174510Y293606D01*
X174513Y293586D01*
X174511Y293567D01*
X174533Y293465D01*
X174549Y293363D01*
X174559Y293346D01*
X174563Y293326D01*
X174616Y293237D01*
X174665Y293146D01*
X174679Y293132D01*
X174689Y293115D01*
X174768Y293048D01*
X174843Y292976D01*
X174861Y292968D01*
X174876Y292955D01*
X174972Y292916D01*
X175066Y292873D01*
X175086Y292871D01*
X175104Y292863D01*
X175271Y292845D01*
X182816Y292845D01*
X182878Y292829D01*
X182977Y292799D01*
X182997Y292799D01*
X183016Y292794D01*
X183119Y292802D01*
X183222Y292805D01*
X183241Y292812D01*
X183261Y292813D01*
X183335Y292845D01*
X190816Y292845D01*
X190878Y292829D01*
X190977Y292799D01*
X190997Y292799D01*
X191016Y292794D01*
X191119Y292802D01*
X191222Y292805D01*
X191241Y292812D01*
X191261Y292813D01*
X191335Y292845D01*
X198816Y292845D01*
X198878Y292829D01*
X198977Y292799D01*
X198997Y292799D01*
X199016Y292794D01*
X199119Y292802D01*
X199222Y292805D01*
X199241Y292812D01*
X199261Y292813D01*
X199335Y292845D01*
X206712Y292845D01*
X207605Y291952D01*
X207605Y275688D01*
X206712Y274795D01*
X199344Y274795D01*
X199282Y274811D01*
X199184Y274841D01*
X199164Y274841D01*
X199144Y274846D01*
X199041Y274838D01*
X198938Y274835D01*
X198919Y274828D01*
X198899Y274827D01*
X198826Y274795D01*
X191344Y274795D01*
X191282Y274811D01*
X191184Y274841D01*
X191164Y274841D01*
X191144Y274846D01*
X191041Y274838D01*
X190938Y274835D01*
X190919Y274828D01*
X190899Y274827D01*
X190826Y274795D01*
X183344Y274795D01*
X183282Y274811D01*
X183184Y274841D01*
X183164Y274841D01*
X183144Y274846D01*
X183041Y274838D01*
X182938Y274835D01*
X182919Y274828D01*
X182899Y274827D01*
X182826Y274795D01*
X175344Y274795D01*
X175282Y274811D01*
X175184Y274841D01*
X175164Y274841D01*
X175144Y274846D01*
X175041Y274838D01*
X174938Y274835D01*
X174919Y274828D01*
X174899Y274827D01*
X174826Y274795D01*
X167344Y274795D01*
X167282Y274811D01*
X167184Y274841D01*
X167164Y274841D01*
X167144Y274846D01*
X167041Y274838D01*
X166938Y274835D01*
X166919Y274828D01*
X166899Y274827D01*
X166826Y274795D01*
X159344Y274795D01*
X159282Y274811D01*
X159184Y274841D01*
X159164Y274841D01*
X159144Y274846D01*
X159041Y274838D01*
X158938Y274835D01*
X158919Y274828D01*
X158899Y274827D01*
X158826Y274795D01*
X153279Y274795D01*
X153208Y274784D01*
X153136Y274782D01*
X153088Y274764D01*
X153036Y274756D01*
X152973Y274722D01*
X152905Y274697D01*
X152865Y274665D01*
X152819Y274640D01*
X152769Y274588D01*
X152713Y274544D01*
X152685Y274500D01*
X152649Y274462D01*
X152619Y274397D01*
X152580Y274337D01*
X152568Y274286D01*
X152546Y274239D01*
X152538Y274168D01*
X152520Y274098D01*
X152524Y274046D01*
X152519Y273995D01*
X152534Y273924D01*
X152540Y273853D01*
X152560Y273805D01*
X152571Y273754D01*
X152608Y273693D01*
X152636Y273627D01*
X152681Y273571D01*
X152697Y273543D01*
X152715Y273528D01*
X152741Y273496D01*
X183344Y242893D01*
X183418Y242840D01*
X183487Y242780D01*
X183517Y242768D01*
X183543Y242749D01*
X183630Y242722D01*
X183715Y242688D01*
X183756Y242684D01*
X183779Y242677D01*
X183811Y242678D01*
X183882Y242670D01*
X186221Y242670D01*
X189330Y239561D01*
X189330Y235165D01*
X186221Y232056D01*
X181825Y232056D01*
G37*
%LPD*%
%LPC*%
G36*
X43408Y11727D02*
X43408Y11727D01*
X32134Y16152D01*
X22665Y23703D01*
X15842Y33710D01*
X12272Y45284D01*
X12272Y57396D01*
X15842Y68970D01*
X15951Y69129D01*
X15951Y69130D01*
X16470Y69891D01*
X16989Y70652D01*
X17508Y71413D01*
X18027Y72174D01*
X18027Y72175D01*
X18546Y72936D01*
X19065Y73697D01*
X19584Y74458D01*
X20103Y75219D01*
X20103Y75220D01*
X20622Y75981D01*
X21141Y76742D01*
X21660Y77503D01*
X22179Y78264D01*
X22179Y78265D01*
X22665Y78977D01*
X32134Y86528D01*
X43408Y90953D01*
X55486Y91859D01*
X56390Y91652D01*
X59725Y90891D01*
X63061Y90130D01*
X66396Y89369D01*
X66396Y89368D01*
X67295Y89163D01*
X77784Y83107D01*
X86022Y74229D01*
X91277Y63317D01*
X93082Y51340D01*
X91277Y39363D01*
X86022Y28451D01*
X77784Y19573D01*
X67295Y13517D01*
X55486Y10821D01*
X43408Y11727D01*
G37*
%LPD*%
%LPC*%
G36*
X491098Y359327D02*
X491098Y359327D01*
X479824Y363752D01*
X470355Y371303D01*
X463532Y381310D01*
X459962Y392884D01*
X459962Y404996D01*
X463532Y416570D01*
X464877Y418543D01*
X465915Y420066D01*
X466953Y421588D01*
X468510Y423872D01*
X469548Y425394D01*
X469548Y425395D01*
X470355Y426577D01*
X479824Y434128D01*
X491098Y438553D01*
X503176Y439459D01*
X506139Y438782D01*
X509475Y438021D01*
X512810Y437260D01*
X514985Y436763D01*
X525474Y430707D01*
X533712Y421829D01*
X538967Y410917D01*
X540772Y398940D01*
X538967Y386963D01*
X533712Y376051D01*
X525474Y367173D01*
X514985Y361117D01*
X503176Y358421D01*
X491098Y359327D01*
G37*
%LPD*%
%LPC*%
G36*
X36798Y362047D02*
X36798Y362047D01*
X25524Y366472D01*
X16055Y374023D01*
X9232Y384030D01*
X5662Y395604D01*
X5662Y407716D01*
X9232Y419290D01*
X9761Y420066D01*
X11318Y422349D01*
X11318Y422350D01*
X12356Y423872D01*
X13394Y425394D01*
X13394Y425395D01*
X14951Y427678D01*
X15989Y429201D01*
X16055Y429297D01*
X25524Y436848D01*
X36798Y441273D01*
X48876Y442179D01*
X50415Y441827D01*
X50416Y441827D01*
X53751Y441066D01*
X57086Y440305D01*
X60421Y439544D01*
X60421Y439543D01*
X60685Y439483D01*
X71174Y433427D01*
X79412Y424549D01*
X84667Y413637D01*
X86472Y401660D01*
X84667Y389684D01*
X79412Y378771D01*
X71174Y369892D01*
X60685Y363837D01*
X48876Y361141D01*
X36798Y362047D01*
G37*
%LPD*%
%LPC*%
G36*
X492508Y7747D02*
X492508Y7747D01*
X481234Y12172D01*
X471765Y19723D01*
X464942Y29730D01*
X461372Y41304D01*
X461372Y53416D01*
X464942Y64990D01*
X465688Y66084D01*
X465688Y66085D01*
X466726Y67607D01*
X467764Y69129D01*
X467764Y69130D01*
X469321Y71413D01*
X470359Y72936D01*
X471397Y74458D01*
X471765Y74997D01*
X481234Y82548D01*
X492508Y86973D01*
X504586Y87879D01*
X504729Y87846D01*
X508064Y87085D01*
X511399Y86323D01*
X511400Y86323D01*
X514735Y85562D01*
X516395Y85183D01*
X526884Y79127D01*
X535122Y70249D01*
X540377Y59337D01*
X542182Y47360D01*
X540377Y35383D01*
X535122Y24471D01*
X526884Y15592D01*
X516395Y9537D01*
X504586Y6841D01*
X492508Y7747D01*
G37*
%LPD*%
G36*
X365065Y123460D02*
X365065Y123460D01*
X365156Y123468D01*
X365186Y123480D01*
X365218Y123485D01*
X365298Y123528D01*
X365382Y123564D01*
X365414Y123590D01*
X365435Y123601D01*
X365457Y123624D01*
X365513Y123669D01*
X375061Y133217D01*
X375114Y133291D01*
X375174Y133360D01*
X375186Y133390D01*
X375205Y133416D01*
X375232Y133503D01*
X375266Y133588D01*
X375270Y133629D01*
X375277Y133652D01*
X375276Y133684D01*
X375284Y133755D01*
X375284Y147114D01*
X375281Y147134D01*
X375283Y147153D01*
X375261Y147255D01*
X375245Y147357D01*
X375235Y147374D01*
X375231Y147394D01*
X375178Y147483D01*
X375129Y147574D01*
X375115Y147588D01*
X375105Y147605D01*
X375026Y147672D01*
X374951Y147744D01*
X374933Y147752D01*
X374918Y147765D01*
X374822Y147804D01*
X374728Y147847D01*
X374708Y147849D01*
X374690Y147857D01*
X374523Y147875D01*
X373768Y147875D01*
X372938Y148705D01*
X372922Y148717D01*
X372910Y148733D01*
X372822Y148789D01*
X372739Y148849D01*
X372720Y148855D01*
X372703Y148866D01*
X372602Y148891D01*
X372503Y148921D01*
X372484Y148921D01*
X372464Y148926D01*
X372361Y148918D01*
X372258Y148915D01*
X372239Y148908D01*
X372219Y148907D01*
X372124Y148866D01*
X372027Y148831D01*
X372011Y148818D01*
X371993Y148810D01*
X371862Y148705D01*
X371032Y147875D01*
X359768Y147875D01*
X358938Y148705D01*
X358922Y148717D01*
X358910Y148733D01*
X358822Y148789D01*
X358739Y148849D01*
X358720Y148855D01*
X358703Y148866D01*
X358602Y148891D01*
X358503Y148921D01*
X358484Y148921D01*
X358464Y148926D01*
X358361Y148918D01*
X358258Y148915D01*
X358239Y148908D01*
X358219Y148907D01*
X358124Y148866D01*
X358027Y148831D01*
X358011Y148818D01*
X357993Y148810D01*
X357862Y148705D01*
X357032Y147875D01*
X355568Y147875D01*
X355548Y147872D01*
X355529Y147874D01*
X355427Y147852D01*
X355325Y147836D01*
X355308Y147826D01*
X355288Y147822D01*
X355199Y147769D01*
X355108Y147720D01*
X355094Y147706D01*
X355077Y147696D01*
X355010Y147617D01*
X354938Y147542D01*
X354930Y147524D01*
X354917Y147509D01*
X354878Y147413D01*
X354835Y147319D01*
X354833Y147299D01*
X354825Y147281D01*
X354807Y147114D01*
X354807Y145931D01*
X349573Y140697D01*
X349520Y140623D01*
X349460Y140554D01*
X349448Y140524D01*
X349429Y140498D01*
X349402Y140411D01*
X349368Y140326D01*
X349364Y140285D01*
X349357Y140263D01*
X349358Y140230D01*
X349350Y140159D01*
X349350Y137820D01*
X346241Y134711D01*
X341845Y134711D01*
X338736Y137820D01*
X338736Y142216D01*
X341845Y145325D01*
X344184Y145325D01*
X344274Y145339D01*
X344365Y145347D01*
X344395Y145359D01*
X344427Y145364D01*
X344507Y145407D01*
X344591Y145443D01*
X344623Y145469D01*
X344644Y145480D01*
X344666Y145503D01*
X344722Y145548D01*
X345871Y146696D01*
X345882Y146712D01*
X345898Y146725D01*
X345929Y146774D01*
X345933Y146777D01*
X345935Y146783D01*
X345954Y146812D01*
X346014Y146896D01*
X346020Y146915D01*
X346031Y146932D01*
X346056Y147032D01*
X346087Y147131D01*
X346086Y147151D01*
X346091Y147170D01*
X346083Y147273D01*
X346080Y147377D01*
X346074Y147396D01*
X346072Y147416D01*
X346032Y147510D01*
X345996Y147608D01*
X345983Y147624D01*
X345976Y147642D01*
X345871Y147773D01*
X345636Y148007D01*
X345541Y148076D01*
X345444Y148147D01*
X345440Y148149D01*
X345437Y148151D01*
X345324Y148186D01*
X345210Y148222D01*
X345205Y148222D01*
X345201Y148223D01*
X345083Y148220D01*
X344964Y148218D01*
X344960Y148217D01*
X344956Y148217D01*
X344843Y148176D01*
X344732Y148137D01*
X344729Y148134D01*
X344725Y148133D01*
X344631Y148058D01*
X344538Y147985D01*
X344535Y147981D01*
X344533Y147979D01*
X344525Y147967D01*
X344439Y147850D01*
X344433Y147840D01*
X343960Y147367D01*
X343381Y147032D01*
X342734Y146859D01*
X338923Y146859D01*
X338923Y160888D01*
X338920Y160908D01*
X338922Y160927D01*
X338900Y161029D01*
X338883Y161131D01*
X338874Y161148D01*
X338870Y161168D01*
X338817Y161257D01*
X338768Y161348D01*
X338754Y161362D01*
X338744Y161379D01*
X338665Y161446D01*
X338590Y161517D01*
X338572Y161526D01*
X338557Y161539D01*
X338461Y161578D01*
X338367Y161621D01*
X338347Y161623D01*
X338329Y161631D01*
X338162Y161649D01*
X336638Y161649D01*
X336618Y161646D01*
X336599Y161648D01*
X336497Y161626D01*
X336395Y161609D01*
X336378Y161600D01*
X336358Y161596D01*
X336269Y161543D01*
X336178Y161494D01*
X336164Y161480D01*
X336147Y161470D01*
X336080Y161391D01*
X336009Y161316D01*
X336000Y161298D01*
X335987Y161283D01*
X335948Y161187D01*
X335905Y161093D01*
X335903Y161073D01*
X335895Y161055D01*
X335877Y160888D01*
X335877Y146859D01*
X332066Y146859D01*
X331419Y147032D01*
X330840Y147367D01*
X330367Y147840D01*
X330361Y147850D01*
X330286Y147941D01*
X330212Y148035D01*
X330208Y148037D01*
X330205Y148040D01*
X330106Y148103D01*
X330005Y148168D01*
X330001Y148169D01*
X329997Y148171D01*
X329882Y148199D01*
X329766Y148228D01*
X329762Y148227D01*
X329758Y148228D01*
X329639Y148218D01*
X329521Y148209D01*
X329517Y148207D01*
X329513Y148207D01*
X329405Y148159D01*
X329295Y148112D01*
X329291Y148109D01*
X329288Y148108D01*
X329278Y148099D01*
X329164Y148007D01*
X329032Y147875D01*
X326898Y147875D01*
X326878Y147872D01*
X326859Y147874D01*
X326757Y147852D01*
X326655Y147836D01*
X326638Y147826D01*
X326618Y147822D01*
X326529Y147769D01*
X326438Y147720D01*
X326424Y147706D01*
X326407Y147696D01*
X326340Y147617D01*
X326268Y147542D01*
X326260Y147524D01*
X326247Y147509D01*
X326208Y147413D01*
X326165Y147319D01*
X326163Y147299D01*
X326155Y147281D01*
X326137Y147114D01*
X326137Y140598D01*
X314126Y128587D01*
X311095Y128587D01*
X311005Y128573D01*
X310914Y128565D01*
X310885Y128553D01*
X310853Y128548D01*
X310772Y128505D01*
X310688Y128469D01*
X310656Y128443D01*
X310635Y128432D01*
X310613Y128409D01*
X310557Y128364D01*
X308903Y126710D01*
X304507Y126710D01*
X301398Y129819D01*
X301398Y134215D01*
X304507Y137324D01*
X308903Y137324D01*
X310494Y135733D01*
X310510Y135721D01*
X310523Y135706D01*
X310610Y135650D01*
X310694Y135589D01*
X310713Y135584D01*
X310729Y135573D01*
X310830Y135547D01*
X310929Y135517D01*
X310949Y135518D01*
X310968Y135513D01*
X311071Y135521D01*
X311175Y135523D01*
X311193Y135530D01*
X311213Y135532D01*
X311308Y135572D01*
X311406Y135608D01*
X311421Y135620D01*
X311440Y135628D01*
X311571Y135733D01*
X319054Y143217D01*
X319107Y143291D01*
X319167Y143360D01*
X319179Y143390D01*
X319198Y143416D01*
X319225Y143503D01*
X319259Y143588D01*
X319263Y143629D01*
X319270Y143652D01*
X319269Y143684D01*
X319277Y143755D01*
X319277Y147114D01*
X319274Y147134D01*
X319276Y147153D01*
X319254Y147255D01*
X319238Y147357D01*
X319228Y147374D01*
X319224Y147394D01*
X319171Y147483D01*
X319122Y147574D01*
X319108Y147588D01*
X319098Y147605D01*
X319019Y147672D01*
X318944Y147744D01*
X318926Y147752D01*
X318911Y147765D01*
X318815Y147804D01*
X318721Y147847D01*
X318701Y147849D01*
X318683Y147857D01*
X318516Y147875D01*
X317768Y147875D01*
X317636Y148007D01*
X317541Y148076D01*
X317444Y148147D01*
X317440Y148149D01*
X317437Y148151D01*
X317323Y148186D01*
X317210Y148222D01*
X317205Y148222D01*
X317202Y148223D01*
X317083Y148220D01*
X316964Y148218D01*
X316960Y148217D01*
X316956Y148217D01*
X316845Y148176D01*
X316732Y148137D01*
X316729Y148134D01*
X316725Y148133D01*
X316632Y148058D01*
X316538Y147985D01*
X316535Y147981D01*
X316533Y147979D01*
X316525Y147967D01*
X316439Y147850D01*
X316433Y147840D01*
X315960Y147367D01*
X315381Y147032D01*
X314734Y146859D01*
X310923Y146859D01*
X310923Y160888D01*
X310920Y160908D01*
X310922Y160927D01*
X310900Y161029D01*
X310883Y161131D01*
X310874Y161148D01*
X310870Y161168D01*
X310817Y161257D01*
X310768Y161348D01*
X310754Y161362D01*
X310744Y161379D01*
X310665Y161446D01*
X310590Y161517D01*
X310572Y161526D01*
X310557Y161539D01*
X310461Y161578D01*
X310367Y161621D01*
X310347Y161623D01*
X310329Y161631D01*
X310162Y161649D01*
X309399Y161649D01*
X309399Y162412D01*
X309396Y162432D01*
X309398Y162451D01*
X309376Y162553D01*
X309359Y162655D01*
X309350Y162672D01*
X309346Y162692D01*
X309293Y162781D01*
X309244Y162872D01*
X309230Y162886D01*
X309220Y162903D01*
X309141Y162970D01*
X309066Y163041D01*
X309048Y163050D01*
X309033Y163063D01*
X308937Y163102D01*
X308843Y163145D01*
X308823Y163147D01*
X308805Y163155D01*
X308638Y163173D01*
X296162Y163173D01*
X296142Y163170D01*
X296123Y163172D01*
X296021Y163150D01*
X295919Y163133D01*
X295902Y163124D01*
X295882Y163120D01*
X295793Y163067D01*
X295702Y163018D01*
X295688Y163004D01*
X295671Y162994D01*
X295604Y162915D01*
X295533Y162840D01*
X295524Y162822D01*
X295511Y162807D01*
X295472Y162711D01*
X295429Y162617D01*
X295427Y162597D01*
X295419Y162579D01*
X295401Y162412D01*
X295401Y161649D01*
X295399Y161649D01*
X295399Y162412D01*
X295396Y162432D01*
X295398Y162451D01*
X295376Y162553D01*
X295359Y162655D01*
X295350Y162672D01*
X295346Y162692D01*
X295293Y162781D01*
X295244Y162872D01*
X295230Y162886D01*
X295220Y162903D01*
X295141Y162970D01*
X295066Y163041D01*
X295048Y163050D01*
X295033Y163063D01*
X294937Y163102D01*
X294843Y163145D01*
X294823Y163147D01*
X294805Y163155D01*
X294638Y163173D01*
X287859Y163173D01*
X287859Y174234D01*
X287877Y174301D01*
X287889Y174419D01*
X287902Y174537D01*
X287901Y174542D01*
X287902Y174546D01*
X287875Y174661D01*
X287850Y174778D01*
X287848Y174781D01*
X287847Y174785D01*
X287784Y174888D01*
X287724Y174989D01*
X287720Y174992D01*
X287718Y174995D01*
X287627Y175072D01*
X287537Y175149D01*
X287533Y175150D01*
X287530Y175153D01*
X287420Y175196D01*
X287309Y175241D01*
X287304Y175241D01*
X287301Y175243D01*
X287287Y175243D01*
X287142Y175259D01*
X217273Y175259D01*
X202960Y189572D01*
X202886Y189625D01*
X202817Y189685D01*
X202787Y189697D01*
X202761Y189716D01*
X202674Y189743D01*
X202589Y189777D01*
X202548Y189781D01*
X202525Y189788D01*
X202493Y189787D01*
X202422Y189795D01*
X199344Y189795D01*
X199282Y189811D01*
X199183Y189841D01*
X199163Y189841D01*
X199144Y189846D01*
X199041Y189838D01*
X198938Y189835D01*
X198919Y189828D01*
X198899Y189827D01*
X198826Y189796D01*
X198824Y189795D01*
X198818Y189792D01*
X198804Y189786D01*
X198802Y189785D01*
X198741Y189772D01*
X198639Y189756D01*
X198622Y189746D01*
X198602Y189742D01*
X198513Y189689D01*
X198422Y189640D01*
X198408Y189626D01*
X198391Y189616D01*
X198324Y189537D01*
X198252Y189462D01*
X198244Y189444D01*
X198231Y189429D01*
X198192Y189333D01*
X198149Y189239D01*
X198147Y189219D01*
X198139Y189201D01*
X198121Y189034D01*
X198121Y187093D01*
X198135Y187003D01*
X198143Y186912D01*
X198155Y186882D01*
X198160Y186850D01*
X198203Y186770D01*
X198239Y186686D01*
X198265Y186654D01*
X198276Y186633D01*
X198299Y186611D01*
X198344Y186555D01*
X206682Y178217D01*
X206756Y178164D01*
X206825Y178104D01*
X206855Y178092D01*
X206881Y178073D01*
X206968Y178046D01*
X207053Y178012D01*
X207094Y178008D01*
X207117Y178001D01*
X207149Y178002D01*
X207220Y177994D01*
X210224Y177994D01*
X213333Y174885D01*
X213333Y173881D01*
X213347Y173791D01*
X213355Y173700D01*
X213367Y173670D01*
X213372Y173638D01*
X213415Y173558D01*
X213451Y173474D01*
X213477Y173442D01*
X213488Y173421D01*
X213511Y173399D01*
X213556Y173343D01*
X263230Y123669D01*
X263304Y123616D01*
X263373Y123556D01*
X263403Y123544D01*
X263429Y123525D01*
X263516Y123498D01*
X263601Y123464D01*
X263642Y123460D01*
X263665Y123453D01*
X263697Y123454D01*
X263768Y123446D01*
X364975Y123446D01*
X365065Y123460D01*
G37*
%LPC*%
G36*
X403468Y39075D02*
X403468Y39075D01*
X402575Y39968D01*
X402575Y51232D01*
X403405Y52062D01*
X403417Y52078D01*
X403433Y52090D01*
X403489Y52178D01*
X403549Y52261D01*
X403555Y52280D01*
X403566Y52297D01*
X403591Y52398D01*
X403621Y52497D01*
X403621Y52516D01*
X403626Y52536D01*
X403618Y52639D01*
X403615Y52742D01*
X403608Y52761D01*
X403607Y52781D01*
X403566Y52876D01*
X403531Y52973D01*
X403518Y52989D01*
X403510Y53007D01*
X403405Y53138D01*
X402575Y53968D01*
X402575Y65232D01*
X403405Y66062D01*
X403417Y66078D01*
X403433Y66090D01*
X403489Y66178D01*
X403549Y66261D01*
X403555Y66280D01*
X403566Y66297D01*
X403591Y66398D01*
X403621Y66497D01*
X403621Y66516D01*
X403626Y66536D01*
X403618Y66639D01*
X403615Y66742D01*
X403608Y66761D01*
X403607Y66781D01*
X403566Y66876D01*
X403531Y66973D01*
X403518Y66989D01*
X403510Y67007D01*
X403405Y67138D01*
X402575Y67968D01*
X402575Y79232D01*
X403405Y80062D01*
X403417Y80078D01*
X403433Y80090D01*
X403489Y80178D01*
X403549Y80261D01*
X403555Y80280D01*
X403566Y80297D01*
X403591Y80398D01*
X403621Y80497D01*
X403621Y80516D01*
X403626Y80536D01*
X403618Y80639D01*
X403615Y80742D01*
X403608Y80761D01*
X403607Y80781D01*
X403566Y80876D01*
X403531Y80973D01*
X403518Y80989D01*
X403510Y81007D01*
X403405Y81138D01*
X402575Y81968D01*
X402575Y93232D01*
X403405Y94062D01*
X403417Y94078D01*
X403433Y94090D01*
X403489Y94178D01*
X403549Y94261D01*
X403555Y94280D01*
X403566Y94297D01*
X403591Y94398D01*
X403621Y94497D01*
X403621Y94516D01*
X403626Y94536D01*
X403618Y94639D01*
X403615Y94742D01*
X403608Y94761D01*
X403607Y94781D01*
X403566Y94876D01*
X403531Y94973D01*
X403518Y94989D01*
X403510Y95007D01*
X403405Y95138D01*
X402575Y95968D01*
X402575Y107232D01*
X403405Y108062D01*
X403417Y108078D01*
X403433Y108090D01*
X403489Y108178D01*
X403549Y108261D01*
X403555Y108280D01*
X403566Y108297D01*
X403591Y108398D01*
X403621Y108497D01*
X403621Y108516D01*
X403626Y108536D01*
X403618Y108639D01*
X403615Y108742D01*
X403608Y108761D01*
X403607Y108781D01*
X403566Y108876D01*
X403531Y108973D01*
X403518Y108989D01*
X403510Y109007D01*
X403405Y109138D01*
X402575Y109968D01*
X402575Y121232D01*
X403405Y122062D01*
X403417Y122078D01*
X403433Y122090D01*
X403489Y122178D01*
X403549Y122261D01*
X403555Y122280D01*
X403566Y122297D01*
X403591Y122398D01*
X403621Y122497D01*
X403621Y122516D01*
X403626Y122536D01*
X403618Y122639D01*
X403615Y122742D01*
X403608Y122761D01*
X403607Y122781D01*
X403566Y122876D01*
X403531Y122973D01*
X403518Y122989D01*
X403510Y123007D01*
X403405Y123138D01*
X402575Y123968D01*
X402575Y135232D01*
X402707Y135364D01*
X402776Y135459D01*
X402847Y135556D01*
X402849Y135560D01*
X402851Y135563D01*
X402886Y135676D01*
X402922Y135790D01*
X402922Y135795D01*
X402923Y135798D01*
X402920Y135917D01*
X402918Y136036D01*
X402917Y136040D01*
X402917Y136044D01*
X402876Y136155D01*
X402837Y136268D01*
X402834Y136271D01*
X402833Y136275D01*
X402758Y136368D01*
X402685Y136462D01*
X402681Y136465D01*
X402679Y136467D01*
X402667Y136475D01*
X402550Y136561D01*
X402540Y136567D01*
X402067Y137040D01*
X401732Y137619D01*
X401559Y138266D01*
X401559Y142077D01*
X415588Y142077D01*
X415608Y142080D01*
X415627Y142078D01*
X415729Y142100D01*
X415831Y142117D01*
X415848Y142126D01*
X415868Y142130D01*
X415957Y142183D01*
X416048Y142232D01*
X416062Y142246D01*
X416079Y142256D01*
X416146Y142335D01*
X416217Y142410D01*
X416226Y142428D01*
X416239Y142443D01*
X416278Y142539D01*
X416321Y142633D01*
X416323Y142653D01*
X416331Y142671D01*
X416349Y142838D01*
X416349Y143601D01*
X416351Y143601D01*
X416351Y142838D01*
X416354Y142818D01*
X416352Y142799D01*
X416374Y142697D01*
X416391Y142595D01*
X416400Y142578D01*
X416404Y142558D01*
X416457Y142469D01*
X416506Y142378D01*
X416520Y142364D01*
X416530Y142347D01*
X416609Y142280D01*
X416684Y142209D01*
X416702Y142200D01*
X416717Y142187D01*
X416813Y142148D01*
X416907Y142105D01*
X416927Y142103D01*
X416945Y142095D01*
X417112Y142077D01*
X431141Y142077D01*
X431141Y138266D01*
X430968Y137619D01*
X430633Y137040D01*
X430160Y136567D01*
X430150Y136561D01*
X430059Y136486D01*
X429965Y136412D01*
X429963Y136408D01*
X429960Y136405D01*
X429897Y136306D01*
X429832Y136205D01*
X429831Y136201D01*
X429829Y136197D01*
X429801Y136082D01*
X429772Y135966D01*
X429773Y135962D01*
X429772Y135958D01*
X429782Y135839D01*
X429791Y135721D01*
X429793Y135717D01*
X429793Y135713D01*
X429841Y135605D01*
X429888Y135495D01*
X429891Y135491D01*
X429892Y135488D01*
X429901Y135478D01*
X429993Y135364D01*
X430125Y135232D01*
X430125Y123968D01*
X429295Y123138D01*
X429283Y123122D01*
X429267Y123110D01*
X429211Y123022D01*
X429151Y122939D01*
X429145Y122920D01*
X429134Y122903D01*
X429109Y122802D01*
X429079Y122703D01*
X429079Y122684D01*
X429074Y122664D01*
X429082Y122561D01*
X429085Y122458D01*
X429092Y122439D01*
X429093Y122419D01*
X429134Y122324D01*
X429169Y122227D01*
X429182Y122211D01*
X429190Y122193D01*
X429295Y122062D01*
X430125Y121232D01*
X430125Y109968D01*
X429295Y109138D01*
X429283Y109122D01*
X429267Y109110D01*
X429211Y109022D01*
X429151Y108939D01*
X429145Y108920D01*
X429134Y108903D01*
X429109Y108802D01*
X429079Y108703D01*
X429079Y108684D01*
X429074Y108664D01*
X429082Y108561D01*
X429085Y108458D01*
X429092Y108439D01*
X429093Y108419D01*
X429134Y108324D01*
X429169Y108227D01*
X429182Y108211D01*
X429190Y108193D01*
X429295Y108062D01*
X430125Y107232D01*
X430125Y95968D01*
X429295Y95138D01*
X429283Y95122D01*
X429267Y95110D01*
X429211Y95022D01*
X429151Y94939D01*
X429145Y94920D01*
X429134Y94903D01*
X429109Y94802D01*
X429079Y94703D01*
X429079Y94684D01*
X429074Y94664D01*
X429082Y94561D01*
X429085Y94458D01*
X429092Y94439D01*
X429093Y94419D01*
X429134Y94324D01*
X429169Y94227D01*
X429182Y94211D01*
X429190Y94193D01*
X429295Y94062D01*
X430125Y93232D01*
X430125Y81968D01*
X429295Y81138D01*
X429283Y81122D01*
X429267Y81110D01*
X429211Y81022D01*
X429151Y80939D01*
X429145Y80920D01*
X429134Y80903D01*
X429109Y80802D01*
X429079Y80703D01*
X429079Y80684D01*
X429074Y80664D01*
X429082Y80561D01*
X429085Y80458D01*
X429092Y80439D01*
X429093Y80419D01*
X429134Y80324D01*
X429169Y80227D01*
X429182Y80211D01*
X429190Y80193D01*
X429295Y80062D01*
X430125Y79232D01*
X430125Y67968D01*
X429295Y67138D01*
X429283Y67122D01*
X429267Y67110D01*
X429211Y67022D01*
X429151Y66939D01*
X429145Y66920D01*
X429134Y66903D01*
X429109Y66802D01*
X429079Y66703D01*
X429079Y66684D01*
X429074Y66664D01*
X429082Y66561D01*
X429085Y66458D01*
X429092Y66439D01*
X429093Y66419D01*
X429134Y66324D01*
X429169Y66227D01*
X429182Y66211D01*
X429190Y66193D01*
X429295Y66062D01*
X430125Y65232D01*
X430125Y53968D01*
X429295Y53138D01*
X429283Y53122D01*
X429267Y53110D01*
X429211Y53022D01*
X429151Y52939D01*
X429145Y52920D01*
X429134Y52903D01*
X429109Y52802D01*
X429079Y52703D01*
X429079Y52684D01*
X429074Y52664D01*
X429082Y52561D01*
X429085Y52458D01*
X429092Y52439D01*
X429093Y52419D01*
X429134Y52324D01*
X429169Y52227D01*
X429182Y52211D01*
X429190Y52193D01*
X429295Y52062D01*
X430125Y51232D01*
X430125Y39968D01*
X429232Y39075D01*
X403468Y39075D01*
G37*
%LPD*%
%LPC*%
G36*
X69318Y320225D02*
X69318Y320225D01*
X68425Y321118D01*
X68425Y337682D01*
X69318Y338575D01*
X73409Y338575D01*
X73429Y338578D01*
X73448Y338576D01*
X73550Y338598D01*
X73652Y338614D01*
X73669Y338624D01*
X73689Y338628D01*
X73778Y338681D01*
X73869Y338730D01*
X73883Y338744D01*
X73900Y338754D01*
X73967Y338833D01*
X74039Y338908D01*
X74047Y338926D01*
X74060Y338941D01*
X74099Y339037D01*
X74142Y339131D01*
X74144Y339151D01*
X74152Y339169D01*
X74170Y339336D01*
X74170Y339719D01*
X91809Y357358D01*
X101444Y357358D01*
X101464Y357361D01*
X101483Y357359D01*
X101585Y357381D01*
X101687Y357397D01*
X101704Y357407D01*
X101724Y357411D01*
X101813Y357464D01*
X101904Y357513D01*
X101918Y357527D01*
X101935Y357537D01*
X102002Y357616D01*
X102074Y357691D01*
X102082Y357709D01*
X102095Y357724D01*
X102134Y357820D01*
X102177Y357914D01*
X102179Y357934D01*
X102187Y357952D01*
X102205Y358119D01*
X102205Y362662D01*
X103098Y363555D01*
X119362Y363555D01*
X120255Y362662D01*
X120255Y348398D01*
X119362Y347505D01*
X103098Y347505D01*
X102205Y348398D01*
X102205Y349737D01*
X102202Y349757D01*
X102204Y349776D01*
X102182Y349878D01*
X102166Y349980D01*
X102156Y349997D01*
X102152Y350017D01*
X102099Y350106D01*
X102050Y350197D01*
X102036Y350211D01*
X102026Y350228D01*
X101947Y350295D01*
X101872Y350367D01*
X101854Y350375D01*
X101839Y350388D01*
X101743Y350427D01*
X101649Y350470D01*
X101629Y350472D01*
X101611Y350480D01*
X101444Y350498D01*
X94966Y350498D01*
X94876Y350484D01*
X94785Y350476D01*
X94755Y350464D01*
X94723Y350459D01*
X94643Y350416D01*
X94559Y350380D01*
X94527Y350354D01*
X94506Y350343D01*
X94484Y350320D01*
X94428Y350275D01*
X84027Y339874D01*
X83985Y339816D01*
X83935Y339764D01*
X83913Y339717D01*
X83883Y339675D01*
X83862Y339606D01*
X83832Y339541D01*
X83826Y339489D01*
X83811Y339439D01*
X83813Y339368D01*
X83805Y339297D01*
X83816Y339246D01*
X83817Y339194D01*
X83842Y339126D01*
X83857Y339056D01*
X83884Y339011D01*
X83902Y338963D01*
X83946Y338907D01*
X83983Y338845D01*
X84023Y338811D01*
X84055Y338771D01*
X84116Y338732D01*
X84170Y338685D01*
X84218Y338666D01*
X84262Y338638D01*
X84332Y338620D01*
X84398Y338593D01*
X84470Y338585D01*
X84501Y338577D01*
X84524Y338579D01*
X84565Y338575D01*
X85882Y338575D01*
X86775Y337682D01*
X86775Y321118D01*
X85882Y320225D01*
X69318Y320225D01*
G37*
%LPD*%
%LPC*%
G36*
X138468Y43175D02*
X138468Y43175D01*
X137575Y44068D01*
X137575Y60332D01*
X138468Y61225D01*
X152732Y61225D01*
X153625Y60332D01*
X153625Y57531D01*
X153628Y57511D01*
X153626Y57492D01*
X153648Y57390D01*
X153664Y57288D01*
X153674Y57271D01*
X153678Y57251D01*
X153731Y57162D01*
X153780Y57071D01*
X153794Y57057D01*
X153804Y57040D01*
X153883Y56973D01*
X153958Y56901D01*
X153976Y56893D01*
X153991Y56880D01*
X154087Y56841D01*
X154181Y56798D01*
X154201Y56796D01*
X154219Y56788D01*
X154386Y56770D01*
X219638Y56770D01*
X219728Y56784D01*
X219819Y56792D01*
X219848Y56804D01*
X219880Y56809D01*
X219961Y56852D01*
X220045Y56888D01*
X220077Y56914D01*
X220098Y56925D01*
X220120Y56948D01*
X220176Y56993D01*
X221830Y58647D01*
X226226Y58647D01*
X229335Y55538D01*
X229335Y51142D01*
X226226Y48033D01*
X221830Y48033D01*
X220176Y49687D01*
X220102Y49740D01*
X220032Y49800D01*
X220002Y49812D01*
X219976Y49831D01*
X219889Y49858D01*
X219804Y49892D01*
X219763Y49896D01*
X219741Y49903D01*
X219709Y49902D01*
X219638Y49910D01*
X154386Y49910D01*
X154366Y49907D01*
X154347Y49909D01*
X154245Y49887D01*
X154143Y49871D01*
X154126Y49861D01*
X154106Y49857D01*
X154017Y49804D01*
X153926Y49755D01*
X153912Y49741D01*
X153895Y49731D01*
X153828Y49652D01*
X153756Y49577D01*
X153748Y49559D01*
X153735Y49544D01*
X153696Y49448D01*
X153653Y49354D01*
X153651Y49334D01*
X153643Y49316D01*
X153625Y49149D01*
X153625Y44068D01*
X152732Y43175D01*
X138468Y43175D01*
G37*
%LPD*%
%LPC*%
G36*
X338168Y355175D02*
X338168Y355175D01*
X337275Y356068D01*
X337275Y370332D01*
X338168Y371225D01*
X347390Y371225D01*
X347480Y371239D01*
X347571Y371247D01*
X347601Y371259D01*
X347633Y371264D01*
X347713Y371307D01*
X347797Y371343D01*
X347829Y371369D01*
X347850Y371380D01*
X347872Y371403D01*
X347928Y371448D01*
X350623Y374143D01*
X368714Y374143D01*
X368734Y374146D01*
X368753Y374144D01*
X368855Y374166D01*
X368957Y374182D01*
X368974Y374192D01*
X368994Y374196D01*
X369083Y374249D01*
X369174Y374298D01*
X369188Y374312D01*
X369205Y374322D01*
X369272Y374401D01*
X369344Y374476D01*
X369352Y374494D01*
X369365Y374509D01*
X369404Y374605D01*
X369447Y374699D01*
X369449Y374719D01*
X369457Y374737D01*
X369475Y374904D01*
X369475Y379332D01*
X370368Y380225D01*
X385632Y380225D01*
X386525Y379332D01*
X386525Y366068D01*
X385632Y365175D01*
X370368Y365175D01*
X369475Y366068D01*
X369475Y366522D01*
X369472Y366542D01*
X369474Y366561D01*
X369452Y366663D01*
X369436Y366765D01*
X369426Y366782D01*
X369422Y366802D01*
X369369Y366891D01*
X369320Y366982D01*
X369306Y366996D01*
X369296Y367013D01*
X369217Y367080D01*
X369142Y367152D01*
X369124Y367160D01*
X369109Y367173D01*
X369013Y367212D01*
X368919Y367255D01*
X368899Y367257D01*
X368881Y367265D01*
X368714Y367283D01*
X356086Y367283D01*
X356066Y367280D01*
X356047Y367282D01*
X355945Y367260D01*
X355843Y367244D01*
X355826Y367234D01*
X355806Y367230D01*
X355717Y367177D01*
X355626Y367128D01*
X355612Y367114D01*
X355595Y367104D01*
X355528Y367025D01*
X355456Y366950D01*
X355448Y366932D01*
X355435Y366917D01*
X355396Y366821D01*
X355353Y366727D01*
X355351Y366707D01*
X355343Y366689D01*
X355325Y366522D01*
X355325Y356068D01*
X354432Y355175D01*
X338168Y355175D01*
G37*
%LPD*%
%LPC*%
G36*
X396468Y363775D02*
X396468Y363775D01*
X395575Y364668D01*
X395575Y377932D01*
X396468Y378825D01*
X398526Y378825D01*
X398546Y378828D01*
X398565Y378826D01*
X398667Y378848D01*
X398769Y378864D01*
X398786Y378874D01*
X398806Y378878D01*
X398895Y378931D01*
X398986Y378980D01*
X399000Y378994D01*
X399017Y379004D01*
X399084Y379083D01*
X399156Y379158D01*
X399164Y379176D01*
X399177Y379191D01*
X399216Y379287D01*
X399259Y379381D01*
X399261Y379401D01*
X399269Y379419D01*
X399287Y379586D01*
X399287Y391114D01*
X399284Y391134D01*
X399286Y391153D01*
X399264Y391255D01*
X399248Y391357D01*
X399238Y391374D01*
X399234Y391394D01*
X399181Y391483D01*
X399132Y391574D01*
X399118Y391588D01*
X399108Y391605D01*
X399029Y391672D01*
X398954Y391744D01*
X398936Y391752D01*
X398921Y391765D01*
X398825Y391804D01*
X398731Y391847D01*
X398711Y391849D01*
X398693Y391857D01*
X398526Y391875D01*
X394068Y391875D01*
X393175Y392768D01*
X393175Y409032D01*
X394068Y409925D01*
X408332Y409925D01*
X409225Y409032D01*
X409225Y392768D01*
X408332Y391875D01*
X406908Y391875D01*
X406888Y391872D01*
X406869Y391874D01*
X406767Y391852D01*
X406665Y391836D01*
X406648Y391826D01*
X406628Y391822D01*
X406539Y391769D01*
X406448Y391720D01*
X406434Y391706D01*
X406417Y391696D01*
X406350Y391617D01*
X406278Y391542D01*
X406270Y391524D01*
X406257Y391509D01*
X406218Y391413D01*
X406175Y391319D01*
X406173Y391299D01*
X406165Y391281D01*
X406147Y391114D01*
X406147Y379586D01*
X406150Y379566D01*
X406148Y379547D01*
X406170Y379445D01*
X406186Y379343D01*
X406196Y379326D01*
X406200Y379306D01*
X406253Y379217D01*
X406302Y379126D01*
X406316Y379112D01*
X406326Y379095D01*
X406405Y379028D01*
X406480Y378956D01*
X406498Y378948D01*
X406513Y378935D01*
X406609Y378896D01*
X406703Y378853D01*
X406723Y378851D01*
X406741Y378843D01*
X406908Y378825D01*
X411732Y378825D01*
X412625Y377932D01*
X412625Y364668D01*
X411732Y363775D01*
X396468Y363775D01*
G37*
%LPD*%
%LPC*%
G36*
X304468Y272675D02*
X304468Y272675D01*
X303575Y273568D01*
X303575Y275844D01*
X303572Y275864D01*
X303574Y275883D01*
X303552Y275985D01*
X303536Y276087D01*
X303526Y276104D01*
X303522Y276124D01*
X303469Y276213D01*
X303420Y276304D01*
X303406Y276318D01*
X303396Y276335D01*
X303317Y276402D01*
X303242Y276474D01*
X303224Y276482D01*
X303209Y276495D01*
X303113Y276534D01*
X303019Y276577D01*
X302999Y276579D01*
X302981Y276587D01*
X302814Y276605D01*
X290286Y276605D01*
X290266Y276602D01*
X290247Y276604D01*
X290145Y276582D01*
X290043Y276566D01*
X290026Y276556D01*
X290006Y276552D01*
X289917Y276499D01*
X289826Y276450D01*
X289812Y276436D01*
X289795Y276426D01*
X289728Y276347D01*
X289656Y276272D01*
X289648Y276254D01*
X289635Y276239D01*
X289596Y276143D01*
X289553Y276049D01*
X289551Y276029D01*
X289543Y276011D01*
X289525Y275844D01*
X289525Y274068D01*
X288632Y273175D01*
X272368Y273175D01*
X271475Y274068D01*
X271475Y288332D01*
X272368Y289225D01*
X288632Y289225D01*
X289525Y288332D01*
X289525Y284226D01*
X289528Y284208D01*
X289526Y284191D01*
X289526Y284189D01*
X289526Y284187D01*
X289548Y284085D01*
X289564Y283983D01*
X289574Y283966D01*
X289578Y283946D01*
X289631Y283857D01*
X289680Y283766D01*
X289694Y283752D01*
X289704Y283735D01*
X289783Y283668D01*
X289858Y283596D01*
X289876Y283588D01*
X289891Y283575D01*
X289987Y283536D01*
X290081Y283493D01*
X290101Y283491D01*
X290119Y283483D01*
X290286Y283465D01*
X302814Y283465D01*
X302834Y283468D01*
X302853Y283466D01*
X302955Y283488D01*
X303057Y283504D01*
X303074Y283514D01*
X303094Y283518D01*
X303183Y283571D01*
X303274Y283620D01*
X303288Y283634D01*
X303305Y283644D01*
X303372Y283723D01*
X303444Y283798D01*
X303452Y283816D01*
X303465Y283831D01*
X303504Y283927D01*
X303547Y284021D01*
X303549Y284041D01*
X303557Y284059D01*
X303575Y284226D01*
X303575Y286832D01*
X304468Y287725D01*
X311732Y287725D01*
X312625Y286832D01*
X312625Y273568D01*
X311732Y272675D01*
X304468Y272675D01*
G37*
%LPD*%
%LPC*%
G36*
X256068Y350175D02*
X256068Y350175D01*
X255175Y351068D01*
X255175Y367332D01*
X256068Y368225D01*
X270332Y368225D01*
X271225Y367332D01*
X271225Y364236D01*
X271228Y364216D01*
X271226Y364197D01*
X271248Y364095D01*
X271264Y363993D01*
X271274Y363976D01*
X271278Y363956D01*
X271331Y363867D01*
X271380Y363776D01*
X271394Y363762D01*
X271404Y363745D01*
X271483Y363678D01*
X271558Y363606D01*
X271576Y363598D01*
X271591Y363585D01*
X271687Y363546D01*
X271781Y363503D01*
X271801Y363501D01*
X271819Y363493D01*
X271986Y363475D01*
X283122Y363475D01*
X283142Y363478D01*
X283161Y363476D01*
X283263Y363498D01*
X283365Y363514D01*
X283382Y363524D01*
X283402Y363528D01*
X283491Y363581D01*
X283582Y363630D01*
X283596Y363644D01*
X283613Y363654D01*
X283680Y363733D01*
X283752Y363808D01*
X283760Y363826D01*
X283773Y363841D01*
X283812Y363937D01*
X283855Y364031D01*
X283857Y364051D01*
X283865Y364069D01*
X283883Y364236D01*
X283883Y367436D01*
X284776Y368329D01*
X291628Y368329D01*
X292521Y367436D01*
X292521Y353472D01*
X291628Y352579D01*
X284776Y352579D01*
X283883Y353472D01*
X283883Y355854D01*
X283880Y355874D01*
X283882Y355893D01*
X283860Y355995D01*
X283844Y356097D01*
X283834Y356114D01*
X283830Y356134D01*
X283777Y356223D01*
X283728Y356314D01*
X283714Y356328D01*
X283704Y356345D01*
X283625Y356412D01*
X283550Y356484D01*
X283532Y356492D01*
X283517Y356505D01*
X283421Y356544D01*
X283327Y356587D01*
X283307Y356589D01*
X283289Y356597D01*
X283122Y356615D01*
X271986Y356615D01*
X271966Y356612D01*
X271947Y356614D01*
X271845Y356592D01*
X271743Y356576D01*
X271726Y356566D01*
X271706Y356562D01*
X271617Y356509D01*
X271526Y356460D01*
X271512Y356446D01*
X271495Y356436D01*
X271428Y356357D01*
X271356Y356282D01*
X271348Y356264D01*
X271335Y356249D01*
X271296Y356153D01*
X271253Y356059D01*
X271251Y356039D01*
X271243Y356021D01*
X271225Y355854D01*
X271225Y351068D01*
X270332Y350175D01*
X256068Y350175D01*
G37*
%LPD*%
%LPC*%
G36*
X217563Y246301D02*
X217563Y246301D01*
X217554Y246318D01*
X217550Y246338D01*
X217497Y246427D01*
X217448Y246518D01*
X217434Y246532D01*
X217424Y246549D01*
X217345Y246616D01*
X217270Y246688D01*
X217252Y246696D01*
X217237Y246709D01*
X217140Y246748D01*
X217047Y246791D01*
X217027Y246793D01*
X217009Y246801D01*
X216842Y246819D01*
X207539Y246819D01*
X207539Y248654D01*
X207712Y249301D01*
X208047Y249880D01*
X208332Y250165D01*
X208385Y250239D01*
X208445Y250309D01*
X208457Y250339D01*
X208476Y250365D01*
X208503Y250452D01*
X208537Y250537D01*
X208541Y250578D01*
X208548Y250600D01*
X208547Y250632D01*
X208555Y250704D01*
X208555Y257056D01*
X208571Y257118D01*
X208601Y257216D01*
X208601Y257236D01*
X208606Y257256D01*
X208598Y257359D01*
X208595Y257462D01*
X208588Y257481D01*
X208587Y257501D01*
X208555Y257574D01*
X208555Y265056D01*
X208571Y265118D01*
X208601Y265216D01*
X208601Y265236D01*
X208606Y265256D01*
X208598Y265359D01*
X208595Y265462D01*
X208588Y265481D01*
X208587Y265501D01*
X208555Y265574D01*
X208555Y272952D01*
X209448Y273845D01*
X225712Y273845D01*
X226605Y272952D01*
X226605Y265584D01*
X226589Y265522D01*
X226559Y265423D01*
X226559Y265403D01*
X226554Y265384D01*
X226562Y265281D01*
X226565Y265178D01*
X226572Y265159D01*
X226573Y265139D01*
X226605Y265065D01*
X226605Y257584D01*
X226589Y257522D01*
X226559Y257423D01*
X226559Y257403D01*
X226554Y257384D01*
X226562Y257281D01*
X226565Y257178D01*
X226572Y257159D01*
X226573Y257139D01*
X226605Y257065D01*
X226605Y250704D01*
X226606Y250697D01*
X226606Y250696D01*
X226607Y250690D01*
X226619Y250614D01*
X226627Y250523D01*
X226639Y250493D01*
X226644Y250461D01*
X226687Y250380D01*
X226723Y250296D01*
X226749Y250264D01*
X226760Y250244D01*
X226783Y250221D01*
X226828Y250165D01*
X227113Y249880D01*
X227448Y249301D01*
X227621Y248654D01*
X227621Y246819D01*
X218318Y246819D01*
X218299Y246816D01*
X218279Y246818D01*
X218177Y246796D01*
X218075Y246780D01*
X218058Y246770D01*
X218038Y246766D01*
X217949Y246713D01*
X217858Y246664D01*
X217844Y246650D01*
X217827Y246640D01*
X217760Y246561D01*
X217689Y246486D01*
X217680Y246468D01*
X217667Y246453D01*
X217629Y246357D01*
X217585Y246263D01*
X217583Y246243D01*
X217576Y246225D01*
X217563Y246301D01*
G37*
%LPD*%
%LPC*%
G36*
X327895Y406495D02*
X327895Y406495D01*
X325298Y407571D01*
X325017Y407852D01*
X324943Y407905D01*
X324873Y407965D01*
X324843Y407977D01*
X324817Y407996D01*
X324730Y408023D01*
X324645Y408057D01*
X324604Y408061D01*
X324582Y408068D01*
X324550Y408067D01*
X324478Y408075D01*
X316668Y408075D01*
X315775Y408968D01*
X315775Y429232D01*
X316668Y430125D01*
X324478Y430125D01*
X324568Y430139D01*
X324659Y430147D01*
X324689Y430159D01*
X324721Y430164D01*
X324802Y430207D01*
X324886Y430243D01*
X324918Y430269D01*
X324938Y430280D01*
X324961Y430303D01*
X325017Y430348D01*
X325298Y430629D01*
X327895Y431705D01*
X330705Y431705D01*
X333302Y430629D01*
X333583Y430348D01*
X333657Y430295D01*
X333727Y430235D01*
X333757Y430223D01*
X333783Y430204D01*
X333870Y430177D01*
X333955Y430143D01*
X333996Y430139D01*
X334018Y430132D01*
X334050Y430133D01*
X334122Y430125D01*
X335932Y430125D01*
X336825Y429232D01*
X336825Y408968D01*
X335932Y408075D01*
X334122Y408075D01*
X334032Y408061D01*
X333941Y408053D01*
X333911Y408041D01*
X333879Y408036D01*
X333798Y407993D01*
X333714Y407957D01*
X333682Y407931D01*
X333662Y407920D01*
X333639Y407897D01*
X333583Y407852D01*
X333302Y407571D01*
X330705Y406495D01*
X327895Y406495D01*
G37*
%LPD*%
%LPC*%
G36*
X257895Y406495D02*
X257895Y406495D01*
X255298Y407571D01*
X255017Y407852D01*
X254943Y407905D01*
X254873Y407965D01*
X254843Y407977D01*
X254817Y407996D01*
X254730Y408023D01*
X254645Y408057D01*
X254604Y408061D01*
X254582Y408068D01*
X254550Y408067D01*
X254478Y408075D01*
X252668Y408075D01*
X251775Y408968D01*
X251775Y429232D01*
X252668Y430125D01*
X254478Y430125D01*
X254568Y430139D01*
X254659Y430147D01*
X254689Y430159D01*
X254721Y430164D01*
X254802Y430207D01*
X254886Y430243D01*
X254918Y430269D01*
X254938Y430280D01*
X254961Y430303D01*
X255017Y430348D01*
X255298Y430629D01*
X257895Y431705D01*
X260705Y431705D01*
X263302Y430629D01*
X263583Y430348D01*
X263657Y430295D01*
X263727Y430235D01*
X263757Y430223D01*
X263783Y430204D01*
X263870Y430177D01*
X263955Y430143D01*
X263996Y430139D01*
X264018Y430132D01*
X264050Y430133D01*
X264122Y430125D01*
X271932Y430125D01*
X272825Y429232D01*
X272825Y408968D01*
X271932Y408075D01*
X264122Y408075D01*
X264032Y408061D01*
X263941Y408053D01*
X263911Y408041D01*
X263879Y408036D01*
X263798Y407993D01*
X263714Y407957D01*
X263682Y407931D01*
X263662Y407920D01*
X263639Y407897D01*
X263583Y407852D01*
X263302Y407571D01*
X260705Y406495D01*
X257895Y406495D01*
G37*
%LPD*%
%LPC*%
G36*
X296168Y408075D02*
X296168Y408075D01*
X295275Y408968D01*
X295275Y429232D01*
X296168Y430125D01*
X312432Y430125D01*
X313325Y429232D01*
X313325Y408968D01*
X312432Y408075D01*
X296168Y408075D01*
G37*
%LPD*%
%LPC*%
G36*
X276168Y408075D02*
X276168Y408075D01*
X275275Y408968D01*
X275275Y429232D01*
X276168Y430125D01*
X292432Y430125D01*
X293325Y429232D01*
X293325Y408968D01*
X292432Y408075D01*
X276168Y408075D01*
G37*
%LPD*%
%LPC*%
G36*
X137015Y407733D02*
X137015Y407733D01*
X133001Y409396D01*
X129928Y412469D01*
X128265Y416483D01*
X128265Y420829D01*
X129928Y424843D01*
X133001Y427916D01*
X137015Y429579D01*
X141361Y429579D01*
X145375Y427916D01*
X148448Y424843D01*
X150111Y420829D01*
X150111Y416483D01*
X148448Y412469D01*
X145375Y409396D01*
X141361Y407733D01*
X137015Y407733D01*
G37*
%LPD*%
%LPC*%
G36*
X137015Y362521D02*
X137015Y362521D01*
X133001Y364184D01*
X129928Y367257D01*
X128265Y371271D01*
X128265Y375617D01*
X129928Y379631D01*
X133001Y382704D01*
X137015Y384367D01*
X141361Y384367D01*
X145375Y382704D01*
X148448Y379631D01*
X150111Y375617D01*
X150111Y371271D01*
X148448Y367257D01*
X145375Y364184D01*
X141361Y362521D01*
X137015Y362521D01*
G37*
%LPD*%
%LPC*%
G36*
X96167Y101517D02*
X96167Y101517D01*
X92153Y103180D01*
X89080Y106253D01*
X87417Y110267D01*
X87417Y114613D01*
X89080Y118627D01*
X92153Y121700D01*
X96167Y123363D01*
X100513Y123363D01*
X104527Y121700D01*
X107600Y118627D01*
X109263Y114613D01*
X109263Y110267D01*
X107600Y106253D01*
X104527Y103180D01*
X100513Y101517D01*
X96167Y101517D01*
G37*
%LPD*%
%LPC*%
G36*
X146967Y126917D02*
X146967Y126917D01*
X142953Y128580D01*
X139880Y131653D01*
X138217Y135667D01*
X138217Y140013D01*
X139880Y144027D01*
X142953Y147100D01*
X146967Y148763D01*
X151313Y148763D01*
X155327Y147100D01*
X158400Y144027D01*
X160063Y140013D01*
X160063Y135667D01*
X158400Y131653D01*
X155327Y128580D01*
X151313Y126917D01*
X146967Y126917D01*
G37*
%LPD*%
%LPC*%
G36*
X121567Y101517D02*
X121567Y101517D01*
X117553Y103180D01*
X114480Y106253D01*
X112817Y110267D01*
X112817Y114613D01*
X114480Y118627D01*
X117553Y121700D01*
X121567Y123363D01*
X125913Y123363D01*
X129927Y121700D01*
X133000Y118627D01*
X134663Y114613D01*
X134663Y110267D01*
X133000Y106253D01*
X129927Y103180D01*
X125913Y101517D01*
X121567Y101517D01*
G37*
%LPD*%
%LPC*%
G36*
X145518Y320225D02*
X145518Y320225D01*
X144625Y321118D01*
X144625Y337682D01*
X145518Y338575D01*
X162082Y338575D01*
X162975Y337682D01*
X162975Y321118D01*
X162082Y320225D01*
X145518Y320225D01*
G37*
%LPD*%
%LPC*%
G36*
X170918Y320225D02*
X170918Y320225D01*
X170025Y321118D01*
X170025Y337682D01*
X170918Y338575D01*
X187482Y338575D01*
X188375Y337682D01*
X188375Y321118D01*
X187482Y320225D01*
X170918Y320225D01*
G37*
%LPD*%
%LPC*%
G36*
X278966Y383059D02*
X278966Y383059D01*
X278319Y383232D01*
X277740Y383567D01*
X277267Y384040D01*
X276932Y384619D01*
X276759Y385266D01*
X276759Y385312D01*
X276748Y385383D01*
X276746Y385455D01*
X276728Y385504D01*
X276720Y385555D01*
X276686Y385618D01*
X276661Y385686D01*
X276629Y385726D01*
X276604Y385772D01*
X276552Y385822D01*
X276508Y385878D01*
X276464Y385906D01*
X276426Y385942D01*
X276361Y385972D01*
X276301Y386011D01*
X276250Y386023D01*
X276203Y386045D01*
X276132Y386053D01*
X276062Y386071D01*
X276010Y386067D01*
X275959Y386072D01*
X275888Y386057D01*
X275817Y386052D01*
X275769Y386031D01*
X275718Y386020D01*
X275657Y385983D01*
X275591Y385955D01*
X275535Y385910D01*
X275507Y385894D01*
X275492Y385876D01*
X275460Y385850D01*
X274271Y384661D01*
X271045Y383325D01*
X267555Y383325D01*
X264329Y384661D01*
X261861Y387129D01*
X260525Y390355D01*
X260525Y393845D01*
X261861Y397071D01*
X264329Y399539D01*
X267555Y400875D01*
X271045Y400875D01*
X274271Y399539D01*
X275460Y398350D01*
X275518Y398308D01*
X275570Y398258D01*
X275617Y398236D01*
X275659Y398206D01*
X275728Y398185D01*
X275793Y398155D01*
X275845Y398149D01*
X275895Y398134D01*
X275966Y398136D01*
X276037Y398128D01*
X276088Y398139D01*
X276140Y398140D01*
X276208Y398165D01*
X276278Y398180D01*
X276323Y398207D01*
X276371Y398225D01*
X276427Y398269D01*
X276489Y398306D01*
X276523Y398346D01*
X276563Y398378D01*
X276602Y398439D01*
X276649Y398493D01*
X276668Y398541D01*
X276696Y398585D01*
X276714Y398655D01*
X276741Y398721D01*
X276749Y398793D01*
X276757Y398824D01*
X276755Y398847D01*
X276759Y398888D01*
X276759Y399434D01*
X276932Y400081D01*
X277267Y400660D01*
X277740Y401133D01*
X278319Y401468D01*
X278966Y401641D01*
X280301Y401641D01*
X280301Y392588D01*
X280304Y392569D01*
X280302Y392549D01*
X280324Y392447D01*
X280340Y392345D01*
X280341Y392344D01*
X280329Y392317D01*
X280327Y392297D01*
X280319Y392279D01*
X280301Y392112D01*
X280301Y383059D01*
X278966Y383059D01*
G37*
%LPD*%
%LPC*%
G36*
X296923Y146859D02*
X296923Y146859D01*
X296923Y160127D01*
X307877Y160127D01*
X307877Y146859D01*
X304066Y146859D01*
X303419Y147032D01*
X302781Y147401D01*
X302717Y147425D01*
X302658Y147458D01*
X302603Y147468D01*
X302551Y147488D01*
X302483Y147491D01*
X302417Y147503D01*
X302361Y147495D01*
X302305Y147497D01*
X302240Y147478D01*
X302173Y147469D01*
X302100Y147437D01*
X302069Y147427D01*
X302052Y147415D01*
X302019Y147401D01*
X301381Y147032D01*
X300734Y146859D01*
X296923Y146859D01*
G37*
%LPD*%
%LPC*%
G36*
X417873Y145123D02*
X417873Y145123D01*
X417873Y151141D01*
X428934Y151141D01*
X429581Y150968D01*
X430160Y150633D01*
X430633Y150160D01*
X430968Y149581D01*
X431141Y148934D01*
X431141Y145123D01*
X417873Y145123D01*
G37*
%LPD*%
%LPC*%
G36*
X394923Y29073D02*
X394923Y29073D01*
X394923Y42341D01*
X398735Y42341D01*
X399381Y42168D01*
X399960Y41833D01*
X400433Y41360D01*
X400768Y40781D01*
X400941Y40134D01*
X400941Y29073D01*
X394923Y29073D01*
G37*
%LPD*%
%LPC*%
G36*
X401559Y145123D02*
X401559Y145123D01*
X401559Y148934D01*
X401732Y149581D01*
X402067Y150160D01*
X402540Y150633D01*
X403119Y150968D01*
X403766Y151141D01*
X414827Y151141D01*
X414827Y145123D01*
X401559Y145123D01*
G37*
%LPD*%
%LPC*%
G36*
X290066Y146859D02*
X290066Y146859D01*
X289419Y147032D01*
X288840Y147367D01*
X288367Y147840D01*
X288032Y148419D01*
X287859Y149066D01*
X287859Y160127D01*
X293877Y160127D01*
X293877Y146859D01*
X290066Y146859D01*
G37*
%LPD*%
%LPC*%
G36*
X205735Y374967D02*
X205735Y374967D01*
X205735Y385290D01*
X207008Y385089D01*
X208795Y384508D01*
X210469Y383655D01*
X211990Y382550D01*
X213318Y381222D01*
X214423Y379701D01*
X215276Y378027D01*
X215857Y376240D01*
X216058Y374967D01*
X205735Y374967D01*
G37*
%LPD*%
%LPC*%
G36*
X150663Y113963D02*
X150663Y113963D01*
X150663Y124286D01*
X151936Y124085D01*
X153723Y123504D01*
X155397Y122651D01*
X156918Y121546D01*
X158246Y120218D01*
X159351Y118697D01*
X160204Y117023D01*
X160785Y115236D01*
X160986Y113963D01*
X150663Y113963D01*
G37*
%LPD*%
%LPC*%
G36*
X137294Y113963D02*
X137294Y113963D01*
X137495Y115236D01*
X138076Y117023D01*
X138929Y118697D01*
X140034Y120218D01*
X141362Y121546D01*
X142883Y122651D01*
X144557Y123504D01*
X146344Y124085D01*
X147617Y124286D01*
X147617Y113963D01*
X137294Y113963D01*
G37*
%LPD*%
%LPC*%
G36*
X192366Y374967D02*
X192366Y374967D01*
X192567Y376240D01*
X193148Y378027D01*
X194001Y379701D01*
X195106Y381222D01*
X196434Y382550D01*
X197955Y383655D01*
X199629Y384508D01*
X201416Y385089D01*
X202689Y385290D01*
X202689Y374967D01*
X192366Y374967D01*
G37*
%LPD*%
%LPC*%
G36*
X205735Y371921D02*
X205735Y371921D01*
X216058Y371921D01*
X215857Y370648D01*
X215276Y368861D01*
X214423Y367187D01*
X213318Y365666D01*
X211990Y364338D01*
X210469Y363233D01*
X208795Y362380D01*
X207008Y361799D01*
X205735Y361598D01*
X205735Y371921D01*
G37*
%LPD*%
%LPC*%
G36*
X150663Y110917D02*
X150663Y110917D01*
X160986Y110917D01*
X160785Y109644D01*
X160204Y107857D01*
X159351Y106183D01*
X158246Y104662D01*
X156918Y103334D01*
X155397Y102229D01*
X153723Y101376D01*
X151936Y100795D01*
X150663Y100594D01*
X150663Y110917D01*
G37*
%LPD*%
%LPC*%
G36*
X201416Y361799D02*
X201416Y361799D01*
X199629Y362380D01*
X197955Y363233D01*
X196434Y364338D01*
X195106Y365666D01*
X194001Y367187D01*
X193148Y368861D01*
X192567Y370648D01*
X192366Y371921D01*
X202689Y371921D01*
X202689Y361598D01*
X201416Y361799D01*
G37*
%LPD*%
%LPC*%
G36*
X146344Y100795D02*
X146344Y100795D01*
X144557Y101376D01*
X142883Y102229D01*
X141362Y103334D01*
X140034Y104662D01*
X138929Y106183D01*
X138076Y107857D01*
X137495Y109644D01*
X137294Y110917D01*
X147617Y110917D01*
X147617Y100594D01*
X146344Y100795D01*
G37*
%LPD*%
%LPC*%
G36*
X206123Y330923D02*
X206123Y330923D01*
X206123Y339591D01*
X212584Y339591D01*
X213231Y339418D01*
X213810Y339083D01*
X214283Y338610D01*
X214618Y338031D01*
X214791Y337384D01*
X214791Y330923D01*
X206123Y330923D01*
G37*
%LPD*%
%LPC*%
G36*
X194409Y330923D02*
X194409Y330923D01*
X194409Y337384D01*
X194582Y338031D01*
X194917Y338610D01*
X195390Y339083D01*
X195969Y339418D01*
X196616Y339591D01*
X203077Y339591D01*
X203077Y330923D01*
X194409Y330923D01*
G37*
%LPD*%
%LPC*%
G36*
X206123Y319209D02*
X206123Y319209D01*
X206123Y327877D01*
X214791Y327877D01*
X214791Y321416D01*
X214618Y320769D01*
X214283Y320190D01*
X213810Y319717D01*
X213231Y319382D01*
X212584Y319209D01*
X206123Y319209D01*
G37*
%LPD*%
%LPC*%
G36*
X196616Y319209D02*
X196616Y319209D01*
X195969Y319382D01*
X195390Y319717D01*
X194917Y320190D01*
X194582Y320769D01*
X194409Y321416D01*
X194409Y327877D01*
X203077Y327877D01*
X203077Y319209D01*
X196616Y319209D01*
G37*
%LPD*%
%LPC*%
G36*
X383723Y402423D02*
X383723Y402423D01*
X383723Y410941D01*
X389034Y410941D01*
X389681Y410768D01*
X390260Y410433D01*
X390733Y409960D01*
X391068Y409381D01*
X391241Y408734D01*
X391241Y402423D01*
X383723Y402423D01*
G37*
%LPD*%
%LPC*%
G36*
X277223Y205323D02*
X277223Y205323D01*
X277223Y212841D01*
X283534Y212841D01*
X284181Y212668D01*
X284760Y212333D01*
X285233Y211860D01*
X285568Y211281D01*
X285741Y210634D01*
X285741Y205323D01*
X277223Y205323D01*
G37*
%LPD*%
%LPC*%
G36*
X245723Y360723D02*
X245723Y360723D01*
X245723Y369241D01*
X251034Y369241D01*
X251681Y369068D01*
X252260Y368733D01*
X252733Y368260D01*
X253068Y367681D01*
X253241Y367034D01*
X253241Y360723D01*
X245723Y360723D01*
G37*
%LPD*%
%LPC*%
G36*
X247923Y204223D02*
X247923Y204223D01*
X247923Y211741D01*
X254234Y211741D01*
X254881Y211568D01*
X255460Y211233D01*
X255933Y210760D01*
X256268Y210181D01*
X256441Y209534D01*
X256441Y204223D01*
X247923Y204223D01*
G37*
%LPD*%
%LPC*%
G36*
X282023Y301723D02*
X282023Y301723D01*
X282023Y309241D01*
X288334Y309241D01*
X288981Y309068D01*
X289560Y308733D01*
X290033Y308260D01*
X290368Y307681D01*
X290541Y307034D01*
X290541Y301723D01*
X282023Y301723D01*
G37*
%LPD*%
%LPC*%
G36*
X128123Y53723D02*
X128123Y53723D01*
X128123Y62241D01*
X133434Y62241D01*
X134081Y62068D01*
X134660Y61733D01*
X135133Y61260D01*
X135468Y60681D01*
X135641Y60034D01*
X135641Y53723D01*
X128123Y53723D01*
G37*
%LPD*%
%LPC*%
G36*
X80113Y185653D02*
X80113Y185653D01*
X80113Y193171D01*
X86424Y193171D01*
X87071Y192998D01*
X87650Y192663D01*
X88123Y192190D01*
X88458Y191611D01*
X88631Y190964D01*
X88631Y185653D01*
X80113Y185653D01*
G37*
%LPD*%
%LPC*%
G36*
X79693Y264823D02*
X79693Y264823D01*
X79693Y272341D01*
X86004Y272341D01*
X86651Y272168D01*
X87230Y271833D01*
X87703Y271360D01*
X88038Y270781D01*
X88211Y270134D01*
X88211Y264823D01*
X79693Y264823D01*
G37*
%LPD*%
%LPC*%
G36*
X92959Y250223D02*
X92959Y250223D01*
X92959Y255534D01*
X93132Y256181D01*
X93467Y256760D01*
X93940Y257233D01*
X94519Y257568D01*
X95166Y257741D01*
X101477Y257741D01*
X101477Y250223D01*
X92959Y250223D01*
G37*
%LPD*%
%LPC*%
G36*
X236359Y204223D02*
X236359Y204223D01*
X236359Y209534D01*
X236532Y210181D01*
X236867Y210760D01*
X237340Y211233D01*
X237919Y211568D01*
X238566Y211741D01*
X244877Y211741D01*
X244877Y204223D01*
X236359Y204223D01*
G37*
%LPD*%
%LPC*%
G36*
X383723Y390859D02*
X383723Y390859D01*
X383723Y399377D01*
X391241Y399377D01*
X391241Y393066D01*
X391068Y392419D01*
X390733Y391840D01*
X390260Y391367D01*
X389681Y391032D01*
X389034Y390859D01*
X383723Y390859D01*
G37*
%LPD*%
%LPC*%
G36*
X265659Y205323D02*
X265659Y205323D01*
X265659Y210634D01*
X265832Y211281D01*
X266167Y211860D01*
X266640Y212333D01*
X267219Y212668D01*
X267866Y212841D01*
X274177Y212841D01*
X274177Y205323D01*
X265659Y205323D01*
G37*
%LPD*%
%LPC*%
G36*
X68549Y185653D02*
X68549Y185653D01*
X68549Y190964D01*
X68722Y191611D01*
X69057Y192190D01*
X69530Y192663D01*
X70109Y192998D01*
X70756Y193171D01*
X77067Y193171D01*
X77067Y185653D01*
X68549Y185653D01*
G37*
%LPD*%
%LPC*%
G36*
X270459Y301723D02*
X270459Y301723D01*
X270459Y307034D01*
X270632Y307681D01*
X270967Y308260D01*
X271440Y308733D01*
X272019Y309068D01*
X272666Y309241D01*
X278977Y309241D01*
X278977Y301723D01*
X270459Y301723D01*
G37*
%LPD*%
%LPC*%
G36*
X245723Y349159D02*
X245723Y349159D01*
X245723Y357677D01*
X253241Y357677D01*
X253241Y351366D01*
X253068Y350719D01*
X252733Y350140D01*
X252260Y349667D01*
X251681Y349332D01*
X251034Y349159D01*
X245723Y349159D01*
G37*
%LPD*%
%LPC*%
G36*
X128123Y42159D02*
X128123Y42159D01*
X128123Y50677D01*
X135641Y50677D01*
X135641Y44366D01*
X135468Y43719D01*
X135133Y43140D01*
X134660Y42667D01*
X134081Y42332D01*
X133434Y42159D01*
X128123Y42159D01*
G37*
%LPD*%
%LPC*%
G36*
X68129Y264823D02*
X68129Y264823D01*
X68129Y270134D01*
X68302Y270781D01*
X68637Y271360D01*
X69110Y271833D01*
X69689Y272168D01*
X70336Y272341D01*
X76647Y272341D01*
X76647Y264823D01*
X68129Y264823D01*
G37*
%LPD*%
%LPC*%
G36*
X282023Y291159D02*
X282023Y291159D01*
X282023Y298677D01*
X290541Y298677D01*
X290541Y293366D01*
X290368Y292719D01*
X290033Y292140D01*
X289560Y291667D01*
X288981Y291332D01*
X288334Y291159D01*
X282023Y291159D01*
G37*
%LPD*%
%LPC*%
G36*
X235159Y360723D02*
X235159Y360723D01*
X235159Y367034D01*
X235332Y367681D01*
X235667Y368260D01*
X236140Y368733D01*
X236719Y369068D01*
X237366Y369241D01*
X242677Y369241D01*
X242677Y360723D01*
X235159Y360723D01*
G37*
%LPD*%
%LPC*%
G36*
X277223Y194759D02*
X277223Y194759D01*
X277223Y202277D01*
X285741Y202277D01*
X285741Y196966D01*
X285568Y196319D01*
X285233Y195740D01*
X284760Y195267D01*
X284181Y194932D01*
X283534Y194759D01*
X277223Y194759D01*
G37*
%LPD*%
%LPC*%
G36*
X247923Y193659D02*
X247923Y193659D01*
X247923Y201177D01*
X256441Y201177D01*
X256441Y195866D01*
X256268Y195219D01*
X255933Y194640D01*
X255460Y194167D01*
X254881Y193832D01*
X254234Y193659D01*
X247923Y193659D01*
G37*
%LPD*%
%LPC*%
G36*
X80113Y175089D02*
X80113Y175089D01*
X80113Y182607D01*
X88631Y182607D01*
X88631Y177296D01*
X88458Y176649D01*
X88123Y176070D01*
X87650Y175597D01*
X87071Y175262D01*
X86424Y175089D01*
X80113Y175089D01*
G37*
%LPD*%
%LPC*%
G36*
X79693Y254259D02*
X79693Y254259D01*
X79693Y261777D01*
X88211Y261777D01*
X88211Y256466D01*
X88038Y255819D01*
X87703Y255240D01*
X87230Y254767D01*
X86651Y254432D01*
X86004Y254259D01*
X79693Y254259D01*
G37*
%LPD*%
%LPC*%
G36*
X117559Y53723D02*
X117559Y53723D01*
X117559Y60034D01*
X117732Y60681D01*
X118067Y61260D01*
X118540Y61733D01*
X119119Y62068D01*
X119766Y62241D01*
X125077Y62241D01*
X125077Y53723D01*
X117559Y53723D01*
G37*
%LPD*%
%LPC*%
G36*
X373159Y402423D02*
X373159Y402423D01*
X373159Y408734D01*
X373332Y409381D01*
X373667Y409960D01*
X374140Y410433D01*
X374719Y410768D01*
X375366Y410941D01*
X380677Y410941D01*
X380677Y402423D01*
X373159Y402423D01*
G37*
%LPD*%
%LPC*%
G36*
X375366Y390859D02*
X375366Y390859D01*
X374719Y391032D01*
X374140Y391367D01*
X373667Y391840D01*
X373332Y392419D01*
X373159Y393066D01*
X373159Y399377D01*
X380677Y399377D01*
X380677Y390859D01*
X375366Y390859D01*
G37*
%LPD*%
%LPC*%
G36*
X237366Y349159D02*
X237366Y349159D01*
X236719Y349332D01*
X236140Y349667D01*
X235667Y350140D01*
X235332Y350719D01*
X235159Y351366D01*
X235159Y357677D01*
X242677Y357677D01*
X242677Y349159D01*
X237366Y349159D01*
G37*
%LPD*%
%LPC*%
G36*
X267866Y194759D02*
X267866Y194759D01*
X267219Y194932D01*
X266640Y195267D01*
X266167Y195740D01*
X265832Y196319D01*
X265659Y196966D01*
X265659Y202277D01*
X274177Y202277D01*
X274177Y194759D01*
X267866Y194759D01*
G37*
%LPD*%
%LPC*%
G36*
X238566Y193659D02*
X238566Y193659D01*
X237919Y193832D01*
X237340Y194167D01*
X236867Y194640D01*
X236532Y195219D01*
X236359Y195866D01*
X236359Y201177D01*
X244877Y201177D01*
X244877Y193659D01*
X238566Y193659D01*
G37*
%LPD*%
%LPC*%
G36*
X70756Y175089D02*
X70756Y175089D01*
X70109Y175262D01*
X69530Y175597D01*
X69057Y176070D01*
X68722Y176649D01*
X68549Y177296D01*
X68549Y182607D01*
X77067Y182607D01*
X77067Y175089D01*
X70756Y175089D01*
G37*
%LPD*%
%LPC*%
G36*
X272666Y291159D02*
X272666Y291159D01*
X272019Y291332D01*
X271440Y291667D01*
X270967Y292140D01*
X270632Y292719D01*
X270459Y293366D01*
X270459Y298677D01*
X278977Y298677D01*
X278977Y291159D01*
X272666Y291159D01*
G37*
%LPD*%
%LPC*%
G36*
X95166Y239659D02*
X95166Y239659D01*
X94519Y239832D01*
X93940Y240167D01*
X93467Y240640D01*
X93132Y241219D01*
X92959Y241866D01*
X92959Y247177D01*
X101477Y247177D01*
X101477Y239659D01*
X95166Y239659D01*
G37*
%LPD*%
%LPC*%
G36*
X70336Y254259D02*
X70336Y254259D01*
X69689Y254432D01*
X69110Y254767D01*
X68637Y255240D01*
X68302Y255819D01*
X68129Y256466D01*
X68129Y261777D01*
X76647Y261777D01*
X76647Y254259D01*
X70336Y254259D01*
G37*
%LPD*%
%LPC*%
G36*
X119766Y42159D02*
X119766Y42159D01*
X119119Y42332D01*
X118540Y42667D01*
X118067Y43140D01*
X117732Y43719D01*
X117559Y44366D01*
X117559Y50677D01*
X125077Y50677D01*
X125077Y42159D01*
X119766Y42159D01*
G37*
%LPD*%
%LPC*%
G36*
X422923Y218023D02*
X422923Y218023D01*
X422923Y227042D01*
X425767Y227042D01*
X431942Y220867D01*
X431942Y218023D01*
X422923Y218023D01*
G37*
%LPD*%
%LPC*%
G36*
X404723Y296023D02*
X404723Y296023D01*
X404723Y305042D01*
X407567Y305042D01*
X413742Y298867D01*
X413742Y296023D01*
X404723Y296023D01*
G37*
%LPD*%
%LPC*%
G36*
X410858Y218023D02*
X410858Y218023D01*
X410858Y220867D01*
X417033Y227042D01*
X419877Y227042D01*
X419877Y218023D01*
X410858Y218023D01*
G37*
%LPD*%
%LPC*%
G36*
X392658Y296023D02*
X392658Y296023D01*
X392658Y298867D01*
X398833Y305042D01*
X401677Y305042D01*
X401677Y296023D01*
X392658Y296023D01*
G37*
%LPD*%
%LPC*%
G36*
X404723Y283958D02*
X404723Y283958D01*
X404723Y292977D01*
X413742Y292977D01*
X413742Y290133D01*
X407567Y283958D01*
X404723Y283958D01*
G37*
%LPD*%
%LPC*%
G36*
X422923Y205958D02*
X422923Y205958D01*
X422923Y214977D01*
X431942Y214977D01*
X431942Y212133D01*
X425767Y205958D01*
X422923Y205958D01*
G37*
%LPD*%
%LPC*%
G36*
X417033Y205958D02*
X417033Y205958D01*
X410858Y212133D01*
X410858Y214977D01*
X419877Y214977D01*
X419877Y205958D01*
X417033Y205958D01*
G37*
%LPD*%
%LPC*%
G36*
X398833Y283958D02*
X398833Y283958D01*
X392658Y290133D01*
X392658Y292977D01*
X401677Y292977D01*
X401677Y283958D01*
X398833Y283958D01*
G37*
%LPD*%
%LPC*%
G36*
X204211Y373443D02*
X204211Y373443D01*
X204211Y373445D01*
X204213Y373445D01*
X204213Y373443D01*
X204211Y373443D01*
G37*
%LPD*%
%LPC*%
G36*
X421399Y216499D02*
X421399Y216499D01*
X421399Y216501D01*
X421401Y216501D01*
X421401Y216499D01*
X421399Y216499D01*
G37*
%LPD*%
%LPC*%
G36*
X403199Y294499D02*
X403199Y294499D01*
X403199Y294501D01*
X403201Y294501D01*
X403201Y294499D01*
X403199Y294499D01*
G37*
%LPD*%
%LPC*%
G36*
X149139Y112439D02*
X149139Y112439D01*
X149139Y112441D01*
X149141Y112441D01*
X149141Y112439D01*
X149139Y112439D01*
G37*
%LPD*%
%LPC*%
G36*
X204599Y329399D02*
X204599Y329399D01*
X204599Y329401D01*
X204601Y329401D01*
X204601Y329399D01*
X204599Y329399D01*
G37*
%LPD*%
%LPC*%
G36*
X78169Y263299D02*
X78169Y263299D01*
X78169Y263301D01*
X78171Y263301D01*
X78171Y263299D01*
X78169Y263299D01*
G37*
%LPD*%
%LPC*%
G36*
X382199Y400899D02*
X382199Y400899D01*
X382199Y400901D01*
X382201Y400901D01*
X382201Y400899D01*
X382199Y400899D01*
G37*
%LPD*%
%LPC*%
G36*
X280499Y300199D02*
X280499Y300199D01*
X280499Y300201D01*
X280501Y300201D01*
X280501Y300199D01*
X280499Y300199D01*
G37*
%LPD*%
%LPC*%
G36*
X244199Y359199D02*
X244199Y359199D01*
X244199Y359201D01*
X244201Y359201D01*
X244201Y359199D01*
X244199Y359199D01*
G37*
%LPD*%
%LPC*%
G36*
X126599Y52199D02*
X126599Y52199D01*
X126599Y52201D01*
X126601Y52201D01*
X126601Y52199D01*
X126599Y52199D01*
G37*
%LPD*%
%LPC*%
G36*
X246399Y202699D02*
X246399Y202699D01*
X246399Y202701D01*
X246401Y202701D01*
X246401Y202699D01*
X246399Y202699D01*
G37*
%LPD*%
%LPC*%
G36*
X275699Y203799D02*
X275699Y203799D01*
X275699Y203801D01*
X275701Y203801D01*
X275701Y203799D01*
X275699Y203799D01*
G37*
%LPD*%
%LPC*%
G36*
X78589Y184129D02*
X78589Y184129D01*
X78589Y184131D01*
X78591Y184131D01*
X78591Y184129D01*
X78589Y184129D01*
G37*
%LPD*%
D10*
X78170Y244300D03*
X78170Y263300D03*
X78590Y203130D03*
X78590Y184130D03*
X111230Y355530D03*
X111230Y374530D03*
D11*
X132580Y269320D03*
X132580Y261320D03*
X132580Y253320D03*
X132580Y245320D03*
X132580Y237320D03*
X132580Y229320D03*
X132580Y221320D03*
X132580Y213320D03*
D12*
X147080Y198820D03*
X155080Y198820D03*
X163080Y198820D03*
X171080Y198820D03*
X179080Y198820D03*
X187080Y198820D03*
X195080Y198820D03*
X203080Y198820D03*
D11*
X217580Y213320D03*
X217580Y221320D03*
X217580Y229320D03*
X217580Y237320D03*
X217580Y245320D03*
X217580Y253320D03*
X217580Y261320D03*
X217580Y269320D03*
D12*
X203080Y283820D03*
X195080Y283820D03*
X187080Y283820D03*
X179080Y283820D03*
X171080Y283820D03*
X163080Y283820D03*
X155080Y283820D03*
X147080Y283820D03*
D13*
X98340Y137840D03*
X98340Y112440D03*
X123740Y137840D03*
X123740Y112440D03*
X149140Y137840D03*
X149140Y112440D03*
D14*
X32400Y277990D03*
X32400Y181470D03*
D10*
X35900Y343900D03*
X35900Y324900D03*
D13*
X204212Y373444D03*
X139188Y373444D03*
X204212Y418656D03*
X139188Y418656D03*
D15*
X204600Y329400D03*
X179200Y329400D03*
X153800Y329400D03*
X128400Y329400D03*
X103000Y329400D03*
X77600Y329400D03*
D16*
X295400Y27550D03*
X309400Y27550D03*
X323400Y27550D03*
X337400Y27550D03*
X351400Y27550D03*
X365400Y27550D03*
X379400Y27550D03*
X393400Y27550D03*
D17*
X416350Y45600D03*
X416350Y59600D03*
X416350Y73600D03*
X416350Y87600D03*
X416350Y101600D03*
X416350Y115600D03*
X416350Y129600D03*
X416350Y143600D03*
D16*
X393400Y161650D03*
X379400Y161650D03*
X365400Y161650D03*
X351400Y161650D03*
X337400Y161650D03*
X323400Y161650D03*
X309400Y161650D03*
X295400Y161650D03*
D18*
X126600Y52200D03*
X145600Y52200D03*
D10*
X103000Y267700D03*
X103000Y248700D03*
X246400Y221700D03*
X246400Y202700D03*
D19*
X327100Y305200D03*
X317600Y305200D03*
X308100Y305200D03*
X308100Y280200D03*
X327100Y280200D03*
D10*
X280500Y281200D03*
X280500Y300200D03*
X275700Y222800D03*
X275700Y203800D03*
D20*
X319300Y392100D03*
X269300Y392100D03*
D21*
X307300Y392350D03*
X300800Y392350D03*
X294300Y392350D03*
X287800Y392350D03*
X281300Y392350D03*
D22*
X304300Y419100D03*
X284300Y419100D03*
D23*
X326300Y419100D03*
X262300Y419100D03*
D24*
X329300Y424640D02*
X329300Y413560D01*
X259300Y413560D02*
X259300Y424640D01*
D25*
X288202Y334546D03*
X297600Y334546D03*
X306998Y334546D03*
X306998Y360454D03*
X288202Y360454D03*
D26*
X403200Y294500D03*
D27*
X377800Y294500D03*
D26*
X421400Y216500D03*
D27*
X396000Y216500D03*
D10*
X346300Y363200D03*
X346300Y344200D03*
D18*
X263200Y359200D03*
X244200Y359200D03*
D28*
X378000Y372700D03*
X378000Y342700D03*
X404100Y341300D03*
X404100Y371300D03*
D18*
X401200Y400900D03*
X382200Y400900D03*
D29*
X272000Y168000D03*
X298000Y196000D03*
X372000Y186000D03*
D30*
X141351Y229362D02*
X133350Y229362D01*
X143685Y229696D02*
X146018Y232029D01*
X146018Y242697D01*
X143351Y245364D01*
X133350Y245364D01*
X133350Y229362D02*
X132580Y229320D01*
X132580Y245320D02*
X133350Y245364D01*
X118015Y260365D02*
X110680Y267700D01*
X118015Y260365D02*
X118015Y250031D01*
X122682Y245364D01*
X130683Y245364D01*
X110680Y267700D02*
X103000Y267700D01*
X130683Y245364D02*
X132580Y245320D01*
X103000Y270380D02*
X48480Y324900D01*
X35900Y324900D01*
X103000Y270380D02*
X103000Y267700D01*
X352044Y26670D02*
X365379Y26670D01*
X352044Y26670D02*
X351400Y27550D01*
X365400Y27550D02*
X365379Y26670D01*
X327041Y280141D02*
X327100Y280200D01*
X327041Y280141D02*
X327041Y269956D01*
X275700Y231830D01*
X275700Y222800D01*
X246200Y221361D02*
X218694Y221361D01*
X217580Y221320D01*
X246200Y221361D02*
X246400Y221700D01*
X275700Y221700D02*
X275700Y222800D01*
X275700Y221700D02*
X246400Y221700D01*
X366046Y27335D02*
X366046Y14002D01*
X373380Y6668D01*
X415384Y6668D01*
X440054Y31338D01*
X440054Y154019D01*
X395273Y198800D01*
X365400Y27550D02*
X366046Y27335D01*
X395273Y198800D02*
X319700Y198800D01*
X295700Y222800D01*
X275700Y222800D01*
X206525Y222862D02*
X150518Y222862D01*
X206525Y222862D02*
X208026Y221361D01*
X216027Y221361D01*
X150518Y222862D02*
X143685Y229696D01*
X216027Y221361D02*
X217580Y221320D01*
D31*
X143309Y229320D02*
X132580Y229320D01*
X143309Y229320D02*
X146018Y232029D01*
X217580Y213320D02*
X220027Y210873D01*
X220027Y196024D01*
X351377Y161631D02*
X351377Y147352D01*
X344043Y140018D01*
X351377Y161631D02*
X351400Y161650D01*
D29*
X220027Y196024D03*
X344043Y140018D03*
D31*
X203359Y194024D02*
X203359Y198641D01*
X203359Y194024D02*
X218694Y178689D01*
X357378Y178689D01*
X365379Y170688D01*
X365379Y162687D01*
X203359Y198641D02*
X203080Y198820D01*
X365379Y162687D02*
X365400Y161650D01*
X104013Y138684D02*
X98679Y138684D01*
X104013Y138684D02*
X149352Y184023D01*
X168021Y184023D01*
X197358Y213360D02*
X202692Y208026D01*
X202692Y200025D01*
X98679Y138684D02*
X98340Y137840D01*
X203080Y198820D02*
X202692Y200025D01*
D29*
X168021Y184023D03*
X197358Y213360D03*
D31*
X194691Y197358D02*
X194691Y185357D01*
X209361Y172687D02*
X262032Y120016D01*
X209361Y172687D02*
X208026Y172687D01*
X207361Y172687D01*
X194691Y185357D01*
X262032Y120016D02*
X366711Y120016D01*
X378714Y132019D01*
X378714Y160020D01*
X195080Y198820D02*
X194691Y197358D01*
X378714Y160020D02*
X379400Y161650D01*
D29*
X208026Y172687D03*
D31*
X186690Y179355D02*
X186690Y197358D01*
X186690Y179355D02*
X255363Y110682D01*
X380712Y110682D01*
X392049Y122019D01*
X392049Y160020D01*
X187080Y198820D02*
X186690Y197358D01*
X392049Y160020D02*
X393400Y161650D01*
X125349Y205359D02*
X80677Y205359D01*
X125349Y205359D02*
X130683Y210693D01*
X80677Y205359D02*
X78590Y203130D01*
X130683Y210693D02*
X132580Y213320D01*
X78010Y202692D02*
X56007Y202692D01*
X36170Y182855D01*
X78010Y202692D02*
X78590Y203130D01*
X36170Y182855D02*
X32400Y181470D01*
X65342Y245364D02*
X78010Y245364D01*
X65342Y245364D02*
X32716Y277990D01*
X78010Y245364D02*
X78170Y244300D01*
X32716Y277990D02*
X32400Y277990D01*
X96013Y221361D02*
X130683Y221361D01*
X96013Y221361D02*
X78170Y239204D01*
X78170Y244300D01*
X130683Y221361D02*
X132580Y221320D01*
X146685Y53340D02*
X224028Y53340D01*
X312705Y132017D02*
X322707Y142019D01*
X312705Y132017D02*
X306705Y132017D01*
X322707Y142019D02*
X322707Y160020D01*
X146685Y53340D02*
X145600Y52200D01*
X322707Y160020D02*
X323400Y161650D01*
X146685Y274701D02*
X146685Y282702D01*
X146685Y274701D02*
X184023Y237363D01*
X146685Y282702D02*
X147080Y283820D01*
D29*
X224028Y53340D03*
X306705Y132017D03*
X184023Y237363D03*
D31*
X154686Y285369D02*
X154686Y293370D01*
X144683Y303373D01*
X128681Y303373D01*
X104013Y328041D01*
X154686Y285369D02*
X155080Y283820D01*
X104013Y328041D02*
X103000Y329400D01*
X163187Y295537D02*
X163187Y283927D01*
X163080Y283820D01*
X163187Y295537D02*
X130683Y328041D01*
X128400Y329400D01*
X111230Y377734D02*
X132881Y399384D01*
X111230Y377734D02*
X111230Y374530D01*
X55900Y343900D02*
X35900Y343900D01*
X170688Y285369D02*
X171080Y283820D01*
X192970Y399384D02*
X132881Y399384D01*
X192970Y399384D02*
X204212Y418656D01*
X171080Y299080D02*
X171080Y283820D01*
X171080Y299080D02*
X178000Y306000D01*
X218000Y306000D01*
X111230Y374530D02*
X86530Y374530D01*
X55900Y343900D01*
X226000Y314000D02*
X226000Y396868D01*
X204212Y418656D01*
X226000Y314000D02*
X218000Y306000D01*
X111230Y355530D02*
X109628Y353928D01*
X93230Y353928D01*
X77600Y338298D01*
X77600Y329400D01*
X178689Y197358D02*
X178689Y173355D01*
X306705Y45339D01*
X314706Y45339D01*
X322707Y37338D01*
X322707Y29337D01*
X178689Y197358D02*
X179080Y198820D01*
X322707Y29337D02*
X323400Y27550D01*
X306705Y280035D02*
X282702Y280035D01*
X306705Y280035D02*
X308100Y280200D01*
X282702Y280035D02*
X280500Y281200D01*
X307372Y334172D02*
X306998Y334546D01*
X307372Y334172D02*
X307372Y305928D01*
X308100Y305200D01*
X326874Y305426D02*
X326874Y314704D01*
X326874Y305426D02*
X327100Y305200D01*
X326874Y314704D02*
X307032Y334546D01*
X327541Y304655D02*
X327541Y296870D01*
X396047Y228364D01*
X396047Y216547D01*
X396000Y216500D01*
X327541Y304655D02*
X327100Y305200D01*
D32*
X307032Y334546D02*
X306998Y334546D01*
D31*
X307205Y360661D02*
X307205Y392302D01*
X307205Y360661D02*
X306998Y360454D01*
X307205Y392302D02*
X307300Y392350D01*
D30*
X322707Y346710D02*
X344043Y346710D01*
X322707Y346710D02*
X309372Y360045D01*
X344043Y346710D02*
X346300Y344200D01*
X309372Y360045D02*
X306998Y360454D01*
X376047Y314706D02*
X376047Y296037D01*
X376047Y314706D02*
X346710Y344043D01*
X376047Y296037D02*
X377800Y294500D01*
X346710Y344043D02*
X346300Y344200D01*
D31*
X288036Y360045D02*
X264033Y360045D01*
X288036Y360045D02*
X288202Y360454D01*
X264033Y360045D02*
X263200Y359200D01*
X288203Y341543D02*
X288203Y334547D01*
X288203Y341543D02*
X293370Y346710D01*
X309372Y346710D01*
X379382Y341300D02*
X404100Y341300D01*
X379382Y341300D02*
X379382Y340137D01*
X288203Y334547D02*
X288202Y334546D01*
X385000Y327700D02*
X421500Y327700D01*
X385000Y327700D02*
X378000Y334700D01*
X378000Y342700D01*
X379382Y340137D01*
X346000Y310082D02*
X309372Y346710D01*
X346000Y294000D02*
X372000Y268000D01*
X420000Y268000D01*
X431000Y279000D01*
X431000Y318200D01*
X346000Y310082D02*
X346000Y294000D01*
X421500Y327700D02*
X431000Y318200D01*
X376047Y370713D02*
X352044Y370713D01*
X346710Y365379D01*
X376047Y370713D02*
X378000Y372700D01*
X346710Y365379D02*
X346300Y363200D01*
X402717Y373380D02*
X402717Y400050D01*
X402717Y373380D02*
X404100Y371300D01*
X402717Y400050D02*
X401200Y400900D01*
M02*
