G04 EAGLE Gerber RS-274X export*
G75*
%MOMM*%
%FSLAX34Y34*%
%LPD*%
%INSilkscreen Top*%
%IPPOS*%
%AMOC8*
5,1,8,0,0,1.08239X$1,22.5*%
G01*
%ADD10C,0.050800*%
%ADD11C,0.101600*%
%ADD12C,0.152400*%
%ADD13C,0.203200*%
%ADD14C,0.200000*%
%ADD15C,0.400000*%
%ADD16C,0.127000*%
%ADD17C,0.300000*%
%ADD18C,0.025400*%
%ADD19C,0.000000*%


D10*
X294626Y209240D02*
X295600Y209240D01*
X295600Y205994D01*
X293652Y205994D01*
X293582Y205996D01*
X293512Y206002D01*
X293442Y206011D01*
X293373Y206024D01*
X293305Y206041D01*
X293238Y206062D01*
X293172Y206086D01*
X293107Y206114D01*
X293044Y206145D01*
X292983Y206180D01*
X292924Y206218D01*
X292866Y206259D01*
X292812Y206303D01*
X292759Y206350D01*
X292710Y206399D01*
X292663Y206452D01*
X292619Y206506D01*
X292578Y206564D01*
X292540Y206623D01*
X292505Y206684D01*
X292474Y206747D01*
X292446Y206812D01*
X292422Y206878D01*
X292401Y206945D01*
X292384Y207013D01*
X292371Y207082D01*
X292362Y207152D01*
X292356Y207222D01*
X292354Y207292D01*
X292354Y210538D01*
X292356Y210608D01*
X292362Y210678D01*
X292371Y210748D01*
X292384Y210817D01*
X292401Y210885D01*
X292422Y210952D01*
X292446Y211018D01*
X292474Y211083D01*
X292505Y211146D01*
X292540Y211207D01*
X292578Y211266D01*
X292619Y211324D01*
X292663Y211378D01*
X292710Y211431D01*
X292759Y211480D01*
X292812Y211527D01*
X292866Y211571D01*
X292924Y211612D01*
X292983Y211650D01*
X293044Y211685D01*
X293107Y211716D01*
X293172Y211744D01*
X293238Y211768D01*
X293305Y211789D01*
X293373Y211806D01*
X293442Y211819D01*
X293512Y211828D01*
X293582Y211834D01*
X293652Y211836D01*
X295600Y211836D01*
X298450Y211836D02*
X298450Y205994D01*
X301696Y205994D02*
X298450Y211836D01*
X301696Y211836D02*
X301696Y205994D01*
X304546Y205994D02*
X304546Y211836D01*
X306169Y211836D01*
X306249Y211834D01*
X306328Y211828D01*
X306407Y211818D01*
X306486Y211805D01*
X306563Y211787D01*
X306640Y211766D01*
X306716Y211741D01*
X306790Y211712D01*
X306863Y211680D01*
X306934Y211644D01*
X307003Y211605D01*
X307071Y211562D01*
X307136Y211517D01*
X307199Y211468D01*
X307259Y211416D01*
X307317Y211361D01*
X307372Y211303D01*
X307424Y211243D01*
X307473Y211180D01*
X307518Y211115D01*
X307561Y211047D01*
X307600Y210978D01*
X307636Y210907D01*
X307668Y210834D01*
X307697Y210760D01*
X307722Y210684D01*
X307743Y210607D01*
X307761Y210530D01*
X307774Y210451D01*
X307784Y210372D01*
X307790Y210293D01*
X307792Y210213D01*
X307791Y210213D02*
X307791Y207617D01*
X307792Y207617D02*
X307790Y207537D01*
X307784Y207458D01*
X307774Y207379D01*
X307761Y207300D01*
X307743Y207223D01*
X307722Y207146D01*
X307697Y207070D01*
X307668Y206996D01*
X307636Y206923D01*
X307600Y206852D01*
X307561Y206783D01*
X307518Y206715D01*
X307473Y206650D01*
X307424Y206587D01*
X307372Y206527D01*
X307317Y206469D01*
X307259Y206414D01*
X307199Y206362D01*
X307136Y206313D01*
X307071Y206268D01*
X307003Y206225D01*
X306934Y206186D01*
X306863Y206150D01*
X306790Y206118D01*
X306716Y206089D01*
X306640Y206064D01*
X306563Y206043D01*
X306486Y206025D01*
X306407Y206012D01*
X306328Y206002D01*
X306249Y205996D01*
X306169Y205994D01*
X304546Y205994D01*
X313979Y205994D02*
X313979Y211836D01*
X313330Y205994D02*
X314628Y205994D01*
X314628Y211836D02*
X313330Y211836D01*
X317119Y211836D02*
X317119Y205994D01*
X320364Y205994D02*
X317119Y211836D01*
X320364Y211836D02*
X320364Y205994D01*
X329184Y205994D02*
X331131Y205994D01*
X331201Y205996D01*
X331271Y206002D01*
X331341Y206011D01*
X331410Y206024D01*
X331478Y206041D01*
X331545Y206062D01*
X331611Y206086D01*
X331676Y206114D01*
X331739Y206145D01*
X331800Y206180D01*
X331859Y206218D01*
X331917Y206259D01*
X331971Y206303D01*
X332024Y206350D01*
X332073Y206399D01*
X332120Y206452D01*
X332164Y206506D01*
X332205Y206564D01*
X332243Y206623D01*
X332278Y206684D01*
X332309Y206747D01*
X332337Y206812D01*
X332361Y206878D01*
X332382Y206945D01*
X332399Y207013D01*
X332412Y207082D01*
X332421Y207152D01*
X332427Y207222D01*
X332429Y207292D01*
X332430Y207292D02*
X332430Y207941D01*
X332429Y207941D02*
X332427Y208011D01*
X332421Y208081D01*
X332412Y208151D01*
X332399Y208220D01*
X332382Y208288D01*
X332361Y208355D01*
X332337Y208421D01*
X332309Y208486D01*
X332278Y208549D01*
X332243Y208610D01*
X332205Y208669D01*
X332164Y208727D01*
X332120Y208781D01*
X332073Y208834D01*
X332024Y208883D01*
X331971Y208930D01*
X331917Y208974D01*
X331859Y209015D01*
X331800Y209053D01*
X331739Y209088D01*
X331676Y209119D01*
X331611Y209147D01*
X331545Y209171D01*
X331478Y209192D01*
X331410Y209209D01*
X331341Y209222D01*
X331271Y209231D01*
X331201Y209237D01*
X331131Y209239D01*
X331131Y209240D02*
X329184Y209240D01*
X329184Y211836D01*
X332430Y211836D01*
X334574Y211836D02*
X336522Y205994D01*
X338469Y211836D01*
X344142Y211836D02*
X344142Y205994D01*
X343493Y205994D02*
X344791Y205994D01*
X344791Y211836D02*
X343493Y211836D01*
X347281Y211836D02*
X347281Y205994D01*
X350527Y205994D02*
X347281Y211836D01*
X350527Y211836D02*
X350527Y205994D01*
D11*
X103062Y244204D02*
X103062Y246801D01*
X103062Y244204D02*
X103060Y244105D01*
X103054Y244005D01*
X103045Y243906D01*
X103032Y243808D01*
X103015Y243710D01*
X102994Y243612D01*
X102969Y243516D01*
X102941Y243421D01*
X102909Y243327D01*
X102874Y243234D01*
X102835Y243142D01*
X102792Y243052D01*
X102747Y242964D01*
X102697Y242877D01*
X102645Y242793D01*
X102589Y242710D01*
X102531Y242630D01*
X102469Y242552D01*
X102404Y242477D01*
X102336Y242404D01*
X102266Y242334D01*
X102193Y242266D01*
X102118Y242201D01*
X102040Y242139D01*
X101960Y242081D01*
X101877Y242025D01*
X101793Y241973D01*
X101706Y241923D01*
X101618Y241878D01*
X101528Y241835D01*
X101436Y241796D01*
X101343Y241761D01*
X101249Y241729D01*
X101154Y241701D01*
X101058Y241676D01*
X100960Y241655D01*
X100862Y241638D01*
X100764Y241625D01*
X100665Y241616D01*
X100565Y241610D01*
X100466Y241608D01*
X93974Y241608D01*
X93875Y241610D01*
X93775Y241616D01*
X93676Y241625D01*
X93578Y241638D01*
X93480Y241656D01*
X93382Y241676D01*
X93286Y241701D01*
X93190Y241729D01*
X93096Y241761D01*
X93003Y241796D01*
X92912Y241835D01*
X92822Y241878D01*
X92733Y241923D01*
X92647Y241973D01*
X92562Y242025D01*
X92480Y242081D01*
X92400Y242140D01*
X92322Y242201D01*
X92246Y242266D01*
X92173Y242334D01*
X92103Y242404D01*
X92035Y242477D01*
X91970Y242553D01*
X91909Y242631D01*
X91850Y242711D01*
X91794Y242793D01*
X91742Y242878D01*
X91693Y242964D01*
X91647Y243053D01*
X91604Y243143D01*
X91565Y243234D01*
X91530Y243327D01*
X91498Y243421D01*
X91470Y243517D01*
X91445Y243613D01*
X91425Y243711D01*
X91407Y243809D01*
X91394Y243907D01*
X91385Y244006D01*
X91379Y244105D01*
X91377Y244205D01*
X91378Y244204D02*
X91378Y246801D01*
X93974Y251166D02*
X91378Y254412D01*
X103062Y254412D01*
X103062Y257657D02*
X103062Y251166D01*
X66652Y193696D02*
X66652Y191099D01*
X66650Y191000D01*
X66644Y190900D01*
X66635Y190801D01*
X66622Y190703D01*
X66605Y190605D01*
X66584Y190507D01*
X66559Y190411D01*
X66531Y190316D01*
X66499Y190222D01*
X66464Y190129D01*
X66425Y190037D01*
X66382Y189947D01*
X66337Y189859D01*
X66287Y189772D01*
X66235Y189688D01*
X66179Y189605D01*
X66121Y189525D01*
X66059Y189447D01*
X65994Y189372D01*
X65926Y189299D01*
X65856Y189229D01*
X65783Y189161D01*
X65708Y189096D01*
X65630Y189034D01*
X65550Y188976D01*
X65467Y188920D01*
X65383Y188868D01*
X65296Y188818D01*
X65208Y188773D01*
X65118Y188730D01*
X65026Y188691D01*
X64933Y188656D01*
X64839Y188624D01*
X64744Y188596D01*
X64648Y188571D01*
X64550Y188550D01*
X64452Y188533D01*
X64354Y188520D01*
X64255Y188511D01*
X64155Y188505D01*
X64056Y188503D01*
X57564Y188503D01*
X57564Y188502D02*
X57465Y188504D01*
X57365Y188510D01*
X57266Y188519D01*
X57168Y188532D01*
X57070Y188550D01*
X56972Y188570D01*
X56876Y188595D01*
X56780Y188623D01*
X56686Y188655D01*
X56593Y188690D01*
X56502Y188729D01*
X56412Y188772D01*
X56323Y188817D01*
X56237Y188867D01*
X56152Y188919D01*
X56070Y188975D01*
X55990Y189034D01*
X55912Y189095D01*
X55836Y189160D01*
X55763Y189228D01*
X55693Y189298D01*
X55625Y189371D01*
X55560Y189447D01*
X55499Y189525D01*
X55440Y189605D01*
X55384Y189687D01*
X55332Y189772D01*
X55283Y189858D01*
X55237Y189947D01*
X55194Y190037D01*
X55155Y190128D01*
X55120Y190221D01*
X55088Y190315D01*
X55060Y190411D01*
X55035Y190507D01*
X55015Y190605D01*
X54997Y190703D01*
X54984Y190801D01*
X54975Y190900D01*
X54969Y190999D01*
X54967Y191099D01*
X54968Y191099D02*
X54968Y193696D01*
X54968Y201631D02*
X54970Y201738D01*
X54976Y201844D01*
X54986Y201950D01*
X54999Y202056D01*
X55017Y202162D01*
X55038Y202266D01*
X55063Y202370D01*
X55092Y202473D01*
X55124Y202574D01*
X55161Y202674D01*
X55201Y202773D01*
X55244Y202871D01*
X55291Y202967D01*
X55342Y203061D01*
X55396Y203153D01*
X55453Y203243D01*
X55513Y203331D01*
X55577Y203416D01*
X55644Y203499D01*
X55714Y203580D01*
X55786Y203658D01*
X55862Y203734D01*
X55940Y203806D01*
X56021Y203876D01*
X56104Y203943D01*
X56189Y204007D01*
X56277Y204067D01*
X56367Y204124D01*
X56459Y204178D01*
X56553Y204229D01*
X56649Y204276D01*
X56747Y204319D01*
X56846Y204359D01*
X56946Y204396D01*
X57047Y204428D01*
X57150Y204457D01*
X57254Y204482D01*
X57358Y204503D01*
X57464Y204521D01*
X57570Y204534D01*
X57676Y204544D01*
X57782Y204550D01*
X57889Y204552D01*
X54968Y201631D02*
X54970Y201510D01*
X54976Y201389D01*
X54986Y201269D01*
X54999Y201148D01*
X55017Y201029D01*
X55038Y200909D01*
X55063Y200791D01*
X55092Y200674D01*
X55125Y200557D01*
X55161Y200442D01*
X55202Y200328D01*
X55245Y200215D01*
X55293Y200103D01*
X55344Y199994D01*
X55399Y199886D01*
X55457Y199779D01*
X55518Y199675D01*
X55583Y199573D01*
X55651Y199473D01*
X55722Y199375D01*
X55796Y199279D01*
X55873Y199186D01*
X55954Y199096D01*
X56037Y199008D01*
X56123Y198923D01*
X56212Y198840D01*
X56303Y198761D01*
X56397Y198684D01*
X56493Y198611D01*
X56591Y198541D01*
X56692Y198474D01*
X56795Y198410D01*
X56900Y198350D01*
X57007Y198292D01*
X57115Y198239D01*
X57225Y198189D01*
X57337Y198143D01*
X57450Y198100D01*
X57565Y198061D01*
X60161Y203578D02*
X60083Y203657D01*
X60003Y203733D01*
X59920Y203806D01*
X59834Y203876D01*
X59747Y203943D01*
X59656Y204007D01*
X59564Y204067D01*
X59470Y204125D01*
X59373Y204179D01*
X59275Y204229D01*
X59175Y204276D01*
X59074Y204320D01*
X58971Y204360D01*
X58866Y204396D01*
X58761Y204428D01*
X58654Y204457D01*
X58547Y204482D01*
X58438Y204504D01*
X58329Y204521D01*
X58220Y204535D01*
X58110Y204544D01*
X57999Y204550D01*
X57889Y204552D01*
X60161Y203578D02*
X66652Y198061D01*
X66652Y204552D01*
X98022Y355434D02*
X98022Y358031D01*
X98022Y355434D02*
X98020Y355335D01*
X98014Y355235D01*
X98005Y355136D01*
X97992Y355038D01*
X97975Y354940D01*
X97954Y354842D01*
X97929Y354746D01*
X97901Y354651D01*
X97869Y354557D01*
X97834Y354464D01*
X97795Y354372D01*
X97752Y354282D01*
X97707Y354194D01*
X97657Y354107D01*
X97605Y354023D01*
X97549Y353940D01*
X97491Y353860D01*
X97429Y353782D01*
X97364Y353707D01*
X97296Y353634D01*
X97226Y353564D01*
X97153Y353496D01*
X97078Y353431D01*
X97000Y353369D01*
X96920Y353311D01*
X96837Y353255D01*
X96753Y353203D01*
X96666Y353153D01*
X96578Y353108D01*
X96488Y353065D01*
X96396Y353026D01*
X96303Y352991D01*
X96209Y352959D01*
X96114Y352931D01*
X96018Y352906D01*
X95920Y352885D01*
X95822Y352868D01*
X95724Y352855D01*
X95625Y352846D01*
X95525Y352840D01*
X95426Y352838D01*
X88934Y352838D01*
X88835Y352840D01*
X88735Y352846D01*
X88636Y352855D01*
X88538Y352868D01*
X88440Y352886D01*
X88342Y352906D01*
X88246Y352931D01*
X88150Y352959D01*
X88056Y352991D01*
X87963Y353026D01*
X87872Y353065D01*
X87782Y353108D01*
X87693Y353153D01*
X87607Y353203D01*
X87522Y353255D01*
X87440Y353311D01*
X87360Y353370D01*
X87282Y353431D01*
X87206Y353496D01*
X87133Y353564D01*
X87063Y353634D01*
X86995Y353707D01*
X86930Y353783D01*
X86869Y353861D01*
X86810Y353941D01*
X86754Y354023D01*
X86702Y354108D01*
X86653Y354194D01*
X86607Y354283D01*
X86564Y354373D01*
X86525Y354464D01*
X86490Y354557D01*
X86458Y354651D01*
X86430Y354747D01*
X86405Y354843D01*
X86385Y354941D01*
X86367Y355039D01*
X86354Y355137D01*
X86345Y355236D01*
X86339Y355335D01*
X86337Y355435D01*
X86338Y355434D02*
X86338Y358031D01*
X98022Y362396D02*
X98022Y365642D01*
X98020Y365755D01*
X98014Y365868D01*
X98004Y365981D01*
X97990Y366094D01*
X97973Y366206D01*
X97951Y366317D01*
X97926Y366427D01*
X97896Y366537D01*
X97863Y366645D01*
X97826Y366752D01*
X97786Y366858D01*
X97741Y366962D01*
X97693Y367065D01*
X97642Y367166D01*
X97587Y367265D01*
X97529Y367362D01*
X97467Y367457D01*
X97402Y367550D01*
X97334Y367640D01*
X97263Y367728D01*
X97188Y367814D01*
X97111Y367897D01*
X97031Y367977D01*
X96948Y368054D01*
X96862Y368129D01*
X96774Y368200D01*
X96684Y368268D01*
X96591Y368333D01*
X96496Y368395D01*
X96399Y368453D01*
X96300Y368508D01*
X96199Y368559D01*
X96096Y368607D01*
X95992Y368652D01*
X95886Y368692D01*
X95779Y368729D01*
X95671Y368762D01*
X95561Y368792D01*
X95451Y368817D01*
X95340Y368839D01*
X95228Y368856D01*
X95115Y368870D01*
X95002Y368880D01*
X94889Y368886D01*
X94776Y368888D01*
X94663Y368886D01*
X94550Y368880D01*
X94437Y368870D01*
X94324Y368856D01*
X94212Y368839D01*
X94101Y368817D01*
X93991Y368792D01*
X93881Y368762D01*
X93773Y368729D01*
X93666Y368692D01*
X93560Y368652D01*
X93456Y368607D01*
X93353Y368559D01*
X93252Y368508D01*
X93153Y368453D01*
X93056Y368395D01*
X92961Y368333D01*
X92868Y368268D01*
X92778Y368200D01*
X92690Y368129D01*
X92604Y368054D01*
X92521Y367977D01*
X92441Y367897D01*
X92364Y367814D01*
X92289Y367728D01*
X92218Y367640D01*
X92150Y367550D01*
X92085Y367457D01*
X92023Y367362D01*
X91965Y367265D01*
X91910Y367166D01*
X91859Y367065D01*
X91811Y366962D01*
X91766Y366858D01*
X91726Y366752D01*
X91689Y366645D01*
X91656Y366537D01*
X91626Y366427D01*
X91601Y366317D01*
X91579Y366206D01*
X91562Y366094D01*
X91548Y365981D01*
X91538Y365868D01*
X91532Y365755D01*
X91530Y365642D01*
X86338Y366291D02*
X86338Y362396D01*
X86338Y366291D02*
X86340Y366392D01*
X86346Y366492D01*
X86356Y366592D01*
X86369Y366692D01*
X86387Y366791D01*
X86408Y366890D01*
X86433Y366987D01*
X86462Y367084D01*
X86495Y367179D01*
X86531Y367273D01*
X86571Y367365D01*
X86614Y367456D01*
X86661Y367545D01*
X86711Y367632D01*
X86765Y367718D01*
X86822Y367801D01*
X86882Y367881D01*
X86945Y367960D01*
X87012Y368036D01*
X87081Y368109D01*
X87153Y368179D01*
X87227Y368247D01*
X87304Y368312D01*
X87384Y368373D01*
X87466Y368432D01*
X87550Y368487D01*
X87636Y368539D01*
X87724Y368588D01*
X87814Y368633D01*
X87906Y368675D01*
X87999Y368713D01*
X88094Y368747D01*
X88189Y368778D01*
X88286Y368805D01*
X88384Y368828D01*
X88483Y368848D01*
X88583Y368863D01*
X88683Y368875D01*
X88783Y368883D01*
X88884Y368887D01*
X88984Y368887D01*
X89085Y368883D01*
X89185Y368875D01*
X89285Y368863D01*
X89385Y368848D01*
X89484Y368828D01*
X89582Y368805D01*
X89679Y368778D01*
X89774Y368747D01*
X89869Y368713D01*
X89962Y368675D01*
X90054Y368633D01*
X90144Y368588D01*
X90232Y368539D01*
X90318Y368487D01*
X90402Y368432D01*
X90484Y368373D01*
X90564Y368312D01*
X90641Y368247D01*
X90715Y368179D01*
X90787Y368109D01*
X90856Y368036D01*
X90923Y367960D01*
X90986Y367881D01*
X91046Y367801D01*
X91103Y367718D01*
X91157Y367632D01*
X91207Y367545D01*
X91254Y367456D01*
X91297Y367365D01*
X91337Y367273D01*
X91373Y367179D01*
X91406Y367084D01*
X91435Y366987D01*
X91460Y366890D01*
X91481Y366791D01*
X91499Y366692D01*
X91512Y366592D01*
X91522Y366492D01*
X91528Y366392D01*
X91530Y366291D01*
X91531Y366291D02*
X91531Y363694D01*
D12*
X465850Y398940D02*
X465860Y399782D01*
X465891Y400623D01*
X465943Y401463D01*
X466015Y402301D01*
X466108Y403137D01*
X466221Y403971D01*
X466355Y404802D01*
X466509Y405630D01*
X466683Y406453D01*
X466878Y407272D01*
X467092Y408086D01*
X467327Y408894D01*
X467581Y409696D01*
X467854Y410492D01*
X468148Y411281D01*
X468460Y412062D01*
X468792Y412836D01*
X469142Y413601D01*
X469511Y414357D01*
X469899Y415104D01*
X470305Y415841D01*
X470728Y416569D01*
X471170Y417285D01*
X471629Y417991D01*
X472105Y418684D01*
X472598Y419367D01*
X473108Y420036D01*
X473633Y420693D01*
X474175Y421337D01*
X474733Y421968D01*
X475306Y422584D01*
X475893Y423187D01*
X476496Y423774D01*
X477112Y424347D01*
X477743Y424905D01*
X478387Y425447D01*
X479044Y425972D01*
X479713Y426482D01*
X480396Y426975D01*
X481089Y427451D01*
X481795Y427910D01*
X482511Y428352D01*
X483239Y428775D01*
X483976Y429181D01*
X484723Y429569D01*
X485479Y429938D01*
X486244Y430288D01*
X487018Y430620D01*
X487799Y430932D01*
X488588Y431226D01*
X489384Y431499D01*
X490186Y431753D01*
X490994Y431988D01*
X491808Y432202D01*
X492627Y432397D01*
X493450Y432571D01*
X494278Y432725D01*
X495109Y432859D01*
X495943Y432972D01*
X496779Y433065D01*
X497617Y433137D01*
X498457Y433189D01*
X499298Y433220D01*
X500140Y433230D01*
X500982Y433220D01*
X501823Y433189D01*
X502663Y433137D01*
X503501Y433065D01*
X504337Y432972D01*
X505171Y432859D01*
X506002Y432725D01*
X506830Y432571D01*
X507653Y432397D01*
X508472Y432202D01*
X509286Y431988D01*
X510094Y431753D01*
X510896Y431499D01*
X511692Y431226D01*
X512481Y430932D01*
X513262Y430620D01*
X514036Y430288D01*
X514801Y429938D01*
X515557Y429569D01*
X516304Y429181D01*
X517041Y428775D01*
X517769Y428352D01*
X518485Y427910D01*
X519191Y427451D01*
X519884Y426975D01*
X520567Y426482D01*
X521236Y425972D01*
X521893Y425447D01*
X522537Y424905D01*
X523168Y424347D01*
X523784Y423774D01*
X524387Y423187D01*
X524974Y422584D01*
X525547Y421968D01*
X526105Y421337D01*
X526647Y420693D01*
X527172Y420036D01*
X527682Y419367D01*
X528175Y418684D01*
X528651Y417991D01*
X529110Y417285D01*
X529552Y416569D01*
X529975Y415841D01*
X530381Y415104D01*
X530769Y414357D01*
X531138Y413601D01*
X531488Y412836D01*
X531820Y412062D01*
X532132Y411281D01*
X532426Y410492D01*
X532699Y409696D01*
X532953Y408894D01*
X533188Y408086D01*
X533402Y407272D01*
X533597Y406453D01*
X533771Y405630D01*
X533925Y404802D01*
X534059Y403971D01*
X534172Y403137D01*
X534265Y402301D01*
X534337Y401463D01*
X534389Y400623D01*
X534420Y399782D01*
X534430Y398940D01*
X534420Y398098D01*
X534389Y397257D01*
X534337Y396417D01*
X534265Y395579D01*
X534172Y394743D01*
X534059Y393909D01*
X533925Y393078D01*
X533771Y392250D01*
X533597Y391427D01*
X533402Y390608D01*
X533188Y389794D01*
X532953Y388986D01*
X532699Y388184D01*
X532426Y387388D01*
X532132Y386599D01*
X531820Y385818D01*
X531488Y385044D01*
X531138Y384279D01*
X530769Y383523D01*
X530381Y382776D01*
X529975Y382039D01*
X529552Y381311D01*
X529110Y380595D01*
X528651Y379889D01*
X528175Y379196D01*
X527682Y378513D01*
X527172Y377844D01*
X526647Y377187D01*
X526105Y376543D01*
X525547Y375912D01*
X524974Y375296D01*
X524387Y374693D01*
X523784Y374106D01*
X523168Y373533D01*
X522537Y372975D01*
X521893Y372433D01*
X521236Y371908D01*
X520567Y371398D01*
X519884Y370905D01*
X519191Y370429D01*
X518485Y369970D01*
X517769Y369528D01*
X517041Y369105D01*
X516304Y368699D01*
X515557Y368311D01*
X514801Y367942D01*
X514036Y367592D01*
X513262Y367260D01*
X512481Y366948D01*
X511692Y366654D01*
X510896Y366381D01*
X510094Y366127D01*
X509286Y365892D01*
X508472Y365678D01*
X507653Y365483D01*
X506830Y365309D01*
X506002Y365155D01*
X505171Y365021D01*
X504337Y364908D01*
X503501Y364815D01*
X502663Y364743D01*
X501823Y364691D01*
X500982Y364660D01*
X500140Y364650D01*
X499298Y364660D01*
X498457Y364691D01*
X497617Y364743D01*
X496779Y364815D01*
X495943Y364908D01*
X495109Y365021D01*
X494278Y365155D01*
X493450Y365309D01*
X492627Y365483D01*
X491808Y365678D01*
X490994Y365892D01*
X490186Y366127D01*
X489384Y366381D01*
X488588Y366654D01*
X487799Y366948D01*
X487018Y367260D01*
X486244Y367592D01*
X485479Y367942D01*
X484723Y368311D01*
X483976Y368699D01*
X483239Y369105D01*
X482511Y369528D01*
X481795Y369970D01*
X481089Y370429D01*
X480396Y370905D01*
X479713Y371398D01*
X479044Y371908D01*
X478387Y372433D01*
X477743Y372975D01*
X477112Y373533D01*
X476496Y374106D01*
X475893Y374693D01*
X475306Y375296D01*
X474733Y375912D01*
X474175Y376543D01*
X473633Y377187D01*
X473108Y377844D01*
X472598Y378513D01*
X472105Y379196D01*
X471629Y379889D01*
X471170Y380595D01*
X470728Y381311D01*
X470305Y382039D01*
X469899Y382776D01*
X469511Y383523D01*
X469142Y384279D01*
X468792Y385044D01*
X468460Y385818D01*
X468148Y386599D01*
X467854Y387388D01*
X467581Y388184D01*
X467327Y388986D01*
X467092Y389794D01*
X466878Y390608D01*
X466683Y391427D01*
X466509Y392250D01*
X466355Y393078D01*
X466221Y393909D01*
X466108Y394743D01*
X466015Y395579D01*
X465943Y396417D01*
X465891Y397257D01*
X465860Y398098D01*
X465850Y398940D01*
D13*
X484140Y398940D02*
X484145Y399333D01*
X484159Y399725D01*
X484183Y400117D01*
X484217Y400508D01*
X484260Y400899D01*
X484313Y401288D01*
X484376Y401675D01*
X484447Y402061D01*
X484529Y402446D01*
X484619Y402828D01*
X484720Y403207D01*
X484829Y403585D01*
X484948Y403959D01*
X485075Y404330D01*
X485212Y404698D01*
X485358Y405063D01*
X485513Y405424D01*
X485676Y405781D01*
X485848Y406134D01*
X486029Y406482D01*
X486219Y406826D01*
X486416Y407166D01*
X486622Y407500D01*
X486836Y407829D01*
X487059Y408153D01*
X487289Y408471D01*
X487526Y408784D01*
X487772Y409090D01*
X488025Y409391D01*
X488285Y409685D01*
X488552Y409973D01*
X488826Y410254D01*
X489107Y410528D01*
X489395Y410795D01*
X489689Y411055D01*
X489990Y411308D01*
X490296Y411554D01*
X490609Y411791D01*
X490927Y412021D01*
X491251Y412244D01*
X491580Y412458D01*
X491914Y412664D01*
X492254Y412861D01*
X492598Y413051D01*
X492946Y413232D01*
X493299Y413404D01*
X493656Y413567D01*
X494017Y413722D01*
X494382Y413868D01*
X494750Y414005D01*
X495121Y414132D01*
X495495Y414251D01*
X495873Y414360D01*
X496252Y414461D01*
X496634Y414551D01*
X497019Y414633D01*
X497405Y414704D01*
X497792Y414767D01*
X498181Y414820D01*
X498572Y414863D01*
X498963Y414897D01*
X499355Y414921D01*
X499747Y414935D01*
X500140Y414940D01*
X500533Y414935D01*
X500925Y414921D01*
X501317Y414897D01*
X501708Y414863D01*
X502099Y414820D01*
X502488Y414767D01*
X502875Y414704D01*
X503261Y414633D01*
X503646Y414551D01*
X504028Y414461D01*
X504407Y414360D01*
X504785Y414251D01*
X505159Y414132D01*
X505530Y414005D01*
X505898Y413868D01*
X506263Y413722D01*
X506624Y413567D01*
X506981Y413404D01*
X507334Y413232D01*
X507682Y413051D01*
X508026Y412861D01*
X508366Y412664D01*
X508700Y412458D01*
X509029Y412244D01*
X509353Y412021D01*
X509671Y411791D01*
X509984Y411554D01*
X510290Y411308D01*
X510591Y411055D01*
X510885Y410795D01*
X511173Y410528D01*
X511454Y410254D01*
X511728Y409973D01*
X511995Y409685D01*
X512255Y409391D01*
X512508Y409090D01*
X512754Y408784D01*
X512991Y408471D01*
X513221Y408153D01*
X513444Y407829D01*
X513658Y407500D01*
X513864Y407166D01*
X514061Y406826D01*
X514251Y406482D01*
X514432Y406134D01*
X514604Y405781D01*
X514767Y405424D01*
X514922Y405063D01*
X515068Y404698D01*
X515205Y404330D01*
X515332Y403959D01*
X515451Y403585D01*
X515560Y403207D01*
X515661Y402828D01*
X515751Y402446D01*
X515833Y402061D01*
X515904Y401675D01*
X515967Y401288D01*
X516020Y400899D01*
X516063Y400508D01*
X516097Y400117D01*
X516121Y399725D01*
X516135Y399333D01*
X516140Y398940D01*
X516135Y398547D01*
X516121Y398155D01*
X516097Y397763D01*
X516063Y397372D01*
X516020Y396981D01*
X515967Y396592D01*
X515904Y396205D01*
X515833Y395819D01*
X515751Y395434D01*
X515661Y395052D01*
X515560Y394673D01*
X515451Y394295D01*
X515332Y393921D01*
X515205Y393550D01*
X515068Y393182D01*
X514922Y392817D01*
X514767Y392456D01*
X514604Y392099D01*
X514432Y391746D01*
X514251Y391398D01*
X514061Y391054D01*
X513864Y390714D01*
X513658Y390380D01*
X513444Y390051D01*
X513221Y389727D01*
X512991Y389409D01*
X512754Y389096D01*
X512508Y388790D01*
X512255Y388489D01*
X511995Y388195D01*
X511728Y387907D01*
X511454Y387626D01*
X511173Y387352D01*
X510885Y387085D01*
X510591Y386825D01*
X510290Y386572D01*
X509984Y386326D01*
X509671Y386089D01*
X509353Y385859D01*
X509029Y385636D01*
X508700Y385422D01*
X508366Y385216D01*
X508026Y385019D01*
X507682Y384829D01*
X507334Y384648D01*
X506981Y384476D01*
X506624Y384313D01*
X506263Y384158D01*
X505898Y384012D01*
X505530Y383875D01*
X505159Y383748D01*
X504785Y383629D01*
X504407Y383520D01*
X504028Y383419D01*
X503646Y383329D01*
X503261Y383247D01*
X502875Y383176D01*
X502488Y383113D01*
X502099Y383060D01*
X501708Y383017D01*
X501317Y382983D01*
X500925Y382959D01*
X500533Y382945D01*
X500140Y382940D01*
X499747Y382945D01*
X499355Y382959D01*
X498963Y382983D01*
X498572Y383017D01*
X498181Y383060D01*
X497792Y383113D01*
X497405Y383176D01*
X497019Y383247D01*
X496634Y383329D01*
X496252Y383419D01*
X495873Y383520D01*
X495495Y383629D01*
X495121Y383748D01*
X494750Y383875D01*
X494382Y384012D01*
X494017Y384158D01*
X493656Y384313D01*
X493299Y384476D01*
X492946Y384648D01*
X492598Y384829D01*
X492254Y385019D01*
X491914Y385216D01*
X491580Y385422D01*
X491251Y385636D01*
X490927Y385859D01*
X490609Y386089D01*
X490296Y386326D01*
X489990Y386572D01*
X489689Y386825D01*
X489395Y387085D01*
X489107Y387352D01*
X488826Y387626D01*
X488552Y387907D01*
X488285Y388195D01*
X488025Y388489D01*
X487772Y388790D01*
X487526Y389096D01*
X487289Y389409D01*
X487059Y389727D01*
X486836Y390051D01*
X486622Y390380D01*
X486416Y390714D01*
X486219Y391054D01*
X486029Y391398D01*
X485848Y391746D01*
X485676Y392099D01*
X485513Y392456D01*
X485358Y392817D01*
X485212Y393182D01*
X485075Y393550D01*
X484948Y393921D01*
X484829Y394295D01*
X484720Y394673D01*
X484619Y395052D01*
X484529Y395434D01*
X484447Y395819D01*
X484376Y396205D01*
X484313Y396592D01*
X484260Y396981D01*
X484217Y397372D01*
X484183Y397763D01*
X484159Y398155D01*
X484145Y398547D01*
X484140Y398940D01*
D12*
X11550Y401660D02*
X11560Y402502D01*
X11591Y403343D01*
X11643Y404183D01*
X11715Y405021D01*
X11808Y405857D01*
X11921Y406691D01*
X12055Y407522D01*
X12209Y408350D01*
X12383Y409173D01*
X12578Y409992D01*
X12792Y410806D01*
X13027Y411614D01*
X13281Y412416D01*
X13554Y413212D01*
X13848Y414001D01*
X14160Y414782D01*
X14492Y415556D01*
X14842Y416321D01*
X15211Y417077D01*
X15599Y417824D01*
X16005Y418561D01*
X16428Y419289D01*
X16870Y420005D01*
X17329Y420711D01*
X17805Y421404D01*
X18298Y422087D01*
X18808Y422756D01*
X19333Y423413D01*
X19875Y424057D01*
X20433Y424688D01*
X21006Y425304D01*
X21593Y425907D01*
X22196Y426494D01*
X22812Y427067D01*
X23443Y427625D01*
X24087Y428167D01*
X24744Y428692D01*
X25413Y429202D01*
X26096Y429695D01*
X26789Y430171D01*
X27495Y430630D01*
X28211Y431072D01*
X28939Y431495D01*
X29676Y431901D01*
X30423Y432289D01*
X31179Y432658D01*
X31944Y433008D01*
X32718Y433340D01*
X33499Y433652D01*
X34288Y433946D01*
X35084Y434219D01*
X35886Y434473D01*
X36694Y434708D01*
X37508Y434922D01*
X38327Y435117D01*
X39150Y435291D01*
X39978Y435445D01*
X40809Y435579D01*
X41643Y435692D01*
X42479Y435785D01*
X43317Y435857D01*
X44157Y435909D01*
X44998Y435940D01*
X45840Y435950D01*
X46682Y435940D01*
X47523Y435909D01*
X48363Y435857D01*
X49201Y435785D01*
X50037Y435692D01*
X50871Y435579D01*
X51702Y435445D01*
X52530Y435291D01*
X53353Y435117D01*
X54172Y434922D01*
X54986Y434708D01*
X55794Y434473D01*
X56596Y434219D01*
X57392Y433946D01*
X58181Y433652D01*
X58962Y433340D01*
X59736Y433008D01*
X60501Y432658D01*
X61257Y432289D01*
X62004Y431901D01*
X62741Y431495D01*
X63469Y431072D01*
X64185Y430630D01*
X64891Y430171D01*
X65584Y429695D01*
X66267Y429202D01*
X66936Y428692D01*
X67593Y428167D01*
X68237Y427625D01*
X68868Y427067D01*
X69484Y426494D01*
X70087Y425907D01*
X70674Y425304D01*
X71247Y424688D01*
X71805Y424057D01*
X72347Y423413D01*
X72872Y422756D01*
X73382Y422087D01*
X73875Y421404D01*
X74351Y420711D01*
X74810Y420005D01*
X75252Y419289D01*
X75675Y418561D01*
X76081Y417824D01*
X76469Y417077D01*
X76838Y416321D01*
X77188Y415556D01*
X77520Y414782D01*
X77832Y414001D01*
X78126Y413212D01*
X78399Y412416D01*
X78653Y411614D01*
X78888Y410806D01*
X79102Y409992D01*
X79297Y409173D01*
X79471Y408350D01*
X79625Y407522D01*
X79759Y406691D01*
X79872Y405857D01*
X79965Y405021D01*
X80037Y404183D01*
X80089Y403343D01*
X80120Y402502D01*
X80130Y401660D01*
X80120Y400818D01*
X80089Y399977D01*
X80037Y399137D01*
X79965Y398299D01*
X79872Y397463D01*
X79759Y396629D01*
X79625Y395798D01*
X79471Y394970D01*
X79297Y394147D01*
X79102Y393328D01*
X78888Y392514D01*
X78653Y391706D01*
X78399Y390904D01*
X78126Y390108D01*
X77832Y389319D01*
X77520Y388538D01*
X77188Y387764D01*
X76838Y386999D01*
X76469Y386243D01*
X76081Y385496D01*
X75675Y384759D01*
X75252Y384031D01*
X74810Y383315D01*
X74351Y382609D01*
X73875Y381916D01*
X73382Y381233D01*
X72872Y380564D01*
X72347Y379907D01*
X71805Y379263D01*
X71247Y378632D01*
X70674Y378016D01*
X70087Y377413D01*
X69484Y376826D01*
X68868Y376253D01*
X68237Y375695D01*
X67593Y375153D01*
X66936Y374628D01*
X66267Y374118D01*
X65584Y373625D01*
X64891Y373149D01*
X64185Y372690D01*
X63469Y372248D01*
X62741Y371825D01*
X62004Y371419D01*
X61257Y371031D01*
X60501Y370662D01*
X59736Y370312D01*
X58962Y369980D01*
X58181Y369668D01*
X57392Y369374D01*
X56596Y369101D01*
X55794Y368847D01*
X54986Y368612D01*
X54172Y368398D01*
X53353Y368203D01*
X52530Y368029D01*
X51702Y367875D01*
X50871Y367741D01*
X50037Y367628D01*
X49201Y367535D01*
X48363Y367463D01*
X47523Y367411D01*
X46682Y367380D01*
X45840Y367370D01*
X44998Y367380D01*
X44157Y367411D01*
X43317Y367463D01*
X42479Y367535D01*
X41643Y367628D01*
X40809Y367741D01*
X39978Y367875D01*
X39150Y368029D01*
X38327Y368203D01*
X37508Y368398D01*
X36694Y368612D01*
X35886Y368847D01*
X35084Y369101D01*
X34288Y369374D01*
X33499Y369668D01*
X32718Y369980D01*
X31944Y370312D01*
X31179Y370662D01*
X30423Y371031D01*
X29676Y371419D01*
X28939Y371825D01*
X28211Y372248D01*
X27495Y372690D01*
X26789Y373149D01*
X26096Y373625D01*
X25413Y374118D01*
X24744Y374628D01*
X24087Y375153D01*
X23443Y375695D01*
X22812Y376253D01*
X22196Y376826D01*
X21593Y377413D01*
X21006Y378016D01*
X20433Y378632D01*
X19875Y379263D01*
X19333Y379907D01*
X18808Y380564D01*
X18298Y381233D01*
X17805Y381916D01*
X17329Y382609D01*
X16870Y383315D01*
X16428Y384031D01*
X16005Y384759D01*
X15599Y385496D01*
X15211Y386243D01*
X14842Y386999D01*
X14492Y387764D01*
X14160Y388538D01*
X13848Y389319D01*
X13554Y390108D01*
X13281Y390904D01*
X13027Y391706D01*
X12792Y392514D01*
X12578Y393328D01*
X12383Y394147D01*
X12209Y394970D01*
X12055Y395798D01*
X11921Y396629D01*
X11808Y397463D01*
X11715Y398299D01*
X11643Y399137D01*
X11591Y399977D01*
X11560Y400818D01*
X11550Y401660D01*
D13*
X29840Y401660D02*
X29845Y402053D01*
X29859Y402445D01*
X29883Y402837D01*
X29917Y403228D01*
X29960Y403619D01*
X30013Y404008D01*
X30076Y404395D01*
X30147Y404781D01*
X30229Y405166D01*
X30319Y405548D01*
X30420Y405927D01*
X30529Y406305D01*
X30648Y406679D01*
X30775Y407050D01*
X30912Y407418D01*
X31058Y407783D01*
X31213Y408144D01*
X31376Y408501D01*
X31548Y408854D01*
X31729Y409202D01*
X31919Y409546D01*
X32116Y409886D01*
X32322Y410220D01*
X32536Y410549D01*
X32759Y410873D01*
X32989Y411191D01*
X33226Y411504D01*
X33472Y411810D01*
X33725Y412111D01*
X33985Y412405D01*
X34252Y412693D01*
X34526Y412974D01*
X34807Y413248D01*
X35095Y413515D01*
X35389Y413775D01*
X35690Y414028D01*
X35996Y414274D01*
X36309Y414511D01*
X36627Y414741D01*
X36951Y414964D01*
X37280Y415178D01*
X37614Y415384D01*
X37954Y415581D01*
X38298Y415771D01*
X38646Y415952D01*
X38999Y416124D01*
X39356Y416287D01*
X39717Y416442D01*
X40082Y416588D01*
X40450Y416725D01*
X40821Y416852D01*
X41195Y416971D01*
X41573Y417080D01*
X41952Y417181D01*
X42334Y417271D01*
X42719Y417353D01*
X43105Y417424D01*
X43492Y417487D01*
X43881Y417540D01*
X44272Y417583D01*
X44663Y417617D01*
X45055Y417641D01*
X45447Y417655D01*
X45840Y417660D01*
X46233Y417655D01*
X46625Y417641D01*
X47017Y417617D01*
X47408Y417583D01*
X47799Y417540D01*
X48188Y417487D01*
X48575Y417424D01*
X48961Y417353D01*
X49346Y417271D01*
X49728Y417181D01*
X50107Y417080D01*
X50485Y416971D01*
X50859Y416852D01*
X51230Y416725D01*
X51598Y416588D01*
X51963Y416442D01*
X52324Y416287D01*
X52681Y416124D01*
X53034Y415952D01*
X53382Y415771D01*
X53726Y415581D01*
X54066Y415384D01*
X54400Y415178D01*
X54729Y414964D01*
X55053Y414741D01*
X55371Y414511D01*
X55684Y414274D01*
X55990Y414028D01*
X56291Y413775D01*
X56585Y413515D01*
X56873Y413248D01*
X57154Y412974D01*
X57428Y412693D01*
X57695Y412405D01*
X57955Y412111D01*
X58208Y411810D01*
X58454Y411504D01*
X58691Y411191D01*
X58921Y410873D01*
X59144Y410549D01*
X59358Y410220D01*
X59564Y409886D01*
X59761Y409546D01*
X59951Y409202D01*
X60132Y408854D01*
X60304Y408501D01*
X60467Y408144D01*
X60622Y407783D01*
X60768Y407418D01*
X60905Y407050D01*
X61032Y406679D01*
X61151Y406305D01*
X61260Y405927D01*
X61361Y405548D01*
X61451Y405166D01*
X61533Y404781D01*
X61604Y404395D01*
X61667Y404008D01*
X61720Y403619D01*
X61763Y403228D01*
X61797Y402837D01*
X61821Y402445D01*
X61835Y402053D01*
X61840Y401660D01*
X61835Y401267D01*
X61821Y400875D01*
X61797Y400483D01*
X61763Y400092D01*
X61720Y399701D01*
X61667Y399312D01*
X61604Y398925D01*
X61533Y398539D01*
X61451Y398154D01*
X61361Y397772D01*
X61260Y397393D01*
X61151Y397015D01*
X61032Y396641D01*
X60905Y396270D01*
X60768Y395902D01*
X60622Y395537D01*
X60467Y395176D01*
X60304Y394819D01*
X60132Y394466D01*
X59951Y394118D01*
X59761Y393774D01*
X59564Y393434D01*
X59358Y393100D01*
X59144Y392771D01*
X58921Y392447D01*
X58691Y392129D01*
X58454Y391816D01*
X58208Y391510D01*
X57955Y391209D01*
X57695Y390915D01*
X57428Y390627D01*
X57154Y390346D01*
X56873Y390072D01*
X56585Y389805D01*
X56291Y389545D01*
X55990Y389292D01*
X55684Y389046D01*
X55371Y388809D01*
X55053Y388579D01*
X54729Y388356D01*
X54400Y388142D01*
X54066Y387936D01*
X53726Y387739D01*
X53382Y387549D01*
X53034Y387368D01*
X52681Y387196D01*
X52324Y387033D01*
X51963Y386878D01*
X51598Y386732D01*
X51230Y386595D01*
X50859Y386468D01*
X50485Y386349D01*
X50107Y386240D01*
X49728Y386139D01*
X49346Y386049D01*
X48961Y385967D01*
X48575Y385896D01*
X48188Y385833D01*
X47799Y385780D01*
X47408Y385737D01*
X47017Y385703D01*
X46625Y385679D01*
X46233Y385665D01*
X45840Y385660D01*
X45447Y385665D01*
X45055Y385679D01*
X44663Y385703D01*
X44272Y385737D01*
X43881Y385780D01*
X43492Y385833D01*
X43105Y385896D01*
X42719Y385967D01*
X42334Y386049D01*
X41952Y386139D01*
X41573Y386240D01*
X41195Y386349D01*
X40821Y386468D01*
X40450Y386595D01*
X40082Y386732D01*
X39717Y386878D01*
X39356Y387033D01*
X38999Y387196D01*
X38646Y387368D01*
X38298Y387549D01*
X37954Y387739D01*
X37614Y387936D01*
X37280Y388142D01*
X36951Y388356D01*
X36627Y388579D01*
X36309Y388809D01*
X35996Y389046D01*
X35690Y389292D01*
X35389Y389545D01*
X35095Y389805D01*
X34807Y390072D01*
X34526Y390346D01*
X34252Y390627D01*
X33985Y390915D01*
X33725Y391209D01*
X33472Y391510D01*
X33226Y391816D01*
X32989Y392129D01*
X32759Y392447D01*
X32536Y392771D01*
X32322Y393100D01*
X32116Y393434D01*
X31919Y393774D01*
X31729Y394118D01*
X31548Y394466D01*
X31376Y394819D01*
X31213Y395176D01*
X31058Y395537D01*
X30912Y395902D01*
X30775Y396270D01*
X30648Y396641D01*
X30529Y397015D01*
X30420Y397393D01*
X30319Y397772D01*
X30229Y398154D01*
X30147Y398539D01*
X30076Y398925D01*
X30013Y399312D01*
X29960Y399701D01*
X29917Y400092D01*
X29883Y400483D01*
X29859Y400875D01*
X29845Y401267D01*
X29840Y401660D01*
D14*
X143580Y272820D02*
X206580Y272820D01*
X206580Y209820D01*
X143580Y209820D01*
X143580Y272820D01*
D15*
X127080Y281320D02*
X127082Y281409D01*
X127088Y281498D01*
X127098Y281587D01*
X127112Y281675D01*
X127129Y281762D01*
X127151Y281848D01*
X127177Y281934D01*
X127206Y282018D01*
X127239Y282101D01*
X127275Y282182D01*
X127316Y282262D01*
X127359Y282339D01*
X127406Y282415D01*
X127457Y282488D01*
X127510Y282559D01*
X127567Y282628D01*
X127627Y282694D01*
X127690Y282758D01*
X127755Y282818D01*
X127823Y282876D01*
X127894Y282930D01*
X127967Y282981D01*
X128042Y283029D01*
X128119Y283074D01*
X128198Y283115D01*
X128279Y283152D01*
X128361Y283186D01*
X128445Y283217D01*
X128530Y283243D01*
X128616Y283266D01*
X128703Y283284D01*
X128791Y283299D01*
X128880Y283310D01*
X128969Y283317D01*
X129058Y283320D01*
X129147Y283319D01*
X129236Y283314D01*
X129324Y283305D01*
X129413Y283292D01*
X129500Y283275D01*
X129587Y283255D01*
X129673Y283230D01*
X129757Y283202D01*
X129840Y283170D01*
X129922Y283134D01*
X130002Y283095D01*
X130080Y283052D01*
X130156Y283006D01*
X130230Y282956D01*
X130302Y282903D01*
X130371Y282847D01*
X130438Y282788D01*
X130502Y282726D01*
X130563Y282662D01*
X130622Y282594D01*
X130677Y282524D01*
X130729Y282452D01*
X130778Y282377D01*
X130823Y282301D01*
X130865Y282222D01*
X130903Y282142D01*
X130938Y282060D01*
X130969Y281976D01*
X130997Y281891D01*
X131020Y281805D01*
X131040Y281718D01*
X131056Y281631D01*
X131068Y281542D01*
X131076Y281454D01*
X131080Y281365D01*
X131080Y281275D01*
X131076Y281186D01*
X131068Y281098D01*
X131056Y281009D01*
X131040Y280922D01*
X131020Y280835D01*
X130997Y280749D01*
X130969Y280664D01*
X130938Y280580D01*
X130903Y280498D01*
X130865Y280418D01*
X130823Y280339D01*
X130778Y280263D01*
X130729Y280188D01*
X130677Y280116D01*
X130622Y280046D01*
X130563Y279978D01*
X130502Y279914D01*
X130438Y279852D01*
X130371Y279793D01*
X130302Y279737D01*
X130230Y279684D01*
X130156Y279634D01*
X130080Y279588D01*
X130002Y279545D01*
X129922Y279506D01*
X129840Y279470D01*
X129757Y279438D01*
X129673Y279410D01*
X129587Y279385D01*
X129500Y279365D01*
X129413Y279348D01*
X129324Y279335D01*
X129236Y279326D01*
X129147Y279321D01*
X129058Y279320D01*
X128969Y279323D01*
X128880Y279330D01*
X128791Y279341D01*
X128703Y279356D01*
X128616Y279374D01*
X128530Y279397D01*
X128445Y279423D01*
X128361Y279454D01*
X128279Y279488D01*
X128198Y279525D01*
X128119Y279566D01*
X128042Y279611D01*
X127967Y279659D01*
X127894Y279710D01*
X127823Y279764D01*
X127755Y279822D01*
X127690Y279882D01*
X127627Y279946D01*
X127567Y280012D01*
X127510Y280081D01*
X127457Y280152D01*
X127406Y280225D01*
X127359Y280301D01*
X127316Y280378D01*
X127275Y280458D01*
X127239Y280539D01*
X127206Y280622D01*
X127177Y280706D01*
X127151Y280792D01*
X127129Y280878D01*
X127112Y280965D01*
X127098Y281053D01*
X127088Y281142D01*
X127082Y281231D01*
X127080Y281320D01*
D11*
X232082Y201442D02*
X232082Y189758D01*
X230784Y189758D02*
X233380Y189758D01*
X233380Y201442D02*
X230784Y201442D01*
X240544Y189758D02*
X243140Y189758D01*
X240544Y189758D02*
X240445Y189760D01*
X240345Y189766D01*
X240246Y189775D01*
X240148Y189788D01*
X240050Y189805D01*
X239952Y189826D01*
X239856Y189851D01*
X239761Y189879D01*
X239667Y189911D01*
X239574Y189946D01*
X239482Y189985D01*
X239392Y190028D01*
X239304Y190073D01*
X239217Y190123D01*
X239133Y190175D01*
X239050Y190231D01*
X238970Y190289D01*
X238892Y190351D01*
X238817Y190416D01*
X238744Y190484D01*
X238674Y190554D01*
X238606Y190627D01*
X238541Y190702D01*
X238479Y190780D01*
X238421Y190860D01*
X238365Y190943D01*
X238313Y191027D01*
X238263Y191114D01*
X238218Y191202D01*
X238175Y191292D01*
X238136Y191384D01*
X238101Y191477D01*
X238069Y191571D01*
X238041Y191666D01*
X238016Y191762D01*
X237995Y191860D01*
X237978Y191958D01*
X237965Y192056D01*
X237956Y192155D01*
X237950Y192255D01*
X237948Y192354D01*
X237947Y192354D02*
X237947Y198846D01*
X237948Y198846D02*
X237950Y198945D01*
X237956Y199045D01*
X237965Y199144D01*
X237978Y199242D01*
X237995Y199340D01*
X238016Y199438D01*
X238041Y199534D01*
X238069Y199629D01*
X238101Y199723D01*
X238136Y199816D01*
X238175Y199908D01*
X238218Y199998D01*
X238263Y200086D01*
X238313Y200173D01*
X238365Y200257D01*
X238421Y200340D01*
X238479Y200420D01*
X238541Y200498D01*
X238606Y200573D01*
X238674Y200646D01*
X238744Y200716D01*
X238817Y200784D01*
X238892Y200849D01*
X238970Y200911D01*
X239050Y200969D01*
X239133Y201025D01*
X239217Y201077D01*
X239304Y201127D01*
X239392Y201172D01*
X239482Y201215D01*
X239574Y201254D01*
X239666Y201289D01*
X239761Y201321D01*
X239856Y201349D01*
X239952Y201374D01*
X240050Y201395D01*
X240148Y201412D01*
X240246Y201425D01*
X240345Y201434D01*
X240445Y201440D01*
X240544Y201442D01*
X243140Y201442D01*
X247505Y198846D02*
X250751Y201442D01*
X250751Y189758D01*
X253996Y189758D02*
X247505Y189758D01*
D13*
X104690Y153890D02*
X91990Y153890D01*
D10*
X52721Y264020D02*
X52715Y264514D01*
X52697Y265008D01*
X52667Y265502D01*
X52625Y265995D01*
X52571Y266486D01*
X52505Y266976D01*
X52427Y267465D01*
X52337Y267951D01*
X52235Y268435D01*
X52122Y268916D01*
X51997Y269395D01*
X51861Y269870D01*
X51712Y270342D01*
X51553Y270810D01*
X51382Y271274D01*
X51200Y271733D01*
X51007Y272189D01*
X50802Y272639D01*
X50587Y273084D01*
X50361Y273524D01*
X50124Y273958D01*
X49877Y274386D01*
X49620Y274809D01*
X49352Y275224D01*
X49075Y275634D01*
X48787Y276036D01*
X48490Y276431D01*
X48183Y276819D01*
X47867Y277199D01*
X47542Y277572D01*
X47207Y277936D01*
X46864Y278292D01*
X46513Y278640D01*
X46153Y278979D01*
X45785Y279309D01*
X45409Y279630D01*
X45025Y279942D01*
X44634Y280245D01*
X44235Y280538D01*
X43830Y280821D01*
D12*
X43830Y286880D02*
X53990Y286880D01*
D10*
X52720Y195440D02*
X52714Y194946D01*
X52696Y194452D01*
X52666Y193958D01*
X52624Y193466D01*
X52570Y192974D01*
X52504Y192484D01*
X52426Y191996D01*
X52336Y191509D01*
X52235Y191026D01*
X52121Y190544D01*
X51996Y190066D01*
X51860Y189591D01*
X51712Y189119D01*
X51552Y188651D01*
X51381Y188187D01*
X51199Y187727D01*
X51006Y187272D01*
X50802Y186821D01*
X50587Y186376D01*
X50361Y185936D01*
X50124Y185502D01*
X49877Y185074D01*
X49620Y184652D01*
X49352Y184236D01*
X49074Y183827D01*
X48787Y183424D01*
X48490Y183029D01*
X48183Y182641D01*
X47867Y182261D01*
X47541Y181889D01*
X47207Y181524D01*
X46864Y181168D01*
X46513Y180820D01*
X46153Y180481D01*
X45785Y180151D01*
X45409Y179830D01*
X45025Y179518D01*
X44634Y179215D01*
X44235Y178923D01*
X43830Y178639D01*
D12*
X43830Y172580D02*
X53990Y172580D01*
D10*
X19700Y195440D02*
X19700Y264020D01*
X12080Y264020D02*
X12080Y195440D01*
X45100Y195440D02*
X45100Y264020D01*
D12*
X8270Y284340D02*
X8270Y175120D01*
X8272Y175020D01*
X8278Y174921D01*
X8288Y174821D01*
X8301Y174723D01*
X8319Y174624D01*
X8340Y174527D01*
X8365Y174431D01*
X8394Y174335D01*
X8427Y174241D01*
X8463Y174148D01*
X8503Y174057D01*
X8547Y173967D01*
X8594Y173879D01*
X8644Y173793D01*
X8698Y173709D01*
X8755Y173627D01*
X8815Y173548D01*
X8879Y173470D01*
X8945Y173396D01*
X9014Y173324D01*
X9086Y173255D01*
X9160Y173189D01*
X9238Y173125D01*
X9317Y173065D01*
X9399Y173008D01*
X9483Y172954D01*
X9569Y172904D01*
X9657Y172857D01*
X9747Y172813D01*
X9838Y172773D01*
X9931Y172737D01*
X10025Y172704D01*
X10121Y172675D01*
X10217Y172650D01*
X10314Y172629D01*
X10413Y172611D01*
X10511Y172598D01*
X10611Y172588D01*
X10710Y172582D01*
X10810Y172580D01*
X20970Y172580D01*
D10*
X20970Y189904D02*
X20842Y190177D01*
X20720Y190453D01*
X20605Y190732D01*
X20497Y191013D01*
X20395Y191297D01*
X20300Y191583D01*
X20212Y191871D01*
X20130Y192161D01*
X20056Y192454D01*
X19989Y192747D01*
X19928Y193043D01*
X19875Y193339D01*
X19829Y193637D01*
X19789Y193936D01*
X19757Y194236D01*
X19732Y194537D01*
X19714Y194837D01*
X19704Y195139D01*
X19700Y195440D01*
X43830Y189904D02*
X43958Y190177D01*
X44080Y190453D01*
X44195Y190732D01*
X44303Y191013D01*
X44405Y191297D01*
X44500Y191583D01*
X44588Y191871D01*
X44670Y192161D01*
X44744Y192454D01*
X44811Y192747D01*
X44872Y193043D01*
X44925Y193339D01*
X44971Y193637D01*
X45011Y193936D01*
X45043Y194236D01*
X45068Y194537D01*
X45086Y194837D01*
X45096Y195139D01*
X45100Y195440D01*
X20971Y178640D02*
X20566Y178923D01*
X20167Y179216D01*
X19776Y179518D01*
X19392Y179830D01*
X19016Y180151D01*
X18648Y180481D01*
X18288Y180820D01*
X17937Y181168D01*
X17594Y181524D01*
X17259Y181889D01*
X16934Y182261D01*
X16618Y182641D01*
X16311Y183029D01*
X16014Y183424D01*
X15726Y183827D01*
X15449Y184236D01*
X15181Y184651D01*
X14924Y185074D01*
X14677Y185502D01*
X14440Y185936D01*
X14214Y186376D01*
X13999Y186821D01*
X13795Y187271D01*
X13601Y187727D01*
X13419Y188186D01*
X13248Y188650D01*
X13089Y189118D01*
X12941Y189590D01*
X12804Y190065D01*
X12679Y190544D01*
X12566Y191025D01*
X12464Y191509D01*
X12374Y191995D01*
X12296Y192483D01*
X12230Y192973D01*
X12176Y193465D01*
X12134Y193958D01*
X12104Y194451D01*
X12086Y194945D01*
X12080Y195440D01*
X12080Y264020D02*
X12086Y264514D01*
X12104Y265008D01*
X12134Y265502D01*
X12176Y265994D01*
X12230Y266486D01*
X12296Y266976D01*
X12374Y267464D01*
X12464Y267951D01*
X12565Y268434D01*
X12679Y268916D01*
X12804Y269394D01*
X12940Y269869D01*
X13088Y270341D01*
X13248Y270809D01*
X13419Y271273D01*
X13601Y271733D01*
X13794Y272188D01*
X13998Y272639D01*
X14213Y273084D01*
X14439Y273524D01*
X14676Y273958D01*
X14923Y274386D01*
X15180Y274808D01*
X15448Y275224D01*
X15726Y275633D01*
X16013Y276036D01*
X16310Y276431D01*
X16617Y276819D01*
X16933Y277199D01*
X17259Y277571D01*
X17593Y277936D01*
X17936Y278292D01*
X18287Y278640D01*
X18647Y278979D01*
X19015Y279309D01*
X19391Y279630D01*
X19775Y279942D01*
X20166Y280245D01*
X20565Y280537D01*
X20970Y280821D01*
X20970Y269556D02*
X20842Y269283D01*
X20720Y269007D01*
X20605Y268728D01*
X20497Y268447D01*
X20395Y268163D01*
X20300Y267877D01*
X20212Y267589D01*
X20130Y267299D01*
X20056Y267006D01*
X19989Y266713D01*
X19928Y266417D01*
X19875Y266121D01*
X19829Y265823D01*
X19789Y265524D01*
X19757Y265224D01*
X19732Y264923D01*
X19714Y264623D01*
X19704Y264321D01*
X19700Y264020D01*
X43830Y269556D02*
X43958Y269283D01*
X44080Y269007D01*
X44195Y268728D01*
X44303Y268447D01*
X44405Y268163D01*
X44500Y267877D01*
X44588Y267589D01*
X44670Y267299D01*
X44744Y267006D01*
X44811Y266713D01*
X44872Y266417D01*
X44925Y266121D01*
X44971Y265823D01*
X45011Y265524D01*
X45043Y265224D01*
X45068Y264923D01*
X45086Y264623D01*
X45096Y264321D01*
X45100Y264020D01*
D12*
X20970Y286880D02*
X10810Y286880D01*
X10710Y286878D01*
X10611Y286872D01*
X10511Y286862D01*
X10413Y286849D01*
X10314Y286831D01*
X10217Y286810D01*
X10121Y286785D01*
X10025Y286756D01*
X9931Y286723D01*
X9838Y286687D01*
X9747Y286647D01*
X9657Y286603D01*
X9569Y286556D01*
X9483Y286506D01*
X9399Y286452D01*
X9317Y286395D01*
X9238Y286335D01*
X9160Y286271D01*
X9086Y286205D01*
X9014Y286136D01*
X8945Y286064D01*
X8879Y285990D01*
X8815Y285912D01*
X8755Y285833D01*
X8698Y285751D01*
X8644Y285667D01*
X8594Y285581D01*
X8547Y285493D01*
X8503Y285403D01*
X8463Y285312D01*
X8427Y285219D01*
X8394Y285125D01*
X8365Y285029D01*
X8340Y284933D01*
X8319Y284836D01*
X8301Y284737D01*
X8288Y284639D01*
X8278Y284539D01*
X8272Y284440D01*
X8270Y284340D01*
D10*
X52720Y264020D02*
X52720Y195440D01*
D12*
X56530Y175120D02*
X56530Y284340D01*
X56530Y175120D02*
X56528Y175020D01*
X56522Y174921D01*
X56512Y174821D01*
X56499Y174723D01*
X56481Y174624D01*
X56460Y174527D01*
X56435Y174431D01*
X56406Y174335D01*
X56373Y174241D01*
X56337Y174148D01*
X56297Y174057D01*
X56253Y173967D01*
X56206Y173879D01*
X56156Y173793D01*
X56102Y173709D01*
X56045Y173627D01*
X55985Y173548D01*
X55921Y173470D01*
X55855Y173396D01*
X55786Y173324D01*
X55714Y173255D01*
X55640Y173189D01*
X55562Y173125D01*
X55483Y173065D01*
X55401Y173008D01*
X55317Y172954D01*
X55231Y172904D01*
X55143Y172857D01*
X55053Y172813D01*
X54962Y172773D01*
X54869Y172737D01*
X54775Y172704D01*
X54679Y172675D01*
X54583Y172650D01*
X54486Y172629D01*
X54387Y172611D01*
X54289Y172598D01*
X54189Y172588D01*
X54090Y172582D01*
X53990Y172580D01*
X56530Y284340D02*
X56528Y284440D01*
X56522Y284539D01*
X56512Y284639D01*
X56499Y284737D01*
X56481Y284836D01*
X56460Y284933D01*
X56435Y285029D01*
X56406Y285125D01*
X56373Y285219D01*
X56337Y285312D01*
X56297Y285403D01*
X56253Y285493D01*
X56206Y285581D01*
X56156Y285667D01*
X56102Y285751D01*
X56045Y285833D01*
X55985Y285912D01*
X55921Y285990D01*
X55855Y286064D01*
X55786Y286136D01*
X55714Y286205D01*
X55640Y286271D01*
X55562Y286335D01*
X55483Y286395D01*
X55401Y286452D01*
X55317Y286506D01*
X55231Y286556D01*
X55143Y286603D01*
X55053Y286647D01*
X54962Y286687D01*
X54869Y286723D01*
X54775Y286756D01*
X54679Y286785D01*
X54583Y286810D01*
X54486Y286831D01*
X54387Y286849D01*
X54289Y286862D01*
X54189Y286872D01*
X54090Y286878D01*
X53990Y286880D01*
X38750Y232270D02*
X26050Y232270D01*
X26050Y227190D01*
X38750Y227190D01*
X38750Y232270D01*
X38750Y236080D02*
X32400Y236080D01*
X26050Y236080D01*
D10*
X32400Y236080D02*
X32400Y239890D01*
D12*
X32400Y223380D02*
X38750Y223380D01*
X32400Y223380D02*
X26050Y223380D01*
D10*
X32400Y223380D02*
X32400Y219570D01*
D16*
X64150Y268834D02*
X69230Y268834D01*
X64150Y268834D02*
X64039Y268836D01*
X63929Y268842D01*
X63818Y268851D01*
X63708Y268865D01*
X63599Y268882D01*
X63490Y268903D01*
X63382Y268928D01*
X63275Y268957D01*
X63169Y268989D01*
X63064Y269025D01*
X62961Y269065D01*
X62859Y269108D01*
X62758Y269155D01*
X62659Y269206D01*
X62563Y269259D01*
X62468Y269316D01*
X62375Y269377D01*
X62284Y269440D01*
X62195Y269507D01*
X62109Y269577D01*
X62026Y269650D01*
X61944Y269725D01*
X61866Y269803D01*
X61791Y269885D01*
X61718Y269968D01*
X61648Y270054D01*
X61581Y270143D01*
X61518Y270234D01*
X61457Y270327D01*
X61400Y270422D01*
X61347Y270518D01*
X61296Y270617D01*
X61249Y270718D01*
X61206Y270820D01*
X61166Y270923D01*
X61130Y271028D01*
X61098Y271134D01*
X61069Y271241D01*
X61044Y271349D01*
X61023Y271458D01*
X61006Y271567D01*
X60992Y271677D01*
X60983Y271788D01*
X60977Y271898D01*
X60975Y272009D01*
X60977Y272120D01*
X60983Y272230D01*
X60992Y272341D01*
X61006Y272451D01*
X61023Y272560D01*
X61044Y272669D01*
X61069Y272777D01*
X61098Y272884D01*
X61130Y272990D01*
X61166Y273095D01*
X61206Y273198D01*
X61249Y273300D01*
X61296Y273401D01*
X61347Y273500D01*
X61400Y273597D01*
X61457Y273691D01*
X61518Y273784D01*
X61581Y273875D01*
X61648Y273964D01*
X61718Y274050D01*
X61791Y274133D01*
X61866Y274215D01*
X61944Y274293D01*
X62026Y274368D01*
X62109Y274441D01*
X62195Y274511D01*
X62284Y274578D01*
X62375Y274641D01*
X62468Y274702D01*
X62563Y274759D01*
X62659Y274812D01*
X62758Y274863D01*
X62859Y274910D01*
X62961Y274953D01*
X63064Y274993D01*
X63169Y275029D01*
X63275Y275061D01*
X63382Y275090D01*
X63490Y275115D01*
X63599Y275136D01*
X63708Y275153D01*
X63818Y275167D01*
X63929Y275176D01*
X64039Y275182D01*
X64150Y275184D01*
X69230Y275184D01*
X69341Y275182D01*
X69451Y275176D01*
X69562Y275167D01*
X69672Y275153D01*
X69781Y275136D01*
X69890Y275115D01*
X69998Y275090D01*
X70105Y275061D01*
X70211Y275029D01*
X70316Y274993D01*
X70419Y274953D01*
X70521Y274910D01*
X70622Y274863D01*
X70721Y274812D01*
X70818Y274759D01*
X70912Y274702D01*
X71005Y274641D01*
X71096Y274578D01*
X71185Y274511D01*
X71271Y274441D01*
X71354Y274368D01*
X71436Y274293D01*
X71514Y274215D01*
X71589Y274133D01*
X71662Y274050D01*
X71732Y273964D01*
X71799Y273875D01*
X71862Y273784D01*
X71923Y273691D01*
X71980Y273596D01*
X72033Y273500D01*
X72084Y273401D01*
X72131Y273300D01*
X72174Y273198D01*
X72214Y273095D01*
X72250Y272990D01*
X72282Y272884D01*
X72311Y272777D01*
X72336Y272669D01*
X72357Y272560D01*
X72374Y272451D01*
X72388Y272341D01*
X72397Y272230D01*
X72403Y272120D01*
X72405Y272009D01*
X72403Y271898D01*
X72397Y271788D01*
X72388Y271677D01*
X72374Y271567D01*
X72357Y271458D01*
X72336Y271349D01*
X72311Y271241D01*
X72282Y271134D01*
X72250Y271028D01*
X72214Y270923D01*
X72174Y270820D01*
X72131Y270718D01*
X72084Y270617D01*
X72033Y270518D01*
X71980Y270421D01*
X71923Y270327D01*
X71862Y270234D01*
X71799Y270143D01*
X71732Y270054D01*
X71662Y269968D01*
X71589Y269885D01*
X71514Y269803D01*
X71436Y269725D01*
X71354Y269650D01*
X71271Y269577D01*
X71185Y269507D01*
X71096Y269440D01*
X71005Y269377D01*
X70912Y269316D01*
X70817Y269259D01*
X70721Y269206D01*
X70622Y269155D01*
X70521Y269108D01*
X70419Y269065D01*
X70316Y269025D01*
X70211Y268989D01*
X70105Y268957D01*
X69998Y268928D01*
X69890Y268903D01*
X69781Y268882D01*
X69672Y268865D01*
X69562Y268851D01*
X69451Y268842D01*
X69341Y268836D01*
X69230Y268834D01*
X69865Y273914D02*
X72405Y276454D01*
X63515Y279895D02*
X60975Y283070D01*
X72405Y283070D01*
X72405Y279895D02*
X72405Y286245D01*
D11*
X22692Y327475D02*
X11008Y327475D01*
X11008Y330720D01*
X11010Y330833D01*
X11016Y330946D01*
X11026Y331059D01*
X11040Y331172D01*
X11057Y331284D01*
X11079Y331395D01*
X11104Y331505D01*
X11134Y331615D01*
X11167Y331723D01*
X11204Y331830D01*
X11244Y331936D01*
X11289Y332040D01*
X11337Y332143D01*
X11388Y332244D01*
X11443Y332343D01*
X11501Y332440D01*
X11563Y332535D01*
X11628Y332628D01*
X11696Y332718D01*
X11767Y332806D01*
X11842Y332892D01*
X11919Y332975D01*
X11999Y333055D01*
X12082Y333132D01*
X12168Y333207D01*
X12256Y333278D01*
X12346Y333346D01*
X12439Y333411D01*
X12534Y333473D01*
X12631Y333531D01*
X12730Y333586D01*
X12831Y333637D01*
X12934Y333685D01*
X13038Y333730D01*
X13144Y333770D01*
X13251Y333807D01*
X13359Y333840D01*
X13469Y333870D01*
X13579Y333895D01*
X13690Y333917D01*
X13802Y333934D01*
X13915Y333948D01*
X14028Y333958D01*
X14141Y333964D01*
X14254Y333966D01*
X14367Y333964D01*
X14480Y333958D01*
X14593Y333948D01*
X14706Y333934D01*
X14818Y333917D01*
X14929Y333895D01*
X15039Y333870D01*
X15149Y333840D01*
X15257Y333807D01*
X15364Y333770D01*
X15470Y333730D01*
X15574Y333685D01*
X15677Y333637D01*
X15778Y333586D01*
X15877Y333531D01*
X15974Y333473D01*
X16069Y333411D01*
X16162Y333346D01*
X16252Y333278D01*
X16340Y333207D01*
X16426Y333132D01*
X16509Y333055D01*
X16589Y332975D01*
X16666Y332892D01*
X16741Y332806D01*
X16812Y332718D01*
X16880Y332628D01*
X16945Y332535D01*
X17007Y332440D01*
X17065Y332343D01*
X17120Y332244D01*
X17171Y332143D01*
X17219Y332040D01*
X17264Y331936D01*
X17304Y331830D01*
X17341Y331723D01*
X17374Y331615D01*
X17404Y331505D01*
X17429Y331395D01*
X17451Y331284D01*
X17468Y331172D01*
X17482Y331059D01*
X17492Y330946D01*
X17498Y330833D01*
X17500Y330720D01*
X17499Y330720D02*
X17499Y327475D01*
X17499Y331369D02*
X22692Y333966D01*
X13604Y338831D02*
X11008Y342076D01*
X22692Y342076D01*
X22692Y338831D02*
X22692Y345322D01*
D13*
X150110Y365570D02*
X193290Y365570D01*
X193290Y426530D02*
X150110Y426530D01*
X141220Y406210D02*
X141220Y386070D01*
X202180Y385770D02*
X202180Y406210D01*
X153920Y396050D02*
X153925Y396486D01*
X153941Y396922D01*
X153968Y397358D01*
X154006Y397793D01*
X154054Y398226D01*
X154112Y398659D01*
X154182Y399090D01*
X154262Y399519D01*
X154352Y399946D01*
X154453Y400370D01*
X154564Y400792D01*
X154686Y401211D01*
X154817Y401627D01*
X154959Y402040D01*
X155111Y402449D01*
X155273Y402854D01*
X155445Y403255D01*
X155627Y403652D01*
X155818Y404044D01*
X156019Y404431D01*
X156230Y404814D01*
X156450Y405191D01*
X156679Y405562D01*
X156916Y405928D01*
X157163Y406288D01*
X157419Y406642D01*
X157683Y406989D01*
X157956Y407330D01*
X158237Y407663D01*
X158526Y407990D01*
X158823Y408310D01*
X159128Y408622D01*
X159440Y408927D01*
X159760Y409224D01*
X160087Y409513D01*
X160420Y409794D01*
X160761Y410067D01*
X161108Y410331D01*
X161462Y410587D01*
X161822Y410834D01*
X162188Y411071D01*
X162559Y411300D01*
X162936Y411520D01*
X163319Y411731D01*
X163706Y411932D01*
X164098Y412123D01*
X164495Y412305D01*
X164896Y412477D01*
X165301Y412639D01*
X165710Y412791D01*
X166123Y412933D01*
X166539Y413064D01*
X166958Y413186D01*
X167380Y413297D01*
X167804Y413398D01*
X168231Y413488D01*
X168660Y413568D01*
X169091Y413638D01*
X169524Y413696D01*
X169957Y413744D01*
X170392Y413782D01*
X170828Y413809D01*
X171264Y413825D01*
X171700Y413830D01*
X172136Y413825D01*
X172572Y413809D01*
X173008Y413782D01*
X173443Y413744D01*
X173876Y413696D01*
X174309Y413638D01*
X174740Y413568D01*
X175169Y413488D01*
X175596Y413398D01*
X176020Y413297D01*
X176442Y413186D01*
X176861Y413064D01*
X177277Y412933D01*
X177690Y412791D01*
X178099Y412639D01*
X178504Y412477D01*
X178905Y412305D01*
X179302Y412123D01*
X179694Y411932D01*
X180081Y411731D01*
X180464Y411520D01*
X180841Y411300D01*
X181212Y411071D01*
X181578Y410834D01*
X181938Y410587D01*
X182292Y410331D01*
X182639Y410067D01*
X182980Y409794D01*
X183313Y409513D01*
X183640Y409224D01*
X183960Y408927D01*
X184272Y408622D01*
X184577Y408310D01*
X184874Y407990D01*
X185163Y407663D01*
X185444Y407330D01*
X185717Y406989D01*
X185981Y406642D01*
X186237Y406288D01*
X186484Y405928D01*
X186721Y405562D01*
X186950Y405191D01*
X187170Y404814D01*
X187381Y404431D01*
X187582Y404044D01*
X187773Y403652D01*
X187955Y403255D01*
X188127Y402854D01*
X188289Y402449D01*
X188441Y402040D01*
X188583Y401627D01*
X188714Y401211D01*
X188836Y400792D01*
X188947Y400370D01*
X189048Y399946D01*
X189138Y399519D01*
X189218Y399090D01*
X189288Y398659D01*
X189346Y398226D01*
X189394Y397793D01*
X189432Y397358D01*
X189459Y396922D01*
X189475Y396486D01*
X189480Y396050D01*
X189475Y395614D01*
X189459Y395178D01*
X189432Y394742D01*
X189394Y394307D01*
X189346Y393874D01*
X189288Y393441D01*
X189218Y393010D01*
X189138Y392581D01*
X189048Y392154D01*
X188947Y391730D01*
X188836Y391308D01*
X188714Y390889D01*
X188583Y390473D01*
X188441Y390060D01*
X188289Y389651D01*
X188127Y389246D01*
X187955Y388845D01*
X187773Y388448D01*
X187582Y388056D01*
X187381Y387669D01*
X187170Y387286D01*
X186950Y386909D01*
X186721Y386538D01*
X186484Y386172D01*
X186237Y385812D01*
X185981Y385458D01*
X185717Y385111D01*
X185444Y384770D01*
X185163Y384437D01*
X184874Y384110D01*
X184577Y383790D01*
X184272Y383478D01*
X183960Y383173D01*
X183640Y382876D01*
X183313Y382587D01*
X182980Y382306D01*
X182639Y382033D01*
X182292Y381769D01*
X181938Y381513D01*
X181578Y381266D01*
X181212Y381029D01*
X180841Y380800D01*
X180464Y380580D01*
X180081Y380369D01*
X179694Y380168D01*
X179302Y379977D01*
X178905Y379795D01*
X178504Y379623D01*
X178099Y379461D01*
X177690Y379309D01*
X177277Y379167D01*
X176861Y379036D01*
X176442Y378914D01*
X176020Y378803D01*
X175596Y378702D01*
X175169Y378612D01*
X174740Y378532D01*
X174309Y378462D01*
X173876Y378404D01*
X173443Y378356D01*
X173008Y378318D01*
X172572Y378291D01*
X172136Y378275D01*
X171700Y378270D01*
X171264Y378275D01*
X170828Y378291D01*
X170392Y378318D01*
X169957Y378356D01*
X169524Y378404D01*
X169091Y378462D01*
X168660Y378532D01*
X168231Y378612D01*
X167804Y378702D01*
X167380Y378803D01*
X166958Y378914D01*
X166539Y379036D01*
X166123Y379167D01*
X165710Y379309D01*
X165301Y379461D01*
X164896Y379623D01*
X164495Y379795D01*
X164098Y379977D01*
X163706Y380168D01*
X163319Y380369D01*
X162936Y380580D01*
X162559Y380800D01*
X162188Y381029D01*
X161822Y381266D01*
X161462Y381513D01*
X161108Y381769D01*
X160761Y382033D01*
X160420Y382306D01*
X160087Y382587D01*
X159760Y382876D01*
X159440Y383173D01*
X159128Y383478D01*
X158823Y383790D01*
X158526Y384110D01*
X158237Y384437D01*
X157956Y384770D01*
X157683Y385111D01*
X157419Y385458D01*
X157163Y385812D01*
X156916Y386172D01*
X156679Y386538D01*
X156450Y386909D01*
X156230Y387286D01*
X156019Y387669D01*
X155818Y388056D01*
X155627Y388448D01*
X155445Y388845D01*
X155273Y389246D01*
X155111Y389651D01*
X154959Y390060D01*
X154817Y390473D01*
X154686Y390889D01*
X154564Y391308D01*
X154453Y391730D01*
X154352Y392154D01*
X154262Y392581D01*
X154182Y393010D01*
X154112Y393441D01*
X154054Y393874D01*
X154006Y394307D01*
X153968Y394742D01*
X153941Y395178D01*
X153925Y395614D01*
X153920Y396050D01*
D16*
X160516Y428435D02*
X160516Y433261D01*
X161856Y433261D01*
X161927Y433259D01*
X161999Y433253D01*
X162069Y433244D01*
X162139Y433231D01*
X162209Y433214D01*
X162277Y433193D01*
X162344Y433169D01*
X162410Y433141D01*
X162474Y433110D01*
X162537Y433075D01*
X162597Y433037D01*
X162656Y432996D01*
X162712Y432952D01*
X162766Y432905D01*
X162817Y432856D01*
X162865Y432803D01*
X162911Y432748D01*
X162953Y432691D01*
X162993Y432631D01*
X163029Y432570D01*
X163062Y432506D01*
X163091Y432441D01*
X163117Y432375D01*
X163140Y432307D01*
X163159Y432238D01*
X163174Y432168D01*
X163185Y432098D01*
X163193Y432027D01*
X163197Y431956D01*
X163197Y431884D01*
X163193Y431813D01*
X163185Y431742D01*
X163174Y431672D01*
X163159Y431602D01*
X163140Y431533D01*
X163117Y431465D01*
X163091Y431399D01*
X163062Y431334D01*
X163029Y431270D01*
X162993Y431209D01*
X162953Y431149D01*
X162911Y431092D01*
X162865Y431037D01*
X162817Y430984D01*
X162766Y430935D01*
X162712Y430888D01*
X162656Y430844D01*
X162597Y430803D01*
X162537Y430765D01*
X162474Y430730D01*
X162410Y430699D01*
X162344Y430671D01*
X162277Y430647D01*
X162209Y430626D01*
X162139Y430609D01*
X162069Y430596D01*
X161999Y430587D01*
X161927Y430581D01*
X161856Y430579D01*
X161856Y430580D02*
X160516Y430580D01*
X162125Y430580D02*
X163197Y428435D01*
X166141Y428435D02*
X168286Y428435D01*
X166141Y428435D02*
X166141Y433261D01*
X168286Y433261D01*
X167750Y431116D02*
X166141Y431116D01*
X172119Y428435D02*
X172184Y428437D01*
X172248Y428443D01*
X172312Y428453D01*
X172376Y428466D01*
X172438Y428484D01*
X172499Y428505D01*
X172559Y428529D01*
X172617Y428558D01*
X172674Y428590D01*
X172728Y428625D01*
X172780Y428663D01*
X172830Y428705D01*
X172877Y428749D01*
X172921Y428796D01*
X172963Y428846D01*
X173001Y428898D01*
X173036Y428952D01*
X173068Y429009D01*
X173097Y429067D01*
X173121Y429127D01*
X173142Y429188D01*
X173160Y429250D01*
X173173Y429314D01*
X173183Y429378D01*
X173189Y429442D01*
X173191Y429507D01*
X172119Y428435D02*
X172025Y428437D01*
X171931Y428443D01*
X171837Y428453D01*
X171744Y428466D01*
X171652Y428484D01*
X171560Y428505D01*
X171469Y428530D01*
X171379Y428559D01*
X171291Y428592D01*
X171204Y428628D01*
X171119Y428668D01*
X171035Y428711D01*
X170954Y428758D01*
X170874Y428808D01*
X170796Y428861D01*
X170721Y428918D01*
X170648Y428977D01*
X170578Y429040D01*
X170510Y429105D01*
X170645Y432189D02*
X170647Y432254D01*
X170653Y432318D01*
X170663Y432382D01*
X170676Y432446D01*
X170694Y432508D01*
X170715Y432569D01*
X170739Y432629D01*
X170768Y432687D01*
X170800Y432744D01*
X170835Y432798D01*
X170873Y432850D01*
X170915Y432900D01*
X170959Y432947D01*
X171006Y432991D01*
X171056Y433033D01*
X171108Y433071D01*
X171162Y433106D01*
X171219Y433138D01*
X171277Y433167D01*
X171337Y433191D01*
X171398Y433212D01*
X171460Y433230D01*
X171524Y433243D01*
X171588Y433253D01*
X171652Y433259D01*
X171717Y433261D01*
X171803Y433259D01*
X171889Y433254D01*
X171975Y433244D01*
X172060Y433231D01*
X172145Y433215D01*
X172229Y433195D01*
X172312Y433171D01*
X172394Y433144D01*
X172474Y433113D01*
X172554Y433079D01*
X172631Y433041D01*
X172707Y433000D01*
X172781Y432956D01*
X172853Y432909D01*
X172924Y432859D01*
X171181Y431251D02*
X171128Y431284D01*
X171077Y431321D01*
X171028Y431360D01*
X170981Y431402D01*
X170937Y431447D01*
X170896Y431494D01*
X170857Y431543D01*
X170821Y431595D01*
X170788Y431649D01*
X170759Y431704D01*
X170733Y431761D01*
X170710Y431820D01*
X170690Y431879D01*
X170674Y431940D01*
X170661Y432001D01*
X170652Y432064D01*
X170647Y432126D01*
X170645Y432189D01*
X172655Y430445D02*
X172708Y430412D01*
X172759Y430375D01*
X172808Y430336D01*
X172855Y430294D01*
X172899Y430249D01*
X172940Y430202D01*
X172979Y430153D01*
X173015Y430101D01*
X173048Y430047D01*
X173077Y429992D01*
X173103Y429935D01*
X173126Y429876D01*
X173146Y429817D01*
X173162Y429756D01*
X173175Y429695D01*
X173184Y429632D01*
X173189Y429570D01*
X173191Y429507D01*
X172655Y430446D02*
X171181Y431250D01*
X176016Y428435D02*
X178161Y428435D01*
X176016Y428435D02*
X176016Y433261D01*
X178161Y433261D01*
X177625Y431116D02*
X176016Y431116D01*
X181544Y433261D02*
X181544Y428435D01*
X180203Y433261D02*
X182884Y433261D01*
D12*
X18160Y51340D02*
X18170Y52182D01*
X18201Y53023D01*
X18253Y53863D01*
X18325Y54701D01*
X18418Y55537D01*
X18531Y56371D01*
X18665Y57202D01*
X18819Y58030D01*
X18993Y58853D01*
X19188Y59672D01*
X19402Y60486D01*
X19637Y61294D01*
X19891Y62096D01*
X20164Y62892D01*
X20458Y63681D01*
X20770Y64462D01*
X21102Y65236D01*
X21452Y66001D01*
X21821Y66757D01*
X22209Y67504D01*
X22615Y68241D01*
X23038Y68969D01*
X23480Y69685D01*
X23939Y70391D01*
X24415Y71084D01*
X24908Y71767D01*
X25418Y72436D01*
X25943Y73093D01*
X26485Y73737D01*
X27043Y74368D01*
X27616Y74984D01*
X28203Y75587D01*
X28806Y76174D01*
X29422Y76747D01*
X30053Y77305D01*
X30697Y77847D01*
X31354Y78372D01*
X32023Y78882D01*
X32706Y79375D01*
X33399Y79851D01*
X34105Y80310D01*
X34821Y80752D01*
X35549Y81175D01*
X36286Y81581D01*
X37033Y81969D01*
X37789Y82338D01*
X38554Y82688D01*
X39328Y83020D01*
X40109Y83332D01*
X40898Y83626D01*
X41694Y83899D01*
X42496Y84153D01*
X43304Y84388D01*
X44118Y84602D01*
X44937Y84797D01*
X45760Y84971D01*
X46588Y85125D01*
X47419Y85259D01*
X48253Y85372D01*
X49089Y85465D01*
X49927Y85537D01*
X50767Y85589D01*
X51608Y85620D01*
X52450Y85630D01*
X53292Y85620D01*
X54133Y85589D01*
X54973Y85537D01*
X55811Y85465D01*
X56647Y85372D01*
X57481Y85259D01*
X58312Y85125D01*
X59140Y84971D01*
X59963Y84797D01*
X60782Y84602D01*
X61596Y84388D01*
X62404Y84153D01*
X63206Y83899D01*
X64002Y83626D01*
X64791Y83332D01*
X65572Y83020D01*
X66346Y82688D01*
X67111Y82338D01*
X67867Y81969D01*
X68614Y81581D01*
X69351Y81175D01*
X70079Y80752D01*
X70795Y80310D01*
X71501Y79851D01*
X72194Y79375D01*
X72877Y78882D01*
X73546Y78372D01*
X74203Y77847D01*
X74847Y77305D01*
X75478Y76747D01*
X76094Y76174D01*
X76697Y75587D01*
X77284Y74984D01*
X77857Y74368D01*
X78415Y73737D01*
X78957Y73093D01*
X79482Y72436D01*
X79992Y71767D01*
X80485Y71084D01*
X80961Y70391D01*
X81420Y69685D01*
X81862Y68969D01*
X82285Y68241D01*
X82691Y67504D01*
X83079Y66757D01*
X83448Y66001D01*
X83798Y65236D01*
X84130Y64462D01*
X84442Y63681D01*
X84736Y62892D01*
X85009Y62096D01*
X85263Y61294D01*
X85498Y60486D01*
X85712Y59672D01*
X85907Y58853D01*
X86081Y58030D01*
X86235Y57202D01*
X86369Y56371D01*
X86482Y55537D01*
X86575Y54701D01*
X86647Y53863D01*
X86699Y53023D01*
X86730Y52182D01*
X86740Y51340D01*
X86730Y50498D01*
X86699Y49657D01*
X86647Y48817D01*
X86575Y47979D01*
X86482Y47143D01*
X86369Y46309D01*
X86235Y45478D01*
X86081Y44650D01*
X85907Y43827D01*
X85712Y43008D01*
X85498Y42194D01*
X85263Y41386D01*
X85009Y40584D01*
X84736Y39788D01*
X84442Y38999D01*
X84130Y38218D01*
X83798Y37444D01*
X83448Y36679D01*
X83079Y35923D01*
X82691Y35176D01*
X82285Y34439D01*
X81862Y33711D01*
X81420Y32995D01*
X80961Y32289D01*
X80485Y31596D01*
X79992Y30913D01*
X79482Y30244D01*
X78957Y29587D01*
X78415Y28943D01*
X77857Y28312D01*
X77284Y27696D01*
X76697Y27093D01*
X76094Y26506D01*
X75478Y25933D01*
X74847Y25375D01*
X74203Y24833D01*
X73546Y24308D01*
X72877Y23798D01*
X72194Y23305D01*
X71501Y22829D01*
X70795Y22370D01*
X70079Y21928D01*
X69351Y21505D01*
X68614Y21099D01*
X67867Y20711D01*
X67111Y20342D01*
X66346Y19992D01*
X65572Y19660D01*
X64791Y19348D01*
X64002Y19054D01*
X63206Y18781D01*
X62404Y18527D01*
X61596Y18292D01*
X60782Y18078D01*
X59963Y17883D01*
X59140Y17709D01*
X58312Y17555D01*
X57481Y17421D01*
X56647Y17308D01*
X55811Y17215D01*
X54973Y17143D01*
X54133Y17091D01*
X53292Y17060D01*
X52450Y17050D01*
X51608Y17060D01*
X50767Y17091D01*
X49927Y17143D01*
X49089Y17215D01*
X48253Y17308D01*
X47419Y17421D01*
X46588Y17555D01*
X45760Y17709D01*
X44937Y17883D01*
X44118Y18078D01*
X43304Y18292D01*
X42496Y18527D01*
X41694Y18781D01*
X40898Y19054D01*
X40109Y19348D01*
X39328Y19660D01*
X38554Y19992D01*
X37789Y20342D01*
X37033Y20711D01*
X36286Y21099D01*
X35549Y21505D01*
X34821Y21928D01*
X34105Y22370D01*
X33399Y22829D01*
X32706Y23305D01*
X32023Y23798D01*
X31354Y24308D01*
X30697Y24833D01*
X30053Y25375D01*
X29422Y25933D01*
X28806Y26506D01*
X28203Y27093D01*
X27616Y27696D01*
X27043Y28312D01*
X26485Y28943D01*
X25943Y29587D01*
X25418Y30244D01*
X24908Y30913D01*
X24415Y31596D01*
X23939Y32289D01*
X23480Y32995D01*
X23038Y33711D01*
X22615Y34439D01*
X22209Y35176D01*
X21821Y35923D01*
X21452Y36679D01*
X21102Y37444D01*
X20770Y38218D01*
X20458Y38999D01*
X20164Y39788D01*
X19891Y40584D01*
X19637Y41386D01*
X19402Y42194D01*
X19188Y43008D01*
X18993Y43827D01*
X18819Y44650D01*
X18665Y45478D01*
X18531Y46309D01*
X18418Y47143D01*
X18325Y47979D01*
X18253Y48817D01*
X18201Y49657D01*
X18170Y50498D01*
X18160Y51340D01*
D13*
X36450Y51340D02*
X36455Y51733D01*
X36469Y52125D01*
X36493Y52517D01*
X36527Y52908D01*
X36570Y53299D01*
X36623Y53688D01*
X36686Y54075D01*
X36757Y54461D01*
X36839Y54846D01*
X36929Y55228D01*
X37030Y55607D01*
X37139Y55985D01*
X37258Y56359D01*
X37385Y56730D01*
X37522Y57098D01*
X37668Y57463D01*
X37823Y57824D01*
X37986Y58181D01*
X38158Y58534D01*
X38339Y58882D01*
X38529Y59226D01*
X38726Y59566D01*
X38932Y59900D01*
X39146Y60229D01*
X39369Y60553D01*
X39599Y60871D01*
X39836Y61184D01*
X40082Y61490D01*
X40335Y61791D01*
X40595Y62085D01*
X40862Y62373D01*
X41136Y62654D01*
X41417Y62928D01*
X41705Y63195D01*
X41999Y63455D01*
X42300Y63708D01*
X42606Y63954D01*
X42919Y64191D01*
X43237Y64421D01*
X43561Y64644D01*
X43890Y64858D01*
X44224Y65064D01*
X44564Y65261D01*
X44908Y65451D01*
X45256Y65632D01*
X45609Y65804D01*
X45966Y65967D01*
X46327Y66122D01*
X46692Y66268D01*
X47060Y66405D01*
X47431Y66532D01*
X47805Y66651D01*
X48183Y66760D01*
X48562Y66861D01*
X48944Y66951D01*
X49329Y67033D01*
X49715Y67104D01*
X50102Y67167D01*
X50491Y67220D01*
X50882Y67263D01*
X51273Y67297D01*
X51665Y67321D01*
X52057Y67335D01*
X52450Y67340D01*
X52843Y67335D01*
X53235Y67321D01*
X53627Y67297D01*
X54018Y67263D01*
X54409Y67220D01*
X54798Y67167D01*
X55185Y67104D01*
X55571Y67033D01*
X55956Y66951D01*
X56338Y66861D01*
X56717Y66760D01*
X57095Y66651D01*
X57469Y66532D01*
X57840Y66405D01*
X58208Y66268D01*
X58573Y66122D01*
X58934Y65967D01*
X59291Y65804D01*
X59644Y65632D01*
X59992Y65451D01*
X60336Y65261D01*
X60676Y65064D01*
X61010Y64858D01*
X61339Y64644D01*
X61663Y64421D01*
X61981Y64191D01*
X62294Y63954D01*
X62600Y63708D01*
X62901Y63455D01*
X63195Y63195D01*
X63483Y62928D01*
X63764Y62654D01*
X64038Y62373D01*
X64305Y62085D01*
X64565Y61791D01*
X64818Y61490D01*
X65064Y61184D01*
X65301Y60871D01*
X65531Y60553D01*
X65754Y60229D01*
X65968Y59900D01*
X66174Y59566D01*
X66371Y59226D01*
X66561Y58882D01*
X66742Y58534D01*
X66914Y58181D01*
X67077Y57824D01*
X67232Y57463D01*
X67378Y57098D01*
X67515Y56730D01*
X67642Y56359D01*
X67761Y55985D01*
X67870Y55607D01*
X67971Y55228D01*
X68061Y54846D01*
X68143Y54461D01*
X68214Y54075D01*
X68277Y53688D01*
X68330Y53299D01*
X68373Y52908D01*
X68407Y52517D01*
X68431Y52125D01*
X68445Y51733D01*
X68450Y51340D01*
X68445Y50947D01*
X68431Y50555D01*
X68407Y50163D01*
X68373Y49772D01*
X68330Y49381D01*
X68277Y48992D01*
X68214Y48605D01*
X68143Y48219D01*
X68061Y47834D01*
X67971Y47452D01*
X67870Y47073D01*
X67761Y46695D01*
X67642Y46321D01*
X67515Y45950D01*
X67378Y45582D01*
X67232Y45217D01*
X67077Y44856D01*
X66914Y44499D01*
X66742Y44146D01*
X66561Y43798D01*
X66371Y43454D01*
X66174Y43114D01*
X65968Y42780D01*
X65754Y42451D01*
X65531Y42127D01*
X65301Y41809D01*
X65064Y41496D01*
X64818Y41190D01*
X64565Y40889D01*
X64305Y40595D01*
X64038Y40307D01*
X63764Y40026D01*
X63483Y39752D01*
X63195Y39485D01*
X62901Y39225D01*
X62600Y38972D01*
X62294Y38726D01*
X61981Y38489D01*
X61663Y38259D01*
X61339Y38036D01*
X61010Y37822D01*
X60676Y37616D01*
X60336Y37419D01*
X59992Y37229D01*
X59644Y37048D01*
X59291Y36876D01*
X58934Y36713D01*
X58573Y36558D01*
X58208Y36412D01*
X57840Y36275D01*
X57469Y36148D01*
X57095Y36029D01*
X56717Y35920D01*
X56338Y35819D01*
X55956Y35729D01*
X55571Y35647D01*
X55185Y35576D01*
X54798Y35513D01*
X54409Y35460D01*
X54018Y35417D01*
X53627Y35383D01*
X53235Y35359D01*
X52843Y35345D01*
X52450Y35340D01*
X52057Y35345D01*
X51665Y35359D01*
X51273Y35383D01*
X50882Y35417D01*
X50491Y35460D01*
X50102Y35513D01*
X49715Y35576D01*
X49329Y35647D01*
X48944Y35729D01*
X48562Y35819D01*
X48183Y35920D01*
X47805Y36029D01*
X47431Y36148D01*
X47060Y36275D01*
X46692Y36412D01*
X46327Y36558D01*
X45966Y36713D01*
X45609Y36876D01*
X45256Y37048D01*
X44908Y37229D01*
X44564Y37419D01*
X44224Y37616D01*
X43890Y37822D01*
X43561Y38036D01*
X43237Y38259D01*
X42919Y38489D01*
X42606Y38726D01*
X42300Y38972D01*
X41999Y39225D01*
X41705Y39485D01*
X41417Y39752D01*
X41136Y40026D01*
X40862Y40307D01*
X40595Y40595D01*
X40335Y40889D01*
X40082Y41190D01*
X39836Y41496D01*
X39599Y41809D01*
X39369Y42127D01*
X39146Y42451D01*
X38932Y42780D01*
X38726Y43114D01*
X38529Y43454D01*
X38339Y43798D01*
X38158Y44146D01*
X37986Y44499D01*
X37823Y44856D01*
X37668Y45217D01*
X37522Y45582D01*
X37385Y45950D01*
X37258Y46321D01*
X37139Y46695D01*
X37030Y47073D01*
X36929Y47452D01*
X36839Y47834D01*
X36757Y48219D01*
X36686Y48605D01*
X36623Y48992D01*
X36570Y49381D01*
X36527Y49772D01*
X36493Y50163D01*
X36469Y50555D01*
X36455Y50947D01*
X36450Y51340D01*
D12*
X467260Y47360D02*
X467270Y48202D01*
X467301Y49043D01*
X467353Y49883D01*
X467425Y50721D01*
X467518Y51557D01*
X467631Y52391D01*
X467765Y53222D01*
X467919Y54050D01*
X468093Y54873D01*
X468288Y55692D01*
X468502Y56506D01*
X468737Y57314D01*
X468991Y58116D01*
X469264Y58912D01*
X469558Y59701D01*
X469870Y60482D01*
X470202Y61256D01*
X470552Y62021D01*
X470921Y62777D01*
X471309Y63524D01*
X471715Y64261D01*
X472138Y64989D01*
X472580Y65705D01*
X473039Y66411D01*
X473515Y67104D01*
X474008Y67787D01*
X474518Y68456D01*
X475043Y69113D01*
X475585Y69757D01*
X476143Y70388D01*
X476716Y71004D01*
X477303Y71607D01*
X477906Y72194D01*
X478522Y72767D01*
X479153Y73325D01*
X479797Y73867D01*
X480454Y74392D01*
X481123Y74902D01*
X481806Y75395D01*
X482499Y75871D01*
X483205Y76330D01*
X483921Y76772D01*
X484649Y77195D01*
X485386Y77601D01*
X486133Y77989D01*
X486889Y78358D01*
X487654Y78708D01*
X488428Y79040D01*
X489209Y79352D01*
X489998Y79646D01*
X490794Y79919D01*
X491596Y80173D01*
X492404Y80408D01*
X493218Y80622D01*
X494037Y80817D01*
X494860Y80991D01*
X495688Y81145D01*
X496519Y81279D01*
X497353Y81392D01*
X498189Y81485D01*
X499027Y81557D01*
X499867Y81609D01*
X500708Y81640D01*
X501550Y81650D01*
X502392Y81640D01*
X503233Y81609D01*
X504073Y81557D01*
X504911Y81485D01*
X505747Y81392D01*
X506581Y81279D01*
X507412Y81145D01*
X508240Y80991D01*
X509063Y80817D01*
X509882Y80622D01*
X510696Y80408D01*
X511504Y80173D01*
X512306Y79919D01*
X513102Y79646D01*
X513891Y79352D01*
X514672Y79040D01*
X515446Y78708D01*
X516211Y78358D01*
X516967Y77989D01*
X517714Y77601D01*
X518451Y77195D01*
X519179Y76772D01*
X519895Y76330D01*
X520601Y75871D01*
X521294Y75395D01*
X521977Y74902D01*
X522646Y74392D01*
X523303Y73867D01*
X523947Y73325D01*
X524578Y72767D01*
X525194Y72194D01*
X525797Y71607D01*
X526384Y71004D01*
X526957Y70388D01*
X527515Y69757D01*
X528057Y69113D01*
X528582Y68456D01*
X529092Y67787D01*
X529585Y67104D01*
X530061Y66411D01*
X530520Y65705D01*
X530962Y64989D01*
X531385Y64261D01*
X531791Y63524D01*
X532179Y62777D01*
X532548Y62021D01*
X532898Y61256D01*
X533230Y60482D01*
X533542Y59701D01*
X533836Y58912D01*
X534109Y58116D01*
X534363Y57314D01*
X534598Y56506D01*
X534812Y55692D01*
X535007Y54873D01*
X535181Y54050D01*
X535335Y53222D01*
X535469Y52391D01*
X535582Y51557D01*
X535675Y50721D01*
X535747Y49883D01*
X535799Y49043D01*
X535830Y48202D01*
X535840Y47360D01*
X535830Y46518D01*
X535799Y45677D01*
X535747Y44837D01*
X535675Y43999D01*
X535582Y43163D01*
X535469Y42329D01*
X535335Y41498D01*
X535181Y40670D01*
X535007Y39847D01*
X534812Y39028D01*
X534598Y38214D01*
X534363Y37406D01*
X534109Y36604D01*
X533836Y35808D01*
X533542Y35019D01*
X533230Y34238D01*
X532898Y33464D01*
X532548Y32699D01*
X532179Y31943D01*
X531791Y31196D01*
X531385Y30459D01*
X530962Y29731D01*
X530520Y29015D01*
X530061Y28309D01*
X529585Y27616D01*
X529092Y26933D01*
X528582Y26264D01*
X528057Y25607D01*
X527515Y24963D01*
X526957Y24332D01*
X526384Y23716D01*
X525797Y23113D01*
X525194Y22526D01*
X524578Y21953D01*
X523947Y21395D01*
X523303Y20853D01*
X522646Y20328D01*
X521977Y19818D01*
X521294Y19325D01*
X520601Y18849D01*
X519895Y18390D01*
X519179Y17948D01*
X518451Y17525D01*
X517714Y17119D01*
X516967Y16731D01*
X516211Y16362D01*
X515446Y16012D01*
X514672Y15680D01*
X513891Y15368D01*
X513102Y15074D01*
X512306Y14801D01*
X511504Y14547D01*
X510696Y14312D01*
X509882Y14098D01*
X509063Y13903D01*
X508240Y13729D01*
X507412Y13575D01*
X506581Y13441D01*
X505747Y13328D01*
X504911Y13235D01*
X504073Y13163D01*
X503233Y13111D01*
X502392Y13080D01*
X501550Y13070D01*
X500708Y13080D01*
X499867Y13111D01*
X499027Y13163D01*
X498189Y13235D01*
X497353Y13328D01*
X496519Y13441D01*
X495688Y13575D01*
X494860Y13729D01*
X494037Y13903D01*
X493218Y14098D01*
X492404Y14312D01*
X491596Y14547D01*
X490794Y14801D01*
X489998Y15074D01*
X489209Y15368D01*
X488428Y15680D01*
X487654Y16012D01*
X486889Y16362D01*
X486133Y16731D01*
X485386Y17119D01*
X484649Y17525D01*
X483921Y17948D01*
X483205Y18390D01*
X482499Y18849D01*
X481806Y19325D01*
X481123Y19818D01*
X480454Y20328D01*
X479797Y20853D01*
X479153Y21395D01*
X478522Y21953D01*
X477906Y22526D01*
X477303Y23113D01*
X476716Y23716D01*
X476143Y24332D01*
X475585Y24963D01*
X475043Y25607D01*
X474518Y26264D01*
X474008Y26933D01*
X473515Y27616D01*
X473039Y28309D01*
X472580Y29015D01*
X472138Y29731D01*
X471715Y30459D01*
X471309Y31196D01*
X470921Y31943D01*
X470552Y32699D01*
X470202Y33464D01*
X469870Y34238D01*
X469558Y35019D01*
X469264Y35808D01*
X468991Y36604D01*
X468737Y37406D01*
X468502Y38214D01*
X468288Y39028D01*
X468093Y39847D01*
X467919Y40670D01*
X467765Y41498D01*
X467631Y42329D01*
X467518Y43163D01*
X467425Y43999D01*
X467353Y44837D01*
X467301Y45677D01*
X467270Y46518D01*
X467260Y47360D01*
D13*
X485550Y47360D02*
X485555Y47753D01*
X485569Y48145D01*
X485593Y48537D01*
X485627Y48928D01*
X485670Y49319D01*
X485723Y49708D01*
X485786Y50095D01*
X485857Y50481D01*
X485939Y50866D01*
X486029Y51248D01*
X486130Y51627D01*
X486239Y52005D01*
X486358Y52379D01*
X486485Y52750D01*
X486622Y53118D01*
X486768Y53483D01*
X486923Y53844D01*
X487086Y54201D01*
X487258Y54554D01*
X487439Y54902D01*
X487629Y55246D01*
X487826Y55586D01*
X488032Y55920D01*
X488246Y56249D01*
X488469Y56573D01*
X488699Y56891D01*
X488936Y57204D01*
X489182Y57510D01*
X489435Y57811D01*
X489695Y58105D01*
X489962Y58393D01*
X490236Y58674D01*
X490517Y58948D01*
X490805Y59215D01*
X491099Y59475D01*
X491400Y59728D01*
X491706Y59974D01*
X492019Y60211D01*
X492337Y60441D01*
X492661Y60664D01*
X492990Y60878D01*
X493324Y61084D01*
X493664Y61281D01*
X494008Y61471D01*
X494356Y61652D01*
X494709Y61824D01*
X495066Y61987D01*
X495427Y62142D01*
X495792Y62288D01*
X496160Y62425D01*
X496531Y62552D01*
X496905Y62671D01*
X497283Y62780D01*
X497662Y62881D01*
X498044Y62971D01*
X498429Y63053D01*
X498815Y63124D01*
X499202Y63187D01*
X499591Y63240D01*
X499982Y63283D01*
X500373Y63317D01*
X500765Y63341D01*
X501157Y63355D01*
X501550Y63360D01*
X501943Y63355D01*
X502335Y63341D01*
X502727Y63317D01*
X503118Y63283D01*
X503509Y63240D01*
X503898Y63187D01*
X504285Y63124D01*
X504671Y63053D01*
X505056Y62971D01*
X505438Y62881D01*
X505817Y62780D01*
X506195Y62671D01*
X506569Y62552D01*
X506940Y62425D01*
X507308Y62288D01*
X507673Y62142D01*
X508034Y61987D01*
X508391Y61824D01*
X508744Y61652D01*
X509092Y61471D01*
X509436Y61281D01*
X509776Y61084D01*
X510110Y60878D01*
X510439Y60664D01*
X510763Y60441D01*
X511081Y60211D01*
X511394Y59974D01*
X511700Y59728D01*
X512001Y59475D01*
X512295Y59215D01*
X512583Y58948D01*
X512864Y58674D01*
X513138Y58393D01*
X513405Y58105D01*
X513665Y57811D01*
X513918Y57510D01*
X514164Y57204D01*
X514401Y56891D01*
X514631Y56573D01*
X514854Y56249D01*
X515068Y55920D01*
X515274Y55586D01*
X515471Y55246D01*
X515661Y54902D01*
X515842Y54554D01*
X516014Y54201D01*
X516177Y53844D01*
X516332Y53483D01*
X516478Y53118D01*
X516615Y52750D01*
X516742Y52379D01*
X516861Y52005D01*
X516970Y51627D01*
X517071Y51248D01*
X517161Y50866D01*
X517243Y50481D01*
X517314Y50095D01*
X517377Y49708D01*
X517430Y49319D01*
X517473Y48928D01*
X517507Y48537D01*
X517531Y48145D01*
X517545Y47753D01*
X517550Y47360D01*
X517545Y46967D01*
X517531Y46575D01*
X517507Y46183D01*
X517473Y45792D01*
X517430Y45401D01*
X517377Y45012D01*
X517314Y44625D01*
X517243Y44239D01*
X517161Y43854D01*
X517071Y43472D01*
X516970Y43093D01*
X516861Y42715D01*
X516742Y42341D01*
X516615Y41970D01*
X516478Y41602D01*
X516332Y41237D01*
X516177Y40876D01*
X516014Y40519D01*
X515842Y40166D01*
X515661Y39818D01*
X515471Y39474D01*
X515274Y39134D01*
X515068Y38800D01*
X514854Y38471D01*
X514631Y38147D01*
X514401Y37829D01*
X514164Y37516D01*
X513918Y37210D01*
X513665Y36909D01*
X513405Y36615D01*
X513138Y36327D01*
X512864Y36046D01*
X512583Y35772D01*
X512295Y35505D01*
X512001Y35245D01*
X511700Y34992D01*
X511394Y34746D01*
X511081Y34509D01*
X510763Y34279D01*
X510439Y34056D01*
X510110Y33842D01*
X509776Y33636D01*
X509436Y33439D01*
X509092Y33249D01*
X508744Y33068D01*
X508391Y32896D01*
X508034Y32733D01*
X507673Y32578D01*
X507308Y32432D01*
X506940Y32295D01*
X506569Y32168D01*
X506195Y32049D01*
X505817Y31940D01*
X505438Y31839D01*
X505056Y31749D01*
X504671Y31667D01*
X504285Y31596D01*
X503898Y31533D01*
X503509Y31480D01*
X503118Y31437D01*
X502727Y31403D01*
X502335Y31379D01*
X501943Y31365D01*
X501550Y31360D01*
X501157Y31365D01*
X500765Y31379D01*
X500373Y31403D01*
X499982Y31437D01*
X499591Y31480D01*
X499202Y31533D01*
X498815Y31596D01*
X498429Y31667D01*
X498044Y31749D01*
X497662Y31839D01*
X497283Y31940D01*
X496905Y32049D01*
X496531Y32168D01*
X496160Y32295D01*
X495792Y32432D01*
X495427Y32578D01*
X495066Y32733D01*
X494709Y32896D01*
X494356Y33068D01*
X494008Y33249D01*
X493664Y33439D01*
X493324Y33636D01*
X492990Y33842D01*
X492661Y34056D01*
X492337Y34279D01*
X492019Y34509D01*
X491706Y34746D01*
X491400Y34992D01*
X491099Y35245D01*
X490805Y35505D01*
X490517Y35772D01*
X490236Y36046D01*
X489962Y36327D01*
X489695Y36615D01*
X489435Y36909D01*
X489182Y37210D01*
X488936Y37516D01*
X488699Y37829D01*
X488469Y38147D01*
X488246Y38471D01*
X488032Y38800D01*
X487826Y39134D01*
X487629Y39474D01*
X487439Y39818D01*
X487258Y40166D01*
X487086Y40519D01*
X486923Y40876D01*
X486768Y41237D01*
X486622Y41602D01*
X486485Y41970D01*
X486358Y42341D01*
X486239Y42715D01*
X486130Y43093D01*
X486029Y43472D01*
X485939Y43854D01*
X485857Y44239D01*
X485786Y44625D01*
X485723Y45012D01*
X485670Y45401D01*
X485627Y45792D01*
X485593Y46183D01*
X485569Y46575D01*
X485555Y46967D01*
X485550Y47360D01*
D14*
X188400Y29600D02*
X188400Y159600D01*
X287400Y159600D01*
X287400Y29600D02*
X188400Y29600D01*
D17*
X286220Y7520D02*
X286222Y7603D01*
X286228Y7686D01*
X286238Y7769D01*
X286252Y7851D01*
X286269Y7933D01*
X286291Y8013D01*
X286316Y8092D01*
X286345Y8170D01*
X286378Y8247D01*
X286415Y8322D01*
X286454Y8395D01*
X286498Y8466D01*
X286544Y8535D01*
X286594Y8602D01*
X286647Y8666D01*
X286703Y8728D01*
X286762Y8787D01*
X286824Y8843D01*
X286888Y8896D01*
X286955Y8946D01*
X287024Y8992D01*
X287095Y9036D01*
X287168Y9075D01*
X287243Y9112D01*
X287320Y9145D01*
X287398Y9174D01*
X287477Y9199D01*
X287557Y9221D01*
X287639Y9238D01*
X287721Y9252D01*
X287804Y9262D01*
X287887Y9268D01*
X287970Y9270D01*
X288053Y9268D01*
X288136Y9262D01*
X288219Y9252D01*
X288301Y9238D01*
X288383Y9221D01*
X288463Y9199D01*
X288542Y9174D01*
X288620Y9145D01*
X288697Y9112D01*
X288772Y9075D01*
X288845Y9036D01*
X288916Y8992D01*
X288985Y8946D01*
X289052Y8896D01*
X289116Y8843D01*
X289178Y8787D01*
X289237Y8728D01*
X289293Y8666D01*
X289346Y8602D01*
X289396Y8535D01*
X289442Y8466D01*
X289486Y8395D01*
X289525Y8322D01*
X289562Y8247D01*
X289595Y8170D01*
X289624Y8092D01*
X289649Y8013D01*
X289671Y7933D01*
X289688Y7851D01*
X289702Y7769D01*
X289712Y7686D01*
X289718Y7603D01*
X289720Y7520D01*
X289718Y7437D01*
X289712Y7354D01*
X289702Y7271D01*
X289688Y7189D01*
X289671Y7107D01*
X289649Y7027D01*
X289624Y6948D01*
X289595Y6870D01*
X289562Y6793D01*
X289525Y6718D01*
X289486Y6645D01*
X289442Y6574D01*
X289396Y6505D01*
X289346Y6438D01*
X289293Y6374D01*
X289237Y6312D01*
X289178Y6253D01*
X289116Y6197D01*
X289052Y6144D01*
X288985Y6094D01*
X288916Y6048D01*
X288845Y6004D01*
X288772Y5965D01*
X288697Y5928D01*
X288620Y5895D01*
X288542Y5866D01*
X288463Y5841D01*
X288383Y5819D01*
X288301Y5802D01*
X288219Y5788D01*
X288136Y5778D01*
X288053Y5772D01*
X287970Y5770D01*
X287887Y5772D01*
X287804Y5778D01*
X287721Y5788D01*
X287639Y5802D01*
X287557Y5819D01*
X287477Y5841D01*
X287398Y5866D01*
X287320Y5895D01*
X287243Y5928D01*
X287168Y5965D01*
X287095Y6004D01*
X287024Y6048D01*
X286955Y6094D01*
X286888Y6144D01*
X286824Y6197D01*
X286762Y6253D01*
X286703Y6312D01*
X286647Y6374D01*
X286594Y6438D01*
X286544Y6505D01*
X286498Y6574D01*
X286454Y6645D01*
X286415Y6718D01*
X286378Y6793D01*
X286345Y6870D01*
X286316Y6948D01*
X286291Y7027D01*
X286269Y7107D01*
X286252Y7189D01*
X286238Y7271D01*
X286228Y7354D01*
X286222Y7437D01*
X286220Y7520D01*
D14*
X401400Y29600D02*
X418400Y29600D01*
X418400Y159600D02*
X401400Y159600D01*
X418400Y37790D02*
X418400Y29600D01*
X418400Y151410D02*
X418400Y159600D01*
D11*
X303582Y78542D02*
X291898Y78542D01*
X303582Y77244D02*
X303582Y79840D01*
X291898Y79840D02*
X291898Y77244D01*
X303582Y87004D02*
X303582Y89600D01*
X303582Y87004D02*
X303580Y86905D01*
X303574Y86805D01*
X303565Y86706D01*
X303552Y86608D01*
X303535Y86510D01*
X303514Y86412D01*
X303489Y86316D01*
X303461Y86221D01*
X303429Y86127D01*
X303394Y86034D01*
X303355Y85942D01*
X303312Y85852D01*
X303267Y85764D01*
X303217Y85677D01*
X303165Y85593D01*
X303109Y85510D01*
X303051Y85430D01*
X302989Y85352D01*
X302924Y85277D01*
X302856Y85204D01*
X302786Y85134D01*
X302713Y85066D01*
X302638Y85001D01*
X302560Y84939D01*
X302480Y84881D01*
X302397Y84825D01*
X302313Y84773D01*
X302226Y84723D01*
X302138Y84678D01*
X302048Y84635D01*
X301956Y84596D01*
X301863Y84561D01*
X301769Y84529D01*
X301674Y84501D01*
X301578Y84476D01*
X301480Y84455D01*
X301382Y84438D01*
X301284Y84425D01*
X301185Y84416D01*
X301085Y84410D01*
X300986Y84408D01*
X300986Y84407D02*
X294494Y84407D01*
X294395Y84409D01*
X294295Y84415D01*
X294196Y84424D01*
X294098Y84437D01*
X294000Y84455D01*
X293902Y84475D01*
X293806Y84500D01*
X293710Y84528D01*
X293616Y84560D01*
X293523Y84595D01*
X293432Y84634D01*
X293342Y84677D01*
X293253Y84722D01*
X293167Y84772D01*
X293082Y84824D01*
X293000Y84880D01*
X292920Y84939D01*
X292842Y85000D01*
X292766Y85065D01*
X292693Y85133D01*
X292623Y85203D01*
X292555Y85276D01*
X292490Y85352D01*
X292429Y85430D01*
X292370Y85510D01*
X292314Y85592D01*
X292262Y85677D01*
X292213Y85763D01*
X292167Y85852D01*
X292124Y85942D01*
X292085Y86033D01*
X292050Y86126D01*
X292018Y86220D01*
X291990Y86316D01*
X291965Y86412D01*
X291945Y86510D01*
X291927Y86608D01*
X291914Y86706D01*
X291905Y86805D01*
X291899Y86904D01*
X291897Y87004D01*
X291898Y87004D02*
X291898Y89600D01*
X291898Y97535D02*
X291900Y97642D01*
X291906Y97748D01*
X291916Y97854D01*
X291929Y97960D01*
X291947Y98066D01*
X291968Y98170D01*
X291993Y98274D01*
X292022Y98377D01*
X292054Y98478D01*
X292091Y98578D01*
X292131Y98677D01*
X292174Y98775D01*
X292221Y98871D01*
X292272Y98965D01*
X292326Y99057D01*
X292383Y99147D01*
X292443Y99235D01*
X292507Y99320D01*
X292574Y99403D01*
X292644Y99484D01*
X292716Y99562D01*
X292792Y99638D01*
X292870Y99710D01*
X292951Y99780D01*
X293034Y99847D01*
X293119Y99911D01*
X293207Y99971D01*
X293297Y100028D01*
X293389Y100082D01*
X293483Y100133D01*
X293579Y100180D01*
X293677Y100223D01*
X293776Y100263D01*
X293876Y100300D01*
X293977Y100332D01*
X294080Y100361D01*
X294184Y100386D01*
X294288Y100407D01*
X294394Y100425D01*
X294500Y100438D01*
X294606Y100448D01*
X294712Y100454D01*
X294819Y100456D01*
X291898Y97535D02*
X291900Y97414D01*
X291906Y97293D01*
X291916Y97173D01*
X291929Y97052D01*
X291947Y96933D01*
X291968Y96813D01*
X291993Y96695D01*
X292022Y96578D01*
X292055Y96461D01*
X292091Y96346D01*
X292132Y96232D01*
X292175Y96119D01*
X292223Y96007D01*
X292274Y95898D01*
X292329Y95790D01*
X292387Y95683D01*
X292448Y95579D01*
X292513Y95477D01*
X292581Y95377D01*
X292652Y95279D01*
X292726Y95183D01*
X292803Y95090D01*
X292884Y95000D01*
X292967Y94912D01*
X293053Y94827D01*
X293142Y94744D01*
X293233Y94665D01*
X293327Y94588D01*
X293423Y94515D01*
X293521Y94445D01*
X293622Y94378D01*
X293725Y94314D01*
X293830Y94254D01*
X293937Y94196D01*
X294045Y94143D01*
X294155Y94093D01*
X294267Y94047D01*
X294380Y94004D01*
X294495Y93965D01*
X297091Y99482D02*
X297013Y99561D01*
X296933Y99637D01*
X296850Y99710D01*
X296764Y99780D01*
X296677Y99847D01*
X296586Y99911D01*
X296494Y99971D01*
X296400Y100029D01*
X296303Y100083D01*
X296205Y100133D01*
X296105Y100180D01*
X296004Y100224D01*
X295901Y100264D01*
X295796Y100300D01*
X295691Y100332D01*
X295584Y100361D01*
X295477Y100386D01*
X295368Y100408D01*
X295259Y100425D01*
X295150Y100439D01*
X295040Y100448D01*
X294929Y100454D01*
X294819Y100456D01*
X297091Y99483D02*
X303582Y93965D01*
X303582Y100456D01*
X130258Y77092D02*
X130258Y65408D01*
X130258Y77092D02*
X133504Y77092D01*
X133617Y77090D01*
X133730Y77084D01*
X133843Y77074D01*
X133956Y77060D01*
X134068Y77043D01*
X134179Y77021D01*
X134289Y76996D01*
X134399Y76966D01*
X134507Y76933D01*
X134614Y76896D01*
X134720Y76856D01*
X134824Y76811D01*
X134927Y76763D01*
X135028Y76712D01*
X135127Y76657D01*
X135224Y76599D01*
X135319Y76537D01*
X135412Y76472D01*
X135502Y76404D01*
X135590Y76333D01*
X135676Y76258D01*
X135759Y76181D01*
X135839Y76101D01*
X135916Y76018D01*
X135991Y75932D01*
X136062Y75844D01*
X136130Y75754D01*
X136195Y75661D01*
X136257Y75566D01*
X136315Y75469D01*
X136370Y75370D01*
X136421Y75269D01*
X136469Y75166D01*
X136514Y75062D01*
X136554Y74956D01*
X136591Y74849D01*
X136624Y74741D01*
X136654Y74631D01*
X136679Y74521D01*
X136701Y74410D01*
X136718Y74298D01*
X136732Y74185D01*
X136742Y74072D01*
X136748Y73959D01*
X136750Y73846D01*
X136748Y73733D01*
X136742Y73620D01*
X136732Y73507D01*
X136718Y73394D01*
X136701Y73282D01*
X136679Y73171D01*
X136654Y73061D01*
X136624Y72951D01*
X136591Y72843D01*
X136554Y72736D01*
X136514Y72630D01*
X136469Y72526D01*
X136421Y72423D01*
X136370Y72322D01*
X136315Y72223D01*
X136257Y72126D01*
X136195Y72031D01*
X136130Y71938D01*
X136062Y71848D01*
X135991Y71760D01*
X135916Y71674D01*
X135839Y71591D01*
X135759Y71511D01*
X135676Y71434D01*
X135590Y71359D01*
X135502Y71288D01*
X135412Y71220D01*
X135319Y71155D01*
X135224Y71093D01*
X135127Y71035D01*
X135028Y70980D01*
X134927Y70929D01*
X134824Y70881D01*
X134720Y70836D01*
X134614Y70796D01*
X134507Y70759D01*
X134399Y70726D01*
X134289Y70696D01*
X134179Y70671D01*
X134068Y70649D01*
X133956Y70632D01*
X133843Y70618D01*
X133730Y70608D01*
X133617Y70602D01*
X133504Y70600D01*
X133504Y70601D02*
X130258Y70601D01*
X134153Y70601D02*
X136749Y65408D01*
X141614Y65408D02*
X144860Y65408D01*
X144973Y65410D01*
X145086Y65416D01*
X145199Y65426D01*
X145312Y65440D01*
X145424Y65457D01*
X145535Y65479D01*
X145645Y65504D01*
X145755Y65534D01*
X145863Y65567D01*
X145970Y65604D01*
X146076Y65644D01*
X146180Y65689D01*
X146283Y65737D01*
X146384Y65788D01*
X146483Y65843D01*
X146580Y65901D01*
X146675Y65963D01*
X146768Y66028D01*
X146858Y66096D01*
X146946Y66167D01*
X147032Y66242D01*
X147115Y66319D01*
X147195Y66399D01*
X147272Y66482D01*
X147347Y66568D01*
X147418Y66656D01*
X147486Y66746D01*
X147551Y66839D01*
X147613Y66934D01*
X147671Y67031D01*
X147726Y67130D01*
X147777Y67231D01*
X147825Y67334D01*
X147870Y67438D01*
X147910Y67544D01*
X147947Y67651D01*
X147980Y67759D01*
X148010Y67869D01*
X148035Y67979D01*
X148057Y68090D01*
X148074Y68202D01*
X148088Y68315D01*
X148098Y68428D01*
X148104Y68541D01*
X148106Y68654D01*
X148104Y68767D01*
X148098Y68880D01*
X148088Y68993D01*
X148074Y69106D01*
X148057Y69218D01*
X148035Y69329D01*
X148010Y69439D01*
X147980Y69549D01*
X147947Y69657D01*
X147910Y69764D01*
X147870Y69870D01*
X147825Y69974D01*
X147777Y70077D01*
X147726Y70178D01*
X147671Y70277D01*
X147613Y70374D01*
X147551Y70469D01*
X147486Y70562D01*
X147418Y70652D01*
X147347Y70740D01*
X147272Y70826D01*
X147195Y70909D01*
X147115Y70989D01*
X147032Y71066D01*
X146946Y71141D01*
X146858Y71212D01*
X146768Y71280D01*
X146675Y71345D01*
X146580Y71407D01*
X146483Y71465D01*
X146384Y71520D01*
X146283Y71571D01*
X146180Y71619D01*
X146076Y71664D01*
X145970Y71704D01*
X145863Y71741D01*
X145755Y71774D01*
X145645Y71804D01*
X145535Y71829D01*
X145424Y71851D01*
X145312Y71868D01*
X145199Y71882D01*
X145086Y71892D01*
X144973Y71898D01*
X144860Y71900D01*
X145509Y77092D02*
X141614Y77092D01*
X145509Y77092D02*
X145610Y77090D01*
X145710Y77084D01*
X145810Y77074D01*
X145910Y77061D01*
X146009Y77043D01*
X146108Y77022D01*
X146205Y76997D01*
X146302Y76968D01*
X146397Y76935D01*
X146491Y76899D01*
X146583Y76859D01*
X146674Y76816D01*
X146763Y76769D01*
X146850Y76719D01*
X146936Y76665D01*
X147019Y76608D01*
X147099Y76548D01*
X147178Y76485D01*
X147254Y76418D01*
X147327Y76349D01*
X147397Y76277D01*
X147465Y76203D01*
X147530Y76126D01*
X147591Y76046D01*
X147650Y75964D01*
X147705Y75880D01*
X147757Y75794D01*
X147806Y75706D01*
X147851Y75616D01*
X147893Y75524D01*
X147931Y75431D01*
X147965Y75336D01*
X147996Y75241D01*
X148023Y75144D01*
X148046Y75046D01*
X148066Y74947D01*
X148081Y74847D01*
X148093Y74747D01*
X148101Y74647D01*
X148105Y74546D01*
X148105Y74446D01*
X148101Y74345D01*
X148093Y74245D01*
X148081Y74145D01*
X148066Y74045D01*
X148046Y73946D01*
X148023Y73848D01*
X147996Y73751D01*
X147965Y73656D01*
X147931Y73561D01*
X147893Y73468D01*
X147851Y73376D01*
X147806Y73286D01*
X147757Y73198D01*
X147705Y73112D01*
X147650Y73028D01*
X147591Y72946D01*
X147530Y72866D01*
X147465Y72789D01*
X147397Y72715D01*
X147327Y72643D01*
X147254Y72574D01*
X147178Y72507D01*
X147099Y72444D01*
X147019Y72384D01*
X146936Y72327D01*
X146850Y72273D01*
X146763Y72223D01*
X146674Y72176D01*
X146583Y72133D01*
X146491Y72093D01*
X146397Y72057D01*
X146302Y72024D01*
X146205Y71995D01*
X146108Y71970D01*
X146009Y71949D01*
X145910Y71931D01*
X145810Y71918D01*
X145710Y71908D01*
X145610Y71902D01*
X145509Y71900D01*
X145509Y71899D02*
X142913Y71899D01*
X127892Y256939D02*
X127892Y259536D01*
X127892Y256939D02*
X127890Y256840D01*
X127884Y256740D01*
X127875Y256641D01*
X127862Y256543D01*
X127845Y256445D01*
X127824Y256347D01*
X127799Y256251D01*
X127771Y256156D01*
X127739Y256062D01*
X127704Y255969D01*
X127665Y255877D01*
X127622Y255787D01*
X127577Y255699D01*
X127527Y255612D01*
X127475Y255528D01*
X127419Y255445D01*
X127361Y255365D01*
X127299Y255287D01*
X127234Y255212D01*
X127166Y255139D01*
X127096Y255069D01*
X127023Y255001D01*
X126948Y254936D01*
X126870Y254874D01*
X126790Y254816D01*
X126707Y254760D01*
X126623Y254708D01*
X126536Y254658D01*
X126448Y254613D01*
X126358Y254570D01*
X126266Y254531D01*
X126173Y254496D01*
X126079Y254464D01*
X125984Y254436D01*
X125888Y254411D01*
X125790Y254390D01*
X125692Y254373D01*
X125594Y254360D01*
X125495Y254351D01*
X125395Y254345D01*
X125296Y254343D01*
X118804Y254343D01*
X118804Y254342D02*
X118705Y254344D01*
X118605Y254350D01*
X118506Y254359D01*
X118408Y254372D01*
X118310Y254390D01*
X118212Y254410D01*
X118116Y254435D01*
X118020Y254463D01*
X117926Y254495D01*
X117833Y254530D01*
X117742Y254569D01*
X117652Y254612D01*
X117563Y254657D01*
X117477Y254707D01*
X117392Y254759D01*
X117310Y254815D01*
X117230Y254874D01*
X117152Y254935D01*
X117076Y255000D01*
X117003Y255068D01*
X116933Y255138D01*
X116865Y255211D01*
X116800Y255287D01*
X116739Y255365D01*
X116680Y255445D01*
X116624Y255527D01*
X116572Y255612D01*
X116523Y255698D01*
X116477Y255787D01*
X116434Y255877D01*
X116395Y255968D01*
X116360Y256061D01*
X116328Y256155D01*
X116300Y256251D01*
X116275Y256347D01*
X116255Y256445D01*
X116237Y256543D01*
X116224Y256641D01*
X116215Y256740D01*
X116209Y256839D01*
X116207Y256939D01*
X116208Y256939D02*
X116208Y259536D01*
X121401Y263901D02*
X121401Y267796D01*
X121403Y267895D01*
X121409Y267995D01*
X121418Y268094D01*
X121431Y268192D01*
X121448Y268290D01*
X121469Y268388D01*
X121494Y268484D01*
X121522Y268579D01*
X121554Y268673D01*
X121589Y268766D01*
X121628Y268858D01*
X121671Y268948D01*
X121716Y269036D01*
X121766Y269123D01*
X121818Y269207D01*
X121874Y269290D01*
X121932Y269370D01*
X121994Y269448D01*
X122059Y269523D01*
X122127Y269596D01*
X122197Y269666D01*
X122270Y269734D01*
X122345Y269799D01*
X122423Y269861D01*
X122503Y269919D01*
X122586Y269975D01*
X122670Y270027D01*
X122757Y270077D01*
X122845Y270122D01*
X122935Y270165D01*
X123027Y270204D01*
X123120Y270239D01*
X123214Y270271D01*
X123309Y270299D01*
X123405Y270324D01*
X123503Y270345D01*
X123601Y270362D01*
X123699Y270375D01*
X123798Y270384D01*
X123898Y270390D01*
X123997Y270392D01*
X124646Y270392D01*
X124759Y270390D01*
X124872Y270384D01*
X124985Y270374D01*
X125098Y270360D01*
X125210Y270343D01*
X125321Y270321D01*
X125431Y270296D01*
X125541Y270266D01*
X125649Y270233D01*
X125756Y270196D01*
X125862Y270156D01*
X125966Y270111D01*
X126069Y270063D01*
X126170Y270012D01*
X126269Y269957D01*
X126366Y269899D01*
X126461Y269837D01*
X126554Y269772D01*
X126644Y269704D01*
X126732Y269633D01*
X126818Y269558D01*
X126901Y269481D01*
X126981Y269401D01*
X127058Y269318D01*
X127133Y269232D01*
X127204Y269144D01*
X127272Y269054D01*
X127337Y268961D01*
X127399Y268866D01*
X127457Y268769D01*
X127512Y268670D01*
X127563Y268569D01*
X127611Y268466D01*
X127656Y268362D01*
X127696Y268256D01*
X127733Y268149D01*
X127766Y268041D01*
X127796Y267931D01*
X127821Y267821D01*
X127843Y267710D01*
X127860Y267598D01*
X127874Y267485D01*
X127884Y267372D01*
X127890Y267259D01*
X127892Y267146D01*
X127890Y267033D01*
X127884Y266920D01*
X127874Y266807D01*
X127860Y266694D01*
X127843Y266582D01*
X127821Y266471D01*
X127796Y266361D01*
X127766Y266251D01*
X127733Y266143D01*
X127696Y266036D01*
X127656Y265930D01*
X127611Y265826D01*
X127563Y265723D01*
X127512Y265622D01*
X127457Y265523D01*
X127399Y265426D01*
X127337Y265331D01*
X127272Y265238D01*
X127204Y265148D01*
X127133Y265060D01*
X127058Y264974D01*
X126981Y264891D01*
X126901Y264811D01*
X126818Y264734D01*
X126732Y264659D01*
X126644Y264588D01*
X126554Y264520D01*
X126461Y264455D01*
X126366Y264393D01*
X126269Y264335D01*
X126170Y264280D01*
X126069Y264229D01*
X125966Y264181D01*
X125862Y264136D01*
X125756Y264096D01*
X125649Y264059D01*
X125541Y264026D01*
X125431Y263996D01*
X125321Y263971D01*
X125210Y263949D01*
X125098Y263932D01*
X124985Y263918D01*
X124872Y263908D01*
X124759Y263902D01*
X124646Y263900D01*
X124646Y263901D02*
X121401Y263901D01*
X121258Y263903D01*
X121115Y263909D01*
X120972Y263919D01*
X120830Y263933D01*
X120688Y263950D01*
X120546Y263972D01*
X120405Y263997D01*
X120265Y264027D01*
X120126Y264060D01*
X119988Y264097D01*
X119851Y264138D01*
X119715Y264182D01*
X119580Y264231D01*
X119447Y264283D01*
X119315Y264338D01*
X119185Y264398D01*
X119056Y264461D01*
X118929Y264527D01*
X118805Y264597D01*
X118682Y264670D01*
X118561Y264747D01*
X118442Y264826D01*
X118326Y264910D01*
X118211Y264996D01*
X118100Y265085D01*
X117991Y265178D01*
X117884Y265273D01*
X117780Y265372D01*
X117679Y265473D01*
X117580Y265577D01*
X117485Y265683D01*
X117392Y265793D01*
X117303Y265904D01*
X117217Y266018D01*
X117134Y266135D01*
X117054Y266254D01*
X116977Y266375D01*
X116904Y266497D01*
X116834Y266622D01*
X116768Y266749D01*
X116705Y266878D01*
X116645Y267008D01*
X116590Y267140D01*
X116538Y267273D01*
X116489Y267408D01*
X116445Y267544D01*
X116404Y267681D01*
X116367Y267819D01*
X116334Y267958D01*
X116304Y268098D01*
X116279Y268239D01*
X116257Y268381D01*
X116240Y268523D01*
X116226Y268665D01*
X116216Y268808D01*
X116210Y268951D01*
X116208Y269094D01*
X271292Y213536D02*
X271292Y210939D01*
X271290Y210840D01*
X271284Y210740D01*
X271275Y210641D01*
X271262Y210543D01*
X271245Y210445D01*
X271224Y210347D01*
X271199Y210251D01*
X271171Y210156D01*
X271139Y210062D01*
X271104Y209969D01*
X271065Y209877D01*
X271022Y209787D01*
X270977Y209699D01*
X270927Y209612D01*
X270875Y209528D01*
X270819Y209445D01*
X270761Y209365D01*
X270699Y209287D01*
X270634Y209212D01*
X270566Y209139D01*
X270496Y209069D01*
X270423Y209001D01*
X270348Y208936D01*
X270270Y208874D01*
X270190Y208816D01*
X270107Y208760D01*
X270023Y208708D01*
X269936Y208658D01*
X269848Y208613D01*
X269758Y208570D01*
X269666Y208531D01*
X269573Y208496D01*
X269479Y208464D01*
X269384Y208436D01*
X269288Y208411D01*
X269190Y208390D01*
X269092Y208373D01*
X268994Y208360D01*
X268895Y208351D01*
X268795Y208345D01*
X268696Y208343D01*
X262204Y208343D01*
X262204Y208342D02*
X262105Y208344D01*
X262005Y208350D01*
X261906Y208359D01*
X261808Y208372D01*
X261710Y208390D01*
X261612Y208410D01*
X261516Y208435D01*
X261420Y208463D01*
X261326Y208495D01*
X261233Y208530D01*
X261142Y208569D01*
X261052Y208612D01*
X260963Y208657D01*
X260877Y208707D01*
X260792Y208759D01*
X260710Y208815D01*
X260630Y208874D01*
X260552Y208935D01*
X260476Y209000D01*
X260403Y209068D01*
X260333Y209138D01*
X260265Y209211D01*
X260200Y209287D01*
X260139Y209365D01*
X260080Y209445D01*
X260024Y209527D01*
X259972Y209612D01*
X259923Y209698D01*
X259877Y209787D01*
X259834Y209877D01*
X259795Y209968D01*
X259760Y210061D01*
X259728Y210155D01*
X259700Y210251D01*
X259675Y210347D01*
X259655Y210445D01*
X259637Y210543D01*
X259624Y210641D01*
X259615Y210740D01*
X259609Y210839D01*
X259607Y210939D01*
X259608Y210939D02*
X259608Y213536D01*
X259608Y217901D02*
X260906Y217901D01*
X259608Y217901D02*
X259608Y224392D01*
X271292Y221146D01*
D14*
X332100Y289700D02*
X332100Y295700D01*
X332100Y289700D02*
X303100Y289700D01*
X303100Y295700D01*
X332100Y295700D01*
X332600Y299200D02*
X332600Y311200D01*
D11*
X336142Y282392D02*
X324458Y282392D01*
X336142Y281094D02*
X336142Y283690D01*
X324458Y283690D02*
X324458Y281094D01*
X336142Y290854D02*
X336142Y293450D01*
X336142Y290854D02*
X336140Y290755D01*
X336134Y290655D01*
X336125Y290556D01*
X336112Y290458D01*
X336095Y290360D01*
X336074Y290262D01*
X336049Y290166D01*
X336021Y290071D01*
X335989Y289977D01*
X335954Y289884D01*
X335915Y289792D01*
X335872Y289702D01*
X335827Y289614D01*
X335777Y289527D01*
X335725Y289443D01*
X335669Y289360D01*
X335611Y289280D01*
X335549Y289202D01*
X335484Y289127D01*
X335416Y289054D01*
X335346Y288984D01*
X335273Y288916D01*
X335198Y288851D01*
X335120Y288789D01*
X335040Y288731D01*
X334957Y288675D01*
X334873Y288623D01*
X334786Y288573D01*
X334698Y288528D01*
X334608Y288485D01*
X334516Y288446D01*
X334423Y288411D01*
X334329Y288379D01*
X334234Y288351D01*
X334138Y288326D01*
X334040Y288305D01*
X333942Y288288D01*
X333844Y288275D01*
X333745Y288266D01*
X333645Y288260D01*
X333546Y288258D01*
X333546Y288257D02*
X327054Y288257D01*
X326955Y288259D01*
X326855Y288265D01*
X326756Y288274D01*
X326658Y288287D01*
X326560Y288305D01*
X326462Y288325D01*
X326366Y288350D01*
X326270Y288378D01*
X326176Y288410D01*
X326083Y288445D01*
X325992Y288484D01*
X325902Y288527D01*
X325813Y288572D01*
X325727Y288622D01*
X325642Y288674D01*
X325560Y288730D01*
X325480Y288789D01*
X325402Y288850D01*
X325326Y288915D01*
X325253Y288983D01*
X325183Y289053D01*
X325115Y289126D01*
X325050Y289202D01*
X324989Y289280D01*
X324930Y289360D01*
X324874Y289442D01*
X324822Y289527D01*
X324773Y289613D01*
X324727Y289702D01*
X324684Y289792D01*
X324645Y289883D01*
X324610Y289976D01*
X324578Y290070D01*
X324550Y290166D01*
X324525Y290262D01*
X324505Y290360D01*
X324487Y290458D01*
X324474Y290556D01*
X324465Y290655D01*
X324459Y290754D01*
X324457Y290854D01*
X324458Y290854D02*
X324458Y293450D01*
X336142Y297815D02*
X336142Y301061D01*
X336140Y301174D01*
X336134Y301287D01*
X336124Y301400D01*
X336110Y301513D01*
X336093Y301625D01*
X336071Y301736D01*
X336046Y301846D01*
X336016Y301956D01*
X335983Y302064D01*
X335946Y302171D01*
X335906Y302277D01*
X335861Y302381D01*
X335813Y302484D01*
X335762Y302585D01*
X335707Y302684D01*
X335649Y302781D01*
X335587Y302876D01*
X335522Y302969D01*
X335454Y303059D01*
X335383Y303147D01*
X335308Y303233D01*
X335231Y303316D01*
X335151Y303396D01*
X335068Y303473D01*
X334982Y303548D01*
X334894Y303619D01*
X334804Y303687D01*
X334711Y303752D01*
X334616Y303814D01*
X334519Y303872D01*
X334420Y303927D01*
X334319Y303978D01*
X334216Y304026D01*
X334112Y304071D01*
X334006Y304111D01*
X333899Y304148D01*
X333791Y304181D01*
X333681Y304211D01*
X333571Y304236D01*
X333460Y304258D01*
X333348Y304275D01*
X333235Y304289D01*
X333122Y304299D01*
X333009Y304305D01*
X332896Y304307D01*
X332783Y304305D01*
X332670Y304299D01*
X332557Y304289D01*
X332444Y304275D01*
X332332Y304258D01*
X332221Y304236D01*
X332111Y304211D01*
X332001Y304181D01*
X331893Y304148D01*
X331786Y304111D01*
X331680Y304071D01*
X331576Y304026D01*
X331473Y303978D01*
X331372Y303927D01*
X331273Y303872D01*
X331176Y303814D01*
X331081Y303752D01*
X330988Y303687D01*
X330898Y303619D01*
X330810Y303548D01*
X330724Y303473D01*
X330641Y303396D01*
X330561Y303316D01*
X330484Y303233D01*
X330409Y303147D01*
X330338Y303059D01*
X330270Y302969D01*
X330205Y302876D01*
X330143Y302781D01*
X330085Y302684D01*
X330030Y302585D01*
X329979Y302484D01*
X329931Y302381D01*
X329886Y302277D01*
X329846Y302171D01*
X329809Y302064D01*
X329776Y301956D01*
X329746Y301846D01*
X329721Y301736D01*
X329699Y301625D01*
X329682Y301513D01*
X329668Y301400D01*
X329658Y301287D01*
X329652Y301174D01*
X329650Y301061D01*
X324458Y301710D02*
X324458Y297815D01*
X324458Y301710D02*
X324460Y301811D01*
X324466Y301911D01*
X324476Y302011D01*
X324489Y302111D01*
X324507Y302210D01*
X324528Y302309D01*
X324553Y302406D01*
X324582Y302503D01*
X324615Y302598D01*
X324651Y302692D01*
X324691Y302784D01*
X324734Y302875D01*
X324781Y302964D01*
X324831Y303051D01*
X324885Y303137D01*
X324942Y303220D01*
X325002Y303300D01*
X325065Y303379D01*
X325132Y303455D01*
X325201Y303528D01*
X325273Y303598D01*
X325347Y303666D01*
X325424Y303731D01*
X325504Y303792D01*
X325586Y303851D01*
X325670Y303906D01*
X325756Y303958D01*
X325844Y304007D01*
X325934Y304052D01*
X326026Y304094D01*
X326119Y304132D01*
X326214Y304166D01*
X326309Y304197D01*
X326406Y304224D01*
X326504Y304247D01*
X326603Y304267D01*
X326703Y304282D01*
X326803Y304294D01*
X326903Y304302D01*
X327004Y304306D01*
X327104Y304306D01*
X327205Y304302D01*
X327305Y304294D01*
X327405Y304282D01*
X327505Y304267D01*
X327604Y304247D01*
X327702Y304224D01*
X327799Y304197D01*
X327894Y304166D01*
X327989Y304132D01*
X328082Y304094D01*
X328174Y304052D01*
X328264Y304007D01*
X328352Y303958D01*
X328438Y303906D01*
X328522Y303851D01*
X328604Y303792D01*
X328684Y303731D01*
X328761Y303666D01*
X328835Y303598D01*
X328907Y303528D01*
X328976Y303455D01*
X329043Y303379D01*
X329106Y303300D01*
X329166Y303220D01*
X329223Y303137D01*
X329277Y303051D01*
X329327Y302964D01*
X329374Y302875D01*
X329417Y302784D01*
X329457Y302692D01*
X329493Y302598D01*
X329526Y302503D01*
X329555Y302406D01*
X329580Y302309D01*
X329601Y302210D01*
X329619Y302111D01*
X329632Y302011D01*
X329642Y301911D01*
X329648Y301811D01*
X329650Y301710D01*
X329651Y301710D02*
X329651Y299114D01*
X267292Y283701D02*
X267292Y281104D01*
X267290Y281005D01*
X267284Y280905D01*
X267275Y280806D01*
X267262Y280708D01*
X267245Y280610D01*
X267224Y280512D01*
X267199Y280416D01*
X267171Y280321D01*
X267139Y280227D01*
X267104Y280134D01*
X267065Y280042D01*
X267022Y279952D01*
X266977Y279864D01*
X266927Y279777D01*
X266875Y279693D01*
X266819Y279610D01*
X266761Y279530D01*
X266699Y279452D01*
X266634Y279377D01*
X266566Y279304D01*
X266496Y279234D01*
X266423Y279166D01*
X266348Y279101D01*
X266270Y279039D01*
X266190Y278981D01*
X266107Y278925D01*
X266023Y278873D01*
X265936Y278823D01*
X265848Y278778D01*
X265758Y278735D01*
X265666Y278696D01*
X265573Y278661D01*
X265479Y278629D01*
X265384Y278601D01*
X265288Y278576D01*
X265190Y278555D01*
X265092Y278538D01*
X264994Y278525D01*
X264895Y278516D01*
X264795Y278510D01*
X264696Y278508D01*
X258204Y278508D01*
X258105Y278510D01*
X258005Y278516D01*
X257906Y278525D01*
X257808Y278538D01*
X257710Y278556D01*
X257612Y278576D01*
X257516Y278601D01*
X257420Y278629D01*
X257326Y278661D01*
X257233Y278696D01*
X257142Y278735D01*
X257052Y278778D01*
X256963Y278823D01*
X256877Y278873D01*
X256792Y278925D01*
X256710Y278981D01*
X256630Y279040D01*
X256552Y279101D01*
X256476Y279166D01*
X256403Y279234D01*
X256333Y279304D01*
X256265Y279377D01*
X256200Y279453D01*
X256139Y279531D01*
X256080Y279611D01*
X256024Y279693D01*
X255972Y279778D01*
X255923Y279864D01*
X255877Y279953D01*
X255834Y280043D01*
X255795Y280134D01*
X255760Y280227D01*
X255728Y280321D01*
X255700Y280417D01*
X255675Y280513D01*
X255655Y280611D01*
X255637Y280709D01*
X255624Y280807D01*
X255615Y280906D01*
X255609Y281005D01*
X255607Y281105D01*
X255608Y281104D02*
X255608Y283701D01*
X264046Y288066D02*
X263933Y288068D01*
X263820Y288074D01*
X263707Y288084D01*
X263594Y288098D01*
X263482Y288115D01*
X263371Y288137D01*
X263261Y288162D01*
X263151Y288192D01*
X263043Y288225D01*
X262936Y288262D01*
X262830Y288302D01*
X262726Y288347D01*
X262623Y288395D01*
X262522Y288446D01*
X262423Y288501D01*
X262326Y288559D01*
X262231Y288621D01*
X262138Y288686D01*
X262048Y288754D01*
X261960Y288825D01*
X261874Y288900D01*
X261791Y288977D01*
X261711Y289057D01*
X261634Y289140D01*
X261559Y289226D01*
X261488Y289314D01*
X261420Y289404D01*
X261355Y289497D01*
X261293Y289592D01*
X261235Y289689D01*
X261180Y289788D01*
X261129Y289889D01*
X261081Y289992D01*
X261036Y290096D01*
X260996Y290202D01*
X260959Y290309D01*
X260926Y290417D01*
X260896Y290527D01*
X260871Y290637D01*
X260849Y290748D01*
X260832Y290860D01*
X260818Y290973D01*
X260808Y291086D01*
X260802Y291199D01*
X260800Y291312D01*
X260802Y291425D01*
X260808Y291538D01*
X260818Y291651D01*
X260832Y291764D01*
X260849Y291876D01*
X260871Y291987D01*
X260896Y292097D01*
X260926Y292207D01*
X260959Y292315D01*
X260996Y292422D01*
X261036Y292528D01*
X261081Y292632D01*
X261129Y292735D01*
X261180Y292836D01*
X261235Y292935D01*
X261293Y293032D01*
X261355Y293127D01*
X261420Y293220D01*
X261488Y293310D01*
X261559Y293398D01*
X261634Y293484D01*
X261711Y293567D01*
X261791Y293647D01*
X261874Y293724D01*
X261960Y293799D01*
X262048Y293870D01*
X262138Y293938D01*
X262231Y294003D01*
X262326Y294065D01*
X262423Y294123D01*
X262522Y294178D01*
X262623Y294229D01*
X262726Y294277D01*
X262830Y294322D01*
X262936Y294362D01*
X263043Y294399D01*
X263151Y294432D01*
X263261Y294462D01*
X263371Y294487D01*
X263482Y294509D01*
X263594Y294526D01*
X263707Y294540D01*
X263820Y294550D01*
X263933Y294556D01*
X264046Y294558D01*
X264159Y294556D01*
X264272Y294550D01*
X264385Y294540D01*
X264498Y294526D01*
X264610Y294509D01*
X264721Y294487D01*
X264831Y294462D01*
X264941Y294432D01*
X265049Y294399D01*
X265156Y294362D01*
X265262Y294322D01*
X265366Y294277D01*
X265469Y294229D01*
X265570Y294178D01*
X265669Y294123D01*
X265766Y294065D01*
X265861Y294003D01*
X265954Y293938D01*
X266044Y293870D01*
X266132Y293799D01*
X266218Y293724D01*
X266301Y293647D01*
X266381Y293567D01*
X266458Y293484D01*
X266533Y293398D01*
X266604Y293310D01*
X266672Y293220D01*
X266737Y293127D01*
X266799Y293032D01*
X266857Y292935D01*
X266912Y292836D01*
X266963Y292735D01*
X267011Y292632D01*
X267056Y292528D01*
X267096Y292422D01*
X267133Y292315D01*
X267166Y292207D01*
X267196Y292097D01*
X267221Y291987D01*
X267243Y291876D01*
X267260Y291764D01*
X267274Y291651D01*
X267284Y291538D01*
X267290Y291425D01*
X267292Y291312D01*
X267290Y291199D01*
X267284Y291086D01*
X267274Y290973D01*
X267260Y290860D01*
X267243Y290748D01*
X267221Y290637D01*
X267196Y290527D01*
X267166Y290417D01*
X267133Y290309D01*
X267096Y290202D01*
X267056Y290096D01*
X267011Y289992D01*
X266963Y289889D01*
X266912Y289788D01*
X266857Y289689D01*
X266799Y289592D01*
X266737Y289497D01*
X266672Y289404D01*
X266604Y289314D01*
X266533Y289226D01*
X266458Y289140D01*
X266381Y289057D01*
X266301Y288977D01*
X266218Y288900D01*
X266132Y288825D01*
X266044Y288754D01*
X265954Y288686D01*
X265861Y288621D01*
X265766Y288559D01*
X265669Y288501D01*
X265570Y288446D01*
X265469Y288395D01*
X265366Y288347D01*
X265262Y288302D01*
X265156Y288262D01*
X265049Y288225D01*
X264941Y288192D01*
X264831Y288162D01*
X264721Y288137D01*
X264610Y288115D01*
X264498Y288098D01*
X264385Y288084D01*
X264272Y288074D01*
X264159Y288068D01*
X264046Y288066D01*
X258204Y288716D02*
X258103Y288718D01*
X258003Y288724D01*
X257903Y288734D01*
X257803Y288747D01*
X257704Y288765D01*
X257605Y288786D01*
X257508Y288811D01*
X257411Y288840D01*
X257316Y288873D01*
X257222Y288909D01*
X257130Y288949D01*
X257039Y288992D01*
X256950Y289039D01*
X256863Y289089D01*
X256777Y289143D01*
X256694Y289200D01*
X256614Y289260D01*
X256535Y289323D01*
X256459Y289390D01*
X256386Y289459D01*
X256316Y289531D01*
X256248Y289605D01*
X256183Y289682D01*
X256122Y289762D01*
X256063Y289844D01*
X256008Y289928D01*
X255956Y290014D01*
X255907Y290102D01*
X255862Y290192D01*
X255820Y290284D01*
X255782Y290377D01*
X255748Y290472D01*
X255717Y290567D01*
X255690Y290664D01*
X255667Y290762D01*
X255647Y290861D01*
X255632Y290961D01*
X255620Y291061D01*
X255612Y291161D01*
X255608Y291262D01*
X255608Y291362D01*
X255612Y291463D01*
X255620Y291563D01*
X255632Y291663D01*
X255647Y291763D01*
X255667Y291862D01*
X255690Y291960D01*
X255717Y292057D01*
X255748Y292152D01*
X255782Y292247D01*
X255820Y292340D01*
X255862Y292432D01*
X255907Y292522D01*
X255956Y292610D01*
X256008Y292696D01*
X256063Y292780D01*
X256122Y292862D01*
X256183Y292942D01*
X256248Y293019D01*
X256316Y293093D01*
X256386Y293165D01*
X256459Y293234D01*
X256535Y293301D01*
X256614Y293364D01*
X256694Y293424D01*
X256777Y293481D01*
X256863Y293535D01*
X256950Y293585D01*
X257039Y293632D01*
X257130Y293675D01*
X257222Y293715D01*
X257316Y293751D01*
X257411Y293784D01*
X257508Y293813D01*
X257605Y293838D01*
X257704Y293859D01*
X257803Y293877D01*
X257903Y293890D01*
X258003Y293900D01*
X258103Y293906D01*
X258204Y293908D01*
X258305Y293906D01*
X258405Y293900D01*
X258505Y293890D01*
X258605Y293877D01*
X258704Y293859D01*
X258803Y293838D01*
X258900Y293813D01*
X258997Y293784D01*
X259092Y293751D01*
X259186Y293715D01*
X259278Y293675D01*
X259369Y293632D01*
X259458Y293585D01*
X259545Y293535D01*
X259631Y293481D01*
X259714Y293424D01*
X259794Y293364D01*
X259873Y293301D01*
X259949Y293234D01*
X260022Y293165D01*
X260092Y293093D01*
X260160Y293019D01*
X260225Y292942D01*
X260286Y292862D01*
X260345Y292780D01*
X260400Y292696D01*
X260452Y292610D01*
X260501Y292522D01*
X260546Y292432D01*
X260588Y292340D01*
X260626Y292247D01*
X260660Y292152D01*
X260691Y292057D01*
X260718Y291960D01*
X260741Y291862D01*
X260761Y291763D01*
X260776Y291663D01*
X260788Y291563D01*
X260796Y291463D01*
X260800Y291362D01*
X260800Y291262D01*
X260796Y291161D01*
X260788Y291061D01*
X260776Y290961D01*
X260761Y290861D01*
X260741Y290762D01*
X260718Y290664D01*
X260691Y290567D01*
X260660Y290472D01*
X260626Y290377D01*
X260588Y290284D01*
X260546Y290192D01*
X260501Y290102D01*
X260452Y290014D01*
X260400Y289928D01*
X260345Y289844D01*
X260286Y289762D01*
X260225Y289682D01*
X260160Y289605D01*
X260092Y289531D01*
X260022Y289459D01*
X259949Y289390D01*
X259873Y289323D01*
X259794Y289260D01*
X259714Y289200D01*
X259631Y289143D01*
X259545Y289089D01*
X259458Y289039D01*
X259369Y288992D01*
X259278Y288949D01*
X259186Y288909D01*
X259092Y288873D01*
X258997Y288840D01*
X258900Y288811D01*
X258803Y288786D01*
X258704Y288765D01*
X258605Y288747D01*
X258505Y288734D01*
X258405Y288724D01*
X258305Y288718D01*
X258204Y288716D01*
X300592Y214636D02*
X300592Y212039D01*
X300590Y211940D01*
X300584Y211840D01*
X300575Y211741D01*
X300562Y211643D01*
X300545Y211545D01*
X300524Y211447D01*
X300499Y211351D01*
X300471Y211256D01*
X300439Y211162D01*
X300404Y211069D01*
X300365Y210977D01*
X300322Y210887D01*
X300277Y210799D01*
X300227Y210712D01*
X300175Y210628D01*
X300119Y210545D01*
X300061Y210465D01*
X299999Y210387D01*
X299934Y210312D01*
X299866Y210239D01*
X299796Y210169D01*
X299723Y210101D01*
X299648Y210036D01*
X299570Y209974D01*
X299490Y209916D01*
X299407Y209860D01*
X299323Y209808D01*
X299236Y209758D01*
X299148Y209713D01*
X299058Y209670D01*
X298966Y209631D01*
X298873Y209596D01*
X298779Y209564D01*
X298684Y209536D01*
X298588Y209511D01*
X298490Y209490D01*
X298392Y209473D01*
X298294Y209460D01*
X298195Y209451D01*
X298095Y209445D01*
X297996Y209443D01*
X291504Y209443D01*
X291504Y209442D02*
X291405Y209444D01*
X291305Y209450D01*
X291206Y209459D01*
X291108Y209472D01*
X291010Y209490D01*
X290912Y209510D01*
X290816Y209535D01*
X290720Y209563D01*
X290626Y209595D01*
X290533Y209630D01*
X290442Y209669D01*
X290352Y209712D01*
X290263Y209757D01*
X290177Y209807D01*
X290092Y209859D01*
X290010Y209915D01*
X289930Y209974D01*
X289852Y210035D01*
X289776Y210100D01*
X289703Y210168D01*
X289633Y210238D01*
X289565Y210311D01*
X289500Y210387D01*
X289439Y210465D01*
X289380Y210545D01*
X289324Y210627D01*
X289272Y210712D01*
X289223Y210798D01*
X289177Y210887D01*
X289134Y210977D01*
X289095Y211068D01*
X289060Y211161D01*
X289028Y211255D01*
X289000Y211351D01*
X288975Y211447D01*
X288955Y211545D01*
X288937Y211643D01*
X288924Y211741D01*
X288915Y211840D01*
X288909Y211939D01*
X288907Y212039D01*
X288908Y212039D02*
X288908Y214636D01*
X295399Y221597D02*
X295399Y225492D01*
X295399Y221597D02*
X295397Y221498D01*
X295391Y221398D01*
X295382Y221299D01*
X295369Y221201D01*
X295352Y221103D01*
X295331Y221005D01*
X295306Y220909D01*
X295278Y220814D01*
X295246Y220720D01*
X295211Y220627D01*
X295172Y220535D01*
X295129Y220445D01*
X295084Y220357D01*
X295034Y220270D01*
X294982Y220186D01*
X294926Y220103D01*
X294868Y220023D01*
X294806Y219945D01*
X294741Y219870D01*
X294673Y219797D01*
X294603Y219727D01*
X294530Y219659D01*
X294455Y219594D01*
X294377Y219532D01*
X294297Y219474D01*
X294214Y219418D01*
X294130Y219366D01*
X294043Y219316D01*
X293955Y219271D01*
X293865Y219228D01*
X293773Y219189D01*
X293680Y219154D01*
X293586Y219122D01*
X293491Y219094D01*
X293395Y219069D01*
X293297Y219048D01*
X293199Y219031D01*
X293101Y219018D01*
X293002Y219009D01*
X292902Y219003D01*
X292803Y219001D01*
X292154Y219001D01*
X292154Y219000D02*
X292041Y219002D01*
X291928Y219008D01*
X291815Y219018D01*
X291702Y219032D01*
X291590Y219049D01*
X291479Y219071D01*
X291369Y219096D01*
X291259Y219126D01*
X291151Y219159D01*
X291044Y219196D01*
X290938Y219236D01*
X290834Y219281D01*
X290731Y219329D01*
X290630Y219380D01*
X290531Y219435D01*
X290434Y219493D01*
X290339Y219555D01*
X290246Y219620D01*
X290156Y219688D01*
X290068Y219759D01*
X289982Y219834D01*
X289899Y219911D01*
X289819Y219991D01*
X289742Y220074D01*
X289667Y220160D01*
X289596Y220248D01*
X289528Y220338D01*
X289463Y220431D01*
X289401Y220526D01*
X289343Y220623D01*
X289288Y220722D01*
X289237Y220823D01*
X289189Y220926D01*
X289144Y221030D01*
X289104Y221136D01*
X289067Y221243D01*
X289034Y221351D01*
X289004Y221461D01*
X288979Y221571D01*
X288957Y221682D01*
X288940Y221794D01*
X288926Y221907D01*
X288916Y222020D01*
X288910Y222133D01*
X288908Y222246D01*
X288910Y222359D01*
X288916Y222472D01*
X288926Y222585D01*
X288940Y222698D01*
X288957Y222810D01*
X288979Y222921D01*
X289004Y223031D01*
X289034Y223141D01*
X289067Y223249D01*
X289104Y223356D01*
X289144Y223462D01*
X289189Y223566D01*
X289237Y223669D01*
X289288Y223770D01*
X289343Y223869D01*
X289401Y223966D01*
X289463Y224061D01*
X289528Y224154D01*
X289596Y224244D01*
X289667Y224332D01*
X289742Y224418D01*
X289819Y224501D01*
X289899Y224581D01*
X289982Y224658D01*
X290068Y224733D01*
X290156Y224804D01*
X290246Y224872D01*
X290339Y224937D01*
X290434Y224999D01*
X290531Y225057D01*
X290630Y225112D01*
X290731Y225163D01*
X290834Y225211D01*
X290938Y225256D01*
X291044Y225296D01*
X291151Y225333D01*
X291259Y225366D01*
X291369Y225396D01*
X291479Y225421D01*
X291590Y225443D01*
X291702Y225460D01*
X291815Y225474D01*
X291928Y225484D01*
X292041Y225490D01*
X292154Y225492D01*
X295399Y225492D01*
X295542Y225490D01*
X295685Y225484D01*
X295828Y225474D01*
X295970Y225460D01*
X296112Y225443D01*
X296254Y225421D01*
X296395Y225396D01*
X296535Y225366D01*
X296674Y225333D01*
X296812Y225296D01*
X296949Y225255D01*
X297085Y225211D01*
X297220Y225162D01*
X297353Y225110D01*
X297485Y225055D01*
X297615Y224995D01*
X297744Y224932D01*
X297871Y224866D01*
X297996Y224796D01*
X298118Y224723D01*
X298239Y224646D01*
X298358Y224566D01*
X298474Y224483D01*
X298589Y224397D01*
X298700Y224308D01*
X298810Y224215D01*
X298916Y224120D01*
X299020Y224021D01*
X299121Y223920D01*
X299220Y223816D01*
X299315Y223710D01*
X299408Y223600D01*
X299497Y223489D01*
X299583Y223374D01*
X299666Y223258D01*
X299746Y223139D01*
X299823Y223018D01*
X299896Y222896D01*
X299966Y222771D01*
X300032Y222644D01*
X300095Y222515D01*
X300155Y222385D01*
X300210Y222253D01*
X300262Y222120D01*
X300311Y221985D01*
X300355Y221849D01*
X300396Y221712D01*
X300433Y221574D01*
X300466Y221435D01*
X300496Y221295D01*
X300521Y221154D01*
X300543Y221012D01*
X300560Y220870D01*
X300574Y220728D01*
X300584Y220585D01*
X300590Y220442D01*
X300592Y220299D01*
D16*
X331800Y440600D02*
X256800Y440600D01*
X331800Y440600D02*
X331800Y430600D01*
X256800Y430600D02*
X256800Y440600D01*
D18*
X300977Y359283D02*
X300977Y356531D01*
X300979Y356467D01*
X300985Y356403D01*
X300994Y356340D01*
X301008Y356278D01*
X301025Y356216D01*
X301046Y356156D01*
X301070Y356097D01*
X301098Y356039D01*
X301130Y355984D01*
X301164Y355930D01*
X301202Y355879D01*
X301243Y355829D01*
X301287Y355783D01*
X301333Y355739D01*
X301383Y355698D01*
X301434Y355660D01*
X301488Y355626D01*
X301543Y355594D01*
X301601Y355566D01*
X301660Y355542D01*
X301720Y355521D01*
X301782Y355504D01*
X301844Y355490D01*
X301907Y355481D01*
X301971Y355475D01*
X302035Y355473D01*
X302099Y355475D01*
X302163Y355481D01*
X302226Y355490D01*
X302288Y355504D01*
X302350Y355521D01*
X302410Y355542D01*
X302469Y355566D01*
X302527Y355594D01*
X302582Y355626D01*
X302636Y355660D01*
X302687Y355698D01*
X302737Y355739D01*
X302783Y355783D01*
X302827Y355829D01*
X302868Y355879D01*
X302906Y355930D01*
X302940Y355984D01*
X302972Y356039D01*
X303000Y356097D01*
X303024Y356156D01*
X303045Y356216D01*
X303062Y356278D01*
X303076Y356340D01*
X303085Y356403D01*
X303091Y356467D01*
X303093Y356531D01*
X303094Y356531D02*
X303094Y359283D01*
X304756Y358436D02*
X305815Y359283D01*
X305815Y355473D01*
X306873Y355473D02*
X304756Y355473D01*
D12*
X282106Y353596D02*
X282106Y350548D01*
X282106Y344452D01*
X282106Y341404D01*
D19*
X282106Y344452D02*
X282215Y344454D01*
X282323Y344460D01*
X282432Y344469D01*
X282540Y344483D01*
X282647Y344500D01*
X282754Y344522D01*
X282860Y344547D01*
X282965Y344575D01*
X283069Y344608D01*
X283171Y344644D01*
X283272Y344684D01*
X283372Y344727D01*
X283470Y344774D01*
X283567Y344825D01*
X283661Y344879D01*
X283754Y344936D01*
X283844Y344996D01*
X283933Y345060D01*
X284019Y345127D01*
X284102Y345196D01*
X284183Y345269D01*
X284261Y345345D01*
X284337Y345423D01*
X284410Y345504D01*
X284479Y345587D01*
X284546Y345673D01*
X284610Y345762D01*
X284670Y345852D01*
X284727Y345945D01*
X284781Y346039D01*
X284832Y346136D01*
X284879Y346234D01*
X284922Y346334D01*
X284962Y346435D01*
X284998Y346537D01*
X285031Y346641D01*
X285059Y346746D01*
X285084Y346852D01*
X285106Y346959D01*
X285123Y347066D01*
X285137Y347174D01*
X285146Y347283D01*
X285152Y347391D01*
X285154Y347500D01*
X285152Y347609D01*
X285146Y347717D01*
X285137Y347826D01*
X285123Y347934D01*
X285106Y348041D01*
X285084Y348148D01*
X285059Y348254D01*
X285031Y348359D01*
X284998Y348463D01*
X284962Y348565D01*
X284922Y348666D01*
X284879Y348766D01*
X284832Y348864D01*
X284781Y348961D01*
X284727Y349055D01*
X284670Y349148D01*
X284610Y349238D01*
X284546Y349327D01*
X284479Y349413D01*
X284410Y349496D01*
X284337Y349577D01*
X284261Y349655D01*
X284183Y349731D01*
X284102Y349804D01*
X284019Y349873D01*
X283933Y349940D01*
X283844Y350004D01*
X283754Y350064D01*
X283661Y350121D01*
X283567Y350175D01*
X283470Y350226D01*
X283372Y350273D01*
X283272Y350316D01*
X283171Y350356D01*
X283069Y350392D01*
X282965Y350425D01*
X282860Y350453D01*
X282754Y350478D01*
X282647Y350500D01*
X282540Y350517D01*
X282432Y350531D01*
X282323Y350540D01*
X282215Y350546D01*
X282106Y350548D01*
D13*
X272554Y300993D02*
X258971Y300993D01*
X272554Y300993D02*
X272697Y300995D01*
X272839Y301001D01*
X272982Y301011D01*
X273124Y301024D01*
X273265Y301042D01*
X273406Y301063D01*
X273547Y301088D01*
X273687Y301117D01*
X273825Y301150D01*
X273963Y301187D01*
X274100Y301227D01*
X274236Y301271D01*
X274370Y301319D01*
X274504Y301370D01*
X274635Y301425D01*
X274765Y301484D01*
X274894Y301546D01*
X275021Y301612D01*
X275145Y301681D01*
X275268Y301754D01*
X275389Y301829D01*
X275508Y301908D01*
X275625Y301991D01*
X275739Y302076D01*
X275851Y302165D01*
X275960Y302256D01*
X276067Y302351D01*
X276171Y302448D01*
X276273Y302548D01*
X276372Y302651D01*
X276468Y302757D01*
X276561Y302865D01*
X276651Y302976D01*
X276738Y303089D01*
X276822Y303204D01*
X276903Y303322D01*
X276980Y303442D01*
X277054Y303564D01*
X277125Y303688D01*
X277192Y303814D01*
X277256Y303941D01*
X277317Y304071D01*
X277373Y304201D01*
X277427Y304334D01*
X277476Y304468D01*
X277522Y304603D01*
X277565Y304739D01*
X277603Y304876D01*
X277638Y305015D01*
X277669Y305154D01*
X277696Y305294D01*
X277719Y305435D01*
X277739Y305576D01*
X277754Y305718D01*
X277766Y305861D01*
X277774Y306003D01*
X277778Y306146D01*
X277778Y306288D01*
X277774Y306431D01*
X277766Y306573D01*
X277754Y306716D01*
X277739Y306858D01*
X277719Y306999D01*
X277696Y307140D01*
X277669Y307280D01*
X277638Y307419D01*
X277603Y307558D01*
X277565Y307695D01*
X277522Y307831D01*
X277476Y307966D01*
X277427Y308100D01*
X277373Y308233D01*
X277317Y308363D01*
X277256Y308493D01*
X277192Y308620D01*
X277125Y308746D01*
X277054Y308870D01*
X276980Y308992D01*
X276903Y309112D01*
X276822Y309230D01*
X276738Y309345D01*
X276651Y309458D01*
X276561Y309569D01*
X276468Y309677D01*
X276372Y309783D01*
X276273Y309886D01*
X276171Y309986D01*
X276067Y310083D01*
X275960Y310178D01*
X275851Y310269D01*
X275739Y310358D01*
X275625Y310443D01*
X275508Y310526D01*
X275389Y310605D01*
X275268Y310680D01*
X275145Y310753D01*
X275021Y310822D01*
X274894Y310888D01*
X274765Y310950D01*
X274635Y311009D01*
X274504Y311064D01*
X274370Y311115D01*
X274236Y311163D01*
X274100Y311207D01*
X273963Y311247D01*
X273825Y311284D01*
X273687Y311317D01*
X273547Y311346D01*
X273406Y311371D01*
X273265Y311392D01*
X273124Y311410D01*
X272982Y311423D01*
X272839Y311433D01*
X272697Y311439D01*
X272554Y311441D01*
X258971Y311441D01*
X258971Y323465D02*
X277778Y323465D01*
X268375Y323465D02*
X266807Y320853D01*
X266748Y320759D01*
X266686Y320667D01*
X266621Y320577D01*
X266552Y320490D01*
X266481Y320405D01*
X266406Y320323D01*
X266329Y320243D01*
X266248Y320166D01*
X266165Y320092D01*
X266080Y320021D01*
X265992Y319953D01*
X265902Y319889D01*
X265809Y319827D01*
X265714Y319769D01*
X265618Y319715D01*
X265519Y319664D01*
X265419Y319616D01*
X265317Y319572D01*
X265213Y319532D01*
X265108Y319495D01*
X265002Y319462D01*
X264895Y319433D01*
X264787Y319408D01*
X264678Y319386D01*
X264568Y319369D01*
X264458Y319355D01*
X264347Y319345D01*
X264236Y319340D01*
X264125Y319338D01*
X264014Y319340D01*
X263903Y319346D01*
X263793Y319356D01*
X263682Y319370D01*
X263573Y319388D01*
X263464Y319410D01*
X263356Y319436D01*
X263249Y319465D01*
X263143Y319499D01*
X263038Y319536D01*
X262935Y319576D01*
X262833Y319621D01*
X262733Y319669D01*
X262634Y319720D01*
X262538Y319775D01*
X262443Y319834D01*
X262351Y319896D01*
X262261Y319960D01*
X262173Y320029D01*
X262088Y320100D01*
X262005Y320174D01*
X261925Y320251D01*
X261848Y320331D01*
X261774Y320414D01*
X261702Y320499D01*
X261634Y320587D01*
X261569Y320677D01*
X261507Y320769D01*
X261449Y320863D01*
X261394Y320960D01*
X261342Y321058D01*
X261294Y321158D01*
X261249Y321260D01*
X261209Y321363D01*
X261171Y321468D01*
X261138Y321574D01*
X261109Y321681D01*
X261083Y321789D01*
X261061Y321898D01*
X261060Y321897D02*
X261026Y322093D01*
X260998Y322290D01*
X260974Y322488D01*
X260955Y322686D01*
X260940Y322884D01*
X260931Y323083D01*
X260926Y323282D01*
X260926Y323481D01*
X260930Y323680D01*
X260940Y323879D01*
X260954Y324077D01*
X260973Y324275D01*
X260997Y324473D01*
X261025Y324670D01*
X261059Y324866D01*
X261096Y325061D01*
X261139Y325256D01*
X261186Y325449D01*
X261238Y325641D01*
X261295Y325832D01*
X261356Y326021D01*
X261422Y326209D01*
X261492Y326395D01*
X261566Y326580D01*
X261645Y326762D01*
X261729Y326943D01*
X261816Y327122D01*
X261908Y327298D01*
X262004Y327472D01*
X262105Y327644D01*
X268375Y323465D02*
X269942Y326077D01*
X270001Y326171D01*
X270063Y326263D01*
X270128Y326353D01*
X270197Y326440D01*
X270268Y326525D01*
X270343Y326608D01*
X270420Y326687D01*
X270501Y326764D01*
X270584Y326838D01*
X270669Y326909D01*
X270757Y326977D01*
X270847Y327041D01*
X270940Y327103D01*
X271035Y327161D01*
X271131Y327215D01*
X271230Y327266D01*
X271330Y327314D01*
X271432Y327358D01*
X271536Y327398D01*
X271641Y327435D01*
X271747Y327468D01*
X271854Y327497D01*
X271962Y327522D01*
X272071Y327544D01*
X272181Y327561D01*
X272291Y327575D01*
X272402Y327585D01*
X272513Y327590D01*
X272624Y327592D01*
X272735Y327590D01*
X272846Y327584D01*
X272956Y327574D01*
X273067Y327560D01*
X273176Y327542D01*
X273285Y327520D01*
X273393Y327494D01*
X273500Y327465D01*
X273606Y327431D01*
X273711Y327394D01*
X273814Y327354D01*
X273916Y327309D01*
X274016Y327261D01*
X274115Y327210D01*
X274211Y327155D01*
X274306Y327096D01*
X274398Y327034D01*
X274488Y326970D01*
X274576Y326901D01*
X274661Y326830D01*
X274744Y326756D01*
X274824Y326679D01*
X274901Y326599D01*
X274975Y326516D01*
X275047Y326431D01*
X275115Y326343D01*
X275180Y326253D01*
X275242Y326161D01*
X275300Y326067D01*
X275355Y325970D01*
X275407Y325872D01*
X275455Y325772D01*
X275500Y325670D01*
X275540Y325567D01*
X275578Y325462D01*
X275611Y325356D01*
X275640Y325249D01*
X275666Y325141D01*
X275688Y325032D01*
X275689Y325032D02*
X275723Y324836D01*
X275751Y324639D01*
X275775Y324441D01*
X275794Y324243D01*
X275809Y324045D01*
X275818Y323846D01*
X275823Y323647D01*
X275823Y323448D01*
X275819Y323249D01*
X275809Y323050D01*
X275795Y322852D01*
X275776Y322654D01*
X275752Y322456D01*
X275724Y322259D01*
X275690Y322063D01*
X275653Y321868D01*
X275610Y321673D01*
X275563Y321480D01*
X275511Y321288D01*
X275454Y321097D01*
X275393Y320908D01*
X275327Y320720D01*
X275257Y320534D01*
X275183Y320349D01*
X275104Y320167D01*
X275020Y319986D01*
X274933Y319807D01*
X274841Y319631D01*
X274745Y319457D01*
X274644Y319285D01*
X263150Y334894D02*
X258971Y340118D01*
X277778Y340118D01*
X277778Y334894D02*
X277778Y345342D01*
D12*
X360020Y294500D02*
X367640Y294500D01*
X363830Y290690D02*
X363830Y298310D01*
X356210Y294500D02*
X356220Y295342D01*
X356251Y296183D01*
X356303Y297023D01*
X356375Y297861D01*
X356468Y298697D01*
X356581Y299531D01*
X356715Y300362D01*
X356869Y301190D01*
X357043Y302013D01*
X357238Y302832D01*
X357452Y303646D01*
X357687Y304454D01*
X357941Y305256D01*
X358214Y306052D01*
X358508Y306841D01*
X358820Y307622D01*
X359152Y308396D01*
X359502Y309161D01*
X359871Y309917D01*
X360259Y310664D01*
X360665Y311401D01*
X361088Y312129D01*
X361530Y312845D01*
X361989Y313551D01*
X362465Y314244D01*
X362958Y314927D01*
X363468Y315596D01*
X363993Y316253D01*
X364535Y316897D01*
X365093Y317528D01*
X365666Y318144D01*
X366253Y318747D01*
X366856Y319334D01*
X367472Y319907D01*
X368103Y320465D01*
X368747Y321007D01*
X369404Y321532D01*
X370073Y322042D01*
X370756Y322535D01*
X371449Y323011D01*
X372155Y323470D01*
X372871Y323912D01*
X373599Y324335D01*
X374336Y324741D01*
X375083Y325129D01*
X375839Y325498D01*
X376604Y325848D01*
X377378Y326180D01*
X378159Y326492D01*
X378948Y326786D01*
X379744Y327059D01*
X380546Y327313D01*
X381354Y327548D01*
X382168Y327762D01*
X382987Y327957D01*
X383810Y328131D01*
X384638Y328285D01*
X385469Y328419D01*
X386303Y328532D01*
X387139Y328625D01*
X387977Y328697D01*
X388817Y328749D01*
X389658Y328780D01*
X390500Y328790D01*
X391342Y328780D01*
X392183Y328749D01*
X393023Y328697D01*
X393861Y328625D01*
X394697Y328532D01*
X395531Y328419D01*
X396362Y328285D01*
X397190Y328131D01*
X398013Y327957D01*
X398832Y327762D01*
X399646Y327548D01*
X400454Y327313D01*
X401256Y327059D01*
X402052Y326786D01*
X402841Y326492D01*
X403622Y326180D01*
X404396Y325848D01*
X405161Y325498D01*
X405917Y325129D01*
X406664Y324741D01*
X407401Y324335D01*
X408129Y323912D01*
X408845Y323470D01*
X409551Y323011D01*
X410244Y322535D01*
X410927Y322042D01*
X411596Y321532D01*
X412253Y321007D01*
X412897Y320465D01*
X413528Y319907D01*
X414144Y319334D01*
X414747Y318747D01*
X415334Y318144D01*
X415907Y317528D01*
X416465Y316897D01*
X417007Y316253D01*
X417532Y315596D01*
X418042Y314927D01*
X418535Y314244D01*
X419011Y313551D01*
X419470Y312845D01*
X419912Y312129D01*
X420335Y311401D01*
X420741Y310664D01*
X421129Y309917D01*
X421498Y309161D01*
X421848Y308396D01*
X422180Y307622D01*
X422492Y306841D01*
X422786Y306052D01*
X423059Y305256D01*
X423313Y304454D01*
X423548Y303646D01*
X423762Y302832D01*
X423957Y302013D01*
X424131Y301190D01*
X424285Y300362D01*
X424419Y299531D01*
X424532Y298697D01*
X424625Y297861D01*
X424697Y297023D01*
X424749Y296183D01*
X424780Y295342D01*
X424790Y294500D01*
X424780Y293658D01*
X424749Y292817D01*
X424697Y291977D01*
X424625Y291139D01*
X424532Y290303D01*
X424419Y289469D01*
X424285Y288638D01*
X424131Y287810D01*
X423957Y286987D01*
X423762Y286168D01*
X423548Y285354D01*
X423313Y284546D01*
X423059Y283744D01*
X422786Y282948D01*
X422492Y282159D01*
X422180Y281378D01*
X421848Y280604D01*
X421498Y279839D01*
X421129Y279083D01*
X420741Y278336D01*
X420335Y277599D01*
X419912Y276871D01*
X419470Y276155D01*
X419011Y275449D01*
X418535Y274756D01*
X418042Y274073D01*
X417532Y273404D01*
X417007Y272747D01*
X416465Y272103D01*
X415907Y271472D01*
X415334Y270856D01*
X414747Y270253D01*
X414144Y269666D01*
X413528Y269093D01*
X412897Y268535D01*
X412253Y267993D01*
X411596Y267468D01*
X410927Y266958D01*
X410244Y266465D01*
X409551Y265989D01*
X408845Y265530D01*
X408129Y265088D01*
X407401Y264665D01*
X406664Y264259D01*
X405917Y263871D01*
X405161Y263502D01*
X404396Y263152D01*
X403622Y262820D01*
X402841Y262508D01*
X402052Y262214D01*
X401256Y261941D01*
X400454Y261687D01*
X399646Y261452D01*
X398832Y261238D01*
X398013Y261043D01*
X397190Y260869D01*
X396362Y260715D01*
X395531Y260581D01*
X394697Y260468D01*
X393861Y260375D01*
X393023Y260303D01*
X392183Y260251D01*
X391342Y260220D01*
X390500Y260210D01*
X389658Y260220D01*
X388817Y260251D01*
X387977Y260303D01*
X387139Y260375D01*
X386303Y260468D01*
X385469Y260581D01*
X384638Y260715D01*
X383810Y260869D01*
X382987Y261043D01*
X382168Y261238D01*
X381354Y261452D01*
X380546Y261687D01*
X379744Y261941D01*
X378948Y262214D01*
X378159Y262508D01*
X377378Y262820D01*
X376604Y263152D01*
X375839Y263502D01*
X375083Y263871D01*
X374336Y264259D01*
X373599Y264665D01*
X372871Y265088D01*
X372155Y265530D01*
X371449Y265989D01*
X370756Y266465D01*
X370073Y266958D01*
X369404Y267468D01*
X368747Y267993D01*
X368103Y268535D01*
X367472Y269093D01*
X366856Y269666D01*
X366253Y270253D01*
X365666Y270856D01*
X365093Y271472D01*
X364535Y272103D01*
X363993Y272747D01*
X363468Y273404D01*
X362958Y274073D01*
X362465Y274756D01*
X361989Y275449D01*
X361530Y276155D01*
X361088Y276871D01*
X360665Y277599D01*
X360259Y278336D01*
X359871Y279083D01*
X359502Y279839D01*
X359152Y280604D01*
X358820Y281378D01*
X358508Y282159D01*
X358214Y282948D01*
X357941Y283744D01*
X357687Y284546D01*
X357452Y285354D01*
X357238Y286168D01*
X357043Y286987D01*
X356869Y287810D01*
X356715Y288638D01*
X356581Y289469D01*
X356468Y290303D01*
X356375Y291139D01*
X356303Y291977D01*
X356251Y292817D01*
X356220Y293658D01*
X356210Y294500D01*
D16*
X424155Y315455D02*
X426695Y315455D01*
X424155Y315455D02*
X424055Y315457D01*
X423956Y315463D01*
X423856Y315473D01*
X423758Y315486D01*
X423659Y315504D01*
X423562Y315525D01*
X423466Y315550D01*
X423370Y315579D01*
X423276Y315612D01*
X423183Y315648D01*
X423092Y315688D01*
X423002Y315732D01*
X422914Y315779D01*
X422828Y315829D01*
X422744Y315883D01*
X422662Y315940D01*
X422583Y316000D01*
X422505Y316064D01*
X422431Y316130D01*
X422359Y316199D01*
X422290Y316271D01*
X422224Y316345D01*
X422160Y316423D01*
X422100Y316502D01*
X422043Y316584D01*
X421989Y316668D01*
X421939Y316754D01*
X421892Y316842D01*
X421848Y316932D01*
X421808Y317023D01*
X421772Y317116D01*
X421739Y317210D01*
X421710Y317306D01*
X421685Y317402D01*
X421664Y317499D01*
X421646Y317598D01*
X421633Y317696D01*
X421623Y317796D01*
X421617Y317895D01*
X421615Y317995D01*
X421615Y324345D01*
X421617Y324445D01*
X421623Y324544D01*
X421633Y324644D01*
X421646Y324742D01*
X421664Y324841D01*
X421685Y324938D01*
X421710Y325034D01*
X421739Y325130D01*
X421772Y325224D01*
X421808Y325317D01*
X421848Y325408D01*
X421892Y325498D01*
X421939Y325586D01*
X421989Y325672D01*
X422043Y325756D01*
X422100Y325838D01*
X422160Y325917D01*
X422224Y325995D01*
X422290Y326069D01*
X422359Y326141D01*
X422431Y326210D01*
X422505Y326276D01*
X422583Y326340D01*
X422662Y326400D01*
X422744Y326457D01*
X422828Y326511D01*
X422914Y326561D01*
X423002Y326608D01*
X423092Y326652D01*
X423183Y326692D01*
X423276Y326728D01*
X423370Y326761D01*
X423466Y326790D01*
X423562Y326815D01*
X423659Y326836D01*
X423758Y326854D01*
X423856Y326867D01*
X423956Y326877D01*
X424055Y326883D01*
X424155Y326885D01*
X426695Y326885D01*
X431177Y324345D02*
X434352Y326885D01*
X434352Y315455D01*
X431177Y315455D02*
X437527Y315455D01*
X442608Y321170D02*
X442611Y321395D01*
X442619Y321620D01*
X442632Y321844D01*
X442651Y322068D01*
X442675Y322292D01*
X442704Y322515D01*
X442739Y322737D01*
X442779Y322958D01*
X442825Y323178D01*
X442875Y323397D01*
X442931Y323615D01*
X442992Y323832D01*
X443058Y324047D01*
X443129Y324260D01*
X443206Y324471D01*
X443287Y324681D01*
X443373Y324889D01*
X443464Y325094D01*
X443560Y325297D01*
X443559Y325298D02*
X443591Y325386D01*
X443627Y325473D01*
X443666Y325559D01*
X443709Y325643D01*
X443755Y325725D01*
X443804Y325805D01*
X443856Y325883D01*
X443912Y325959D01*
X443970Y326033D01*
X444032Y326104D01*
X444096Y326173D01*
X444163Y326239D01*
X444232Y326302D01*
X444304Y326363D01*
X444378Y326421D01*
X444455Y326475D01*
X444533Y326527D01*
X444614Y326575D01*
X444696Y326620D01*
X444781Y326662D01*
X444867Y326700D01*
X444954Y326735D01*
X445042Y326767D01*
X445132Y326794D01*
X445223Y326819D01*
X445315Y326839D01*
X445407Y326856D01*
X445501Y326869D01*
X445594Y326878D01*
X445688Y326884D01*
X445782Y326886D01*
X445876Y326884D01*
X445970Y326878D01*
X446063Y326869D01*
X446157Y326856D01*
X446249Y326839D01*
X446341Y326819D01*
X446432Y326794D01*
X446522Y326767D01*
X446610Y326735D01*
X446697Y326700D01*
X446783Y326662D01*
X446868Y326620D01*
X446950Y326575D01*
X447031Y326527D01*
X447109Y326475D01*
X447186Y326421D01*
X447260Y326363D01*
X447332Y326302D01*
X447401Y326239D01*
X447468Y326173D01*
X447532Y326104D01*
X447594Y326033D01*
X447652Y325959D01*
X447708Y325883D01*
X447760Y325805D01*
X447809Y325725D01*
X447855Y325643D01*
X447898Y325559D01*
X447937Y325473D01*
X447973Y325386D01*
X448005Y325298D01*
X448005Y325297D02*
X448101Y325094D01*
X448192Y324889D01*
X448278Y324681D01*
X448359Y324471D01*
X448436Y324260D01*
X448507Y324047D01*
X448573Y323832D01*
X448634Y323615D01*
X448690Y323397D01*
X448740Y323178D01*
X448786Y322958D01*
X448826Y322737D01*
X448861Y322515D01*
X448890Y322292D01*
X448914Y322068D01*
X448933Y321844D01*
X448946Y321620D01*
X448954Y321395D01*
X448957Y321170D01*
X442608Y321170D02*
X442611Y320945D01*
X442619Y320720D01*
X442632Y320496D01*
X442651Y320272D01*
X442675Y320048D01*
X442704Y319825D01*
X442739Y319603D01*
X442779Y319382D01*
X442825Y319162D01*
X442875Y318943D01*
X442931Y318725D01*
X442992Y318508D01*
X443058Y318293D01*
X443129Y318080D01*
X443206Y317869D01*
X443287Y317659D01*
X443373Y317451D01*
X443464Y317246D01*
X443560Y317043D01*
X443559Y317043D02*
X443591Y316955D01*
X443627Y316868D01*
X443666Y316782D01*
X443709Y316698D01*
X443755Y316616D01*
X443804Y316536D01*
X443856Y316458D01*
X443912Y316382D01*
X443970Y316308D01*
X444032Y316237D01*
X444096Y316168D01*
X444163Y316102D01*
X444232Y316039D01*
X444304Y315978D01*
X444378Y315920D01*
X444455Y315866D01*
X444533Y315814D01*
X444614Y315766D01*
X444696Y315721D01*
X444781Y315679D01*
X444867Y315641D01*
X444954Y315606D01*
X445042Y315574D01*
X445132Y315547D01*
X445223Y315522D01*
X445315Y315502D01*
X445407Y315485D01*
X445501Y315472D01*
X445594Y315463D01*
X445688Y315457D01*
X445782Y315455D01*
X448005Y317043D02*
X448101Y317246D01*
X448192Y317451D01*
X448278Y317659D01*
X448359Y317869D01*
X448436Y318080D01*
X448507Y318293D01*
X448573Y318508D01*
X448634Y318725D01*
X448690Y318943D01*
X448740Y319162D01*
X448786Y319382D01*
X448826Y319603D01*
X448861Y319825D01*
X448890Y320048D01*
X448914Y320272D01*
X448933Y320496D01*
X448946Y320720D01*
X448954Y320945D01*
X448957Y321170D01*
X448005Y317043D02*
X447973Y316955D01*
X447937Y316868D01*
X447898Y316782D01*
X447855Y316698D01*
X447809Y316616D01*
X447760Y316536D01*
X447708Y316458D01*
X447652Y316382D01*
X447594Y316308D01*
X447532Y316237D01*
X447468Y316168D01*
X447401Y316102D01*
X447332Y316039D01*
X447260Y315978D01*
X447186Y315920D01*
X447109Y315866D01*
X447031Y315814D01*
X446950Y315766D01*
X446868Y315721D01*
X446783Y315679D01*
X446697Y315641D01*
X446610Y315606D01*
X446522Y315574D01*
X446432Y315547D01*
X446341Y315522D01*
X446249Y315502D01*
X446157Y315485D01*
X446063Y315472D01*
X445970Y315463D01*
X445876Y315457D01*
X445782Y315455D01*
X443242Y317995D02*
X448322Y324345D01*
D12*
X385840Y216500D02*
X378220Y216500D01*
X382030Y212690D02*
X382030Y220310D01*
X374410Y216500D02*
X374420Y217342D01*
X374451Y218183D01*
X374503Y219023D01*
X374575Y219861D01*
X374668Y220697D01*
X374781Y221531D01*
X374915Y222362D01*
X375069Y223190D01*
X375243Y224013D01*
X375438Y224832D01*
X375652Y225646D01*
X375887Y226454D01*
X376141Y227256D01*
X376414Y228052D01*
X376708Y228841D01*
X377020Y229622D01*
X377352Y230396D01*
X377702Y231161D01*
X378071Y231917D01*
X378459Y232664D01*
X378865Y233401D01*
X379288Y234129D01*
X379730Y234845D01*
X380189Y235551D01*
X380665Y236244D01*
X381158Y236927D01*
X381668Y237596D01*
X382193Y238253D01*
X382735Y238897D01*
X383293Y239528D01*
X383866Y240144D01*
X384453Y240747D01*
X385056Y241334D01*
X385672Y241907D01*
X386303Y242465D01*
X386947Y243007D01*
X387604Y243532D01*
X388273Y244042D01*
X388956Y244535D01*
X389649Y245011D01*
X390355Y245470D01*
X391071Y245912D01*
X391799Y246335D01*
X392536Y246741D01*
X393283Y247129D01*
X394039Y247498D01*
X394804Y247848D01*
X395578Y248180D01*
X396359Y248492D01*
X397148Y248786D01*
X397944Y249059D01*
X398746Y249313D01*
X399554Y249548D01*
X400368Y249762D01*
X401187Y249957D01*
X402010Y250131D01*
X402838Y250285D01*
X403669Y250419D01*
X404503Y250532D01*
X405339Y250625D01*
X406177Y250697D01*
X407017Y250749D01*
X407858Y250780D01*
X408700Y250790D01*
X409542Y250780D01*
X410383Y250749D01*
X411223Y250697D01*
X412061Y250625D01*
X412897Y250532D01*
X413731Y250419D01*
X414562Y250285D01*
X415390Y250131D01*
X416213Y249957D01*
X417032Y249762D01*
X417846Y249548D01*
X418654Y249313D01*
X419456Y249059D01*
X420252Y248786D01*
X421041Y248492D01*
X421822Y248180D01*
X422596Y247848D01*
X423361Y247498D01*
X424117Y247129D01*
X424864Y246741D01*
X425601Y246335D01*
X426329Y245912D01*
X427045Y245470D01*
X427751Y245011D01*
X428444Y244535D01*
X429127Y244042D01*
X429796Y243532D01*
X430453Y243007D01*
X431097Y242465D01*
X431728Y241907D01*
X432344Y241334D01*
X432947Y240747D01*
X433534Y240144D01*
X434107Y239528D01*
X434665Y238897D01*
X435207Y238253D01*
X435732Y237596D01*
X436242Y236927D01*
X436735Y236244D01*
X437211Y235551D01*
X437670Y234845D01*
X438112Y234129D01*
X438535Y233401D01*
X438941Y232664D01*
X439329Y231917D01*
X439698Y231161D01*
X440048Y230396D01*
X440380Y229622D01*
X440692Y228841D01*
X440986Y228052D01*
X441259Y227256D01*
X441513Y226454D01*
X441748Y225646D01*
X441962Y224832D01*
X442157Y224013D01*
X442331Y223190D01*
X442485Y222362D01*
X442619Y221531D01*
X442732Y220697D01*
X442825Y219861D01*
X442897Y219023D01*
X442949Y218183D01*
X442980Y217342D01*
X442990Y216500D01*
X442980Y215658D01*
X442949Y214817D01*
X442897Y213977D01*
X442825Y213139D01*
X442732Y212303D01*
X442619Y211469D01*
X442485Y210638D01*
X442331Y209810D01*
X442157Y208987D01*
X441962Y208168D01*
X441748Y207354D01*
X441513Y206546D01*
X441259Y205744D01*
X440986Y204948D01*
X440692Y204159D01*
X440380Y203378D01*
X440048Y202604D01*
X439698Y201839D01*
X439329Y201083D01*
X438941Y200336D01*
X438535Y199599D01*
X438112Y198871D01*
X437670Y198155D01*
X437211Y197449D01*
X436735Y196756D01*
X436242Y196073D01*
X435732Y195404D01*
X435207Y194747D01*
X434665Y194103D01*
X434107Y193472D01*
X433534Y192856D01*
X432947Y192253D01*
X432344Y191666D01*
X431728Y191093D01*
X431097Y190535D01*
X430453Y189993D01*
X429796Y189468D01*
X429127Y188958D01*
X428444Y188465D01*
X427751Y187989D01*
X427045Y187530D01*
X426329Y187088D01*
X425601Y186665D01*
X424864Y186259D01*
X424117Y185871D01*
X423361Y185502D01*
X422596Y185152D01*
X421822Y184820D01*
X421041Y184508D01*
X420252Y184214D01*
X419456Y183941D01*
X418654Y183687D01*
X417846Y183452D01*
X417032Y183238D01*
X416213Y183043D01*
X415390Y182869D01*
X414562Y182715D01*
X413731Y182581D01*
X412897Y182468D01*
X412061Y182375D01*
X411223Y182303D01*
X410383Y182251D01*
X409542Y182220D01*
X408700Y182210D01*
X407858Y182220D01*
X407017Y182251D01*
X406177Y182303D01*
X405339Y182375D01*
X404503Y182468D01*
X403669Y182581D01*
X402838Y182715D01*
X402010Y182869D01*
X401187Y183043D01*
X400368Y183238D01*
X399554Y183452D01*
X398746Y183687D01*
X397944Y183941D01*
X397148Y184214D01*
X396359Y184508D01*
X395578Y184820D01*
X394804Y185152D01*
X394039Y185502D01*
X393283Y185871D01*
X392536Y186259D01*
X391799Y186665D01*
X391071Y187088D01*
X390355Y187530D01*
X389649Y187989D01*
X388956Y188465D01*
X388273Y188958D01*
X387604Y189468D01*
X386947Y189993D01*
X386303Y190535D01*
X385672Y191093D01*
X385056Y191666D01*
X384453Y192253D01*
X383866Y192856D01*
X383293Y193472D01*
X382735Y194103D01*
X382193Y194747D01*
X381668Y195404D01*
X381158Y196073D01*
X380665Y196756D01*
X380189Y197449D01*
X379730Y198155D01*
X379288Y198871D01*
X378865Y199599D01*
X378459Y200336D01*
X378071Y201083D01*
X377702Y201839D01*
X377352Y202604D01*
X377020Y203378D01*
X376708Y204159D01*
X376414Y204948D01*
X376141Y205744D01*
X375887Y206546D01*
X375652Y207354D01*
X375438Y208168D01*
X375243Y208987D01*
X375069Y209810D01*
X374915Y210638D01*
X374781Y211469D01*
X374668Y212303D01*
X374575Y213139D01*
X374503Y213977D01*
X374451Y214817D01*
X374420Y215658D01*
X374410Y216500D01*
D16*
X442355Y237455D02*
X444895Y237455D01*
X442355Y237455D02*
X442255Y237457D01*
X442156Y237463D01*
X442056Y237473D01*
X441958Y237486D01*
X441859Y237504D01*
X441762Y237525D01*
X441666Y237550D01*
X441570Y237579D01*
X441476Y237612D01*
X441383Y237648D01*
X441292Y237688D01*
X441202Y237732D01*
X441114Y237779D01*
X441028Y237829D01*
X440944Y237883D01*
X440862Y237940D01*
X440783Y238000D01*
X440705Y238064D01*
X440631Y238130D01*
X440559Y238199D01*
X440490Y238271D01*
X440424Y238345D01*
X440360Y238423D01*
X440300Y238502D01*
X440243Y238584D01*
X440189Y238668D01*
X440139Y238754D01*
X440092Y238842D01*
X440048Y238932D01*
X440008Y239023D01*
X439972Y239116D01*
X439939Y239210D01*
X439910Y239306D01*
X439885Y239402D01*
X439864Y239499D01*
X439846Y239598D01*
X439833Y239696D01*
X439823Y239796D01*
X439817Y239895D01*
X439815Y239995D01*
X439815Y246345D01*
X439817Y246445D01*
X439823Y246544D01*
X439833Y246644D01*
X439846Y246742D01*
X439864Y246841D01*
X439885Y246938D01*
X439910Y247034D01*
X439939Y247130D01*
X439972Y247224D01*
X440008Y247317D01*
X440048Y247408D01*
X440092Y247498D01*
X440139Y247586D01*
X440189Y247672D01*
X440243Y247756D01*
X440300Y247838D01*
X440360Y247917D01*
X440424Y247995D01*
X440490Y248069D01*
X440559Y248141D01*
X440631Y248210D01*
X440705Y248276D01*
X440783Y248340D01*
X440862Y248400D01*
X440944Y248457D01*
X441028Y248511D01*
X441114Y248561D01*
X441202Y248608D01*
X441292Y248652D01*
X441383Y248692D01*
X441476Y248728D01*
X441570Y248761D01*
X441666Y248790D01*
X441762Y248815D01*
X441859Y248836D01*
X441958Y248854D01*
X442056Y248867D01*
X442156Y248877D01*
X442255Y248883D01*
X442355Y248885D01*
X444895Y248885D01*
X449377Y246345D02*
X452552Y248885D01*
X452552Y237455D01*
X449377Y237455D02*
X455727Y237455D01*
X460807Y246345D02*
X463982Y248885D01*
X463982Y237455D01*
X460807Y237455D02*
X467157Y237455D01*
D11*
X371192Y341695D02*
X359508Y341695D01*
X359508Y344940D01*
X359510Y345053D01*
X359516Y345166D01*
X359526Y345279D01*
X359540Y345392D01*
X359557Y345504D01*
X359579Y345615D01*
X359604Y345725D01*
X359634Y345835D01*
X359667Y345943D01*
X359704Y346050D01*
X359744Y346156D01*
X359789Y346260D01*
X359837Y346363D01*
X359888Y346464D01*
X359943Y346563D01*
X360001Y346660D01*
X360063Y346755D01*
X360128Y346848D01*
X360196Y346938D01*
X360267Y347026D01*
X360342Y347112D01*
X360419Y347195D01*
X360499Y347275D01*
X360582Y347352D01*
X360668Y347427D01*
X360756Y347498D01*
X360846Y347566D01*
X360939Y347631D01*
X361034Y347693D01*
X361131Y347751D01*
X361230Y347806D01*
X361331Y347857D01*
X361434Y347905D01*
X361538Y347950D01*
X361644Y347990D01*
X361751Y348027D01*
X361859Y348060D01*
X361969Y348090D01*
X362079Y348115D01*
X362190Y348137D01*
X362302Y348154D01*
X362415Y348168D01*
X362528Y348178D01*
X362641Y348184D01*
X362754Y348186D01*
X362867Y348184D01*
X362980Y348178D01*
X363093Y348168D01*
X363206Y348154D01*
X363318Y348137D01*
X363429Y348115D01*
X363539Y348090D01*
X363649Y348060D01*
X363757Y348027D01*
X363864Y347990D01*
X363970Y347950D01*
X364074Y347905D01*
X364177Y347857D01*
X364278Y347806D01*
X364377Y347751D01*
X364474Y347693D01*
X364569Y347631D01*
X364662Y347566D01*
X364752Y347498D01*
X364840Y347427D01*
X364926Y347352D01*
X365009Y347275D01*
X365089Y347195D01*
X365166Y347112D01*
X365241Y347026D01*
X365312Y346938D01*
X365380Y346848D01*
X365445Y346755D01*
X365507Y346660D01*
X365565Y346563D01*
X365620Y346464D01*
X365671Y346363D01*
X365719Y346260D01*
X365764Y346156D01*
X365804Y346050D01*
X365841Y345943D01*
X365874Y345835D01*
X365904Y345725D01*
X365929Y345615D01*
X365951Y345504D01*
X365968Y345392D01*
X365982Y345279D01*
X365992Y345166D01*
X365998Y345053D01*
X366000Y344940D01*
X365999Y344940D02*
X365999Y341695D01*
X365999Y345589D02*
X371192Y348186D01*
X362429Y359542D02*
X362322Y359540D01*
X362216Y359534D01*
X362110Y359524D01*
X362004Y359511D01*
X361898Y359493D01*
X361794Y359472D01*
X361690Y359447D01*
X361587Y359418D01*
X361486Y359386D01*
X361386Y359349D01*
X361287Y359309D01*
X361189Y359266D01*
X361093Y359219D01*
X360999Y359168D01*
X360907Y359114D01*
X360817Y359057D01*
X360729Y358997D01*
X360644Y358933D01*
X360561Y358866D01*
X360480Y358796D01*
X360402Y358724D01*
X360326Y358648D01*
X360254Y358570D01*
X360184Y358489D01*
X360117Y358406D01*
X360053Y358321D01*
X359993Y358233D01*
X359936Y358143D01*
X359882Y358051D01*
X359831Y357957D01*
X359784Y357861D01*
X359741Y357763D01*
X359701Y357664D01*
X359664Y357564D01*
X359632Y357463D01*
X359603Y357360D01*
X359578Y357256D01*
X359557Y357152D01*
X359539Y357046D01*
X359526Y356940D01*
X359516Y356834D01*
X359510Y356728D01*
X359508Y356621D01*
X359510Y356500D01*
X359516Y356379D01*
X359526Y356259D01*
X359539Y356138D01*
X359557Y356019D01*
X359578Y355899D01*
X359603Y355781D01*
X359632Y355664D01*
X359665Y355547D01*
X359701Y355432D01*
X359742Y355318D01*
X359785Y355205D01*
X359833Y355093D01*
X359884Y354984D01*
X359939Y354876D01*
X359997Y354769D01*
X360058Y354665D01*
X360123Y354563D01*
X360191Y354463D01*
X360262Y354365D01*
X360336Y354269D01*
X360413Y354176D01*
X360494Y354086D01*
X360577Y353998D01*
X360663Y353913D01*
X360752Y353830D01*
X360843Y353751D01*
X360937Y353674D01*
X361033Y353601D01*
X361131Y353531D01*
X361232Y353464D01*
X361335Y353400D01*
X361440Y353340D01*
X361547Y353282D01*
X361655Y353229D01*
X361765Y353179D01*
X361877Y353133D01*
X361990Y353090D01*
X362105Y353051D01*
X364701Y358568D02*
X364623Y358647D01*
X364543Y358723D01*
X364460Y358796D01*
X364374Y358866D01*
X364287Y358933D01*
X364196Y358997D01*
X364104Y359057D01*
X364010Y359115D01*
X363913Y359169D01*
X363815Y359219D01*
X363715Y359266D01*
X363614Y359310D01*
X363511Y359350D01*
X363406Y359386D01*
X363301Y359418D01*
X363194Y359447D01*
X363087Y359472D01*
X362978Y359494D01*
X362869Y359511D01*
X362760Y359525D01*
X362650Y359534D01*
X362539Y359540D01*
X362429Y359542D01*
X364701Y358568D02*
X371192Y353051D01*
X371192Y359542D01*
X241695Y345992D02*
X241695Y334308D01*
X241695Y345992D02*
X244940Y345992D01*
X245053Y345990D01*
X245166Y345984D01*
X245279Y345974D01*
X245392Y345960D01*
X245504Y345943D01*
X245615Y345921D01*
X245725Y345896D01*
X245835Y345866D01*
X245943Y345833D01*
X246050Y345796D01*
X246156Y345756D01*
X246260Y345711D01*
X246363Y345663D01*
X246464Y345612D01*
X246563Y345557D01*
X246660Y345499D01*
X246755Y345437D01*
X246848Y345372D01*
X246938Y345304D01*
X247026Y345233D01*
X247112Y345158D01*
X247195Y345081D01*
X247275Y345001D01*
X247352Y344918D01*
X247427Y344832D01*
X247498Y344744D01*
X247566Y344654D01*
X247631Y344561D01*
X247693Y344466D01*
X247751Y344369D01*
X247806Y344270D01*
X247857Y344169D01*
X247905Y344066D01*
X247950Y343962D01*
X247990Y343856D01*
X248027Y343749D01*
X248060Y343641D01*
X248090Y343531D01*
X248115Y343421D01*
X248137Y343310D01*
X248154Y343198D01*
X248168Y343085D01*
X248178Y342972D01*
X248184Y342859D01*
X248186Y342746D01*
X248184Y342633D01*
X248178Y342520D01*
X248168Y342407D01*
X248154Y342294D01*
X248137Y342182D01*
X248115Y342071D01*
X248090Y341961D01*
X248060Y341851D01*
X248027Y341743D01*
X247990Y341636D01*
X247950Y341530D01*
X247905Y341426D01*
X247857Y341323D01*
X247806Y341222D01*
X247751Y341123D01*
X247693Y341026D01*
X247631Y340931D01*
X247566Y340838D01*
X247498Y340748D01*
X247427Y340660D01*
X247352Y340574D01*
X247275Y340491D01*
X247195Y340411D01*
X247112Y340334D01*
X247026Y340259D01*
X246938Y340188D01*
X246848Y340120D01*
X246755Y340055D01*
X246660Y339993D01*
X246563Y339935D01*
X246464Y339880D01*
X246363Y339829D01*
X246260Y339781D01*
X246156Y339736D01*
X246050Y339696D01*
X245943Y339659D01*
X245835Y339626D01*
X245725Y339596D01*
X245615Y339571D01*
X245504Y339549D01*
X245392Y339532D01*
X245279Y339518D01*
X245166Y339508D01*
X245053Y339502D01*
X244940Y339500D01*
X244940Y339501D02*
X241695Y339501D01*
X245589Y339501D02*
X248186Y334308D01*
X253051Y336904D02*
X255647Y345992D01*
X253051Y336904D02*
X259542Y336904D01*
X257595Y339501D02*
X257595Y334308D01*
D13*
X371175Y333700D02*
X384825Y333700D01*
D16*
X388160Y353525D02*
X392986Y353525D01*
X388160Y353525D02*
X388160Y354865D01*
X388162Y354935D01*
X388167Y355005D01*
X388177Y355075D01*
X388189Y355144D01*
X388206Y355212D01*
X388226Y355279D01*
X388249Y355346D01*
X388276Y355410D01*
X388306Y355474D01*
X388340Y355536D01*
X388376Y355595D01*
X388416Y355653D01*
X388459Y355709D01*
X388504Y355762D01*
X388553Y355813D01*
X388604Y355862D01*
X388657Y355907D01*
X388713Y355950D01*
X388771Y355990D01*
X388831Y356026D01*
X388892Y356060D01*
X388956Y356090D01*
X389020Y356117D01*
X389087Y356140D01*
X389154Y356160D01*
X389222Y356177D01*
X389291Y356189D01*
X389361Y356199D01*
X389431Y356204D01*
X389501Y356206D01*
X391645Y356206D01*
X391715Y356204D01*
X391785Y356199D01*
X391855Y356189D01*
X391924Y356177D01*
X391992Y356160D01*
X392059Y356140D01*
X392126Y356117D01*
X392190Y356090D01*
X392254Y356060D01*
X392316Y356026D01*
X392375Y355990D01*
X392433Y355950D01*
X392489Y355907D01*
X392542Y355862D01*
X392593Y355813D01*
X392642Y355762D01*
X392687Y355709D01*
X392730Y355653D01*
X392770Y355595D01*
X392806Y355535D01*
X392840Y355474D01*
X392870Y355410D01*
X392897Y355346D01*
X392920Y355279D01*
X392940Y355212D01*
X392957Y355144D01*
X392969Y355075D01*
X392979Y355005D01*
X392984Y354935D01*
X392986Y354865D01*
X392986Y353525D01*
X389232Y359194D02*
X388160Y360535D01*
X392986Y360535D01*
X392986Y361875D02*
X392986Y359194D01*
D13*
X397275Y380300D02*
X410925Y380300D01*
D16*
X393940Y352125D02*
X389114Y352125D01*
X389114Y353465D01*
X389116Y353535D01*
X389121Y353605D01*
X389131Y353675D01*
X389143Y353744D01*
X389160Y353812D01*
X389180Y353879D01*
X389203Y353946D01*
X389230Y354010D01*
X389260Y354074D01*
X389294Y354136D01*
X389330Y354195D01*
X389370Y354253D01*
X389413Y354309D01*
X389458Y354362D01*
X389507Y354413D01*
X389558Y354462D01*
X389611Y354507D01*
X389667Y354550D01*
X389725Y354590D01*
X389785Y354626D01*
X389846Y354660D01*
X389910Y354690D01*
X389974Y354717D01*
X390041Y354740D01*
X390108Y354760D01*
X390176Y354777D01*
X390245Y354789D01*
X390315Y354799D01*
X390385Y354804D01*
X390455Y354806D01*
X392599Y354806D01*
X392669Y354804D01*
X392739Y354799D01*
X392809Y354789D01*
X392878Y354777D01*
X392946Y354760D01*
X393013Y354740D01*
X393080Y354717D01*
X393144Y354690D01*
X393208Y354660D01*
X393270Y354626D01*
X393329Y354590D01*
X393387Y354550D01*
X393443Y354507D01*
X393496Y354462D01*
X393547Y354413D01*
X393596Y354362D01*
X393641Y354309D01*
X393684Y354253D01*
X393724Y354195D01*
X393760Y354135D01*
X393794Y354074D01*
X393824Y354010D01*
X393851Y353946D01*
X393874Y353879D01*
X393894Y353812D01*
X393911Y353744D01*
X393923Y353675D01*
X393933Y353605D01*
X393938Y353535D01*
X393940Y353465D01*
X393940Y352125D01*
X389114Y359269D02*
X389116Y359337D01*
X389122Y359404D01*
X389131Y359471D01*
X389144Y359538D01*
X389161Y359603D01*
X389182Y359668D01*
X389206Y359731D01*
X389234Y359793D01*
X389265Y359853D01*
X389299Y359911D01*
X389337Y359967D01*
X389377Y360022D01*
X389421Y360073D01*
X389468Y360122D01*
X389517Y360169D01*
X389568Y360213D01*
X389623Y360253D01*
X389679Y360291D01*
X389737Y360325D01*
X389797Y360356D01*
X389859Y360384D01*
X389922Y360408D01*
X389987Y360429D01*
X390052Y360446D01*
X390119Y360459D01*
X390186Y360468D01*
X390253Y360474D01*
X390321Y360476D01*
X389114Y359269D02*
X389116Y359191D01*
X389122Y359113D01*
X389132Y359036D01*
X389145Y358959D01*
X389163Y358883D01*
X389184Y358808D01*
X389209Y358734D01*
X389238Y358662D01*
X389270Y358591D01*
X389306Y358522D01*
X389345Y358454D01*
X389388Y358389D01*
X389434Y358326D01*
X389483Y358265D01*
X389535Y358207D01*
X389590Y358152D01*
X389647Y358099D01*
X389707Y358050D01*
X389770Y358003D01*
X389835Y357960D01*
X389901Y357920D01*
X389970Y357883D01*
X390041Y357850D01*
X390113Y357820D01*
X390187Y357794D01*
X391259Y360073D02*
X391210Y360122D01*
X391158Y360169D01*
X391103Y360212D01*
X391046Y360253D01*
X390987Y360291D01*
X390926Y360325D01*
X390863Y360356D01*
X390799Y360384D01*
X390733Y360408D01*
X390667Y360428D01*
X390599Y360445D01*
X390530Y360458D01*
X390461Y360467D01*
X390391Y360473D01*
X390321Y360475D01*
X391259Y360073D02*
X393940Y357794D01*
X393940Y360475D01*
D11*
X379695Y376008D02*
X379695Y387692D01*
X382940Y387692D01*
X383053Y387690D01*
X383166Y387684D01*
X383279Y387674D01*
X383392Y387660D01*
X383504Y387643D01*
X383615Y387621D01*
X383725Y387596D01*
X383835Y387566D01*
X383943Y387533D01*
X384050Y387496D01*
X384156Y387456D01*
X384260Y387411D01*
X384363Y387363D01*
X384464Y387312D01*
X384563Y387257D01*
X384660Y387199D01*
X384755Y387137D01*
X384848Y387072D01*
X384938Y387004D01*
X385026Y386933D01*
X385112Y386858D01*
X385195Y386781D01*
X385275Y386701D01*
X385352Y386618D01*
X385427Y386532D01*
X385498Y386444D01*
X385566Y386354D01*
X385631Y386261D01*
X385693Y386166D01*
X385751Y386069D01*
X385806Y385970D01*
X385857Y385869D01*
X385905Y385766D01*
X385950Y385662D01*
X385990Y385556D01*
X386027Y385449D01*
X386060Y385341D01*
X386090Y385231D01*
X386115Y385121D01*
X386137Y385010D01*
X386154Y384898D01*
X386168Y384785D01*
X386178Y384672D01*
X386184Y384559D01*
X386186Y384446D01*
X386184Y384333D01*
X386178Y384220D01*
X386168Y384107D01*
X386154Y383994D01*
X386137Y383882D01*
X386115Y383771D01*
X386090Y383661D01*
X386060Y383551D01*
X386027Y383443D01*
X385990Y383336D01*
X385950Y383230D01*
X385905Y383126D01*
X385857Y383023D01*
X385806Y382922D01*
X385751Y382823D01*
X385693Y382726D01*
X385631Y382631D01*
X385566Y382538D01*
X385498Y382448D01*
X385427Y382360D01*
X385352Y382274D01*
X385275Y382191D01*
X385195Y382111D01*
X385112Y382034D01*
X385026Y381959D01*
X384938Y381888D01*
X384848Y381820D01*
X384755Y381755D01*
X384660Y381693D01*
X384563Y381635D01*
X384464Y381580D01*
X384363Y381529D01*
X384260Y381481D01*
X384156Y381436D01*
X384050Y381396D01*
X383943Y381359D01*
X383835Y381326D01*
X383725Y381296D01*
X383615Y381271D01*
X383504Y381249D01*
X383392Y381232D01*
X383279Y381218D01*
X383166Y381208D01*
X383053Y381202D01*
X382940Y381200D01*
X382940Y381201D02*
X379695Y381201D01*
X383589Y381201D02*
X386186Y376008D01*
X391051Y376008D02*
X394946Y376008D01*
X395045Y376010D01*
X395145Y376016D01*
X395244Y376025D01*
X395342Y376038D01*
X395440Y376055D01*
X395538Y376076D01*
X395634Y376101D01*
X395729Y376129D01*
X395823Y376161D01*
X395916Y376196D01*
X396008Y376235D01*
X396098Y376278D01*
X396186Y376323D01*
X396273Y376373D01*
X396357Y376425D01*
X396440Y376481D01*
X396520Y376539D01*
X396598Y376601D01*
X396673Y376666D01*
X396746Y376734D01*
X396816Y376804D01*
X396884Y376877D01*
X396949Y376952D01*
X397011Y377030D01*
X397069Y377110D01*
X397125Y377193D01*
X397177Y377277D01*
X397227Y377364D01*
X397272Y377452D01*
X397315Y377542D01*
X397354Y377634D01*
X397389Y377727D01*
X397421Y377821D01*
X397449Y377916D01*
X397474Y378012D01*
X397495Y378110D01*
X397512Y378208D01*
X397525Y378306D01*
X397534Y378405D01*
X397540Y378505D01*
X397542Y378604D01*
X397542Y379903D01*
X397540Y380002D01*
X397534Y380102D01*
X397525Y380201D01*
X397512Y380299D01*
X397495Y380397D01*
X397474Y380495D01*
X397449Y380591D01*
X397421Y380686D01*
X397389Y380780D01*
X397354Y380873D01*
X397315Y380965D01*
X397272Y381055D01*
X397227Y381143D01*
X397177Y381230D01*
X397125Y381314D01*
X397069Y381397D01*
X397011Y381477D01*
X396949Y381555D01*
X396884Y381630D01*
X396816Y381703D01*
X396746Y381773D01*
X396673Y381841D01*
X396598Y381906D01*
X396520Y381968D01*
X396440Y382026D01*
X396357Y382082D01*
X396273Y382134D01*
X396186Y382184D01*
X396098Y382229D01*
X396008Y382272D01*
X395916Y382311D01*
X395823Y382346D01*
X395729Y382378D01*
X395634Y382406D01*
X395538Y382431D01*
X395440Y382452D01*
X395342Y382469D01*
X395244Y382482D01*
X395145Y382491D01*
X395045Y382497D01*
X394946Y382499D01*
X391051Y382499D01*
X391051Y387692D01*
X397542Y387692D01*
M02*
