G04 EAGLE Gerber RS-274X export*
G75*
%MOMM*%
%FSLAX34Y34*%
%LPD*%
%INSilkscreen Bottom*%
%IPPOS*%
%AMOC8*
5,1,8,0,0,1.08239X$1,22.5*%
G01*
%ADD10C,0.203200*%
%ADD11C,0.127000*%


D10*
X85640Y144190D02*
X91990Y150540D01*
X104690Y150540D02*
X111040Y144190D01*
X117390Y150540D01*
X130090Y150540D02*
X136440Y144190D01*
X142790Y150540D01*
X155490Y150540D02*
X161840Y144190D01*
X85640Y144190D02*
X85640Y106090D01*
X91990Y99740D01*
X104690Y99740D01*
X111040Y106090D01*
X117390Y99740D01*
X130090Y99740D01*
X136440Y106090D01*
X142790Y99740D01*
X155490Y99740D01*
X161840Y106090D01*
X111040Y106090D02*
X111040Y144190D01*
X136440Y144190D02*
X136440Y106090D01*
X161840Y106090D02*
X161840Y144190D01*
X155490Y150540D02*
X142790Y150540D01*
X130090Y150540D02*
X117390Y150540D01*
X104690Y150540D02*
X91990Y150540D01*
X91990Y153890D02*
X104690Y153890D01*
D11*
X91904Y96565D02*
X91904Y92811D01*
X91906Y92746D01*
X91912Y92682D01*
X91922Y92618D01*
X91935Y92554D01*
X91953Y92492D01*
X91974Y92431D01*
X91998Y92371D01*
X92027Y92313D01*
X92059Y92256D01*
X92094Y92202D01*
X92132Y92150D01*
X92174Y92100D01*
X92218Y92053D01*
X92265Y92009D01*
X92315Y91967D01*
X92367Y91929D01*
X92421Y91894D01*
X92478Y91862D01*
X92536Y91833D01*
X92596Y91809D01*
X92657Y91788D01*
X92719Y91770D01*
X92783Y91757D01*
X92847Y91747D01*
X92911Y91741D01*
X92976Y91739D01*
X93513Y91739D01*
X88956Y95493D02*
X87616Y96565D01*
X87616Y91739D01*
X88956Y91739D02*
X86275Y91739D01*
M02*
