G04 EAGLE Gerber RS-274X export*
G75*
%MOMM*%
%FSLAX34Y34*%
%LPD*%
%INSoldermask Bottom*%
%IPPOS*%
%AMOC8*
5,1,8,0,0,1.08239X$1,22.5*%
G01*
%ADD10C,3.203200*%
%ADD11C,2.082800*%
%ADD12R,1.733200X1.733200*%
%ADD13C,1.653200*%
%ADD14C,1.311200*%
%ADD15P,1.951982X8X22.500000*%
%ADD16C,1.803400*%
%ADD17C,0.959600*%


D10*
X500140Y398940D03*
X45840Y401660D03*
D11*
X98340Y137840D03*
X98340Y112440D03*
X123740Y137840D03*
X123740Y112440D03*
X149140Y137840D03*
X149140Y112440D03*
X204212Y373444D03*
X139188Y373444D03*
X204212Y418656D03*
X139188Y418656D03*
D12*
X204600Y329400D03*
X179200Y329400D03*
X153800Y329400D03*
X128400Y329400D03*
X103000Y329400D03*
X77600Y329400D03*
D10*
X52450Y51340D03*
X501550Y47360D03*
D13*
X319300Y392100D03*
X269300Y392100D03*
D14*
X329300Y413560D02*
X329300Y424640D01*
X259300Y424640D02*
X259300Y413560D01*
D15*
X403200Y294500D03*
D16*
X377800Y294500D03*
D15*
X421400Y216500D03*
D16*
X396000Y216500D03*
D17*
X272000Y168000D03*
X298000Y196000D03*
X372000Y186000D03*
X220027Y196024D03*
X344043Y140018D03*
X168021Y184023D03*
X197358Y213360D03*
X208026Y172687D03*
X224028Y53340D03*
X306705Y132017D03*
X184023Y237363D03*
M02*
