M48
;GenerationSoftware,Autodesk,EAGLE,9.3.0*%
;CreationDate,2019-11-04T09:00:13Z*%
FMAT,2
ICI,OFF
METRIC,TZ,000.000
T1C1.016
%
G90
M71
T1
X8890Y21590
X11430Y21590
X13970Y21590
X16510Y21590
X19050Y21590
X19050Y19050
X16510Y19050
X13970Y19050
X11430Y19050
X8890Y19050
X26670Y8890
X24130Y8890
X21590Y8890
X19050Y8890
X16510Y8890
X13970Y8890
X26670Y6350
X24130Y6350
X21590Y6350
X19050Y6350
X16510Y6350
X13970Y6350
X11430Y8890
X8890Y8890
X11430Y6350
X8890Y6350
X6350Y8890
X6350Y6350
X3810Y8890
X3810Y6350
M30