G04 EAGLE Gerber RS-274X export*
G75*
%MOMM*%
%FSLAX34Y34*%
%LPD*%
%INSolderpaste Top*%
%IPPOS*%
%AMOC8*
5,1,8,0,0,1.08239X$1,22.5*%
G01*
%ADD10R,1.500000X1.300000*%
%ADD11R,1.300000X1.500000*%
%ADD12R,1.900000X1.100000*%
%ADD13R,1.600000X1.300000*%
%ADD14R,0.700000X1.100000*%
%ADD15R,1.500000X0.280000*%
%ADD16R,0.280000X1.500000*%
%ADD17R,1.550000X2.200000*%
%ADD18R,1.473200X0.355600*%
%ADD19R,2.387600X3.403600*%
%ADD20R,2.500000X3.250000*%
%ADD21R,2.700000X1.800000*%
%ADD22R,1.219000X2.235000*%
%ADD23R,3.600000X2.200000*%
%ADD24R,3.250000X2.500000*%
%ADD25R,3.000000X1.600000*%
%ADD26R,4.191000X4.826000*%
%ADD27R,1.000000X2.300000*%
%ADD28R,1.651000X0.431800*%
%ADD29R,5.334000X1.930400*%
%ADD30R,1.400000X1.200000*%
%ADD31R,1.000000X2.450000*%
%ADD32R,2.450000X1.000000*%
%ADD33R,0.500000X0.700000*%
%ADD34R,0.600000X1.000000*%
%ADD35R,0.600000X0.600000*%
%ADD36R,1.700000X1.900000*%
%ADD37R,0.400000X1.350000*%
%ADD38R,1.500000X1.900000*%
%ADD39R,1.800000X1.900000*%
%ADD40R,1.200000X0.600000*%


D10*
X256540Y188620D03*
X256540Y207620D03*
X94107Y365100D03*
X94107Y346100D03*
X190500Y113640D03*
X190500Y94640D03*
X127000Y365100D03*
X127000Y346100D03*
D11*
X311760Y106680D03*
X292760Y106680D03*
X292760Y205740D03*
X311760Y205740D03*
D12*
X302260Y169980D03*
X302260Y144980D03*
D13*
X160020Y113640D03*
X160020Y94640D03*
D14*
X325120Y294640D03*
X325120Y259640D03*
X280620Y259640D03*
X280620Y294640D03*
D15*
X227920Y155380D03*
X227920Y160380D03*
X227920Y165380D03*
X227920Y170380D03*
X227920Y175380D03*
X227920Y180380D03*
X227920Y185380D03*
X227920Y190380D03*
X227920Y195380D03*
X227920Y200380D03*
X227920Y205380D03*
X227920Y210380D03*
D16*
X212920Y225380D03*
X207920Y225380D03*
X202920Y225380D03*
X197920Y225380D03*
X192920Y225380D03*
X187920Y225380D03*
X182920Y225380D03*
X177920Y225380D03*
X172920Y225380D03*
X167920Y225380D03*
X162920Y225380D03*
X157920Y225380D03*
D15*
X142920Y210380D03*
X142920Y205380D03*
X142920Y200380D03*
X142920Y195380D03*
X142920Y190380D03*
X142920Y185380D03*
X142920Y180380D03*
X142920Y175380D03*
X142920Y170380D03*
X142920Y165380D03*
X142920Y160380D03*
X142920Y155380D03*
D16*
X157920Y140380D03*
X162920Y140380D03*
X167920Y140380D03*
X172920Y140380D03*
X177920Y140380D03*
X182920Y140380D03*
X187920Y140380D03*
X192920Y140380D03*
X197920Y140380D03*
X202920Y140380D03*
X207920Y140380D03*
X212920Y140380D03*
D17*
X787400Y365940D03*
X787400Y324940D03*
D10*
X787400Y404520D03*
X787400Y423520D03*
D18*
X537210Y351790D03*
X537210Y345440D03*
X537210Y338836D03*
X537210Y332232D03*
X537210Y325882D03*
X537210Y319278D03*
X537210Y312928D03*
X537210Y306324D03*
X537210Y299720D03*
X537210Y293370D03*
X595630Y293370D03*
X595630Y299720D03*
X595630Y306324D03*
X595630Y312928D03*
X595630Y319278D03*
X595630Y325882D03*
X595630Y332232D03*
X595630Y338836D03*
X595630Y345440D03*
X595630Y351790D03*
D19*
X566420Y322580D03*
D10*
X452120Y259740D03*
X452120Y278740D03*
D11*
X399440Y388620D03*
X418440Y388620D03*
D10*
X490474Y242722D03*
X490474Y261722D03*
D11*
X418440Y416560D03*
X399440Y416560D03*
D10*
X452120Y405740D03*
X452120Y386740D03*
D11*
X556920Y269240D03*
X575920Y269240D03*
D10*
X622300Y446380D03*
X622300Y427380D03*
D20*
X731040Y411480D03*
X671040Y411480D03*
D10*
X662940Y522580D03*
X662940Y503580D03*
X635000Y522580D03*
X635000Y503580D03*
D11*
X628040Y325120D03*
X647040Y325120D03*
X628040Y347980D03*
X647040Y347980D03*
D21*
X629920Y240480D03*
X629920Y284480D03*
D22*
X324870Y451610D03*
X347980Y451610D03*
X371090Y451610D03*
D23*
X347980Y513590D03*
D10*
X325120Y396900D03*
X325120Y415900D03*
D24*
X345440Y616740D03*
X345440Y556740D03*
D25*
X424420Y612080D03*
X424420Y566480D03*
D26*
X485780Y589280D03*
D11*
X418440Y335280D03*
X399440Y335280D03*
D10*
X452120Y320700D03*
X452120Y339700D03*
D11*
X399440Y304800D03*
X418440Y304800D03*
X418440Y363220D03*
X399440Y363220D03*
D10*
X370840Y338480D03*
X370840Y357480D03*
X370840Y311760D03*
X370840Y292760D03*
X340360Y338480D03*
X340360Y357480D03*
D27*
X279400Y372600D03*
X279400Y338350D03*
D28*
X707898Y199644D03*
X707898Y193294D03*
X707898Y186690D03*
X707898Y180340D03*
X707898Y173736D03*
X707898Y167132D03*
X707898Y160782D03*
X707898Y154178D03*
X707898Y147828D03*
X707898Y141224D03*
X707898Y134620D03*
X707898Y128270D03*
X707898Y121666D03*
X707898Y115316D03*
X780542Y115316D03*
X780542Y121666D03*
X780542Y128270D03*
X780542Y134620D03*
X780542Y141224D03*
X780542Y147828D03*
X780542Y154178D03*
X780542Y160782D03*
X780542Y167132D03*
X780542Y173736D03*
X780542Y180340D03*
X780542Y186690D03*
X780542Y193294D03*
X780542Y199644D03*
D10*
X706120Y311760D03*
X706120Y292760D03*
X706120Y268580D03*
X706120Y249580D03*
X734060Y288900D03*
X734060Y269900D03*
X668020Y102260D03*
X668020Y121260D03*
X638099Y146862D03*
X638099Y165862D03*
X638480Y121336D03*
X638480Y102336D03*
D13*
X762000Y266700D03*
X762000Y297180D03*
D11*
X674980Y200660D03*
X655980Y200660D03*
X669900Y76200D03*
X650900Y76200D03*
X473100Y137160D03*
X492100Y137160D03*
X385420Y137160D03*
X366420Y137160D03*
D29*
X477520Y182880D03*
X381000Y182880D03*
D10*
X157480Y267360D03*
X157480Y286360D03*
X208280Y267360D03*
X208280Y286360D03*
X182880Y267360D03*
X182880Y286360D03*
D11*
X219100Y91440D03*
X238100Y91440D03*
D10*
X848360Y290220D03*
X848360Y309220D03*
X952500Y290220D03*
X952500Y309220D03*
D30*
X518160Y418860D03*
X518160Y388860D03*
D10*
X518160Y440080D03*
X518160Y459080D03*
X490220Y440080D03*
X490220Y459080D03*
X462280Y440080D03*
X462280Y459080D03*
D30*
X259080Y294400D03*
X259080Y264400D03*
X236220Y294400D03*
X236220Y264400D03*
D31*
X120840Y395230D03*
X134840Y395230D03*
X148840Y395230D03*
X162840Y395230D03*
X176840Y395230D03*
X190840Y395230D03*
X204840Y395230D03*
X218840Y395230D03*
D32*
X241790Y413280D03*
X241790Y427280D03*
X241790Y441280D03*
X241790Y455280D03*
X241790Y469280D03*
X241790Y483280D03*
X241790Y497280D03*
X241790Y511280D03*
D31*
X218840Y529330D03*
X204840Y529330D03*
X190840Y529330D03*
X176840Y529330D03*
X162840Y529330D03*
X148840Y529330D03*
X134840Y529330D03*
X120840Y529330D03*
D13*
X147320Y578460D03*
X147320Y559460D03*
D10*
X65684Y345719D03*
X65684Y364719D03*
X39014Y346735D03*
X39014Y365735D03*
D30*
X64135Y325058D03*
X64135Y295058D03*
X41656Y325439D03*
X41656Y295439D03*
D33*
X27940Y75780D03*
X27940Y86780D03*
D34*
X60300Y89020D03*
D35*
X60300Y106020D03*
X41300Y106020D03*
X41300Y87020D03*
D36*
X879448Y424730D03*
X828448Y424730D03*
X828448Y334730D03*
X879448Y334730D03*
X974190Y426254D03*
X923190Y426254D03*
X923190Y336254D03*
X974190Y336254D03*
D37*
X44150Y47070D03*
X50650Y47070D03*
X57150Y47070D03*
X63650Y47070D03*
X70150Y47070D03*
D38*
X47150Y20320D03*
X67150Y20320D03*
D39*
X25150Y20320D03*
X89150Y20320D03*
D11*
X400456Y496570D03*
X419456Y496570D03*
X410108Y521208D03*
X429108Y521208D03*
D40*
X582984Y447446D03*
X582984Y456946D03*
X582984Y466446D03*
X557984Y466446D03*
X557984Y447446D03*
D11*
X525424Y490982D03*
X544424Y490982D03*
D10*
X565912Y417932D03*
X565912Y398932D03*
M02*
