G04 EAGLE Gerber RS-274X export*
G75*
%MOMM*%
%FSLAX34Y34*%
%LPD*%
%INSoldermask Top*%
%IPPOS*%
%AMOC8*
5,1,8,0,0,1.08239X$1,22.5*%
G01*
%ADD10R,1.703200X1.503200*%
%ADD11R,1.503200X1.703200*%
%ADD12R,2.103200X1.303200*%
%ADD13R,1.803200X1.503200*%
%ADD14R,0.903200X1.303200*%
%ADD15R,1.703200X0.483200*%
%ADD16R,0.483200X1.703200*%
%ADD17R,1.753200X2.403200*%
%ADD18R,1.676400X0.558800*%
%ADD19R,2.590800X3.606800*%
%ADD20P,1.951982X8X202.500000*%
%ADD21C,1.803400*%
%ADD22R,2.703200X3.453200*%
%ADD23R,2.903200X2.003200*%
%ADD24R,1.422200X2.438200*%
%ADD25R,3.803200X2.403200*%
%ADD26R,3.453200X2.703200*%
%ADD27R,3.203200X1.803200*%
%ADD28R,4.394200X5.029200*%
%ADD29R,1.203200X2.503200*%
%ADD30C,1.625600*%
%ADD31R,1.854200X0.635000*%
%ADD32R,5.537200X2.133600*%
%ADD33C,1.625600*%
%ADD34P,1.759533X8X202.500000*%
%ADD35C,1.803200*%
%ADD36C,1.653200*%
%ADD37C,2.003200*%
%ADD38C,3.453200*%
%ADD39C,2.703200*%
%ADD40R,1.603200X1.403200*%
%ADD41R,1.203200X2.653200*%
%ADD42R,2.653200X1.203200*%
%ADD43R,0.703200X0.903200*%
%ADD44R,0.803200X1.203200*%
%ADD45R,0.803200X0.803200*%
%ADD46R,1.903200X2.103200*%
%ADD47R,0.603200X1.553200*%
%ADD48R,1.703200X2.103200*%
%ADD49R,2.003200X2.103200*%
%ADD50C,1.311200*%
%ADD51R,1.403200X0.803200*%
%ADD52C,3.203200*%
%ADD53C,0.959600*%


D10*
X256540Y188620D03*
X256540Y207620D03*
X96520Y365100D03*
X96520Y346100D03*
X190500Y113640D03*
X190500Y94640D03*
X127000Y365100D03*
X127000Y346100D03*
D11*
X311760Y106680D03*
X292760Y106680D03*
X292760Y205740D03*
X311760Y205740D03*
D12*
X302260Y169980D03*
X302260Y144980D03*
D13*
X160020Y113640D03*
X160020Y94640D03*
D14*
X325120Y294640D03*
X325120Y259640D03*
X280620Y259640D03*
X280620Y294640D03*
D15*
X227920Y155380D03*
X227920Y160380D03*
X227920Y165380D03*
X227920Y170380D03*
X227920Y175380D03*
X227920Y180380D03*
X227920Y185380D03*
X227920Y190380D03*
X227920Y195380D03*
X227920Y200380D03*
X227920Y205380D03*
X227920Y210380D03*
D16*
X212920Y225380D03*
X207920Y225380D03*
X202920Y225380D03*
X197920Y225380D03*
X192920Y225380D03*
X187920Y225380D03*
X182920Y225380D03*
X177920Y225380D03*
X172920Y225380D03*
X167920Y225380D03*
X162920Y225380D03*
X157920Y225380D03*
D15*
X142920Y210380D03*
X142920Y205380D03*
X142920Y200380D03*
X142920Y195380D03*
X142920Y190380D03*
X142920Y185380D03*
X142920Y180380D03*
X142920Y175380D03*
X142920Y170380D03*
X142920Y165380D03*
X142920Y160380D03*
X142920Y155380D03*
D16*
X157920Y140380D03*
X162920Y140380D03*
X167920Y140380D03*
X172920Y140380D03*
X177920Y140380D03*
X182920Y140380D03*
X187920Y140380D03*
X192920Y140380D03*
X197920Y140380D03*
X202920Y140380D03*
X207920Y140380D03*
X212920Y140380D03*
D17*
X787400Y365940D03*
X787400Y324940D03*
D10*
X787400Y404520D03*
X787400Y423520D03*
D18*
X537210Y351790D03*
X537210Y345440D03*
X537210Y338836D03*
X537210Y332232D03*
X537210Y325882D03*
X537210Y319278D03*
X537210Y312928D03*
X537210Y306324D03*
X537210Y299720D03*
X537210Y293370D03*
X595630Y293370D03*
X595630Y299720D03*
X595630Y306324D03*
X595630Y312928D03*
X595630Y319278D03*
X595630Y325882D03*
X595630Y332232D03*
X595630Y338836D03*
X595630Y345440D03*
X595630Y351790D03*
D19*
X566420Y322580D03*
D10*
X452120Y259740D03*
X452120Y278740D03*
D11*
X399440Y388620D03*
X418440Y388620D03*
X394360Y246380D03*
X413360Y246380D03*
X418440Y416560D03*
X399440Y416560D03*
D10*
X452120Y405740D03*
X452120Y386740D03*
D11*
X556920Y269240D03*
X575920Y269240D03*
D10*
X622300Y446380D03*
X622300Y427380D03*
D20*
X721360Y510540D03*
D21*
X756920Y510540D03*
D22*
X731040Y411480D03*
X671040Y411480D03*
D10*
X662940Y522580D03*
X662940Y503580D03*
X635000Y522580D03*
X635000Y503580D03*
D11*
X628040Y325120D03*
X647040Y325120D03*
X628040Y347980D03*
X647040Y347980D03*
D23*
X629920Y240480D03*
X629920Y284480D03*
D24*
X324870Y451610D03*
X347980Y451610D03*
X371090Y451610D03*
D25*
X347980Y513590D03*
D10*
X325120Y396900D03*
X325120Y415900D03*
D26*
X345440Y616740D03*
X345440Y556740D03*
D27*
X424420Y612080D03*
X424420Y566480D03*
D28*
X485780Y589280D03*
D11*
X418440Y335280D03*
X399440Y335280D03*
D10*
X452120Y320700D03*
X452120Y339700D03*
D11*
X399440Y304800D03*
X418440Y304800D03*
X418440Y363220D03*
X399440Y363220D03*
D10*
X370840Y338480D03*
X370840Y357480D03*
X370840Y311760D03*
X370840Y292760D03*
X340360Y338480D03*
X340360Y357480D03*
D29*
X279400Y372600D03*
X279400Y338350D03*
D30*
X630428Y566420D02*
X644652Y566420D01*
X644652Y591820D02*
X630428Y591820D01*
D31*
X707898Y199644D03*
X707898Y193294D03*
X707898Y186690D03*
X707898Y180340D03*
X707898Y173736D03*
X707898Y167132D03*
X707898Y160782D03*
X707898Y154178D03*
X707898Y147828D03*
X707898Y141224D03*
X707898Y134620D03*
X707898Y128270D03*
X707898Y121666D03*
X707898Y115316D03*
X780542Y115316D03*
X780542Y121666D03*
X780542Y128270D03*
X780542Y134620D03*
X780542Y141224D03*
X780542Y147828D03*
X780542Y154178D03*
X780542Y160782D03*
X780542Y167132D03*
X780542Y173736D03*
X780542Y180340D03*
X780542Y186690D03*
X780542Y193294D03*
X780542Y199644D03*
D10*
X706120Y311760D03*
X706120Y292760D03*
X706120Y268580D03*
X706120Y249580D03*
X734060Y288900D03*
X734060Y269900D03*
X668020Y102260D03*
X668020Y121260D03*
X668020Y147980D03*
X668020Y166980D03*
X637540Y144120D03*
X637540Y125120D03*
D13*
X762000Y266700D03*
X762000Y297180D03*
D11*
X674980Y200660D03*
X655980Y200660D03*
X669900Y76200D03*
X650900Y76200D03*
X473100Y137160D03*
X492100Y137160D03*
X385420Y137160D03*
X366420Y137160D03*
D32*
X477520Y182880D03*
X381000Y182880D03*
D10*
X157480Y267360D03*
X157480Y286360D03*
X208280Y267360D03*
X208280Y286360D03*
X182880Y267360D03*
X182880Y286360D03*
D33*
X243840Y30480D03*
D34*
X243840Y55880D03*
X218440Y30480D03*
X218440Y55880D03*
X193040Y30480D03*
X193040Y55880D03*
X167640Y30480D03*
X167640Y55880D03*
X142240Y30480D03*
X142240Y55880D03*
D11*
X219100Y91440D03*
X238100Y91440D03*
D35*
X886370Y208260D03*
X866070Y208260D03*
X845770Y208260D03*
X876220Y233660D03*
X855920Y233660D03*
X835620Y233660D03*
D36*
X952520Y137160D03*
X840720Y137160D03*
X952520Y121760D03*
X840720Y121760D03*
D37*
X957520Y259060D03*
X932120Y259060D03*
X861020Y259060D03*
X835620Y259060D03*
D38*
X960120Y55860D03*
X833120Y55860D03*
D39*
X977270Y24160D03*
X815970Y24160D03*
D10*
X848360Y290220D03*
X848360Y309220D03*
X952500Y290220D03*
X952500Y309220D03*
D40*
X518160Y418860D03*
X518160Y388860D03*
D10*
X518160Y440080D03*
X518160Y459080D03*
X490220Y440080D03*
X490220Y459080D03*
X462280Y440080D03*
X462280Y459080D03*
D40*
X259080Y294400D03*
X259080Y264400D03*
X236220Y294400D03*
X236220Y264400D03*
D41*
X120840Y395230D03*
X134840Y395230D03*
X148840Y395230D03*
X162840Y395230D03*
X176840Y395230D03*
X190840Y395230D03*
X204840Y395230D03*
X218840Y395230D03*
D42*
X241790Y413280D03*
X241790Y427280D03*
X241790Y441280D03*
X241790Y455280D03*
X241790Y469280D03*
X241790Y483280D03*
X241790Y497280D03*
X241790Y511280D03*
D41*
X218840Y529330D03*
X204840Y529330D03*
X190840Y529330D03*
X176840Y529330D03*
X162840Y529330D03*
X148840Y529330D03*
X134840Y529330D03*
X120840Y529330D03*
D13*
X147320Y578460D03*
X147320Y559460D03*
D10*
X68580Y346100D03*
X68580Y365100D03*
X43180Y346100D03*
X43180Y365100D03*
D40*
X68580Y324880D03*
X68580Y294880D03*
X45720Y324880D03*
X45720Y294880D03*
D43*
X27940Y75780D03*
X27940Y86780D03*
D44*
X60300Y89020D03*
D45*
X60300Y106020D03*
X41300Y106020D03*
X41300Y87020D03*
D30*
X490220Y511048D02*
X490220Y525272D01*
X464820Y525272D02*
X464820Y511048D01*
X850138Y455676D02*
X864362Y455676D01*
X864362Y481076D02*
X850138Y481076D01*
D46*
X879448Y424730D03*
X828448Y424730D03*
X828448Y334730D03*
X879448Y334730D03*
X974190Y426254D03*
X923190Y426254D03*
X923190Y336254D03*
X974190Y336254D03*
D36*
X32150Y47320D03*
X82150Y47320D03*
D47*
X44150Y47070D03*
X50650Y47070D03*
X57150Y47070D03*
X63650Y47070D03*
X70150Y47070D03*
D48*
X47150Y20320D03*
X67150Y20320D03*
D49*
X25150Y20320D03*
X89150Y20320D03*
D50*
X22150Y14780D02*
X22150Y25860D01*
X92150Y25860D02*
X92150Y14780D01*
D11*
X400456Y496570D03*
X419456Y496570D03*
X410108Y521208D03*
X429108Y521208D03*
D51*
X582984Y447446D03*
X582984Y456946D03*
X582984Y466446D03*
X557984Y466446D03*
X557984Y447446D03*
D11*
X525424Y490982D03*
X544424Y490982D03*
D10*
X565912Y417932D03*
X565912Y398932D03*
D52*
X443484Y49530D03*
X60960Y628142D03*
X939038Y626872D03*
D53*
X532892Y454406D03*
X180594Y205232D03*
X507238Y489966D03*
X193548Y196596D03*
X195072Y179832D03*
X153924Y352044D03*
X109728Y321564D03*
X431800Y537464D03*
X469392Y312674D03*
X704088Y437388D03*
X919226Y212852D03*
X898652Y178054D03*
X628904Y376936D03*
X643128Y429768D03*
X295656Y339852D03*
X326136Y339852D03*
X391668Y348996D03*
X595122Y488188D03*
X435610Y329438D03*
X467868Y325882D03*
X818388Y219456D03*
X693420Y143256D03*
X693420Y129540D03*
X722376Y128016D03*
X722376Y248412D03*
X684276Y149352D03*
X681228Y129540D03*
X750824Y164084D03*
X397764Y147828D03*
X762000Y166116D03*
X501396Y156972D03*
X222504Y295656D03*
X672084Y179832D03*
X272796Y284988D03*
X684276Y176784D03*
X173736Y301752D03*
X693420Y176784D03*
X126492Y333756D03*
X192024Y504444D03*
X140208Y330708D03*
X199644Y510540D03*
X163068Y207264D03*
X195072Y239268D03*
X280416Y316992D03*
X483108Y428244D03*
X140208Y339852D03*
X230124Y522732D03*
X68580Y312420D03*
X190500Y434340D03*
M02*
