M48
;GenerationSoftware,Autodesk,EAGLE,9.3.0*%
;CreationDate,2019-10-12T17:27:27Z*%
FMAT,2
ICI,OFF
METRIC,TZ,000.000
T7C0.350
T6C0.600
T5C0.813
T4C0.850
T3C1.016
T2C1.020
T1C3.000
%
G90
M71
T1
X50014Y39894
X4584Y40166
X5245Y5134
X50155Y4736
T2
X10300Y32940
X12840Y32940
X15380Y32940
X17920Y32940
X20460Y32940
X7760Y32940
T3
X14914Y13784
X13919Y41866
X20421Y41866
X13919Y37344
X20421Y37344
X14914Y11244
X9834Y13784
X9834Y11244
X12374Y13784
X12374Y11244
T4
X31930Y39210
X26930Y39210
T5
X39600Y21650
X40320Y29450
X37780Y29450
X42140Y21650
T6
X32930Y41910
X25930Y41910
T7
X34404Y14002
X22003Y19602
X37200Y18600
X29800Y19600
X18402Y23736
X30670Y13202
X22403Y5334
X20803Y17269
X19736Y21336
X16802Y18402
X27200Y16800
M30