<?xml version="1.0" encoding="UTF-8" standalone="no"?>
<!-- Created with Inkscape (http://www.inkscape.org/) -->

<svg
   xmlns:dc="http://purl.org/dc/elements/1.1/"
   xmlns:cc="http://creativecommons.org/ns#"
   xmlns:rdf="http://www.w3.org/1999/02/22-rdf-syntax-ns#"
   xmlns:svg="http://www.w3.org/2000/svg"
   xmlns="http://www.w3.org/2000/svg"
   xmlns:sodipodi="http://sodipodi.sourceforge.net/DTD/sodipodi-0.dtd"
   xmlns:inkscape="http://www.inkscape.org/namespaces/inkscape"
   width="73.403122mm"
   height="38.403118mm"
   viewBox="0 0 73.403122 38.403118"
   version="1.1"
   id="svg2730"
   inkscape:version="0.92.2 (5c3e80d, 2017-08-06)"
   sodipodi:docname="Back.svg">
  <defs
     id="defs2724" />
  <sodipodi:namedview
     id="base"
     pagecolor="#ffffff"
     bordercolor="#666666"
     borderopacity="1.0"
     inkscape:pageopacity="0.0"
     inkscape:pageshadow="2"
     inkscape:zoom="1.4"
     inkscape:cx="49.06581"
     inkscape:cy="36.782261"
     inkscape:document-units="mm"
     inkscape:current-layer="layer1"
     showgrid="false"
     fit-margin-top="0"
     fit-margin-left="0"
     fit-margin-right="0"
     fit-margin-bottom="0"
     inkscape:window-width="1440"
     inkscape:window-height="828"
     inkscape:window-x="0"
     inkscape:window-y="23"
     inkscape:window-maximized="0" />
  <metadata
     id="metadata2727">
    <rdf:RDF>
      <cc:Work
         rdf:about="">
        <dc:format>image/svg+xml</dc:format>
        <dc:type
           rdf:resource="http://purl.org/dc/dcmitype/StillImage" />
        <dc:title></dc:title>
      </cc:Work>
    </rdf:RDF>
  </metadata>
  <g
     inkscape:label="Laag 1"
     inkscape:groupmode="layer"
     id="layer1"
     transform="translate(29.612947,-112.60266)">
    <path
       inkscape:connector-curvature="0"
       style="fill:none;stroke:#ff0000;stroke-width:0.3;stroke-linecap:butt;stroke-linejoin:miter;stroke-miterlimit:10;stroke-dasharray:none;stroke-opacity:1"
       d="m -25.411384,150.90578 h 12.5 m 0,0 c 0.05469,0 0.101562,-0.043 0.101562,-0.10156 m 0,0 v -4 c 0,0.0547 -0.04297,0.10156 -0.101562,0.10156 m 0,0 h 8 c -0.05469,0 -0.101562,-0.043 -0.101562,-0.10156 m 0,0 v 4 c 0,0.0547 0.04297,0.10156 0.101562,0.10156 m 0,0 h 8 m 0,0 c 0.05469,0 0.101561,-0.043 0.101561,-0.10156 m 0,0 v -4 c 0,0.0547 -0.04297,0.10156 -0.101561,0.10156 m 0,0 h 8 c -0.05469,0 -0.101563,-0.043 -0.101563,-0.10156 m 0,0 v 4 c 0,0.0547 0.04297,0.10156 0.101563,0.10156 m 0,0 h 8 m 0,0 c 0.05469,0 0.10156,-0.043 0.10156,-0.10156 m 0,0 v -4 c 0,0.0547 -0.04297,0.10156 -0.10156,0.10156 m 0,0 h 8 c -0.05469,0 -0.101563,-0.043 -0.101563,-0.10156 m 0,0 v 4 c 0,0.0547 0.04297,0.10156 0.101563,0.10156 m 0,0 h 12.499999 m 0,0 h 4 c 0.05469,0 0.101563,-0.043 0.101563,-0.10156 m 0,0 v -4 m 0,0 v -11 m 0,0 c 0,-0.0547 -0.04297,-0.10156 -0.101563,-0.10156 m 0,0 h -4 c 0.05469,0 0.101563,0.043 0.101563,0.10156 m 0,0 v -8 c 0,0.0547 -0.04297,0.10156 -0.101563,0.10156 m 0,0 h 4 c 0.05469,0 0.101563,-0.043 0.101563,-0.10156 m 0,0 v -11 m 0,0 v -4 c 0,-0.0547 -0.04297,-0.10156 -0.101563,-0.10156 m 0,0 h -4 m 0,0 H 27.088616 m 0,0 c -0.05469,0 -0.101563,0.043 -0.101563,0.10156 m 0,0 v 4 c 0,-0.0547 0.04297,-0.10156 0.101563,-0.10156 m 0,0 h -8 c 0.05469,0 0.10156,0.043 0.10156,0.10156 m 0,0 v -4 c 0,-0.0547 -0.04297,-0.10156 -0.10156,-0.10156 m 0,0 h -8 m 0,0 c -0.05469,0 -0.101563,0.043 -0.101563,0.10156 m 0,0 v 4 c 0,-0.0547 0.04297,-0.10156 0.101563,-0.10156 m 0,0 h -8 c 0.05469,0 0.101561,0.043 0.101561,0.10156 m 0,0 v -4 c 0,-0.0547 -0.04297,-0.10156 -0.101561,-0.10156 m 0,0 h -8 m 0,0 c -0.05469,0 -0.101563,0.043 -0.101563,0.10156 m 0,0 v 4 c 0,-0.0547 0.04297,-0.10156 0.101563,-0.10156 m 0,0 h -8 c 0.05469,0 0.101562,0.043 0.101562,0.10156 m 0,0 v -4 c 0,-0.0547 -0.04297,-0.10156 -0.101562,-0.10156 m 0,0 h -12.5 m 0,0 h -4 c -0.05469,0 -0.101563,0.043 -0.101563,0.10156 m 0,0 v 4 m 0,0 v 11 m 0,0 c 0,0.0547 0.04297,0.10156 0.101563,0.10156 m 0,0 h 4 c -0.05469,0 -0.101563,-0.043 -0.101563,-0.10156 m 0,0 v 8 c 0,-0.0547 0.04297,-0.10156 0.101563,-0.10156 m 0,0 h -4 c -0.05469,0 -0.101563,0.043 -0.101563,0.10156 m 0,0 v 11 m 0,0 1e-6,4 c 0,0.0547 0.04297,0.10156 0.101562,0.10156 m 0,0 h 4"
       id="path935" />
  </g>
</svg>
