<?xml version="1.0" encoding="UTF-8" standalone="no"?>
<!-- Created with Inkscape (http://www.inkscape.org/) -->

<svg
   xmlns:dc="http://purl.org/dc/elements/1.1/"
   xmlns:cc="http://creativecommons.org/ns#"
   xmlns:rdf="http://www.w3.org/1999/02/22-rdf-syntax-ns#"
   xmlns:svg="http://www.w3.org/2000/svg"
   xmlns="http://www.w3.org/2000/svg"
   xmlns:sodipodi="http://sodipodi.sourceforge.net/DTD/sodipodi-0.dtd"
   xmlns:inkscape="http://www.inkscape.org/namespaces/inkscape"
   width="73.40313mm"
   height="118.40313mm"
   viewBox="0 0 73.40313 118.40313"
   version="1.1"
   id="svg918"
   inkscape:version="0.92.2 (5c3e80d, 2017-08-06)"
   sodipodi:docname="Bottom.svg">
  <defs
     id="defs912" />
  <sodipodi:namedview
     id="base"
     pagecolor="#ffffff"
     bordercolor="#666666"
     borderopacity="1.0"
     inkscape:pageopacity="0.0"
     inkscape:pageshadow="2"
     inkscape:zoom="0.98994949"
     inkscape:cx="17.046883"
     inkscape:cy="229.04793"
     inkscape:document-units="mm"
     inkscape:current-layer="layer1"
     showgrid="false"
     fit-margin-top="0"
     fit-margin-left="0"
     fit-margin-right="0"
     fit-margin-bottom="0"
     inkscape:window-width="1440"
     inkscape:window-height="828"
     inkscape:window-x="0"
     inkscape:window-y="23"
     inkscape:window-maximized="0" />
  <metadata
     id="metadata915">
    <rdf:RDF>
      <cc:Work
         rdf:about="">
        <dc:format>image/svg+xml</dc:format>
        <dc:type
           rdf:resource="http://purl.org/dc/dcmitype/StillImage" />
        <dc:title></dc:title>
      </cc:Work>
    </rdf:RDF>
  </metadata>
  <g
     inkscape:label="Laag 1"
     inkscape:groupmode="layer"
     id="layer1"
     transform="translate(-32.090101,-26.887782)">
    <g
       id="g1633"
       style="stroke:#ff0000;stroke-opacity:1">
      <path
         id="path945"
         d="m 36.291664,141.19091 h 12.5 m 0,0 c -0.05469,0 -0.101562,-0.043 -0.101562,-0.10156 m 0,0 v 4 c 0,0.0547 0.04297,0.10156 0.101562,0.10156 m 0,0 h 8 c 0.05469,0 0.101562,-0.043 0.101562,-0.10156 m 0,0 v -4 c 0,0.0547 -0.04297,0.10156 -0.101562,0.10156 m 0,0 h 8 m 0,0 c -0.05469,0 -0.101563,-0.043 -0.101563,-0.10156 m 0,0 v 4 c 0,0.0547 0.04297,0.10156 0.101563,0.10156 m 0,0 h 8 c 0.05469,0 0.101561,-0.043 0.101561,-0.10156 m 0,0 v -4 c 0,0.0547 -0.04297,0.10156 -0.101561,0.10156 m 0,0 h 8 m 0,0 c -0.05469,0 -0.101563,-0.043 -0.101563,-0.10156 m 0,0 v 4 c 0,0.0547 0.04297,0.10156 0.101563,0.10156 m 0,0 h 8 c 0.05469,0 0.10156,-0.043 0.10156,-0.10156 m 0,0 v -4 c 0,0.0547 -0.04297,0.10156 -0.10156,0.10156 m 0,0 h 12.499996 m 0,0 c 0.0547,0 0.10157,-0.043 0.10157,-0.10156 m 0,0 v 0 m 0,0 v -11 m 0,0 c 0,0.0547 -0.043,0.10156 -0.10157,0.10156 m 0,0 h 4 c 0.0547,0 0.10157,-0.043 0.10157,-0.10156 m 0,0 v -8 c 0,-0.0547 -0.043,-0.10157 -0.10157,-0.10157 m 0,0 h -4 c 0.0547,0 0.10157,0.043 0.10157,0.10157 m 0,0 v -8 m 0,0 c 0,0.0547 -0.043,0.10156 -0.10157,0.10156 m 0,0 h 4 c 0.0547,0 0.10157,-0.043 0.10157,-0.10156 m 0,0 v -8 c 0,-0.0547 -0.043,-0.10156 -0.10157,-0.10156 m 0,0 h -4 c 0.0547,0 0.10157,0.043 0.10157,0.10156 m 0,0 v -8 m 0,0 c 0,0.05469 -0.043,0.10156 -0.10157,0.10156 m 0,0 h 4 c 0.0547,0 0.10157,-0.04297 0.10157,-0.10156 m 0,0 v -8 c 0,-0.05469 -0.043,-0.101563 -0.10157,-0.101563 m 0,0 h -4 c 0.0547,0 0.10157,0.04297 0.10157,0.101563 m 0,0 v -8 m 0,0 c 0,0.05469 -0.043,0.101561 -0.10157,0.101561 m 0,0 h 4 c 0.0547,0 0.10157,-0.04297 0.10157,-0.101561 m 0,0 v -8 c 0,-0.05469 -0.043,-0.101562 -0.10157,-0.101562 m 0,0 h -4 c 0.0547,0 0.10157,0.04297 0.10157,0.101562 m 0,0 v -7.999999 m 0,0 c 0,0.05469 -0.043,0.10156 -0.10157,0.10156 m 0,0 h 4 c 0.0547,0 0.10157,-0.04297 0.10157,-0.10156 m 0,0 v -8 c 0,-0.05469 -0.043,-0.101563 -0.10157,-0.101563 m 0,0 h -4 c 0.0547,0 0.10157,0.04297 0.10157,0.101563 m 0,0 V 50.08935 m 0,0 c 0,0.05469 -0.043,0.101562 -0.10157,0.101562 m 0,0 h 4 c 0.0547,0 0.10157,-0.04297 0.10157,-0.101562 m 0,0 v -8 c 0,-0.05469 -0.043,-0.101563 -0.10157,-0.101563 m 0,0 h -4 c 0.0547,0 0.10157,0.04297 0.10157,0.101563 m 0,0 V 31.089352 m 0,0 c 0,-0.0547 -0.043,-0.10157 -0.10157,-0.10157 m 0,0 v 0 m 0,0 H 88.791664 m 0,0 c 0.05469,0 0.10156,0.043 0.10156,0.10157 m 0,0 v -4 c 0,-0.0547 -0.04297,-0.10157 -0.10156,-0.10157 m 0,0 h -8 c -0.05469,0 -0.101563,0.043 -0.101563,0.10157 m 0,0 v 4 c 0,-0.0547 0.04297,-0.10157 0.101563,-0.10157 m 0,0 h -8 m 0,0 c 0.05469,0 0.101561,0.043 0.101561,0.10157 m 0,0 v -4 c 0,-0.0547 -0.04297,-0.10157 -0.101561,-0.10157 m 0,0 h -8 c -0.05469,0 -0.101563,0.043 -0.101563,0.10157 m 0,0 v 4 c 0,-0.0547 0.04297,-0.10157 0.101563,-0.10157 m 0,0 h -8 m 0,0 c 0.05469,0 0.101562,0.043 0.101562,0.10157 m 0,0 v -4 c 0,-0.0547 -0.04297,-0.10157 -0.101562,-0.10157 m 0,0 h -8 c -0.05469,0 -0.101563,0.043 -0.101563,0.10157 m 0,0 v 4 c 0,-0.0547 0.04297,-0.10157 0.101563,-0.10157 m 0,0 h -12.5 m 0,0 c -0.05469,0 -0.101563,0.043 -0.101563,0.10157 m 0,0 v 0 m 0,0 V 42.08935 m 0,0 c 0,-0.05469 0.04297,-0.101563 0.101563,-0.101563 m 0,0 h -4 c -0.05469,0 -0.101563,0.04297 -0.101563,0.101563 m 0,0 v 8 c 0,0.05469 0.04297,0.101562 0.101563,0.101562 m 0,0 h 4 c -0.05469,0 -0.101563,-0.04297 -0.101563,-0.101562 m 0,0 v 8.000001 m 0,0 c 0,-0.05469 0.04297,-0.101563 0.101563,-0.101563 m 0,0 h -4 c -0.05469,0 -0.101563,0.04297 -0.101563,0.101563 m 0,0 v 8 c 0,0.05469 0.04297,0.10156 0.101563,0.10156 m 0,0 h 4 c -0.05469,0 -0.101563,-0.04297 -0.101563,-0.10156 m 0,0 v 7.999999 m 0,0 c 0,-0.05469 0.04297,-0.101562 0.101563,-0.101562 m 0,0 h -4 c -0.05469,0 -0.101563,0.04297 -0.101563,0.101562 m 0,0 v 8 c 0,0.05469 0.04297,0.101561 0.101563,0.101561 m 0,0 h 4 c -0.05469,0 -0.101563,-0.04297 -0.101563,-0.101561 m 0,0 v 8 m 0,0 c 0,-0.05469 0.04297,-0.101563 0.101563,-0.101563 m 0,0 h -4 c -0.05469,0 -0.101563,0.04297 -0.101563,0.101563 m 0,0 v 8 c 0,0.05469 0.04297,0.10156 0.101563,0.10156 m 0,0 h 4 c -0.05469,0 -0.101563,-0.04297 -0.101563,-0.10156 m 0,0 v 8 m 0,0 c 0,-0.0547 0.04297,-0.10156 0.101563,-0.10156 m 0,0 h -4 c -0.05469,0 -0.101563,0.043 -0.101563,0.10156 m 0,0 v 8 c 0,0.0547 0.04297,0.10156 0.101563,0.10156 m 0,0 h 4 c -0.05469,0 -0.101563,-0.043 -0.101563,-0.10156 m 0,0 v 8 m 0,0 c 0,-0.0547 0.04297,-0.10157 0.101563,-0.10157 m 0,0 h -4 c -0.05469,0 -0.101563,0.043 -0.101563,0.10157 m 0,0 v 8 c 0,0.0547 0.04297,0.10156 0.101563,0.10156 m 0,0 h 4 c -0.05469,0 -0.101563,-0.043 -0.101563,-0.10156 m 0,0 1e-6,11 m 0,0 c 0,0.0547 0.04297,0.10156 0.101562,0.10156 m 0,0 v 0"
         style="fill:none;stroke:#ff0000;stroke-width:0.2;stroke-linecap:butt;stroke-linejoin:miter;stroke-miterlimit:10;stroke-opacity:1"
         inkscape:connector-curvature="0" />
      <g
         style="stroke:#ff0000;stroke-opacity:1"
         id="g1294"
         transform="translate(21.12611,-9752.7185)">
        <circle
           style="fill:none;fill-opacity:1;stroke:#ff0000;stroke-width:0.236;stroke-miterlimit:10;stroke-dasharray:none;stroke-opacity:1"
           id="path969"
           cx="-43.400883"
           cy="9870.1094"
           r="1.6321559"
           transform="rotate(90,29.27104,9861.7325)" />
        <circle
           style="fill:none;fill-opacity:1;stroke:#ff0000;stroke-width:0.23600002;stroke-miterlimit:10;stroke-dasharray:none;stroke-opacity:1"
           id="path969-0"
           cx="-43.400883"
           cy="9816.7695"
           r="1.632156"
           transform="rotate(90,29.27104,9861.7325)" />
        <circle
           transform="rotate(90)"
           r="1.6321563"
           cy="-20.912554"
           cx="9874.3535"
           id="path969-0-7-5"
           style="fill:none;fill-opacity:1;stroke:#ff0000;stroke-width:0.23600002;stroke-miterlimit:10;stroke-dasharray:none;stroke-opacity:1" />
        <circle
           transform="rotate(90)"
           r="1.6321561"
           cy="-74.233841"
           cx="9874.3535"
           id="path969-0-7"
           style="fill:none;fill-opacity:1;stroke:#ff0000;stroke-width:0.23600002;stroke-miterlimit:10;stroke-dasharray:none;stroke-opacity:1" />
      </g>
    </g>
  </g>
</svg>
