<?xml version="1.0" encoding="UTF-8" standalone="no"?>
<!-- Created with Inkscape (http://www.inkscape.org/) -->

<svg
   xmlns:dc="http://purl.org/dc/elements/1.1/"
   xmlns:cc="http://creativecommons.org/ns#"
   xmlns:rdf="http://www.w3.org/1999/02/22-rdf-syntax-ns#"
   xmlns:svg="http://www.w3.org/2000/svg"
   xmlns="http://www.w3.org/2000/svg"
   xmlns:sodipodi="http://sodipodi.sourceforge.net/DTD/sodipodi-0.dtd"
   xmlns:inkscape="http://www.inkscape.org/namespaces/inkscape"
   width="73.403122mm"
   height="38.403126mm"
   viewBox="0 0 73.403122 38.403126"
   version="1.1"
   id="svg2137"
   inkscape:version="0.92.2 (5c3e80d, 2017-08-06)"
   sodipodi:docname="Front.svg">
  <defs
     id="defs2131" />
  <sodipodi:namedview
     id="base"
     pagecolor="#ffffff"
     bordercolor="#666666"
     borderopacity="1.0"
     inkscape:pageopacity="0.0"
     inkscape:pageshadow="2"
     inkscape:zoom="1.4"
     inkscape:cx="28.265401"
     inkscape:cy="15.415602"
     inkscape:document-units="mm"
     inkscape:current-layer="layer1"
     showgrid="false"
     fit-margin-top="0"
     fit-margin-left="0"
     fit-margin-right="0"
     fit-margin-bottom="0"
     inkscape:window-width="1440"
     inkscape:window-height="828"
     inkscape:window-x="0"
     inkscape:window-y="23"
     inkscape:window-maximized="0" />
  <metadata
     id="metadata2134">
    <rdf:RDF>
      <cc:Work
         rdf:about="">
        <dc:format>image/svg+xml</dc:format>
        <dc:type
           rdf:resource="http://purl.org/dc/dcmitype/StillImage" />
        <dc:title />
      </cc:Work>
    </rdf:RDF>
  </metadata>
  <g
     inkscape:label="Laag 1"
     inkscape:groupmode="layer"
     id="layer1"
     transform="translate(-29.822189,-39.673455)">
    <g
       id="g2898"
       style="stroke:#ff0000;stroke-opacity:1">
      <rect
         style="fill:none;fill-opacity:1;stroke:#ff0000;stroke-width:0.2;stroke-miterlimit:10;stroke-dasharray:none;stroke-opacity:1"
         id="rect1087"
         width="14.431803"
         height="14.431803"
         x="-66.170586"
         y="9851.2871"
         transform="rotate(90,4893.6493,5016.479)" />
      <rect
         y="9826.7783"
         x="-69.777863"
         height="17.75396"
         width="17.75396"
         id="rect1087-3"
         style="fill:none;fill-opacity:1;stroke:#ff0000;stroke-width:0.24603939;stroke-miterlimit:10;stroke-dasharray:none;stroke-opacity:1"
         transform="rotate(90,4893.6493,5016.479)" />
      <path
         id="path941"
         d="m 34.023752,77.976579 h 12.5 m 0,0 c 0.05469,0 0.101562,-0.043 0.101562,-0.10156 m 0,0 v -4 c 0,0.0547 -0.04297,0.10156 -0.101562,0.10156 m 0,0 h 8 c -0.05469,0 -0.101563,-0.043 -0.101563,-0.10156 m 0,0 10e-7,4 c 0,0.0547 0.04297,0.10156 0.101562,0.10156 m 0,0 h 8 m 0,0 c 0.05469,0 0.101561,-0.043 0.101561,-0.10156 m 0,0 v -4 c 0,0.0547 -0.04297,0.10156 -0.101561,0.10156 m 0,0 h 8 c -0.05469,0 -0.101563,-0.043 -0.101563,-0.10156 m 0,0 v 4 c 0,0.0547 0.04297,0.10156 0.101563,0.10156 m 0,0 h 8 m 0,0 c 0.05469,0 0.10156,-0.043 0.10156,-0.10156 m 0,0 v -4 c 0,0.0547 -0.04297,0.10156 -0.10156,0.10156 m 0,0 h 8 c -0.05469,0 -0.101563,-0.043 -0.101563,-0.10156 m 0,0 v 4 c 0,0.0547 0.04297,0.10156 0.101563,0.10156 m 0,0 H 99.02375 m 0,0 h 4 c 0.0547,0 0.10156,-0.043 0.10156,-0.10156 m 0,0 v -4 m 0,0 v -11 m 0,0 c 0,-0.0547 -0.043,-0.10156 -0.10156,-0.10156 m 0,0 h -4 c 0.0547,0 0.10157,0.043 0.10157,0.10156 m 0,0 v -8 c 0,0.0547 -0.043,0.10156 -0.10157,0.10156 m 0,0 h 4 c 0.0547,0 0.10156,-0.043 0.10156,-0.10156 m 0,0 V 43.875018 m 0,0 v -4 c 0,-0.05469 -0.043,-0.101563 -0.10156,-0.101563 m 0,0 h -4 m 0,0 H 86.523752 m 0,0 c -0.05469,0 -0.101563,0.04297 -0.101563,0.101563 m 0,0 v 4 c 0,-0.05469 0.04297,-0.101563 0.101563,-0.101563 m 0,0 h -8 c 0.05469,0 0.10156,0.04297 0.10156,0.101563 m 0,0 v -4 c 0,-0.05469 -0.04297,-0.101563 -0.10156,-0.101563 m 0,0 h -8 m 0,0 c -0.05469,0 -0.101563,0.04297 -0.101563,0.101563 m 0,0 v 4 c 0,-0.05469 0.04297,-0.101563 0.101563,-0.101563 m 0,0 h -8 c 0.05469,0 0.101561,0.04297 0.101561,0.101563 m 0,0 v -4 c 0,-0.05469 -0.04297,-0.101563 -0.101561,-0.101563 m 0,0 h -8 m 0,0 c -0.05469,0 -0.101563,0.04297 -0.101563,0.101563 m 0,0 v 4 c 0,-0.05469 0.04297,-0.101563 0.101563,-0.101563 m 0,0 h -8 c 0.05469,0 0.101562,0.04297 0.101562,0.101563 m 0,0 v -4 c 0,-0.05469 -0.04297,-0.101563 -0.101562,-0.101563 m 0,0 h -12.5 m 0,0 h -4 c -0.05469,0 -0.101563,0.04297 -0.101563,0.101563 m 0,0 v 4 m 0,0 v 11.000001 m 0,0 c 0,0.0547 0.04297,0.10156 0.101563,0.10156 m 0,0 h 4 c -0.05469,0 -0.101563,-0.043 -0.101563,-0.10156 m 0,0 v 8 c 0,-0.0547 0.04297,-0.10156 0.101563,-0.10156 m 0,0 h -4 c -0.05469,0 -0.101563,0.043 -0.101563,0.10156 m 0,0 v 11 m 0,0 1e-6,4 c 0,0.0547 0.04297,0.10156 0.101562,0.10156 m 0,0 h 4"
         style="fill:none;stroke:#ff0000;stroke-width:0.2;stroke-linecap:butt;stroke-linejoin:miter;stroke-miterlimit:10;stroke-opacity:1"
         inkscape:connector-curvature="0" />
    </g>
  </g>
</svg>
