<?xml version="1.0" encoding="UTF-8" standalone="no"?>
<!-- Created with Inkscape (http://www.inkscape.org/) -->

<svg
   xmlns:dc="http://purl.org/dc/elements/1.1/"
   xmlns:cc="http://creativecommons.org/ns#"
   xmlns:rdf="http://www.w3.org/1999/02/22-rdf-syntax-ns#"
   xmlns:svg="http://www.w3.org/2000/svg"
   xmlns="http://www.w3.org/2000/svg"
   xmlns:sodipodi="http://sodipodi.sourceforge.net/DTD/sodipodi-0.dtd"
   xmlns:inkscape="http://www.inkscape.org/namespaces/inkscape"
   width="73.403122mm"
   height="118.40312mm"
   viewBox="0 0 73.403122 118.40312"
   version="1.1"
   id="svg1521"
   inkscape:version="0.92.2 (5c3e80d, 2017-08-06)"
   sodipodi:docname="Top.svg">
  <defs
     id="defs1515" />
  <sodipodi:namedview
     id="base"
     pagecolor="#ffffff"
     bordercolor="#666666"
     borderopacity="1.0"
     inkscape:pageopacity="0.0"
     inkscape:pageshadow="2"
     inkscape:zoom="0.7"
     inkscape:cx="-378.02221"
     inkscape:cy="411.70194"
     inkscape:document-units="mm"
     inkscape:current-layer="layer1"
     showgrid="false"
     fit-margin-top="0"
     fit-margin-left="0"
     fit-margin-right="0"
     fit-margin-bottom="0"
     inkscape:window-width="1440"
     inkscape:window-height="828"
     inkscape:window-x="0"
     inkscape:window-y="23"
     inkscape:window-maximized="0" />
  <metadata
     id="metadata1518">
    <rdf:RDF>
      <cc:Work
         rdf:about="">
        <dc:format>image/svg+xml</dc:format>
        <dc:type
           rdf:resource="http://purl.org/dc/dcmitype/StillImage" />
        <dc:title />
      </cc:Work>
    </rdf:RDF>
  </metadata>
  <g
     inkscape:label="Laag 1"
     inkscape:groupmode="layer"
     id="layer1"
     transform="translate(34.433702,-80.560387)">
    <g
       id="g4596"
       style="stroke:#ff0000;stroke-width:0.2;stroke-miterlimit:4;stroke-dasharray:none;stroke-opacity:1">
      <g
         style="stroke:#ff0000;stroke-width:0.2;stroke-miterlimit:4;stroke-dasharray:none;stroke-opacity:1"
         id="g1281"
         transform="translate(-120.49925,-9698.9446)">
        <g
           transform="rotate(90,67.056821,9899.315)"
           style="stroke:#ff0000;stroke-width:0.2;stroke-miterlimit:4;stroke-dasharray:none;stroke-opacity:1"
           id="g1224">
          <circle
             style="fill:none;fill-opacity:1;stroke:#ff0000;stroke-width:0.2;stroke-miterlimit:4;stroke-dasharray:none;stroke-opacity:1"
             id="path969-0-3"
             cx="-31.97098"
             cy="9816.9346"
             r="0.93257743" />
        </g>
        <circle
           style="fill:none;fill-opacity:1;stroke:#ff0000;stroke-width:0.2;stroke-miterlimit:4;stroke-dasharray:none;stroke-opacity:1"
           id="path969-0-3-4"
           cx="9853.627"
           cy="-149.43706"
           r="0.93257743"
           transform="rotate(90)" />
      </g>
      <path
         id="path4014"
         d="m -30.232139,194.86351 h 12.5 m 0,0 c -0.05469,0 -0.101562,-0.043 -0.101562,-0.10156 m 0,0 v 4 c 0,0.0547 0.04297,0.10156 0.101562,0.10156 m 0,0 h 7.9999992 c 0.05469,0 0.101562,-0.043 0.101562,-0.10156 m 0,0 v -4 c 0,0.0547 -0.04297,0.10156 -0.101562,0.10156 m 0,0 h 8.0000004 m 0,0 c -0.054692,0 -0.101563,-0.043 -0.101563,-0.10156 m 0,0 v 4 c 0,0.0547 0.042968,0.10156 0.101563,0.10156 m 0,0 h 7.9999998 c 0.054689,0 0.1015604,-0.043 0.1015604,-0.10156 m 0,0 v -4 c 0,0.0547 -0.042968,0.10156 -0.1015604,0.10156 m 0,0 h 8.0000006 m 0,0 c -0.05469,0 -0.101563,-0.043 -0.101563,-0.10156 m 0,0 v 4 c 0,0.0547 0.04297,0.10156 0.101563,0.10156 m 0,0 h 8 c 0.05469,0 0.10156,-0.043 0.10156,-0.10156 m 0,0 v -4 c 0,0.0547 -0.04297,0.10156 -0.10156,0.10156 m 0,0 H 34.76786 m 0,0 c 0.05469,0 0.101563,-0.043 0.101563,-0.10156 m 0,0 v 0 m 0,0 v -11 m 0,0 c 0,0.0547 -0.04297,0.10156 -0.101563,0.10156 m 0,0 h 4 c 0.05469,0 0.101563,-0.043 0.101563,-0.10156 m 0,0 v -8 c 0,-0.0547 -0.04297,-0.10156 -0.101563,-0.10156 m 0,0 h -4 c 0.05469,0 0.101563,0.043 0.101563,0.10156 m 0,0 v -8 m 0,0 c 0,0.0547 -0.04297,0.10156 -0.101563,0.10156 m 0,0 h 4 c 0.05469,0 0.101563,-0.043 0.101563,-0.10156 m 0,0 v -8 c 0,-0.0547 -0.04297,-0.10156 -0.101563,-0.10156 m 0,0 h -4 c 0.05469,0 0.101563,0.043 0.101563,0.10156 m 0,0 v -8 m 0,0 c 0,0.0547 -0.04297,0.10156 -0.101563,0.10156 m 0,0 h 4 c 0.05469,0 0.101563,-0.043 0.101563,-0.10156 m 0,0 v -8 c 0,-0.0547 -0.04297,-0.10156 -0.101563,-0.10156 m 0,0 h -4 c 0.05469,0 0.101563,0.043 0.101563,0.10156 m 0,0 v -8 m 0,0 c 0,0.0547 -0.04297,0.10156 -0.101563,0.10156 m 0,0 h 4 c 0.05469,0 0.101563,-0.043 0.101563,-0.10156 m 0,0 v -8 c 0,-0.0547 -0.04297,-0.10156 -0.101563,-0.10156 m 0,0 h -4 c 0.05469,0 0.101563,0.043 0.101563,0.10156 m 0,0 v -8 m 0,0 c 0,0.0547 -0.04297,0.10156 -0.101563,0.10156 m 0,0 h 4 c 0.05469,0 0.101563,-0.043 0.101563,-0.10156 m 0,0 v -8 c 0,-0.0547 -0.04297,-0.10156 -0.101563,-0.10156 m 0,0 h -4 c 0.05469,0 0.101563,0.043 0.101563,0.10156 m 0,0 v -8 m 0,0 c 0,0.0547 -0.04297,0.10156 -0.101563,0.10156 m 0,0 h 4 c 0.05469,0 0.101563,-0.043 0.101563,-0.10156 m 0,0 v -7.999995 c 0,-0.05469 -0.04297,-0.101563 -0.101563,-0.101563 m 0,0 h -4 c 0.05469,0 0.101563,0.04297 0.101563,0.101563 m 0,0 V 84.761957 m 0,0 c 0,-0.0547 -0.04297,-0.10157 -0.101563,-0.10157 m 0,0 v 0 m 0,0 H 22.267861 m 0,0 c 0.05469,0 0.10156,0.043 0.10156,0.10157 m 0,0 v -4 c 0,-0.0547 -0.04297,-0.10157 -0.10156,-0.10157 m 0,0 h -8 c -0.05469,0 -0.101563,0.043 -0.101563,0.10157 m 0,0 v 4 c 0,-0.0547 0.04297,-0.10157 0.101563,-0.10157 m 0,0 H 6.2678604 m 0,0 c 0.054689,0 0.1015604,0.043 0.1015604,0.10157 m 0,0 v -4 c 0,-0.0547 -0.042968,-0.10157 -0.1015604,-0.10157 m 0,0 h -7.9999998 c -0.054692,0 -0.101563,0.043 -0.101563,0.10157 m 0,0 v 4 c 0,-0.0547 0.042968,-0.10157 0.101563,-0.10157 m 0,0 h -8.0000004 m 0,0 c 0.05469,0 0.101562,0.043 0.101562,0.10157 m 0,0 v -4 c 0,-0.0547 -0.04297,-0.10157 -0.101562,-0.10157 m 0,0 h -7.9999992 c -0.05469,0 -0.101563,0.043 -0.101563,0.10157 m 0,0 v 4 c 0,-0.0547 0.04297,-0.10157 0.101563,-0.10157 m 0,0 h -12.5 m 0,0 c -0.05469,0 -0.101563,0.043 -0.101563,0.10157 m 0,0 v 0 m 0,0 v 10.999998 m 0,0 c 0,-0.05469 0.04297,-0.101563 0.101563,-0.101563 m 0,0 h -4 c -0.05469,0 -0.101563,0.04297 -0.101563,0.101563 m 0,0 v 7.999995 c 0,0.0547 0.04297,0.10156 0.101563,0.10156 m 0,0 h 4 c -0.05469,0 -0.101563,-0.043 -0.101563,-0.10156 m 0,0 v 8 m 0,0 c 0,-0.0547 0.04297,-0.10156 0.101563,-0.10156 m 0,0 h -4 c -0.05469,0 -0.101563,0.043 -0.101563,0.10156 m 0,0 v 8 c 0,0.0547 0.04297,0.10156 0.101563,0.10156 m 0,0 h 4 c -0.05469,0 -0.101563,-0.043 -0.101563,-0.10156 m 0,0 v 8 m 0,0 c 0,-0.0547 0.04297,-0.10156 0.101563,-0.10156 m 0,0 h -4 c -0.05469,0 -0.101563,0.043 -0.101563,0.10156 m 0,0 v 8 c 0,0.0547 0.04297,0.10156 0.101563,0.10156 m 0,0 h 4 c -0.05469,0 -0.101563,-0.043 -0.101563,-0.10156 m 0,0 v 8 m 0,0 c 0,-0.0547 0.04297,-0.10156 0.101563,-0.10156 m 0,0 h -4 c -0.05469,0 -0.101563,0.043 -0.101563,0.10156 m 0,0 v 8 c 0,0.0547 0.04297,0.10156 0.101563,0.10156 m 0,0 h 4 c -0.05469,0 -0.101563,-0.043 -0.101563,-0.10156 m 0,0 v 8 m 0,0 c 0,-0.0547 0.04297,-0.10156 0.101563,-0.10156 m 0,0 h -4 c -0.05469,0 -0.101563,0.043 -0.101563,0.10156 m 0,0 v 8 c 0,0.0547 0.04297,0.10156 0.101563,0.10156 m 0,0 h 4 c -0.05469,0 -0.101563,-0.043 -0.101563,-0.10156 m 0,0 v 8 m 0,0 c 0,-0.0547 0.04297,-0.10156 0.101563,-0.10156 m 0,0 h -4 c -0.05469,0 -0.101563,0.043 -0.101563,0.10156 m 0,0 v 8 c 0,0.0547 0.04297,0.10156 0.101563,0.10156 m 0,0 h 4 c -0.05469,0 -0.101563,-0.043 -0.101563,-0.10156 m 0,0 10e-7,11 m 0,0 c 0,0.0547 0.04297,0.10156 0.101562,0.10156 m 0,0 v 0"
         style="fill:none;stroke:#ff0000;stroke-width:0.2;stroke-linecap:butt;stroke-linejoin:miter;stroke-miterlimit:4;stroke-dasharray:none;stroke-opacity:1"
         inkscape:connector-curvature="0" />
    </g>
  </g>
</svg>
